<?xml version="1.0" encoding="UTF-8" standalone="no"?>
<!-- Generator: Adobe Illustrator 24.3.0, SVG Export Plug-In . SVG Version: 6.00 Build 0)  -->

<svg
   version="1.1"
   id="Layer_1"
   x="0px"
   y="0px"
   viewBox="0 0 2202.72 1499.9999"
   xml:space="preserve"
   sodipodi:docname="1rg.svg"
   width="2202.72"
   height="1500"
   inkscape:export-filename="1rg.png"
   inkscape:export-xdpi="96.410751"
   inkscape:export-ydpi="96.410751"
   inkscape:version="1.4.2 (ebf0e940, 2025-05-08)"
   xmlns:inkscape="http://www.inkscape.org/namespaces/inkscape"
   xmlns:sodipodi="http://sodipodi.sourceforge.net/DTD/sodipodi-0.dtd"
   xmlns="http://www.w3.org/2000/svg"
   xmlns:svg="http://www.w3.org/2000/svg"><defs
   id="defs3" /><sodipodi:namedview
   id="namedview3"
   pagecolor="#ffffff"
   bordercolor="#000000"
   borderopacity="0.25"
   inkscape:showpageshadow="2"
   inkscape:pageopacity="0.0"
   inkscape:pagecheckerboard="0"
   inkscape:deskcolor="#d1d1d1"
   inkscape:zoom="0.13937663"
   inkscape:cx="1094.1576"
   inkscape:cy="850.2143"
   inkscape:window-width="1472"
   inkscape:window-height="920"
   inkscape:window-x="0"
   inkscape:window-y="36"
   inkscape:window-maximized="0"
   inkscape:current-layer="Layer_1" />
<g
   id="g3"
   transform="translate(0,301.34178)">
	<path
   d="m 782.52,85.21 3.93,3.94 V 756.4 l -3.93,3.94 H 451.85 l -3.94,-3.94 V 423.76 h -334.6 v -1.97 C 335.39,197.41 448.24,85.21 451.85,85.21 Z"
   id="path1" />
	<path
   d="m 883.97,85.21 h 330.67 L 1328.8,197.4 h 108.26 l 3.94,3.93 V 309.6 l 110.22,112.19 v 1.97 h -330.67 l 332.64,334.61 -1.96,1.97 H 883.97 l -3.93,-3.94 V 89.15 Z m 389.72,169.28 v 110.22 h 110.22 V 254.49 Z"
   id="path2" />
	<path
   d="m 1642.61,310.09 h 442.86 l 3.93,3.93 v 667.25 l -3.93,3.93 h -218.48 l -3.93,-3.93 220.45,-220.45 h -440.89 l -3.94,-3.93 V 314.02 Z"
   id="path3" />
</g>
</svg>
