<?xml version="1.0" encoding="UTF-8"?>
<svg class="svg-include" xmlns="http://www.w3.org/2000/svg" version="1.1" viewBox="0 0 800 1000">
  <!-- Generator: Adobe Illustrator 29.6.1, SVG Export Plug-In . SVG Version: 2.1.1 Build 9)  -->
  <path style="fill:#fff !important;" fill="#fff" class="secondbg" d="M197.84,484.87c1.66-2.14-1.79-6.83-3.39-8.48-12.04-12.43-30.36-21.88-47.74-21.8-15.61.07-25.05,9.53-31.82,22.65-3.98,7.72-4.15,13.77-10.87,20.1-9,8.47-12.89,3.73-21.39,7.91-3.9,1.92-11.76,6.61-14.18,10.1-5.27,7.62,2.77,29.66,12.18,31.34,1.81.32,3.85-.32,5.65.21,1.44.42,4.35,4.16,6.67,5.05,8.3,3.17,19.25,3.62,28.09.93,2.19-.67,3.62-2.57,5.2-3.17,1.93-.73,3.89-.45,6.16-1.37,3.4-1.37,11.74-11.47,12.66-14.96.82-3.1-.4-7.19.04-8.42.83-2.34,8.42-9.98,10.77-10.94,1.08-.44,7.71-.04,9.08.26,2.47.54,3.71,3.08,5.86,4.18,4.47,2.3,16.42,3.06,19.74-.68,1.18-1.32,1.93-4.67,2.89-5.9,1.85-2.37,6.93-6.06,8.96-9.03.86-1.26.64-3.03,1.21-3.81.79-1.08,3.45-.86,4.97-1.76,2.77-1.65,3.81-4.42,3.83-7.43-4.76-3.58-12.14-2.34-17.57-3.36l3-1.6ZM128.72,504.88l3.34-3.34c.39,2.53-.72,3.73-3.34,3.34ZM186.47,483.97c1.87-.12,4.26.59,5.02,2.5-1.4-.34-5.65.08-5.02-2.5ZM383.32,605.55c-2.8-1.01-7.06-.87-9.31-1.55-2.05-.62-4.45-3.18-5.69-3.53-2.07-.58-4.42.18-6.46-.24-10.58-2.16-17.56-10.09-27.07-14.78-3.89-1.92-10.51-4.97-14.78-4.38-4.27.59-7.48,6.41-4.68,9.61,1.34,1.52,4.99,1.23,5.86,2.91-13.45,1.19-27.26,10.77-34.85,21.65-1.83,2.62-7.7,11.33-8.81,13.79-2.5,5.51-2.62,12.61-9.57,15.54-5.91,2.49-5.59-3.29-7.71-7.17-3.31-6.09-9.24-14.11-11.77-20.03-1.55-3.62-1.6-7.54-3.03-11.2-3.68-9.41-11.51-18.03-12.13-29.29,1.96-.02,4.39-.77,5.4-2.56,3-5.25,2.01-19.07,7.15-23.03l4.19,2.14-5.49,2.53.6,4.05c3.45.97,5.97-.68,9.07-1.55.82,1.8,1.67,5.93,2.45,7.18.74,1.19,3.44,2.42,4.71,3.66,5.43,5.27,5.74,7.66,14.78,4.82,7.69-2.41,7.97-11.26,10.1-17.52,2.29-6.72,5.15-4.38,10.09-7.48,12.48-7.83-1.67-22.12-11.67-23.2-8.05-.87-20.13,3.44-26.28,8.68-2.85,2.43-4.44,5.83-7.52,7.96.83-6.64,5.92-11.63,9.19-17.16.18-.56-.79-.61-1.24-.41-.73.33-7.83,7.61-8.78,8.8-5.76,7.19-9.91,17.35-14.96,25.21l-3.46,10.34c-.79-14.34-5.26-28.24-7.46-42.34-3.11-19.92-2.12-38.78-7.26-58.02-1.11-4.14-.5-9.34-2.03-13.44,7.02-.14,19.58,6.94,25.59,4.25,1.93-.86,2.77-3.25,3.89-3.7,2.12-.85,4.56-.12,6.49-.98.76-.34,5.33-6.2,6.03-7.36,2.52-4.17,4.08-9.36,5.93-13.36l8.76-19.02c5.83-1.64,11.83-2.77,17.25.94,4.29,2.94,2.57,4.35,10.12,4.94,12.38.97,19-3.06,24.56-14,4.65-9.15,3.87-23.79-.02-33.16-.39-.94-5.16-5.73-6.03-7.33-1.25-2.3-.87-4.68-1.78-6.59-1.95-4.11-12.41-13.01-16.82-14.98-11.66-5.21-36.52-4.14-48.03,1.93-10.55,5.57-3.1,6.82-3.64,8.86-.57,2.15-7.41,10.91-9.06,14.42-1.78,3.79-4.45,10.62-6.11,14.81-1.63,4.1.48,5.88-4.64,9.59-9.78,7.09-16.14,8.92-23.38,19.54-6.67,9.8-5.3,17.62-.46,27.84,1.52,3.22,6.78,7.87,7.15,10.49.31,2.17-.87,3.87-.76,5.7.42,6.93.56,12.53.7,19.34.08,3.89,1.77,7.95,1.73,12.13,4.06,3.06,2.14,23,2.52,28.86,1.18,17.93,3.9,40.38,7.74,57.54,1.25,5.61,3.63,10.91,4.81,16.53-7.49.19-15.55,3.49-22.32,6.55-3.17,1.44-14.03,6.01-13.72,9.75,2.36,4.96,10.6.75,14.28-1.24.74.76-6.86,9.69-7.33,11.49-3.29,12.74-1.69,29.92,3.58,42.06.71,1.64,7.23,11.07,8.35,11.81,1.19.79,2.27.11,2.95.44,1.57.78,2.15,2.54,4.67,2.8,5.82.6,16.61-8.61,17.72-13.99,1.55-7.5-2.56-11.93-3.9-18.31-1.13-5.37-3.3-26.12-2.4-30.69.64-3.21,3.52-6.52,2.32-10.65l1.88,1.07c4.17,9.34,8.9,18.43,13.34,27.64,7.53,15.63,14.43,31.35,22.31,47.15,3.43,6.88,3.12,11.2,11.04,15.74,8.09,4.64,25.21-3.85,17.14-10.44-1.83-1.49-3.95-1.46-5.92-3.29-1.29-1.19-12.72-15.9-13.17-17.04-.15-.39-.55-7.58-.52-8.45.18-5.36,4.24-19.26,6.9-24.07,2.24-4.03,7.7-7.48,10.59-11.17,1.3-1.66,10.23-18.82,13.39-15.48.01,5.45-.89,10.44,5.96,10.52,2.09,4.31.7,10.62,2.03,14.55.16.46,4.68,7.92,5.05,8.35,2.1,2.42,7.69,3.93,10.83,4.24,7.34.72,15.94.2,23.42.85,4.15.36,10.73,3.87,14.22-.04,3.54-3.97,1.47-1.58,5.09-4.09,1.7-1.18,2.41-4.81,3.77-6.29,1.35-1.48,4.14-2.17,5.82-4.23,2.39-2.92,2.64-4.75,5.86-8.36,4.18-4.68-2.03-12.51-7.36-14.43ZM347.77,608.47c-2.06-.75-9.34-4.55-7.3-7.34l10.03,6.71c.22,1.47-1.98.9-2.72.63ZM376.24,681.68c2.05,2.14,2.76,27.24,1.23,31.38-.95,2.55-3.45,3.68-3.45,3.95-.02,1.57,2.12,4.39,2.39,5.97.87,5.19-3.24,6.67-3.38,10.85-.11,3.2,1.89,3.79,2.41,6,1.44,6.1-1.9,7.84-3.11,12.46-1.63,6.26,2.18,18.73-3.47,22.47-.64.42-9.01,4.29-9.75,4.48-1.8.44-3.81-.14-5.51.35-1.49.43-2.15,2.54-3.68,3.01-3.93,1.2-18.91-1.62-24.04-1.45-7.98.32-5.58,7.39-10.08,10.85-2.28,1.76-8.06,1.73-9.23,3.28l-.44,6.28c.4,2.65,2.95,2.33,3.65,4,1.22,2.89-.18,6.41.99,9,1.67,3.69,9.14,5.98,10.02,7.55.72,1.28.27,3.29.88,4.98,1.6,4.48,7.92,5.47-.49,11.3-5.53,3.83-8.37,2.08-13.71,3.03-3.61.64-6.96,2.28-10.92,2.47-5.44.27-10.37-1.95-15.77-1.62-6.35-9.48,4.41-18.76,4.51-28.96.04-3.61-1.49-7.23-1.8-10.87-.17-2.05.88-4.53.67-5.74-.22-1.27-3.15-5.83-3.23-7.96-5.16.92-9.31,3.05-12.04-3.5-.77-1.86,1.81-3.35-.82-3.33-9.13.09-25.36,18.01-34.49,10.65-.27-.22-4.09-4.9-4.35-5.34-4.34-7.44-6.55-18.07-9.72-25.36-.67-1.53-3.52-2.68-4.37-4.84-.99-2.51-.74-6.53-1.35-8.84-.63-2.39-1.24-5.01-1.87-7.29-.63-2.27-3.51-2.89-.34-6.66-4.94-.33-8.88-4.36-11.31-8.37l-7.03-25.89c9.17-2.98,18.26,1.96,27.23,3.18,24.62,3.36,59.01,3.37,83.22-1.95,4-.88,7.24-3.23,11.35-3.72,3.51-.41,7.07.25,10.59-.29,4.53-.7,9.51-4.16,13.77-5.47,5.65-1.74,14.93-2.79,20.56-4.55,1.55-.48,2.56-2.62,3.98-3.55,2.2-1.44,10.51-3.81,12.31-1.93ZM142.81,619.68c-.2-.35-4.53-1.68-5.63-2.32-6.66-3.86-15.81-19.57-22.28-26.26-1.3-1.34-3.63-1.95-4.96-3.41-1.25-1.37-1.49-3.15-3.41-4.96-3.74-3.51-13.41-6.94-17.96-3.75-.72,2.02-4.82,5.38-5.06,6.65-3.86,20.05,20.26,19.78,32.11,27.34,1.17.74,2.48,1.6,2.21,3.21-2.89.01-5.27,3.12-7.49,3.82-4.14,1.3-13.28.33-15.9,2.52-.84.7-1.08,2.35-2.27,2.75-1.59.54-3.88-.1-5.68.18-2.58.4-8.09,6.43-9.52,8.89-.78,1.35-2.1,3.8-2.3,5.25-.34,2.55.89,12.4,2.58,14.26,1.94,2.14,16.69,2.87,19.87,2.32,2.73-.47,5.35-2.98,6.92-3.13,2.52-.24,11.74,2.95,13.36,5.01,2.48,3.16,2.62,10.86,5.25,14.84.84,1.27,5.85,7.2,6.96,8.1,1.46,1.19,4.33,2.89,6.21,2.88,3.06,0,13.18-5.41,15.51-7.81,3.79-3.9,7.4-14.66,7.55-20.1.13-4.55-2.81-14.2-5.54-17.95l-5.38-5.07c4.53-.07,13.72.35,15.06-5.03-4.27-.37-16.53-1.6-19.57-4.1-1.23-1.01,0-3.04-.65-4.15ZM134.58,630.42v-1.67s3.34.84,3.34.84v.82s-3.34,0-3.34,0ZM187.68,583.52c-5.92,5.97-1.6,9.62-2.07,17.18-.12,2-1.49,8.73-3.06,9.7-.43.27-6.96,2.19-7.52,2.21-1.7.08-3.12-1.25-4.86-1.31-5.63-.17-10.69,3.01-15.96-1.77-6.99-6.33-7.15-13.7-7.52-22.61,1.01-2.46,5.16-3.4,6.1-4.4.93-.99.73-3.35,1.54-4.75,3.14-5.49,11.54-11.04,15.96-15.43,9.12-9.05,10.84-18.95,27.08-10.19,5.76,3.11,7.34,4.71,6.58,11.64-.6,5.49-2.24,4.32-3.8,6.65-5.07,7.53-6.76,7.34-12.46,13.07ZM505.33,517.44c1.76,7.93-3.4,9.42-7.05,14.3-2.99,3.99-5.54,9.26-8.87,12.89-14.06,15.37-43.91,35.8-64.86,37.24-36.32,2.5-49.92-4.06-79.47-21.78-3.88-2.33-10.79-4.44-14.03-7.49-2.44-2.3-5.67-9.77-8.52-11.8-2.8-1.98-8.28.81-7.07-7.37.7-1.11,19.34-3.22,12.48,3.68,2.12.83,2.77,3.07,4.1,4.2,11.83,10.06,18.69,12.2,32.42,17.82,9.36,3.83,19.98,11.55,29.72,13.8,9.61,2.22,40.99,2.82,49.49-1.25,13.02-6.22,42.67-31.61,48.18-44.8,1.08-2.58-.79-4.31.86-6.59,2.07-2.86,9.4-3.12,12.62-2.86ZM662.48,648.43c-6.98,8.03-17.4,11.79-26.01,17.31-17.89,11.47-35.99,23.34-53.59,35.12-8.12,5.44-16.4,16.27-27.81,12.44-2.73-3.71,13.91-14.32,16.77-16.79,16.38-14.13,33.08-28.04,49.4-41.82,5.11-4.31,9.15-5.32,14.07-8.52,3.57-2.32,12.08-9.74,15.44-10.58,7.11-1.78,9.57,8.59,11.72,12.83ZM269.53,513.47c1.83-1.89,10.5-3.78,12.1-6.31.53-.84.26-2.4,1.01-3.57,1.21-1.86,5.41-7.05,5.77-8.54.6-2.45-1.38-4.84-1.26-7.2.15-2.85,2.84-5.54,3.92-8.04-3.04-.26-4.29-5.27-4.14-7.86.25-4.24,3.29-16.98,4.74-21.27,4.17-12.33,15.04-14.8,26.34-9.97,5.85,2.5,3.5,3.8,4.5,7.37,1.49,5.34,3.32,4.88.77,11.62-5.76,15.17-23.64,19.05-27.5,35.34-1.65,6.97.76,11.43-4.35,18.18-3.72,4.91-13.13,9.53-19.26,9.19-3.3-.18-4.93-6.56-2.64-8.93ZM271.29,479.18c-.25-.63-6.23-5.04-7.34-5.74-1.69-1.07-3.01-2.47-5.14-2.82-4.5-.75-12.26-.59-15.79,2.54-8.11,7.2-3.03,21.3,4.11,27.55,1.67,1.46,5.06,4.46,6.53,5.6.95.74,7.28,5.23,7.74,5.3,7.56,1.07,9.37-13.48,9.65-18.85.13-2.51-.89-4.6-.83-6.62.07-2.25,2.02-4.58,1.07-6.96ZM260.95,489.83c1.51-.27,2.74,1.13,3.35,2.49-1.51.27-2.74-1.13-3.35-2.49Z"/>
  <g id="KOKuD8">
    <g>
      <path d="M373.88,143.86c3.14,2.78-5.82,13.3,3.32,14.07,13.01-3.12,33.61-17.11,46.88-13.93,1.22.29,5.59,3.06,6.03,3.96.75,1.55.1,3.53.51,5.21,4.21,17.27,31.93,3.81,43.59,6.38,2.18.48,3.74,2.14,3.39,4.45-.58,3.89-11.56,6.69-4.83,11.27,2.41,1.65,13.5,4.43,16.67,4.74,11.43,1.15,18.92-1.94,30.03,4.23,2.77,1.54,2.94,5.26,3.1,8.31.51,10.18-6.57,26.42,4.74,32.38,3.04,1.6,11.55,3.1,11.55,6.91,0,3.17-2.18,2.35-3.45,3.57-2.51,2.39-3.11,20.17-1.85,23.96.82,2.5,4.95,2.83,4.68,6.68-.1,1.45-2.51,5.87-3.1,8.37-2.22,9.45-.36,10.17,1.48,18.29,2.75,12.1-3.37,15.34-4.6,25.7-.45,3.84-.09,7.73-.21,11.58,15.45-2.26,25.37,15.15,23.37,28.72-1.65,11.26-16.73,22.98-26.21,28.04-6.47,3.45-16.78,5.9-21.79,10.36-3.88,3.44-5.81,12.52-8.08,17.59-6.15,13.73-11.48,19.86-23.74,28.37-2.37,1.65-15.22,8.67-15.71,9.45s-1.28,5.76-1.35,7.04c-.67,11.35,5.68,31.01,12.85,39.95,3.16,3.95,16.2,15.47,21.07,15.35,1.21-.03,1.87-1.49,3.02-1.94,5.74-2.22,25.69,5.46,33,7.32,16.52,4.21,33.41,7.34,50.17,10.51,2.31.78,13.97,18.39,16.66,21.88,15.08,19.51,30.77,38.27,45.13,58.39,7.39,10.35,14.38,22.98,22.26,32.71,1.5,1.85,4.28,1.91,3.46,4.85-.73,2.6-15.71,11.73-18.44,14.42,9.57,14.07,18.68,30.16,25.58,45.8,1.87,4.23,9.55,22.85,8.7,26.19-.31,1.23-3.52,1.48-3.92-.28-8.15-24.26-20.01-47.38-34.36-68.48-24.35,16.27-49.34,31.28-74.77,45.82-4.71,2.68-6.8,6.41-12.82,5.4-1.54-.26-6.3-2.2-7.63-3.07-2.8-1.84-11.76-13.3-11.34-16.22,1.32-9.19,9.09,6.96,10.2,8.08,1.01,1.01,1.58,1.83,3.03.88l98.68-73.46-.31-1.67c-22.06-33.43-48.37-63.65-71.47-96.31-22.64-5.41-45.98-8.37-68.09-15.79-10.52,21.72-27.73,40.22-48.33,52.69-43.35,26.22-117.3,5.15-148.7-32.34-1.81-2.17-.79-4.09-4.56-3.9-3.96.21-2.07,2.48-2.74,5.16-1.42,5.69-10.03,10.2-13.87,14.33-7.12,7.64-11.31,26.86-25.28,20.14-5.88-2.83-10.39-13.97-17.97-13.11-.94.11-7.02,2.37-7.51,2.9-1.84,1.98-5.13,18.82-2.31,21.95l6.44-8.9c2.87-2.57,9.06-11.68,9.86-3.05-2.32,6.31-10,20.21-9.14,26.54.45,3.33,10.33,20.34,12.7,24.46,1.17,2.01,7.13,12.57,8.34,13.08,9.07-14.51,19.24-28.56,31.75-40.34,1.72-1.61,11.41-8.91,11.8-9.59.48-.83-1.48-3.29,1.41-7.19,11.06-14.93,31.91,5.15,41.83,11.02,11.61,6.86,32.87,6.15,39.93,16.47,5.79,8.47-3.63,11.97-8.15,17.56-4.14,5.1-9.41,17.77-14.43,20.55-7.35,4.07-13.12-2.38-20.07-3.29-9.53-1.23-20.69,3.12-30.11-3.44-10.3-7.17-5-21.92-14.72-31.68-1.99-1.99-1.52.02-2.44,1.02-8.88,9.48-17.6,22.9-21.97,35.18-2.99,8.42-4.89,13.54,1.67,20.9.91-.26,1.83-.71,2.79-.74,27.16-.53,64.1-.58,89.91,7.89,3.15,1.04,4.09,1.96,4.61,5.38,1.04,6.76,3,23.04,2.25,29.25-.44,3.68-5.52,4.01-5.78,5.08-.77,3.18.15,12.26.06,16.33-.08,3.32-2.33,13.11.4,15.24l37.75,15.8c17.13,5.29,36.93-3.13,53.56-8.56,39.28-12.83,97.93-42.88,138.84-31.8,2.27.62,10.22,3.7,5.71,6.46-1.1.68-12.58-2.77-15.44-3.15-30.37-4.11-59.97,9.43-87.71,19.2-26.35,9.28-52.65,18.94-80,24.98-19.61.08-35.71-12.37-53.86-17.85-1.21,5.97.29,19.43-2.56,24.21-3.62,6.05-29.2,9.47-36.36,10.05-3.74.29-8.67-.58-12.09.04-2.22.41-7.47,5.32-4.97,5.67,14.63,1.28,29.6,1.22,44.18-.75,4.77,3.45.64,5.31-3.56,5.74-11.15,1.15-23.72.87-35,.76-3.02-.03-5.68-1-9.25-.73-2.74.21-11.25,2-7.51,6.06,5.78,6.27,41.28,6.36,50.37,6.1,2.05-.05,5.8-2.08,6.08,1.05.19,2.1-1.49,2.88-3.31,3.15-8.25,1.26-22.88.76-31.35.04-2.79-.24-15.45-2.98-16.39-2.8-3.46.68,2.47,6.18,3.65,6.97,9.6,6.43,32.72,7.38,44.17,7.3,1.82-.01,3.54-1.39,4.97-.05,3.89,3.63-3.48,4.86-5.68,5.05-4.71.4-12.3-.26-17.15-.75-6.84-.68-13.61-2.32-20.34-3.56,2.04,5.88,9.35,7.31,14.84,8.35,15.06,2.87,32.75,5.03,46.06-3.5,10.42-6.68,12.59-10.7,25.65-15.04,21.61-7.2,38.08-4.31,60.14-6.25,17.93-1.57,35.71-5.08,53.56-7.11,22.27-2.54,44.77-3.62,66.98-6.54,15.92-2.1,40.55-5.14,55.43-9.53,4.71-1.39,6.43-2.32,9.57-6.14,5.24-6.38,14.42-19.31,18.57-26.41,1.23-2.11,4.84-11.4,5.37-11.76,3.55-2.41,3.93,2.65,3.56,4.99-.76,4.84-20.04,32.28-24.24,37.15-3.39,3.93-5.38,5.28-10.39,6.74-15.79,4.59-41.1,7.77-57.87,9.95-22.22,2.88-44.7,4.08-66.98,6.54-15.96,1.76-31.83,4.97-47.85,6.4-26.09,2.33-46.6-1.54-71.51,9.16-10.36,4.45-17.39,15.1-28.74,17.66-10.73,2.41-25.71.35-36.69-1.22-2.28-.32-7.16-2.05-8.72-1.96-1.2.06-2.72,1.69-4.11,2.22-12.07,4.55-28.66,7.82-41.57,7.03-2.9-.17-8.24-1.86-10.64-1.47-1.5.24-5.69,4.19-7.59,5.32-4.56,2.7-22.73,10.4-27.37,9.69-1.91-.29-9.79-7.73-11.84-9.62-6.27-5.74-13.37-13.19-18.91-19.63-4.34-5.06-14.05-16.14-14.56-22.6-.56-7.06,10.66-42.36,15.98-46.71.8-.66,2.51-.49,2.53-1.05-1.92-2.77-6.31-22.31-7.22-23.11s-6.16,1.15-6.95-1.26c-2.79-9.83-7.15-19.66-9.75-29.51-2.99-11.28-3.63-12.3,7.02-17.26,8.79-4.1,18.43-6.52,27.62-9.52-31.92,3.23-37.58-43.23-24.99-63.89-15.66,5.05-27.27,19.54-44.26,21.41,1.13,2.92,2.9,4.75,3.78,7.99,3.79,13.99-1.46,38.39-16.79,43.61-14.41,4.9-21.79-7.5-25.22-19.46-2.09-7.29,1.08-11.42-9.25-10.72-9.41.64-33.4,9.36-35.36-6.78-1.49-12.32,6.64-22.85,17.68-27.33,7.46-3.03,16.12-2.17,22.3-6.95-9.42-6.29-25.64-6.54-31.27-17.97-6.55-13.31,5.2-25.57,18.58-22.14,10.21,2.61,16.37,10.49,21.85,18.84,6.9,10.5,7.05,16.26,18.75,23.37,6.53,3.96,11.05,5.34,18.86,5.47,5.13.09,11.56-2.54,8.92-8.63-5.82,3.77-18.25-1.47-20.72-7.47-5.12-12.46-1.43-27.24,7.51-36.8,2.75-2.94,5.85-4.55,8.6-7.11,6.97-6.51,8.66-13.31,19.47-16.23,13.83-3.75,29.52,5.53,24.63,21.07-3.41,10.84-20.16,14.91-20.94,26.22-.29,4.19,1.98,8.76.02,13.19,12.57-5.88,24.35-14.25,38.54-15.71-7.6-30.34-9.01-61.9-13.58-92.79-14.03,9.61-17.58,31.28-39.25,22.48-5.16-2.1-6.41-5.72-12.84-3.54-12.01,4.07-9.19,16.56-15.74,24.94-20.22,25.88-85.75,13.08-79.77-22.66,2.66-15.94,31.52-17.2,40.4-29.56,10.55-14.65,11.77-31.19,32.65-36.59,21.24-5.5,37.32.8,53.76,13.94,4.4,3.51,10.21,11.01,13.98,13.14,1.42.8,3.05,1.17,4.64,1.41-.71-5.8-1.55-11.67-2.13-17.5-.36-3.59.09-11.06-.84-14.14-.41-1.35-6.96-6.8-8.65-12.76-6.84-24.11,6.72-27.6,21.25-40.57,13.33-11.9,13.31-31.29,23.95-44.58,11.75-14.67,28.63-16.95,46.38-14.65-2.08-5.08-5.84-9.35-8.2-14.29-2.04-4.25-7.86-19.79-8.25-23.89-.15-1.62-.18-4.23,1.46-5.06.97-.49,7.15,3.11,10.51-.49,5.79-6.18-13.73-27.33-9.49-33.41.99-1.43,4.17-.06,5.39-1.02-4.49-4.74-7.16-11.24-7.13-17.84.04-10.92,7.87-3.91,8.55-4.64-1.31-6.77-3.75-13.85-.14-20.48,4.43-8.16,8.01,5.52,14.44-1.27,5.6-5.9,9.83-21.88,13.2-29.63,1.83-4.21,9.42-17.66,14.25-17.79s4.19,5.13,7.25,5.43c1.35.14,6.14-1.42,7.67-2.04,9.87-4,15.08-15.88,22.96-22.73,2.4-2.09,10.78-8.16,13.72-5.56v-.05ZM469.72,164.41c-13.07-.23-36.29,8.95-42.69-7.65-1.73-4.5.19-7.57-6.18-8.1-10.74-.89-27.4,9.8-37.83,12.93-7.33,2.2-12.78,1.68-15.07-6.42-.37-1.31.26-4.96-1.37-4.32-4.73,1.84-12.86,14.09-16.77,18.21-6.03,6.38-20.95,14.68-27.5,5.35-9.14,8.28-11.31,20.78-16.27,31.55-4.4,9.55-9.05,21.39-21.91,15.56-3.72,8.46,9.97,23.54-7.13,20.7-2.66,8.47,15.67,21.26,2.13,24.27,3.92,9.75,20.26,32.11.27,34.93-1.35.19-2.71-1.67-2.41.4.74,5.2,4.35,14.86,6.64,19.78,1.6,3.44,9.11,17.32,11.28,19.41.83.8,9.7,6.01,10.3,5.97,1.99-.16,3.26-8.03,3.57-9.81,1.42-7.93,1.54-17.99,1.08-26.1-.26-4.53-5.08-16.89,3.53-13.18-1.34-12.8-6.08-23.44-3.37-36.57,1.13-5.42,2.63-10.19,7.65-4.12,2.92-7.25,7.26-15.68,11.86-22.06,1.76-2.45,12.98-14.85,14.95-15.08,4.45-.52.65,5.9,4.24,6.44,3.56-4.11,6.53-8.59,10.71-12.15,3.17-1.09,9.29-9.85,12.56-7.52,1.52,1.07.61,8.43,5.23,7.51,4.05-.8,12.53-10.8,18.97-12.49,12.3-3.23,3.7,8.15,3.69,12.15-.02,5.53,5,6.7,9.58,5.39,10.56-3.02,25.83-14.99,37.06-12.86,6.97,1.32-1.52,9.68-2.91,12.04-.42.7-1.57,1.16-.29,1.86,2.57,1.42,15.27-3.77,19.76-3.89s12.08,2.19,14.9,5.64c1.91,2.33,1.68,4.53,3.04,6.95,3.51,6.27,12.01,5.24,14.99,12.84,3.46,8.78.8,19.48-1.99,28.05,13.58-5.76,6.99,9.28,6.43,16.08-.27,3.29-.45,15.95,1.08,18.17,1.23,1.79,3.07,0,3.72,3.93,2.11,12.73-2.59,26.1-7.68,37.49,1.93,2.02,10.37-16.47,11.77-3.57,3.2-5.55,16.47-6.58,17.45-12.53.83-5.02-.19-10.26,1.08-16.06.94-4.23,4.49-10.21,4.7-13.92.28-5.23-3.72-11.28-3.66-17.11.03-2.78,1.08-7.62,1.7-10.5.36-1.69,2.18-5.37,1.98-6.54-.05-.31-3.27-1.83-4.01-4.72-1.34-5.29-.53-17.53.56-23.04.47-2.37,1.73-3.97,1.96-6.25-12.35-2.96-15.64-10.46-15.02-22.52.26-4.96,4.07-16.43.56-20.14-.53-.56-6.53-3.03-7.69-3.37-5.94-1.71-13.02.13-19.52-.47-10.75-1-32.91-6.59-19.73-20.6v.06ZM396.91,207.24c-8.86,1.8-20.86,21.52-27.13,6.42-4.61,1.91-8.62,5.84-12.11,9.65-3.09,3.37-4.74,9.43-10.92,8.05-1.83-.41-3.12-2.53-3.83-2.66-1.05-.18-6.92,6.2-7.99,7.57-4.2,5.36-11.48,18.1-13.33,24.5-1.46,5.03-.13,12.42-7.48,7.15-2.53,3.48,7.83,30.81,3.17,38.52-.76,1.26-2.75,1.52-3.12,2.65s.63,3.3.68,4.84c.35,12.14-.45,25-4.92,36.33,21.6,16.91,29.32,73.13-8.3,74.03-11.95.28-15.86-5.98-24.79-8.13-9.55-2.31-10.5,15.97-12.5,22.21-5.98,18.63-28.57,30.1-45.88,18,.73,6.25.28,12.67.71,18.91,1.87,27.08,8.88,53.43,12.14,80.31l7-13.33c4.37-6.62,8.56-13.68,14.69-18.75.12-3.8,3.43-8.14,3.31-11.86-.1-3.35-10.04-9.44-12.89-12.09-7.39-6.84-13.2-13.8-7.73-24.16,4.88-9.25,19.12-11.9,27.38-6.18,11.79,8.16,10.04,21.61,7.81,33.52-.14.74-.94,2.34.39,2.18,4.42-8.6,8.96-17.57,11.08-27.12,2.53-11.5-.5-23.35,7.2-33.49,14.83-19.54,43.99-7.97,35.11,17.27-5.47,15.55-22.51,18.28-26.49,34.89-1.45,6.05-.7,11.26-4.75,16.66-3.26,4.34-12.89,10.35-18.29,10.99-3.71.43-8.39-1.54-9.56,2.92,9.96-3.1,20.86-4.37,30.47.6,1.67.87,5.88,4.76,6.27,4.83,3.1.48,13.85-3.18,18.58-3.32,3.45-.1,5.97,1.94,6.84,1.86,5.31-.48,22.34-12.14,26.74-16.08,11.05-9.88,16.87-23.99,16.03-38.91-.15-2.67-1.61-14.11-3.26-15.3-14.7-5.75-29.24-10.9-37.55-25.28-1.6-2.78-5.94-11.29-6.7-14.03-.84-3.07,1.66-5.72,3.63-3.59,1.45,1.57,4.61,11.03,6.18,13.8,7.25,12.83,17.97,17.31,31.1,22.43,13.13,5.12,29.92,11.99,44.62,9.28,24.18-4.44,65.8-17.97,79.93-39.28,15.42-23.23,16.84-53.01,25.54-78.68-3.24.95-4.93,6.66-8.86,5.27-1.08-.38-1.02-1.89-1.19-2.02-.94-.66-10.73,8.13-14.05,4.79-3-3.03,3.44-10.48,4.95-13.62,2.88-6.02,8.63-24.08,5.21-29.73-.44-.74-1.84-1.04-2.49-1.79-2.53-2.93-2.44-17.12-2.11-21.43.3-4.09,1.62-8.42,2.13-12.49-2.85-.18-4.35,5.06-6.2,5.61-4.73,1.42-3.38-5.9-2.89-8.64,1.56-8.8,5.26-13.53,4.1-23.74-.96-8.5-6.94-7.46-12.15-12.13s-3.78-9.92-11.03-12.53c-9.31-3.36-13.97,1.76-22.21,2.81-11.28,1.44-11.65-7.99-4.58-14.2-11.14.43-30.4,16.43-40.73,13.24-5.8-1.8-9.21-12.6-4.96-17.52v-.02ZM508.27,390.7c18.26-6.97,52.53-22.9,38.66-47.59-6.67-11.88-16.28-8.9-24.73-.93-4.76,4.49-6.96,13.71-8.48,20.08-2.21,9.35-3.01,19.13-5.46,28.44ZM213.54,450.06c1.34-2.09,3.57.65,4.24.9,9.65,3.68,13,7.91,23.86,4,20.39-7.34,15.55-21.17,22.68-35.86,8.87-18.25,21.53-.67,34.43.14,32.49,2.02,27.51-42.8,12.85-59.96-16.22-18.98-49.25-23.83-66.02-3.18-8.57,10.57-10.17,25.9-17.7,37.27-10.75,16.21-33.67,17.55-27.67,42.33.94,3.88,2.81,6.59,4.68,9.97,1.94.22,2.25-2.1,3.53-3.24,8.36-7.41,17.14-4.27,23.24-14.59,9.74-16.49,8.86-29.09,25.7-42.83,2.22-1.81,12.96-9.99,14.51-4.51.7,2.48-4.38,5.5-6.3,7.73-2.6,3.03-6.2,8.42-8,11.99-1.46,2.9-4.37,12.66-5.92,14.05-1.84,1.66-3.97.84-3.97-1.76,0-2.09,3.8-10.51,4.9-13,.69-1.56,2.7-3.39,1.92-4.5-10.29,10.06-12.24,25.89-20.19,37.63-5.84,8.63-11.95,6.3-19.22,10.77-6.11,3.76-5.48,6.73-5.25,13.37,9,47.31,5.68,108.17,24.89,152.15,10.48,24,27.66,56.1,41.67,78.25.73,1.15,1.94,3.55,3.2,3.93,3.39,1.03,10.12-.11,13.06-2.36-18.25-23.83-35.1-50.02-48.9-76.73-6.26-12.1-11.79-22.77-14.41-36.27-2.58-13.31-3.85-26.98-6.04-40.36-4.24-25.99-8.85-49.09-9.91-75.75-.05-1.47-.18-9.06.13-9.56h.01ZM271.98,519.19c3.57.22,7.47-1.62,10.49-3.42,13.64-8.15,7.56-17.23,13.92-28.91,6.37-11.69,22.36-16.36,24.67-31.01,1.88-11.9-8.33-19.65-19.29-15.02-14.28,6.03-13.17,22.61-14.07,35.53,2.78-2.98,13.63-16.55,16.88-16.95.47-.05,2.17.4,2.31.62,1.46,2.31-5.53,11.32-6.93,13.96-8.3,15.62-15.23,32.44-27.97,45.2h-.01ZM454.02,468.15c-.4-4.21.29-8.93,0-13.21-18.48,6.46-41.09,15.47-60.95,13.48-6.55-.66-12.5-4.05-19-4.9-.65.7,1.39,11.77,1.45,13.88.53,17.86-7.49,33.58-21.5,44.24-6.87,5.23-14.86,9.57-22.79,12.92,12.14,17.34,32.2,26.84,52.24,31.99,42.51,10.93,68.95,2.51,95.12-31.7,3.72-4.87,6.52-10.51,10.39-15.3-13.7-6.6-24.41-17.25-29.78-31.58-1.96-5.24-4.66-14.38-5.18-19.81ZM194.89,480.63c1.95-1.5-18.09-15.29-19.78-16.26-18.56-10.64-44.17-10.8-56.74,8.64-4.81,7.43-9.78,20.95-16.64,26.19-11.25,8.59-40.22,11.83-34.26,30.69,7.57,23.96,54.84,29.48,70.29,10.34,6.79-8.41,4.27-24.08,19.25-27.15,10.46-2.14,11.31,3.68,19.27,5.08,5.08.89,8.76.39,12.56-3.23,4.48-4.28,8.75-11.82,13.51-16.48,1.29-1.27,6.46-4.3,6.68-5.42.68-3.53-3.88-2.13-5.93-2.41-12.08-1.63-20.98-3.9-33.35-1.2-16.6,3.62-35.52,18.55-46.99,30.82-1.68,1.8-3.9,6.34-6.16,6.62-3.03.37-2.84-2.48-2-4.79.95-2.62,7.51-11.29,9.62-13.92,7.41-9.26,20.31-21.36,31.41-25.7,13.2-5.16,25.57-3.89,39.25-1.81h.01ZM265.55,503.48c2.83-9.26,4.19-17.99-1.82-26.36-9.77-13.59-32.56-1.25-22.76,12.76,1.48,2.12,6.05,6.43,8.15,8.26.79.69,8.08,6.64,8.57,6.05,1.49-4.87-1.79-12.82-1.42-16.76.55-5.98,6.85.23,6.94,3.76l2.33,12.29ZM169.19,484.22c-6.43.37-13.64,3-18.56,7.12l9.09-4.1,9.46-3.02h0ZM504.7,518.48c-3.22-2.33-11.45-.53-10.76,3.87.06.41,5.63,3.51,6.73,3.32.41-.06,4.28-6.84,4.03-7.19ZM259.13,525.63c-3.98,1.57-7.7,5.28-9.27,9.27l9.27-9.27ZM490.78,525.63l-4.62,6.78c1.22.73,5.76,4.85,6.71,4.62.4-.1,4.81-6.14,4.68-6.71l-6.77-4.69h0ZM252.36,543.46c4.53-.32,9.66,0,14.28,0,1.84,0,14,5.25,9.68,8.25-.65.45-12.95-.58-15.92-.21-4.84.62-12.79,3.44-16.24,6.95,6.07-1.96,11.63.94,16.06,5.01s8.57,13.73,15.72,5.71c4.48-5.03,6.59-12.1,12.03-17.6,5.49-5.56,17.94-10.22,7.84-17.97-12.39-9.51-37.78-2.81-45.92,10.23.6,1.18,2.02-.32,2.49-.36h-.02ZM326.24,537.74c-1.37-4.97-4.73-4.16-8.93-3.57-5.24.74.78,4.47,2.21,7.15l6.72-3.57h0ZM477.58,544.16c2.44.01,3.62,4.11,5.92,3.51,1.92-.5,4.49-5.4,6.2-6.7,0-.38-5.68-4.64-6.06-4.61-.49.04-5.31,6.74-6.06,7.81h0ZM329.8,540.61l-6.41,3.57c-.16.24,2.38,3,2.88,3.24,1.63.81,5.66-3.11,5.66-3.61,0-.3-2.41-1.94-2.12-3.2h-.01ZM335.16,547.04c-.32,0-3.17,3.37-3.92,3.92,3.7,3.26,5.81,5.72,9.26.71-1.04-.52-4.99-4.63-5.34-4.63ZM443.33,575.59c1.76,1.37,33.96-19.17,36.38-23.92-1.69-1.27-3.2-4.74-5.68-3.59-1.88.87-6.69,7.61-8.92,9.68-6.26,5.82-15.07,10.91-23.22,13.55.16.68,1.27,4.14,1.44,4.28h.01ZM234.15,569.16c.62-7.08,4.18-13.39,6.42-19.99-3.29,3.91-6.21,11.79-7.07,16.84-.12.7-.63,3.29.65,3.14h0ZM173.48,609.85c10.51-3.13,5.78-8.65,6.5-15.98,1.43-14.61,17.23-16.85,20.96-26.86,3.74-10.01-6.87-16.93-16.23-15.51-10.61,1.61-13.4,10.01-20.14,16.26-2.76,2.56-5.94,4.12-8.6,7.11-10.51,11.83-13.17,38.99,8.86,36.34-.57-6.49-1.05-14.64.81-20.95.93-3.14,4.47-2.91,4.83.13.29,2.51-.89,5.69-.5,9.04.43,3.7,2.56,6.91,3.5,10.43h.01ZM349.71,557.83c-.17-.3-5.64-3.65-5.99-3.62-.5.04-1.72,2.62-2.39,3.18,0,.79,5.24,3.72,6.11,3.8,1.43.13,2.98-2.18,2.28-3.37h-.01ZM361.17,564.23c-.22-.3-6.25-2.85-6.78-2.91-1.19-.15-1.6,1.16-1.63,1.93-.1,2.34,5.99,2.99,7.39,4.5.66-.5,1.35-3.04,1.02-3.51h0ZM375.49,573.45c.11-1.32,1.49-2.9.01-3.94-.36-.25-7.75-2.46-8.29-2.48-2.24-.11-3.66,1.86-1.5,3.01,2.67,1.43,6.93,2.1,9.79,3.41h0ZM437.49,573.57c-.86-.54-17.42,1.89-20.25,2.01-6.67.29-13.93.12-20.52-.89-3.85-.6-11.27-3.45-14.53-3.36-1.29.04-2.46,1.97-2.44,3.17,0,.65,11.37,2.78,12.71,3.01,15.21,2.61,31.4,3.39,46.55.21.26-.26-1.35-4.04-1.54-4.16h0ZM137.78,624.13c.28-1.3-.4-1.4-1.19-2.01-2.23-1.74-5.34-3.07-7.71-5.14-6.17-5.38-7.69-11.51-11.93-18.05-4.7-7.24-13.76-18.57-23.13-19.01-4.09-.19-10.26,3.84-10.96,8.22-2.41,15.28,18.86,16.87,28.45,22.14,8.1,4.46,8.37,7.3,13.64,13.49,5.4,6.33,6.41,1.49,12.83.37h-.01ZM314.1,587.72c9.2,2.4,16.3,9.21,24.73,13.47,6.15,3.11,17.13,6.29,22.32,9.8,3.48,2.35,3.15,6.08-1.55,5.14-10.08-2.02-25.14-11.29-35.86-14.85-3.11-1.03-7.16-3.04-10.34-1.74-.37.15-4.11,3.13-4.36,3.49-2.2,3.25,3.32,7.82,4.93,10.88,4.06,7.74,2.09,18.08,8.36,23.06,8.55,6.8,23.53,1.21,34.05,4.5,3.29,1.03,6,3.98,9.69,2.92,4.56-1.3,11.28-16.05,15.16-20.58,4.98-5.84,13.3-7.57,3.33-14.09-7.8-5.1-19.28-4.62-28.11-8.29-11.31-4.71-22.71-19.03-34.97-19.15-2.99-.03-7.69,1.88-7.37,5.45h-.01ZM224.75,597.13c-3.52-2.17-19.51,5.33-23.45,7.36-2.74,1.41-6.29,3.31-8.55,5.36,11.05-3.57,22.51-6.86,34.27-6.42.27-.24-1.97-6.12-2.25-6.3h-.01ZM303.39,602.01c-1.34-.31-1.7.75-2.5,1.42-12.67,10.65-22.7,26.61-31.95,40.21-.73,2.05,3.38,7.32,4.83,9.05,4.97-19.33,16.54-35.98,29.62-50.67h0ZM216.3,609.15c-.4-.36-9.26,1.53-10.42,2.07-2.74,1.31-7.04,10.36-7.94,13.48-4.3,14.84-.09,49.25,20.79,48.62,5.76-.17,14.68-7,14.7-13.13.02-4.76-4.08-14.45-5.24-19.76-2.36-10.9-2.64-20.42.23-31.29-6.39,5.88-11.73,14.93-15.32,22.87-1.15,2.54-2.56,10.64-5.6,9.9s-1.52-8.31-1.1-10.89c.66-4.2,2-8.7,3.92-12.49,1.72-3.42,4.5-5.93,5.98-9.36h0ZM260.56,669.82l-28.55-54.24c-.61,4.83-1.03,9.65-.63,14.54,1.33,16.36,14.84,31.45-1.17,43.99-1.53,1.19-3.69,1.44-4.63,2.85l34.98-7.13h0ZM124.93,631.97c.71-1.03-2.79-3.7-3.54-4.64-1.19-1.5-5.34-8.38-6.7-8.13-.34.06-3.74,2.85-5.77,3.55-7.91,2.73-16.59,2.09-23.88,7.52-5.8,4.32-12.66,13.96-8.53,21.25,4.38,7.76,21.7.99,28.83.47,16.66-1.22,12.19,8.68,16.93,20.16,3.2,7.76,8.44,13.73,17.46,9.95,12.33-5.18,17.03-29.29,11.52-40.35-.21-.42-4.93-6.6-5.25-6.89-2.75-2.32-11.4-1.59-14.77-.53-3.44,1.08-8.94,7.07-11.25,5.9-4.41-2.24,1.98-7.76,4.98-8.26h-.03ZM160.62,628.42c-1.92-.01-19.25-1.58-19.28-.37,4.62,1.54,9.46,2.77,14.32,2.18,1.02-.13,4.47-.78,4.95-1.81h.01ZM655.34,651.26c.31.22,4.14-2.47,4.14-3.2,0-.63-6.72-10.17-7.35-10.22s-3.81,2.49-3.81,3.06l7.03,10.36ZM643.68,643.5c-.52.09-4,2.75-4,3.12,0,.66,7.02,10.43,8.01,10.26.52-.09,3.89-2.61,3.93-3.11.06-.8-6.7-10.47-7.95-10.27h0ZM635.7,649.26l-8.21,5.98c-.16.7,6.5,10.05,7.59,10.23.91.15,6.76-4.43,8.07-5.27l-7.45-10.93ZM630.26,669.03c.39-.66.02-1.41-.28-2.05-.57-1.2-6.08-8.7-7.03-8.53l-69.7,52.76c5.75,3.52,9.07-1.29,14.06-4.12,21.35-12.14,42.32-24.74,62.95-38.06h0ZM225.58,700.5c2.47.65,5.33,1.34,7.83.34,8.95-8.37,20.86-14.93,29.82-23.01,2.23-2.01,2.23-3.26-1.21-2.64-12.21,8.31-25.15,15.72-36.42,25.31h-.01ZM245.57,677.68c-5.68.04-9.84,2.33-14.5,5.12-7.24,4.34-15.2,10.35-21.19,16.28,3.07-.5,6.05,1.78,8.83-.09l26.86-21.32h-.01ZM375.49,681.95c-15.14,6.7-31.12,11.36-47.24,15.21-32.15,7.69-65.61,11.53-98.74,9.04-12.66-.95-25.27-3.09-37.48-6.42l9.99,30.33c16.86,3.63,34.1,4.2,51.3,4.74.71.92.84,3.93-.38,4.22l-43.08-1.82c5.32,14.69,9.97,33.29,18.7,46.27,7.47,11.1,13.07,7.62,23.19,2.05,8.94-4.94,18.92-16.8,20.23,2.73.36.51,6.31-6.17,9.57-.66.65,1.1,2.32,7.46,2.5,8.92.37,3.04-.87,5.54-.65,7.73.37,3.7,2.61,6.33,2.14,11.49-.52,5.62-4.79,7.5-5.56,10.13-.74,2.45.23,6.34-.18,9.11-.23,1.56-1.46,2.41-1.4,3.95,10.95,1.68,22.09.65,32.85-1.78,2.6-.58,10.31-2.34,12.14-3.57,1.68-1.14-1.33-2.09-1.89-2.76-.74-.86-3.53-4.55-3.7-5.29-.32-1.42.81-3.4.58-3.7-.15-.21-3.35-1.19-4.63-2.18-2.92-2.24-4.89-4.83-5.9-8.38-.36-1.25.1-2.86-.29-4s-2.25-1.6-3.13-2.59c-3.57-3.97-1.86-9.97,2.75-12.31,1.89-.96,5.64-1.09,6.1-1.4.36-.24,1.05-4.18,1.93-5.58,1.22-1.94,4.07-3.39,5.84-4.87,16.02-.9,32.54-1.02,47.39-7.76,3.33-18.67,2.18-37.78,3.5-56.64-15.06,5.27-29.53,11.43-45.1,15.21-3.85.94-21.06,5.38-23.46,3.74-2.07-1.42-.45-3.41,1.59-4.19,7.2-2.74,19.77-3.98,28.01-6.25,15.04-4.12,29.62-10.17,43.84-16.48l-1.31-26.3v.05ZM327.67,682.67c-3.72,1.47-7.2,4.02-10.51,6.26s-6.86,4.54-9.48,7.29c7.59-1.27,13.98-8.95,19.99-13.54h.01ZM218.44,684.81c-4.8,1.2-9.36,5.77-12.84,9.27l12.84-9.27ZM256.28,701.93c5.58,1.01,11.69-5.23,15.63-8.99,2.28-2.17,1.45-3.85-1.17-2.6-4.21,2.01-10.77,8.43-14.48,11.58h.01ZM280.55,695.52c-3.26.1-6.6,3.2-8.56,5.69,3.36-.01,6.32-3.42,8.56-5.69ZM269.57,796.6c-10.76,8.13-25.42,16.71-39.38,16.73-2.2,0-10.35-1.03-10.34-3.95,1.39-4.59,6.58-1.08,10.36-1.02,8.27.14,19.38-4.47,26.55-8.5s11.94-6.14,10.22-15.47c-.79-4.29-6.3,1.41-8.62,2.79-3.29,1.97-6.64,4.01-10.17,5.54s-9.11,4.02-12.65,3.1c-11.8-3.06-16.55-21.92-21.36-31.45-.34-.67-.45-1.69-1.45-1.75-1.23,3.04-3.09,5.79-4.42,8.8-2.94,6.65-10.58,27.91-9.82,34.32.68,5.72,12.48,19.31,16.71,23.99,5.69,6.3,15.37,16.56,21.77,21.77.94.77,2.41,2.18,3.64,2.15,3.41-.05,18.55-6.57,22.09-8.57,5.51-3.13,13.76-8.96,12.83-16.08-7.45,3.46-15.45,7.31-23.55,8.93-2.25.45-11.03,2.9-9.91-1.33.57-2.15,12.15-3.96,15.08-4.92,9.16-2.99,27.27-9.52,22.65-21.96-12.17,6.7-26.08,15.49-40.33,16.4-2.66.17-12.59.22-11-4.55.68-2.06,8.48-.3,11-.44,6.64-.38,15.24-3.78,21.32-6.51,3.65-1.65,16.71-8.18,17.97-11.3,1.69-4.15.49-9.13-1.44-12.85-.57-.03-6.64,5.26-7.77,6.12h.01Z"/>
      <path d="M436.82,412.88c2.4,1.75-1.14,4.42-2.79,5.29-4.94,2.62-30.21,10.33-35.33,10.35s-28.67-6.04-33.39-8.73c-3.27-1.85-2-4.83,1.16-4.81,2.88.02,10.95,3.79,14.58,4.76,4.54,1.22,14.01,3.98,18.32,3.8,5.08-.22,19.21-4.9,24.81-6.65,2.15-.67,11.36-4.96,12.62-4.03h.01Z"/>
      <path d="M359.6,292.34c4.19-.84,7.95,2.27,4.5,5.94-3.12,3.33-21.98,15.85-26.41,17.84-9.74,4.37-11.73-1.55-5.66-7.81,2.8-2.89,23.94-15.25,27.58-15.98h-.01Z"/>
      <path d="M438.84,288.79c1.35-.25,2.7-.32,4.06-.13,3.94.55,23.52,12.68,25.3,16.11,2.38,4.58-.04,6.69-4.77,5.49-4.28-1.09-27.77-13.9-28.58-17.15-.64-2.53,1.95-3.94,4-4.32h0Z"/>
      <path d="M425.99,319.5c.58.58.91,2.26,1.95,3.4,7.73,8.54,20.01,12.09,31.29,12.26,6.53,6.79-7.18,4.67-11.09,3.94-7.05-1.3-23.36-8.34-25.85-15.55-1.35-3.91.94-6.82,3.71-4.06h-.01Z"/>
      <path d="M368.84,325.09c2.36-.62,3.5,2.02,2.72,4.18-2.07,5.74-15.09,14.02-21.01,15.42-3.53.83-16.97,1.82-16.5-3.59.3-3.61,8.09-.27,11-.42,4.89-.26,11.66-3.66,15.47-6.72,1.71-1.37,7.74-8.72,8.33-8.87h0Z"/>
      <path d="M382.1,386.24c-1.31-1.37-1.7-4.61,1.01-4.62,2.1,0,7.49,3.7,11.29,4.08s7.05-.43,10.57-1.57c1.53-.5,5.93-4.29,6.27-.19.49,6.04-16.14,6.52-20.22,5.88-1.34-.21-8.17-2.8-8.91-3.57Z"/>
      <path d="M347.43,410.04c4.79-1.23,5.26,11.89.16,8.18-.83-.61-3.35-7.36-.16-8.18Z"/>
      <path d="M452.06,406.6c3.76-3.44,5.13,1.91,2.98,5.47-2.74,4.54-6.59-2.15-2.98-5.47Z"/>
      <path d="M287.77,311.54c-1.83,2.51,5.82,12.37,5.68,14.53-.14,2-2.01,2.19-3.62,1.44-2.45-1.14-8.01-15.09-7.91-17.82.24-6.54,5.59-2.62,6.45-3.24.7-.5,1.05-11.87,4.71-8.61,2.58,2.3.11,10.47-2.58,12.53-.77.6-2.59.97-2.74,1.18h0Z"/>
      <path d="M302.86,265.59c-2.7-2.75,4.34-20.77,7.61-21.65,2.48-.67,2.92-.4,3.98,1.84,1.67-.71,2.49-7.99,6.12-5.4,2.54,1.81-2.43,10.35-4.85,11.01-2.14.58-3.71-1.49-4.49-1.02s-3.52,8.13-3.95,9.65-.54,9.52-4.42,5.56h0Z"/>
      <path d="M505.89,283.7c4.61-1.17,1.69,7.49,1.62,9.55-.21,6.32,2.77,5.68,5.06,9.98,3.72,7.02-1.39,15.56-3.98,10.35-.67-1.33.92-4.64.22-7.3-.79-2.93-4.96-4.67-5.49-8.07-.42-2.66-.35-13.77,2.58-14.52h0Z"/>
      <path d="M321.96,185.81l-5.68,18.24c-1.73.78-3.29.55-3.64-1.48-.51-3,4.68-18.65,6.84-20.99,2.57-2.77,3.45-.41,5.75.61,1.81.8,5.18.53,4.48,3.17-.8,3.05-5.93,1.97-7.75.47h0Z"/>
      <path d="M478.36,188.02c.71-1.08,23.11-1.84,25.99-1.5,2.43.28,5.88,2.06,2.9,4.35-1.42,1.09-8.09-.16-10.8-.09-2.98.09-16.52,2-17.85.08-.38-.55-.56-2.35-.24-2.84Z"/>
      <path d="M409.76,210.8c1.27,1.41,9.17-8.41,10.64-3.83,1.12,3.44-10.95,12.79-14.39,6.51-2.69-4.9,1.17-14.52,4.82-11.23,2.25,2.04-2.22,5.65-1.08,8.56h.01Z"/>
      <path d="M485.79,199.38c-1.67-.5-1.57-3.5.53-4.47,1.81-.83,13.26-.93,14,.29,1.13,1.87-.21,4.18-2.39,4.18-2.64,0-10.34.54-12.14,0Z"/>
      <path d="M529.42,347.21c4.32-1.41,5.1,5.64,4.4,8.72-1.03,4.5-10.49,6.3-10.5,11.57,0,1.76,4.41,6.44.29,6.83-3.7.35-4.93-5.86-4.46-8.8,1.15-7.15,8.59-7.63,10.21-11.27.92-2.08-3-6.05.06-7.06h0Z"/>
    </g>
  </g>
</svg>