<?xml version="1.0" encoding="UTF-8" standalone="no"?>
<svg
   class="svg-include"
   viewBox="0 0 300 300"
   fill="none"
   version="1.1"
   id="svg1"
   sodipodi:docname="svg-puzzle.svg"
   inkscape:version="1.4.2 (ebf0e940, 2025-05-08)"
   xmlns:inkscape="http://www.inkscape.org/namespaces/inkscape"
   xmlns:sodipodi="http://sodipodi.sourceforge.net/DTD/sodipodi-0.dtd"
   xmlns="http://www.w3.org/2000/svg"
   xmlns:svg="http://www.w3.org/2000/svg">
  <defs
     id="defs1" />
  <sodipodi:namedview
     id="namedview1"
     pagecolor="#ffffff"
     bordercolor="#000000"
     borderopacity="0.25"
     inkscape:showpageshadow="2"
     inkscape:pageopacity="0.0"
     inkscape:pagecheckerboard="0"
     inkscape:deskcolor="#d1d1d1"
     inkscape:zoom="3.0814815"
     inkscape:cx="135"
     inkscape:cy="135.48678"
     inkscape:window-width="2560"
     inkscape:window-height="1440"
     inkscape:window-x="0"
     inkscape:window-y="0"
     inkscape:window-maximized="0"
     inkscape:current-layer="svg1" />
  <path
     fill="currentColor"
     d="m 75.170578,235.54897 c 2.907523,-1.18887 0.05357,1.46269 0,0 z m 3.307947,-1.86207 c -0.333948,1.12612 -2.95025,0.83644 -1.062272,0.53632 0.04046,-0.44728 0.908207,-0.16358 1.062272,-0.53632 z m 0.821933,-25.0314 c 0.208471,-1.23508 0.544823,0.6974 0,0 z m 92.270482,-0.71174 c 1.56689,-0.64542 1.6261,0.43417 0,0 z m -92.796356,-1.17204 c 1.032728,-0.81495 1.505807,1.57744 0,0 z m 93.234926,-0.066 c 0.25188,-0.87426 0.73859,0.52589 0,0 z m -2.7718,-1.77518 c -0.65879,-0.72115 1.2863,-0.0646 0,0 z m -0.0769,-0.9632 c 1.3892,0.008 -1.35748,0.19477 0,0 z m 1.33661,-0.4603 c 2.25617,0.91077 0.96269,4.61242 0.0217,1.07347 -1.08531,-0.93928 -0.31839,-0.21819 -0.0217,-1.07347 z m -0.24059,-0.95317 c 0.0786,-1.33963 3.56144,1.12186 0,0 z m 17.16544,-6.05819 c -0.41706,-1.90217 0.89547,1.07251 0,0 z m -1.61062,-1.35833 c 0.77879,-0.84147 0.6311,0.88768 0,0 z m 6.51849,-2.02664 c -0.77385,-0.64572 1.42641,0.23336 0,0 z m -3.15524,-2.17951 c -1.17415,-0.11586 0.34585,-0.60402 0,0 z m -2.51951,-0.24143 c 1.26763,-1.77103 1.89418,3.04241 0,0 z M 66.899792,190.4709 c 1.745285,-2.69711 6.553421,5.35283 2.651002,2.35495 -0.965741,-0.96795 -1.823806,-1.80005 -2.651002,-2.35495 z m 35.974908,-3.23126 c -0.0855,-1.46427 1.06303,-0.45444 0,0 z m -0.0766,-1.1286 c 1.75926,-2.15675 1.02398,0.47578 0,0 z m 0.65727,-1.39174 c -0.28305,-1.20427 1.23716,0.49877 0,0 z m 1.28165,-0.43774 c 1.44543,-1.65492 0.20318,1.03486 0,0 z m -0.16432,-0.9206 c 3.10563,-0.69459 -4.54203,2.49496 0,0 z m -15.884211,-0.89803 c 2.216948,-0.71031 -2.367341,1.55528 0,0 z m 14.931201,-0.31745 c 2.05225,-0.0132 0.97306,1.78884 0,0 z m -21.032917,0.16457 c -0.409182,-1.11291 1.09747,-0.0312 0,0 z m -4.90762,-2.92551 c 0.427035,-0.96921 0.987157,-0.24415 0,0 z m 107.168517,-0.88717 c 1.33,-0.83893 1.08215,0.27779 0,0 z m -74.45803,-0.15288 c 1.85826,-0.94887 -0.31122,0.0945 0,0 z m 0.56956,-0.74516 c 0.10318,-0.93649 0.74434,-0.71189 0,0 z m 100.25649,-8.54512 c 3.58689,-1.02898 -2.17346,6.58983 -0.84374,0.96403 0.3411,-0.27152 0.52073,-0.67699 0.84374,-0.96403 z m -12.42214,-1.60978 c 0.92146,-0.70903 -0.96563,2.12714 0,0 z m -13.67187,-1.56635 c 0.55407,-0.62151 1.00722,0.57438 0,0 z m -9.25603,-0.32914 c 0.68161,-0.82913 0.27288,0.66826 0,0 z m 25.85257,-1.69749 c 0.22148,-0.93191 1.702,0.0353 0,0 z m -71.51206,-10.62607 c 1.31116,-1.3812 -1.1044,0.99548 0,0 z m -26.21405,-5.56531 c 4.61278,0.7181 -1.29542,7.24976 -4.294196,7.97539 -4.022862,3.11227 -7.469855,-0.97578 -1.500765,-1.18374 2.430891,-1.48337 5.540361,-3.6415 5.794961,-6.79165 z m 89.18182,-18.94063 c 2.86247,-0.77671 6.20151,4.09531 9.90263,4.05328 5.21091,-1.38802 14.97122,0.92046 6.85765,5.37902 -4.46827,1.15019 4.94559,-5.64401 -2.15937,-3.6089 -5.72457,0.90217 -10.81529,-2.21399 -15.34607,-5.11082 l 0.30659,-0.32914 z m 3.35156,-6.05735 c 2.48974,0.0993 7.54114,3.62266 10.63692,3.99814 -4.01698,1.73191 -8.92009,0.0752 -10.63692,-3.99814 z m 33.34595,-7.66848 c 2.4388,-0.90887 3.37588,8.4519 -1.09518,7.84391 1.60919,-1.58947 0.54195,-5.21492 1.09518,-7.84391 z m -19.95895,-5.92637 c 3.54989,-1.538 2.28862,9.95803 -0.71258,6.91229 -1.09835,-2.21559 -1.28165,-5.39201 0.71258,-6.91229 z m -18.68917,-4.84196 c 4.58856,-1.47323 3.20305,5.89521 1.27145,7.86538 -2.90424,2.07805 -2.28448,-6.90946 -1.27145,-7.86538 z m 17.24312,-0.42721 c 1.98622,-2.30747 7.53586,1.9635 5.58115,3.44394 -2.69062,-1.54982 -3.43568,-0.21895 -4.16852,-2.54566 -0.41836,-0.29778 -1.49563,-0.0979 -1.41263,-0.89828 z M 191.7496,98.342688 c 3.94765,-2.35428 6.06716,5.998322 2.19037,1.42407 -2.05157,0.0311 -7.1456,1.054062 -2.19037,-1.42407 z m 23.34392,-12.806 c 3.51697,0.23784 -1.70839,11.13332 -2.14693,6.17841 2.37931,-1.38647 0.11054,-5.09332 2.14693,-6.17841 z m -6.39736,-1.71988 c 5.00933,-2.41091 -0.50629,2.93699 -0.95317,4.88581 -0.2679,6.51842 -4.02358,2.72197 -1.31406,-1.99372 0.59426,-1.07883 1.50414,-1.94009 2.26723,-2.89209 z m -4.89701,-1.85129 c 3.72784,0.7078 -3.96486,5.25046 -2.32236,8.76366 -0.13243,7.38773 -3.55876,-2.29799 -0.41602,-5.36775 0.44755,-1.42668 1.32011,-2.79989 2.73838,-3.39591 z m -25.6337,83.912562 c 0.91121,-0.81352 0.38968,-0.17963 0,0 z M 220.45156,54.031249 c -3.58068,1.361192 -8.84371,1.590134 -10.51734,5.916201 -0.0673,2.561879 -2.19162,5.382514 -2.91404,8.324454 -1.33606,2.729904 -6.67637,3.195964 -9.84838,3.627064 -4.9946,0.0279 -6.88746,4.59128 -9.2561,8.12703 -3.39235,3.76511 -6.28579,8.48193 -6.25565,13.71528 4.14635,2.7926 3.39855,4.14385 2.50782,9.257742 -1.98797,6.84585 0.90392,13.57878 1.31512,20.37557 0.23145,1.90243 1.18268,4.59854 1.18375,6.22209 1.12769,3.15362 2.19039,4.32009 4.14109,7.94273 3.09829,4.18958 8.4725,5.14228 12.90612,6.70465 1.21684,3.65384 -1.868,7.8005 -5.99301,6.96712 -5.64223,1.20357 -11.49864,3.04668 -16.35522,5.06291 -3.21234,3.01865 -5.06778,8.75975 -10.42922,6.35186 -3.23332,-0.93577 -5.59727,0.2573 -4.63398,3.91105 -0.26759,4.10614 1.5692,10.13952 -4.15084,10.02316 -4.26759,-0.0172 -6.19466,7.84129 -4.07573,11.47997 1.50659,2.94983 4.69298,6.09998 8.06064,4.57682 -0.45426,3.50443 -0.56954,7.13477 -0.42437,9.79628 0.18346,3.4192 -0.61395,7.74857 1.40676,10.13247 1.55434,1.91938 0.93248,-0.42096 1.35282,-1.42273 1.19504,1.03632 4.60704,-0.56232 7.34062,0.28394 0.76197,-1.54432 0.87879,1.63704 0.90615,0.0434 0.82517,0.829 -0.36448,-1.41093 0.93578,-0.21911 3.52577,-0.72538 -1.69797,-4.24236 -0.86636,-7.68976 0.76291,-0.89239 0.2624,-3.48256 2.67424,-5.1281 2.49917,0.76169 4.91524,-2.1186 7.52498,-0.01 3.51816,2.18961 2.83473,7.15087 0.86467,9.95772 -2.49949,1.1775 -1.26485,4.48767 1.81931,2.87014 0.59501,-0.31159 2.79688,1.02184 3.06753,0.33912 2.13899,-0.34921 5.44299,0.0533 7.92678,-0.0128 0.53149,-1.88045 0.13672,-4.38114 2.35639,-2.4706 5.14614,1.73416 11.3884,3.0597 13.39091,8.97741 2.49198,0.86678 4.65867,4.46762 6.81385,6.85784 2.57782,3.24833 5.58307,6.20478 8.65224,8.95193 4.18912,2.49552 9.20366,4.52456 14.23269,3.8117 2.18608,3.10298 5.99075,-0.89349 8.27426,-2.24984 5.88754,-4.01103 6.80349,-12.09483 8.01454,-18.63987 0.046,-7.35238 -0.57525,-15.30983 -0.12081,-22.87349 -0.90665,4.23978 -1.49893,-1.50931 -1.29577,-4.05124 2.66139,3.24999 -0.97428,-2.84938 -0.76355,-4.76771 0.0196,-8.08031 -4.32426,-15.21958 -9.11426,-21.36096 -4.58008,-7.06703 -14.05388,-9.399 -17.49443,-17.47292 -1.12983,-2.70901 -1.96469,-9.22243 1.61019,-8.74227 2.55286,0.77852 2.30559,-2.693 5.42175,-3.76914 4.34924,-0.9542 -0.27849,-2.80377 -0.90877,-5.2361 -1.07096,-2.74131 -1.29227,-6.07679 1.36857,-7.88768 6.66845,-6.9527 3.0492,-17.20055 2.11505,-25.567432 4.42232,-1.01357 5.24757,-4.84407 8.08462,-8.88409 4.03171,-6.02782 0.93425,-13.87316 -3.20918,-19.00677 -1.89483,-4.140171 -2.95849,-2.349005 -0.71304,0.855078 4.76274,5.059492 5.98995,13.320162 1.72132,19.027942 -0.34829,3.69624 -8.36857,5.60028 -7.17245,5.08245 2.87076,2.42808 -3.68628,0.8543 -1.93162,3.33035 1.2783,4.994642 -0.57957,9.564612 -2.12432,14.482132 -1.29739,5.06128 -4.68483,-1.04289 -2.13602,-3.15553 -0.47183,-1.09363 1.42225,-1.69135 0.27261,-2.23399 -2.4756,2.1357 0.15,-0.25317 -0.62357,-0.36255 -4.31075,-1.29715 3.8053,-3.56456 3.04449,-6.846222 -0.25412,-5.42784 -2.97344,5.402122 -4.18503,3.067412 -1.3569,-4.207562 1.61395,-7.665792 1.65449,-11.085952 -2.07659,4.41961 -2.56774,1.32875 -3.73493,-1.45707 -0.9814,-2.08577 -3.44583,-3.79611 -1.79803,-5.60786 -0.61054,-1.82418 -3.97327,1.30867 -6.26542,-1.10627 -2.87541,-2.11333 -9.38575,-1.94134 -4.61091,-5.94883 -0.19493,-3.57886 -2.48504,5.6377 -5.9717,1.35749 -8.20165,-0.16926 3.75569,-5.36013 -1.99744,-4.50338 -2.86657,2.81231 -6.06877,3.06109 -9.47148,1.24002 -1.20451,-0.15789 -0.60105,-0.81723 -2.04293,-0.0623 1.72862,-3.353707 11.79855,-0.41711 9.60527,-2.579606 -2.7997,-0.698035 -1.01597,-5.134271 0.37843,-6.999994 -0.0897,-4.028759 4.41431,-7.520091 8.6019,-8.086278 1.95388,-0.532031 5.33419,-0.633444 1.85815,-1.552267 z m 3.09352,0.657537 c -0.68729,2.169479 4.81915,3.51011 6.63248,5.301127 2.58542,1.893335 5.87943,0.633395 8.49104,1.984367 9.15599,1.415381 1.25418,-1.518229 -2.9581,-1.742636 -4.91158,0.131397 -7.9008,-4.059139 -12.16542,-5.542858 z m -1.6316,3.018472 c -4.64777,1.346665 -10.26355,6.738504 -7.65223,11.770403 1.05391,-0.268687 0.98855,-4.773886 2.44275,-6.683286 1.29654,-7.866753 13.58124,0.399477 12.62047,-1.861664 -1.86655,-1.391542 -5.03831,-2.586014 -7.41099,-3.225453 z m 1.37217,6.924536 c -1.82247,0.733041 -2.55565,3.392183 -2.99865,4.846216 0.18013,2.816688 5.89547,9.428388 6.84625,6.681428 -3.94511,-1.53304 -7.18986,-7.141388 -3.36274,-10.406462 0.49278,-0.310461 -0.25843,-0.975971 -0.48486,-1.121182 z m 9.13374,0.703222 c -0.32115,2.030784 6.5418,1.876425 8.78946,4.263429 4.07542,3.652393 7.13479,10.831543 3.84579,15.741773 -7.07322,3.73949 7.68781,0.16517 2.72804,-5.97168 -0.9375,-5.68317 -4.37903,-11.270812 -10.13398,-12.848932 -1.4733,-1.180953 -3.54659,-0.613322 -5.22931,-1.18459 z m -2.28425,3.92238 c -0.17001,2.915812 0.37802,6.063112 0.50253,7.505392 3.47167,1.42048 0.86688,-4.56143 0.0439,-6.704313 l -0.17459,-0.580852 -0.372,-0.220267 z m 5.51972,2.300562 c 0.48227,2.5391 5.11075,6.00342 3.67111,9.91527 -1.06131,3.08362 -7.43023,3.79975 -0.79948,3.76738 4.59108,-3.47411 1.59582,-11.61653 -2.87163,-13.68265 z m -151.176455,7.66855 c -4.646998,2.18732 -10.346423,0.0531 -15.201828,2.90248 -6.126577,2.49342 -12.86214,4.27534 -17.340748,9.53184 -1.207155,3.46657 0.07836,4.67944 1.566375,5.34522 -0.0522,-1.0595 -1.187006,-5.99313 2.574674,-6.52969 3.169516,-0.96977 5.974695,-3.6792 9.235004,-3.99762 1.593432,-1.11956 4.44269,-1.95588 5.696093,-2.49821 7.871349,-1.7432 15.329214,-3.09017 23.464465,-2.58472 5.70923,0.79847 7.77854,6.89719 11.7443,10.13227 1.44845,3.5481 3.62616,13.484922 3.22087,3.69225 -1.92014,-6.12497 -6.75218,-10.45279 -11.590933,-14.28483 -4.193651,-1.7439 -9.073839,-0.20322 -13.368272,-1.70899 z m 111.086265,0.44869 c 0.0795,0.86178 -6.01558,11.07673 -0.58411,12.23709 2.26872,-2.08379 -2.17987,-3.77157 0.27391,-7.06501 0.69708,-2.36905 3.41155,-5.73311 6.07936,-4.33843 5.44871,1.05795 11.73658,1.02988 16.45487,4.45769 4.14724,1.97355 3.7813,6.4127 1.69842,10.06864 2.03093,1.38789 4.51037,-4.1769 3.73488,-6.22791 2.4145,-0.41501 3.70218,2.75223 5.17071,3.65312 1.11838,2.35554 1.5713,4.58559 1.00911,7.21822 2.15354,2.958332 -0.62276,10.438452 -3.39707,8.644292 2.64324,-3.05586 1.79297,-7.50616 2.35615,-10.856832 -1.29112,-10.08418 -2.39236,0.12858 -1.53043,4.503312 0.61292,2.81144 -2.07391,5.25758 -2.43579,7.3602 -3.02845,1.73575 -6.12754,5.07732 -4.80826,9.09302 -1.40861,0.71598 -0.054,-7.50626 -2.47527,-3.86694 -1.76291,5.38369 4.84215,8.74892 9.14712,6.55081 1.81963,-0.4368 2.7091,-3.81755 -0.16455,-1.92822 -5.27592,2.50743 -6.59076,-5.51981 -2.08198,-6.72549 0.4993,-3.15051 7.24797,-4.28722 2.13746,-0.16475 2.90015,-3.05926 8.61933,-2.40582 8.56592,3.1441 0.94203,4.758 -0.16736,13.59114 -6.97835,11.33798 -2.39159,-1.14557 -6.18925,-0.0748 -3.26481,0.43931 3.15815,2.37899 9.20088,2.39621 11.15204,-2.02666 0.46347,-7.60314 2.65527,3.58017 0.25299,2.38702 -1.89373,3.06977 6.30744,7.94797 -0.83213,4.62236 -1.75876,-5.87101 -2.64523,1.18742 -1.28248,3.37424 -2.67158,0.28206 -5.31978,-2.52999 -5.80696,-4.16276 -5.13138,-1.7932 4.69257,5.31123 2.04926,8.3473 0.61422,8.03705 6.52233,14.1082 12.64169,18.72131 1.49648,1.91717 3.23092,4.11281 0.0978,5.43337 -3.80749,3.83734 -5.9834,9.67647 -11.91721,10.73601 -4.21228,4.21753 -8.1469,-1.14379 -12.05104,-3.02337 -2.73348,-2.1399 -7.07069,-4.707 -2.59588,-0.01 6.09777,0.41297 -1.53837,6.82882 2.08197,5.88209 2.16829,-5.91104 7.84217,0.9447 10.37375,2.33321 -2.87762,2.16256 -1.93116,5.54686 0.63473,2.37721 0.83133,-4.50587 5.75056,1.65338 8.81883,1.63166 0.98051,0.85986 1.00689,7.31335 1.47839,5.01714 1.26884,-0.41423 0.29798,-0.95082 1.10859,-1.63212 -0.95746,-4.50213 9.37144,-3.19947 7.52491,0.87617 0.31596,6.37174 2.97782,-8.37975 6.4954,-1.07359 0.0494,6.16545 1.4608,-5.51055 4.14097,-0.24156 -0.9716,4.88208 -0.78532,6.89087 0.9873,5.93796 0.69087,4.3562 0.73239,8.85968 0.3601,13.09217 -2.26819,6.8939 -2.46751,14.87671 -4.06433,22.12784 0.98848,5.87186 -6.26666,7.16015 -10.38861,8.03752 -4.77482,0.31645 -9.62678,-1.19637 -13.33819,-3.87508 -4.07437,-2.78799 -6.17203,-7.19907 -9.80444,-10.31841 -2.14887,-3.43114 -6.40338,-6.09195 -7.36188,-10.41948 1.59008,-4.12073 -7.43997,0.41367 -9.70642,-3.48345 -6.95341,-2.31194 2.03904,-2.29058 -2.6725,-5.2244 1.58532,-1.62524 3.97038,-2.45588 5.89293,-0.18698 1.51646,0.85663 1.82018,-2.29502 0.22677,-2.05256 -4.07306,-2.63228 3.07452,-0.27617 3.5959,-1.83714 -2.42365,-1.57185 -5.74691,-3.61251 -0.14191,-3.84406 3.19155,1.45794 -0.71955,-3.50891 -2.35658,-1.73123 -3.15282,-4.27258 0.76591,-3.9665 3.539,-3.51615 -1.01314,-1.41675 -8.25333,-2.73997 -4.14097,-4.21771 2.515,-1.41978 5.13411,5.98499 5.14797,1.75219 0.66691,1.00212 1.55836,0.81097 1.73255,2.41075 1.2069,2.1666 -0.86333,8.25163 1.18311,7.70125 1.97633,-1.34896 -0.59249,-7.71475 2.26786,-6.66042 9.25156,3.27005 16.08998,10.44262 24.3077,15.47935 5.30335,2.80377 9.6534,7.39886 10.63652,13.47384 4.09814,-0.50016 -1.38933,-9.33909 -4.41359,-10.88942 -5.72048,-4.78227 -12.82893,-7.81864 -18.42736,-12.92559 -4.11747,-3.15529 -8.85456,-5.26082 -13.61578,-7.12228 -2.21543,-6.27905 -9.56407,-3.65231 -12.6188,-8.10581 -6.47714,-2.43496 -3.33241,-9.4826 -4.21776,-15.10705 -4.21781,-2.56805 -2.02496,-4.68029 2.02654,-1.74096 6.53607,5.29773 3.39802,-1.46815 -1.0852,-2.67265 -1.9166,-2.03529 -3.93891,-8.50862 0.88764,-8.53362 5.32315,-1.57753 -0.69334,-10.20854 5.94717,-8.7095 6.21291,-0.88648 11.26478,-4.6991 15.18372,-9.39984 1.91676,-2.70798 -1.46357,-3.08431 -1.02967,-0.65738 -1.55002,1.50937 -1.88434,1.34599 -2.37716,2.19199 0.62794,0.92852 -2.06311,2.4214 -3.85549,3.91258 -5.63653,2.41944 -12.23221,3.59593 -18.05373,1.34611 -1.24085,-0.6334 -5.18443,-1.51968 -4.64184,-2.98303 -3.56903,-2.69881 -5.83114,-7.02633 -6.53159,-11.49973 1.06904,-2.50548 -1.84173,-5.51157 -1.47175,-8.70793 -2.16062,-8.9964 0.96784,-18.004272 1.24128,-26.926442 -3.21292,0.82283 -0.12101,-6.67571 0.62307,-7.61486 6.11288,-8.64172 -3.57001,10.69152 3.39703,7.42707 -3.02531,-2.76276 -0.31055,-7.83694 1.35746,-9.36868 0.76172,-0.56542 1.53453,-1.50167 2.50097,-1.6623 z m -10.52549,7.76808 c -1.07011,1.64545 2.19993,8.44055 -1.01297,6.79082 -1.61962,-1.80169 -0.008,-5.04359 1.01297,-6.79082 z m -87.171815,1.90082 c 0.311424,1.79374 1.551484,4.43948 -0.732792,6.56729 -0.926349,2.76781 -5.303139,4.127412 -4.273181,6.100582 3.615813,-0.14625 5.316243,-3.844512 7.066487,-6.451452 0.562361,-2.57652 0.575751,-5.27917 -2.060514,-6.21642 z m 3.604215,0.29043 c -0.74376,0.47379 0.59714,1.33621 0,0 z m -34.560677,2.94668 c -0.824002,0.97861 0.771054,1.38652 0,0 z m 22.423162,0.49274 c -0.510196,2.63799 -1.247436,6.991982 -4.9503,8.391352 0.222879,3.36505 5.204223,-2.674042 5.695905,-4.875152 0.289246,-0.96876 0.573725,-3.16677 -0.745605,-3.5162 z m -22.379109,0.61349 c 0.141307,3.59141 -2.57484,6.730762 -5.521345,8.380142 0.74087,3.30741 8.083287,-3.922182 6.846219,-7.833342 -0.652165,-1.13874 -0.8466,0.59712 -1.324874,-0.5468 z m 14.152551,3.39537 c -2.04649,4.093302 0.568467,9.781542 -2.34465,13.464172 -0.786906,4.05969 -7.916858,2.49939 -8.368546,5.33371 4.307066,0.28787 10.023298,-1.42531 10.603807,-6.45136 0.649879,-4.08169 0.552575,-8.60508 0.876041,-12.335022 -0.4525,-0.0869 -0.499764,0.47271 -0.766652,-0.0115 z m -8.17761,0.27411 c -0.351913,4.281352 -0.782726,11.057822 -6.051817,12.159032 -0.818571,4.21225 8.583367,-2.03673 7.218224,-5.25704 -0.114924,-2.08614 0.696307,-5.478272 -1.166407,-6.901992 z m 27.125453,3.111472 c -1.624424,0.66764 -4.859563,1.38145 -4.881848,3.84422 1.221535,-0.42146 6.060098,-2.32745 4.881848,-3.84422 z m -44.916485,0.0261 c -1.50663,3.8691 0.761871,8.25718 0.341326,12.25522 0.414377,2.4895 1.127988,5.4878 1.352721,8.51104 0.582758,1.08768 -0.05965,2.47135 0.383224,4.3062 0.51327,5.5094 -0.06788,10.66756 -0.328545,16.21182 -0.767984,1.30548 0.360114,4.0243 -0.986882,5.47751 0.560355,0.31334 0.485032,2.77535 1.391908,0.82253 1.656964,-5.60676 1.81942,-11.63047 1.675658,-17.5055 0.662816,-9.77592 -3.255907,-19.02239 -3.121426,-28.77838 -0.252687,-0.40284 -0.484332,-0.9118 -0.707984,-1.30044 z m 51.888335,0.31326 c -1.66314,1.24201 0.30801,2.63107 -0.29551,4.66799 -1.20496,5.92149 3.84073,9.21155 5.6765,14.06483 0.8458,3.66466 -3.73508,5.2474 -5.20638,7.19717 -1.15035,2.34927 -0.85304,6.58087 -2.33321,9.83695 -1.76837,3.23038 -2.30223,7.47063 -6.167474,9.27911 -5.070778,0.17803 -10.761827,-0.45013 -15.325637,-2.60754 -6.575016,-2.39761 -1.439571,2.92534 3.08863,2.93526 2.279998,-0.46463 2.415561,1.57541 1.206016,3.04442 -0.560972,4.87114 -0.04261,11.24163 5.324276,13.31077 -0.837336,3.5863 -0.07772,7.37518 -1.436342,10.90104 -0.257045,0.92478 -1.796502,3.98331 -1.380611,3.52605 -0.728425,-0.42363 -0.310597,2.64573 -2.069112,0.47196 -3.78249,-3.83809 -9.677426,-4.17098 -13.442837,-8.05208 -3.05129,-2.50462 -7.135524,-3.12783 -10.23017,-5.53114 1.486803,-1.91621 3.495422,-3.13725 4.610839,-5.42299 2.503985,-2.61331 3.003426,-6.51997 2.431243,-9.95322 0.855894,-1.07116 -1.30503,-3.95553 -0.820556,-5.63757 1.007273,-1.72152 5.348572,-3.80804 4.842883,-6.93768 0.09794,-3.3216 -0.06684,-8.87446 -3.979443,-9.37692 -2.005266,-0.70107 -4.161898,2.55588 -1.049237,2.81918 -5.035631,0.49556 -5.620571,-5.01426 -4.996085,-8.52398 0.23821,-2.13399 0.788435,-5.1815 3.38612,-3.83454 2.823328,2.15692 0.69726,-2.50099 -1.457037,-2.15696 -3.852558,1.28857 -3.7306,6.94001 -3.604758,10.57141 0.09076,2.64267 3.601733,5.28772 3.131089,5.93583 -2.294332,3.17336 -2.114405,9.11049 2.050853,10.60626 0.786441,0.69031 0.595927,3.95881 1.10664,5.1484 1.683944,5.96754 -2.542907,12.29072 -7.603131,15.19551 -4.133115,4.52018 -8.863811,8.38307 -12.816672,12.92561 -2.105349,-0.0866 -2.638799,-2.384 -5.816669,-3.19803 -1.01412,-1.62705 -2.542519,-2.79052 0.69018,-3.06735 7.650791,-2.44778 9.169405,-11.74327 9.080004,-18.61379 1.009611,-1.81533 -0.466697,-4.97333 0.811658,-6.93338 0.350072,-1.58162 -0.05443,-4.37245 -0.08791,-5.48852 -0.154895,-0.39536 0.626009,-3.14458 -0.39808,-3.91459 -0.199683,-0.0632 0.582774,-1.57463 0.419241,-2.51607 0.152901,-0.61448 -0.451243,-2.82806 0.111463,-2.41011 1.700892,-4.74515 -3.036719,-5.78553 -2.267937,-1.47824 -0.02013,1.34891 0.147455,2.00581 -0.133711,3.35028 1.518722,4.05972 0.5588,9.3981 0.296792,13.48716 0.345372,2.48843 -0.506026,5.72866 -0.31626,7.97545 0.142118,2.88287 -0.649365,6.80486 -2.01643,9.80444 -1.797595,2.91867 -6.128824,6.59485 -9.333122,4.80843 -3.057706,-0.19968 -0.972596,1.77121 -0.336092,3.25718 1.334589,1.58909 2.658815,2.60692 3.602581,4.14817 2.066613,1.23627 6.205675,1.99951 2.320144,4.23086 -2.267995,1.46203 -3.114225,3.13466 -4.940515,5.54273 -0.885221,0.89463 0.449502,3.43597 -0.230025,3.53951 0.330046,1.54471 1.149375,2.52707 1.468438,3.94217 0.638862,1.07647 1.94583,2.11639 3.387209,3.28129 1.366355,0.86127 3.514001,2.24042 4.11718,3.78614 0.785155,0.47743 1.962678,2.8247 2.49795,3.3843 0.706627,0.79073 1.698817,2.69643 2.354571,3.53947 -0.246513,1.373 1.17019,1.47699 1.368972,2.18006 1.405937,2.10627 2.14086,4.7557 3.341376,6.83668 0.665078,1.67038 2.570338,4.53264 3.16738,6.28985 0.738669,0.33702 1.440192,1.52554 0.832397,2.34334 1.645959,0.0624 0.965641,3.05204 2.10349,4.22327 -0.554481,1.86249 2.326636,1.51169 2.409611,3.74162 1.426974,2.60249 3.696465,5.63536 5.905045,7.45946 0.754538,-0.0301 2.702605,1.32554 3.735058,0.94154 1.617215,1.21314 4.259457,-0.44267 5.368023,-0.72318 6.962509,-2.65471 10.471383,-10.48651 15.599788,-15.67655 4.411383,-5.22992 7.574383,-11.83255 13.956753,-15.11682 0.65678,-1.09222 1.46128,1.00127 1.61258,0.003 1.76289,3.88389 4.54672,-4.54485 6.27516,-2.31525 -0.18407,4.21507 -3.21432,11.42675 3.15063,11.36274 5.30284,1.54491 11.42869,-0.80641 16.75333,0.63424 4.49853,-0.81424 13.61679,3.48823 15.14613,-2.00696 0.91637,-4.6832 -1.39339,-9.80962 -0.30159,-14.79722 -0.4253,-2.39499 1.08964,-5.90787 -0.46322,-7.83083 -2.63155,-0.16468 -7.29924,0.41023 -7.97233,-2.8508 -2.60245,-2.79708 -0.63761,-7.64624 0.67869,-10.73645 1.5505,-5.74088 9.57207,0.17503 10.35091,-4.0317 0.7243,-7.32891 1.10128,-14.36183 -8.23635,-12.80484 -9.19099,0.92346 0.23715,-4.70616 -2.24672,-9.32299 -0.53853,-7.47574 -10.7807,-10.14822 -15.58855,-4.8196 -5.55753,2.8192 -7.97584,11.47985 -2.47523,15.28177 4.83383,2.81987 -5.2173,2.32667 -7.4597,2.05899 -1.34023,-1.90991 -0.85043,3.49566 -1.08503,5.92598 0.39477,3.09955 -0.0563,6.54651 -0.70905,9.63415 -5.15688,2.84378 -1.9362,-5.21276 -2.57733,-8.11003 0.33243,-4.80669 -0.71157,-10.75536 -6.16748,-12.05104 -1.56265,-0.71452 -4.07271,-0.89636 -2.33335,-2.99108 1.37103,-7.21682 0.54351,-15.07847 0.32796,-22.51127 0.25264,-4.08 -1.15862,-8.33279 2.79328,-10.97593 3.83117,-4.67318 0.22262,-10.34226 -3.22079,-13.93563 -1.85407,-3.14474 -0.005,-7.33664 -1.96139,-10.16952 z m 135.09209,1.31508 c -1.01324,5.70962 0.47892,13.074 -4.57985,17.2526 -3.05059,4.5346 -1.3703,-6.51254 0.7128,-7.03237 1.96149,-2.97109 2.57827,-7.14921 3.86705,-10.22023 z m 0.54658,3.87343 c 0.7034,4.01337 -2.32461,12.68183 0,0 z m -143.680856,0.0702 c -2.537551,-0.60948 -0.287471,5.85401 -0.908806,4.67652 1.917888,9.33803 6.530732,-4.85193 0.908806,-4.67652 z M 68.42177,119.32002 c -4.258511,2.62302 2.692421,10.27635 0.132156,3.397 -0.782577,-0.98706 1.697487,-3.33285 -0.132156,-3.397 z m 118.82497,3.88975 c 0.73532,0.57513 -0.2707,1.12803 0,0 z m 49.98915,4.61418 c 1.8702,2.4718 -1.30238,1.35682 0,0 z m -166.094233,0.0604 c 1.021102,0.40721 0.910829,1.58589 0,0 z m 166.957353,2.05093 c 2.74854,1.66852 0.72232,3.74938 0,0 z m -166.949195,0.96428 c 2.210262,1.77311 2.717982,6.50653 -0.853333,7.70115 -0.782794,-0.0723 -3.790571,-9.55734 0.853333,-7.70115 z m 36.747035,0.0228 c -0.30867,8.82846 1.81406,18.06307 -0.38801,26.72909 -2.70603,4.44261 -8.934271,-0.23705 -13.025188,1.03926 -1.551408,-0.3245 -0.889758,3.63083 -2.300414,1.14982 -3.553843,-1.863 -4.130032,-7.62026 -2.070497,-10.78981 0.0209,-5.48318 8.566817,3.00706 11.491399,-1.86164 2.33082,-2.51921 2.24047,-4.91319 3.61564,-7.88718 1.74867,-2.64702 1.20922,-5.75494 2.67707,-8.37954 z m -14.903093,4.61092 c -3.181942,2.58143 10.126443,6.98323 5.547303,2.34347 -2.083065,0.14651 -3.868469,-1.29904 -5.547303,-2.34347 z m -29.391752,1.97262 c -2.352446,1.84497 0.302251,5.97222 -0.383425,8.67524 0.295015,3.55452 -0.243944,6.69966 -1.620252,10.05771 -5.206883,3.25221 -1.773175,4.50355 1.182917,0.56943 2.658463,-4.86686 1.591319,-11.06684 1.117548,-16.18119 0.03732,-0.92295 0.475006,-2.38232 -0.296788,-3.12119 z m 74.513815,10.09963 c 6.01904,-1.06948 10.15628,6.35633 6.62758,11.01008 -0.45889,1.52466 -4.22308,5.36656 -0.91031,5.44488 3.40717,2.58834 12.66945,-2.25293 12.36924,4.10664 0.36976,2.19312 0.98515,5.56134 -0.37517,7.094 -3.6142,-0.13327 -7.77225,0.0511 -9.74722,4.29935 -1.2365,3.41039 -3.17256,7.18425 -1.03029,10.66938 0.13145,6.20589 10.48849,2.15973 8.80742,7.9541 -0.97388,5.30208 -0.65236,11.1029 -0.65755,15.88369 -0.55662,-3.20183 -3.37464,2.46558 -6.79239,0.76682 -1.24,0.28751 -2.78235,-0.53606 -4.21775,4.4e-4 0.9412,0.37124 -2.83205,-0.54261 -4.10686,0.13086 -0.49271,-0.96205 -2.10606,0.55767 -1.10046,-0.009 0.59918,0.63242 -0.37638,0.049 -1.47274,-0.33926 -0.93695,0.40638 -1.63047,-1.10696 -1.53606,0.99509 -0.98832,-0.0267 -0.10866,-2.61576 -0.63319,-0.65626 -2.61364,0.2729 -6.50544,-1.04335 -9.66286,-1.09635 -0.18379,-2.5492 -1.44615,-5.27254 -0.66981,-7.90443 2.67139,-0.22359 5.5436,0.13349 8.26884,0.63337 2.70817,-0.3607 4.40084,3.03378 6.99115,0.85237 2.93183,-0.55168 1.08035,-4.00194 -0.97394,-4.40295 2.49566,-0.58622 8.79889,-0.88685 8.24776,-5.89337 0.77753,-3.56879 -4.98448,-0.27845 -3.48344,-4.0743 0.59701,-2.48794 -2.97894,-3.00483 -4.96173,-2.35803 0.41056,-3.13966 -3.55582,-4.08264 -6.67991,-2.82111 -3.05021,0.72843 -10.05736,3.18427 -9.11765,-2.52453 0.95178,-3.86175 0.40812,-7.47172 1.3037,-10.9546 0.38911,0.18893 -0.0875,-2.51748 -0.0209,-2.95846 0.88811,-1.26548 -1.4005,-3.03827 0.65624,-3.3957 2.05794,-0.8926 4.99518,0.0511 6.62785,-0.27371 3.00956,-0.70553 6.65408,-2.71786 1.53383,-4.43627 -2.99997,-2.03939 -2.61378,-6.49928 -3.29585,-3.74616 -0.74992,-1.12905 0.66353,-1.85626 -0.0313,-2.43943 1.39299,-1.2292 -0.0515,-2.6922 2.17679,-4.66017 2.3201,-1.56735 3.77504,-4.89987 7.867,-4.89662 z m 60.09695,5.89337 c 1.21518,3.04293 2.12456,7.65048 -2.50772,3.98771 -6.7496,-3.94689 -0.59636,-2.32784 2.50772,-3.98771 z m -8.20535,1.96119 c 5.13025,0.4479 0.9199,9.11978 4.73329,3.45089 6.04406,1.20947 -0.19886,6.44884 -3.8556,3.95341 -3.80027,-0.11218 -7.31435,0.56576 -11.2959,-0.142 -0.43287,-3.29336 3.38257,-5.83352 6.69286,-5.83789 0.72214,-1.0824 2.87661,-0.26671 3.72535,-1.42441 z m -93.823873,4.92092 c 6.332333,0.59947 14.351513,0.26178 18.811023,5.4971 1.16089,5.85145 0.84469,11.99495 0.52243,17.93306 -2.5369,1.59682 1.24882,-0.89909 -0.0324,1.25957 -1.67629,4.24258 -1.56628,-2.9282 -3.01699,0.21559 0.0158,2.88739 -2.25271,6.15937 -5.05635,7.1025 -5.60881,7.53309 -16.174782,7.89117 -22.742955,14.42666 -1.887273,-0.13905 -5.163284,6.18171 -5.870704,2.38895 -0.619565,-1.45726 -0.434149,-2.09943 -1.242933,-3.16542 1.374038,-0.23605 -0.280548,-1.14577 0.355574,-0.44997 -2.031755,-0.66375 -1.230147,-3.51154 -2.319525,-4.87965 -0.493375,-2.8692 -2.992903,-5.82292 -2.280881,-8.508 -0.109263,-6.24694 -3.314815,-0.45241 -1.115979,1.93839 0.284973,2.9825 2.032927,5.87339 2.682507,8.98382 1.028527,2.69766 2.148401,5.89614 2.683992,7.72243 -1.511363,0.86579 -4.385126,3.96861 -4.21767,7.28515 2.26837,6.3689 2.048491,-2.30303 4.181738,-4.61271 3.248846,-2.05113 6.658097,-4.4701 10.239872,-5.74544 2.963836,-2.77563 3.178732,-2.45707 7.006116,-4.41022 4.37632,-1.71874 7.962828,-4.98522 11.958428,-7.14982 0.71395,0.56366 3.49418,-3.20313 4.53912,-4.46266 1.27674,-0.56416 2.09002,-2.28798 3.22098,-2.3007 1.64741,1.2198 3.14274,2.02435 3.65822,4.63383 0.54496,4.5464 -0.97908,9.05876 -2.33306,13.32226 -1.25938,-0.67104 -2.50926,-2.0388 -4.24894,-1.26956 -3.35982,4.42359 -1.48131,-0.22215 0.38176,-2.52087 1.67412,-1.80597 -0.44172,-0.31421 0.25255,-1.21757 -3.04279,1.39478 -3.26879,5.50556 -6.04848,7.35051 -3.54233,4.11835 -5.63685,8.98891 -9.171027,12.82648 -2.063354,4.75643 -7.572842,7.46826 -9.856103,12.06491 -3.20925,1.80654 -6.687388,3.7684 -10.603919,2.99039 -3.232841,-1.56812 -6.371663,-4.4845 -6.473994,-8.51284 -1.78292,-3.28836 -2.681808,-6.37314 -3.920791,-9.50933 -1.40674,-5.48686 -5.924535,-9.66291 -7.987003,-14.71235 -3.610315,-4.54318 -7.230474,-9.20488 -12.104379,-12.40107 -1.716468,-2.04708 -4.292311,-4.64993 -2.510297,-7.58873 1.065712,-4.6699 5.738759,-7.4509 8.233604,-10.68056 1.746352,-1.54194 3.691395,-3.10877 5.262518,-4.71176 1.970006,-1.38546 2.846458,-3.04466 5.303283,-4.20863 2.507478,0.16487 3.591092,1.05422 3.35079,2.76346 -0.242451,1.30827 -1.813891,1.54782 -0.536902,2.59581 2.0822,2.85926 2.650783,-3.76258 5.160911,-2.26805 1.613488,1.43386 5.255567,2.91611 1.434142,4.27337 -3.546999,2.41066 2.91083,4.27429 2.607239,0.6021 0.97848,-2.68766 2.919126,0.87618 4.371262,1.33658 -3.326363,3.43344 -0.202249,4.75435 1.698351,1.05247 1.13972,0.75564 -1.753478,1.46469 -0.489601,3.45942 -0.660998,3.06745 2.085771,1.56985 1.967527,-0.37033 0.658515,-2.90035 3.460877,0.67097 5.115121,1.5341 1.001232,3.20556 1.986648,1.26399 4.326976,-0.16485 0.273392,1.89452 3.236707,3.32553 2.652798,1.69524 0.224134,-1.73033 -3.52447,-3.09963 -2.148766,-4.08443 0.711541,-4.80759 1.519493,-2.44864 4.043041,-2.87835 1.407785,-2.0482 -4.290608,-1.46761 -2.35645,-3.88035 -2.333141,-6.40559 8.559539,-2.75976 0.766855,-6.46282 -1.742573,-2.96367 4.716809,-2.51694 3.099888,-3.50641 0.06396,0.27556 -2.89481,-0.13178 -1.202502,-0.6207 z m 151.550093,2.05745 c 1.24754,0.26671 0.42807,1.01186 0,0 z m -1.4766,0.65591 c 0.69479,0.72164 3.36758,2.28154 3.12142,3.07939 3.41778,2.17128 3.57877,6.97269 7.23292,9.01671 3.73473,6.23741 1.28111,12.06125 -6.49543,8.63118 -7.27297,0.0454 -14.94103,-2.00947 -20.81449,-5.96995 2.69507,-2.91151 8.34102,-3.55848 9.532,-7.67858 0.23846,-0.0387 2.47545,-2.5593 3.54911,-3.66932 1.07648,-1.34927 2.53214,-2.3301 3.87447,-3.40943 z m -74.06513,1.20412 c 2.1231,0.5403 7.88434,1.1959 6.77447,1.04264 -2.07222,0.84388 -0.49699,0.008 1.12907,0.69326 -0.73121,-2.21967 0.9049,0.28176 1.99205,-0.49631 1.04525,0.10612 -0.67901,-1.44011 0.58104,-0.79001 0.7089,1.36426 2.25595,-0.55133 3.59307,0.61333 -0.86943,1.67914 4.47368,-1.62407 3.96503,-0.0318 7.24929,-1.03059 1.71344,1.45226 8.49081,-0.0551 3.09403,2.14066 0.0425,13.25806 1.13885,18.37193 -2.47089,0.15992 -6.52852,-3.61197 -9.90404,-4.02025 -1.05808,-0.16853 -2.2739,-1.80113 -2.24524,-0.61311 -2.07573,-0.18921 -4.78821,-1.42225 -4.51323,0.81124 2.30006,1.92308 -2.31085,0.28989 -1.45744,2.94648 -1.80981,-1.1324 -4.90098,5.20546 -0.0881,5.78402 1.40404,1.39256 0.17628,6.12118 4.85424,5.5214 0.85499,1.53455 4.81808,1.65983 7.41566,3.07719 1.68689,1.36299 4.43406,2.27869 4.95518,4.19995 -0.87289,1.83172 2.19591,7.10506 -0.5193,8.17948 -3.50687,0.17046 -6.34853,-1.48687 -8.62151,-2.13592 3.26547,-3.17416 -1.33125,-9.58415 0.35079,-9.09294 -2.96371,-2.66558 -7.98333,-3.03335 -11.65628,-1.40126 -3.3967,2.59408 -4.92001,8.31269 -1.72961,11.47045 -2.04347,1.39099 -6.92835,1.22923 -7.75665,-0.27411 -1.90251,-0.63463 0.35899,-1.60511 -0.91387,-3.20312 -1.32263,-3.51825 -0.0102,-7.8858 -0.0716,-11.64194 0.0384,-4.95464 -7.10495,-0.56777 -7.83332,-5.60783 -0.71759,-0.5677 -0.35705,-2.74936 -0.56994,-3.19978 0.49252,-1.69284 0.34732,-4.07488 2.08196,-4.71045 0.23954,-4.23151 7.12807,0.0528 5.90139,-1.92219 2.28127,-3.14556 -2.55933,-13.41157 2.64325,-13.14108 0.57315,0.16344 1.52567,-0.0464 2.01332,-0.3741 z m 9.07336,0.37365 c 0.58322,0.7925 -1.47723,0.29548 0,0 z m -97.579826,11.55825 c 0.383776,-0.21698 4.584486,3.06702 2.480078,1.81286 -0.3272,-0.18303 -2.892097,-1.6234 -2.480078,-1.81286 z m 118.170696,3.87833 c 6.61564,2.51328 6.37877,11.50078 5.07658,17.20842 -1.31096,2.10074 -3.72881,4.44493 -5.42198,1.64323 -3.56386,-1.67609 -6.94588,-3.79019 -10.62705,-4.9843 -1.9212,-0.74535 -6.26575,-2.7586 -5.61922,-3.94367 -0.26076,0.65852 1.28178,0.10483 0.93046,-0.17488 1.24601,-1.23852 4.35854,2.09081 5.12654,1.97445 2.82612,0.81735 0.59007,-2.48093 -1.03942,-2.25787 -1.28984,-1.82646 -11.8209,-3.28703 -6.71573,-4.20795 3.37127,0.14835 6.5283,2.4153 9.64146,3.74639 1.40963,-2.51412 -2.42962,-2.16322 2.40985,-3.60262 -0.40423,-1.35792 -3.53747,-1.16027 -4.73346,-2.32388 -4.27394,-1.6438 2.77439,-1.70036 3.94367,0.42744 2.15479,1.16971 9.84055,5.05959 7.73708,-0.64132 0.21662,-0.99522 -1.15819,-2.14363 -0.70878,-2.86344 z m -16.24753,3.33989 c 1.39572,-0.44725 8.9112,4.295 3.32497,1.81965 -0.54627,-0.2778 -4.74288,-1.36406 -3.32497,-1.81965 z m -66.35742,0.61349 c 0.27492,0.55839 -0.83911,2.77173 0.86626,4.40382 0.569,3.30914 5.17837,2.43313 7.47139,1.89543 1.59297,-1.28182 10.06954,-2.48996 6.21165,0.56928 -1.62403,0.98587 -8.79445,1.14148 -5.9603,4.25047 3.93982,0.51154 8.0186,-2.87617 12.16032,-3.01252 2.76291,3.14652 -5.57255,3.26187 -7.22962,3.99742 -3.38906,-0.86623 -3.92946,2.51639 -0.682,2.20187 3.02331,0.61084 11.09899,-2.35108 10.36229,1.74412 -1.73714,0.0567 -3.53208,-0.21464 -5.71594,-0.27669 -4.8686,-1.74872 -10.42582,2.14941 -3.34153,3.53888 1.58014,0.89157 3.36869,1.04986 4.4269,2.61893 -2.99152,1.86478 -6.13791,-2.74267 -9.54156,-1.4363 -3.12336,-0.3982 -5.99625,-0.33833 -9.1582,-0.42726 0.63241,-4.49561 1.36331,-9.18493 -0.64611,-13.69244 -4.30521,-3.32109 -2.89098,-3.93982 0.77645,-6.37501 z m 142.76227,7.50213 c 0.3074,1.8042 -0.0204,0.26777 0,0 z m 0.10932,1.26122 c -0.91478,0.78034 1.00101,0.45636 0,0 z m -74.31966,4.72188 c 1.43949,0.52746 -0.18417,0.75806 0,0 z m -31.3921,8.91835 c -0.20932,0.76871 0.99325,0.76601 0,0 z m 22.77069,4.23728 c -1.15196,1.18935 1.14051,0.79745 0,0 z m 10.39334,0.68527 c -0.81747,0.65741 0.91591,0.53208 0,0 z m -17.60178,0.0604 c -0.48846,0.99624 1.46015,0.60865 0,0 z m 7.3406,0.14522 c -0.86056,0.0321 0.12074,2.15318 0,0 z m 1.00997,0.51232 c -0.96075,-0.017 1.00223,0.59884 0,0 z m -58.65297,1.90079 c 0.60591,1.70551 -0.78514,0.5372 0,0 z m 139.45663,0.30675 c 1.22018,1.0337 -0.86826,1.28918 0,0 z m -135.00725,1.06217 c 5.43534,0.84119 -1.97201,1.19706 3e-5,-2e-5 z m -1.53044,0.0473 c 1.34204,0.35349 -0.88738,0.38146 0,0 z m 25.45632,0.0783 c 9.87391,1.77593 -10.44953,1.44231 -0.60365,0.16484 l 0.6037,-0.16479 z m -87.705356,0.27411 c 0.990868,0.46965 -0.03529,0.92531 0,0 z m 79.119836,0.13216 c 1.07307,0.53667 -2.034,0.0161 0,0 z m -2.15209,0.002 c 2.96798,0.0896 -0.82682,0.57032 3e-5,3e-4 z m 4.25197,0.0294 c 1.18726,0.77505 -1.42461,0.0858 0,0 z m -80.6046,0.65916 c 1.150685,1.71149 -0.574464,0.87555 3e-6,1.3e-4 z m 196.39479,4.95029 c 0.71601,0.37816 -0.51834,0.85498 0,0 z m -0.41606,1.54024 c 0.69453,1.06124 -1.7989,2.57774 0,0 z"
     id="path1"
     style="stroke-width:0.835382" />
</svg>
