<?xml version="1.0" encoding="UTF-8"?>
<svg class="svg-include colorized-orange" id="Layer_1" xmlns="http://www.w3.org/2000/svg" version="1.1" viewBox="0 0 737.54 844.11">
  <!-- Generator: Adobe Illustrator 29.6.1, SVG Export Plug-In . SVG Version: 2.1.1 Build 9)  -->
  <path fill="currentColor" d="M310.95,104.95c5.89-2.12,4.49,4.03,5.37,5.13.22.27,3.21.7,4.15,1.83,2.97,3.57.07,9.66-4.66,9.58-4.06-.06.77-6.45.38-6.79h-5.99c6.85,14,11.62,31.83,3.14,46.23-1.4,2.37-6.03,6.57-6.54,7.71-.28.62,1.64,3.42,1.01,6.22-.41,1.82-1.93,2.45-2.43,3.58-1.15,2.59-2.73,7.74-4.23,10.03-.56.86-1.97,1.08-2.1,1.29-.41.73,2.25,4.23-1.19,7.39-1.08.99-2.86,1.15-3.73,2.27l-4.15,7.45c6.81.38,18.4,3.66,23.62,8.23,6.48,5.67,15.4,22.81,20.86,30.85,6.22,9.16,13.74,22.01,20.76,30.03,9.35,10.68,25.7,22.5,36.67,32.44,6.52,5.91,12.8,12.22,19.1,18.37.23-7.75-2.12-15.98-3.27-23.71-1.05-6.99-1.46-14.15-2.45-21.15-12.07-4.29-22.55-12.36-31-21.84-2.28,2.75-4.11,14.1-9,9.75-.77-.69-4.03-8.62-4.68-10.3-4.65-12-7.77-26.72-3.17-39.16-1.29-1.05-12.56,7.13-14.24,8.61-1.19,1.04-2.42,5.12-5.3,3.05-2.53-1.82,1.84-22.17,3.04-25.91-11.19,10.66-7.82-4.98-5.27-11.65,7.68-20.09,40.73-19.21,58.32-24.86,3.05-.98,14.09-5.34,15.52-7.71.91-1.51.13-4.41.42-6.32.82-5.43,7.16-7.5,7.28-8.26.1-.64-3.48-10.15-3.98-12.37-2.93-13.08-4.2-25.82,1.33-38.44,2.68-6.13,9.9-9.89,15.91-12.57,36.91-16.44,97.61-21.34,134.79-4.37,12.29,5.61,15.24,10.25,8.88,23.66-.73,1.53-2.52,2.18-2.4,3.96,5.79,1.07,11.55,2.86,17.53,2.17,2.05-.24,14.07-4.98,10.1,1.84-4.33,7.42-14.07,13.21-22.38,14.74,4.31,5.79,11.2,4.23,16.69,5.4,7.31,1.56-1.2,9.24-4.02,11.38-3.62,2.75-8.06,4.83-12.67,4.94,1.54,3.31,12.67,3.49,11.87,7.76s-10.8-.43-13.13-1.63c-2.75-1.42-9.52-5.49-9.26-8.75.23-2.95,4.31-1.58,6.39-1.89,5.65-.83,11.45-1.84,15.36-6.37-5.15-1.12-15.19-4.17-17.41-9.55-3.1-7.51,5.48-6.02,10.93-8.17,2.63-1.04,6.16-2.94,7.98-5.13-3.07-.13-6.2.22-9.27-.1-2.52-.26-11.05-3-11.93-2.79-.83.2-10.29,10.33-12.14,11.88-.98.83-2.07,1.4-3.38,1.51,3.07,5.48,5.72,10,7.44,16.16,8.37,30.09-1.25,74.45-35,84.04-11.65,3.31-22.78,2.84-34.64,1.35,1.31,5.83,3.28,11.98,7.88,16.1,5.5,4.92,9.34,1.92,15.34-.4,9.99-3.86,31.25-15.9,40.83-15.35l10.91,3.43c5.61-3.6.56-29.37,13.84-12.42,3.52-6.19,3.14-13.92,1.15-20.62-.83-2.81-4.69-6.75-.06-8.27,3.42-1.12,6.79,1.27,9.76,2.67-1.54-9.29-3.62-19.14-9.75-26.59-1.93-2.34-6.28-3.42-3.77-6.8,4.24-2.96,11.66,9.29,13.14,12.42,2.53,5.36,6.07,19.31,5.59,25-.71,8.53-6.62,3.53-9.7-.27,2.13,7.75,2.18,22.34-3.01,28.85-4.04,5.06-5.29,2.63-7.42-1.55-1.86-3.65-1.34,1.47-1.74,2.87-.54,1.9-1.44,3.56-2.07,5.41,1.27,1.83,3.59.84,5.44,1.32,33.12,8.54,55.03,48.59,79.22,70.65,10.09,9.2,20.02,13.98,29.93,21.77,4.74,3.73,2.7,3.73,3.94,8.05.67,2.34,18.51,10.24,21.87,12.63.9.64,3.63,4.34,4,4.42,3.37.72,11.43-4.1,13.89,1.64,1.29,3.02.84,11.64-.78,14.58-2.53,4.58-9.22,3.81-10.3,5.44s.24,6.82-.49,9.25c-.61,2.03-5.85,2.97-7.91,3.34-1.13.2-2.25-.65-3.39-.42-2.59.53-7.61,6.33-10.65.6-2.49,1.69-6.82,2.75-9.71,2.22-1.15-.21-2.05-1.41-3.04-1.45-2.24-.08-6.43,3.65-10.19.42-1.48-1.27-1.31-3.32-1.44-3.45-.22-.24-4.91,1.41-6.39,1.52-2.03.14-3.69-.5-5.62-.43l-26.95,6.77-27.7,65.98.36,1.1c15.25-13.66,34.91-20.21,55.45-17.98,22.95,2.48,27.18,54.98-1.68,59.78-5.04.84-10.2-1.11-14.06-.59-1.03.14-1.34-.37-1.13,1.14.59,4.33,4.64,4.43,7.41,6.09,6.38,3.83,11.3,7.3,16.21,13.01,39.24,45.67,39.8,168.6-7.87,208.74-20.75,17.47-43.17,10.22-58.75-9.45-33.98-42.92-33.7-121.6-15.39-171.17l-4.91-10.87-28.81,63.36c-1.06,1.36-2.49,1.17-4.06,1.04-3.8-.31-24.42-6.77-25.86-5.86-11.26,22.42-26.88,42.18-41.21,62.63l18.64,27.21c1.83-.55.05-4.2,0-5.62-.15-4.62-.06-8.67,2.09-12.89,4.82-9.48,16.69-11.35,20.96-.43,3.24,8.27,1.42,14.96-2.07,22.69.2.25,1.4-1.07,2.08-1.29,6.17-2.01,34.27-1.2,38.72,3.57,5.38,5.77,2.99,24.17,1.8,31.72-1.68,10.72-4.66,22.24-13.03,29.68-3.7,3.28-13.36,8.46-15.69,12.04-1.84,2.83-1.4,7.07-2.48,10.26-2.93,8.71-25.06,29.81-34.24,30.95-1.83.23-6.37.24-8.08-.2-2.72-.7-12.59-9.66-14.77-12.2-1.62-1.88-6.64-10.06-7.52-10.53-1.59-.84-4.13,2.75-7.17.48l-20.92-29.26c-6.04,16.3-11.38,32.25-21.79,46.39-32.11,43.59-73.39,30.91-97.1-12.17-24.77-45.01-26.58-109.22-14.05-158.2,1.27-4.96,6-16.27,5.96-20.32-.02-2.06-6.56-14.16-8.12-16.61-.36-.57-1.85-2.87-2.38-2.48l-21.3,50.28-52.57,4.38c-1.09,14.83-2.86,30.01-6.53,44.43-7.86,30.86-32.55,82.13-67.22,42.56-3.76,13.74-10.11,26.56-15.36,39.73-4.03,10.12-7.79,25.06-13.22,33.99-3.57,5.86-3.68,7.77-6.28,13.95-1.49,3.56-4.42,8.98-6.5,12.23-5.73,8.95-10.36,10.5-21.24,9.54-13.12-1.16-27.51-15.11-33.92-26.03-1.8-3.07-3.37-8.84-5.75-10.74-3.26-2.59-10.03-3.58-14.13-6.1-6.97-4.28-16.35-15.82-20.58-22.88-5.82-9.72-15.27-31.11-10.79-41.98,2.61-6.33,7.12-6.6,13.24-7,4.32-.28,8.81.28,13.14.02l-8.22-6.38c-17.71-27.56,22.36-30.37,26.21-5.6.83.87,9.92-18.23,10.61-19.73,8.98-19.28,16.56-39.28,25.21-58.72,21.63-48.57,43.94-96.97,69.05-143.76-9.9-3.83-20.04-7.09-29.72-11.48-14.25-6.47-32.08-15.99-45.14-24.55-3.73-2.45-12.53-7.2-11.92-11.77.15-1.11,12.05-14.84,13.97-17.54,19.46-27.38,38.57-70.44,41.25-104.13,1.54-19.34-3.96-48.66,4.96-65.49,4.2-7.93,15.27-16.26,22.63-21.58,1.83-1.32,10.82-6.38,11.27-7.08.69-1.06.32-3.92,1.13-4.87.56-.66,3.01-.86,4.1-1.52,1.66-1,8.5-6.57,9.77-7.84.85-.85.76-2.71,2.45-3.92,1.55-1.1,3.94-.92,4.35-1.27.35-.3.34-2.24.95-3.16,1.05-1.59,3.44-1.66,4.05-2.7s.19-2.68.74-3.75c.76-1.48,2.64-1.13,3.19-1.68.6-.61.29-2.65,1.71-3.92,2.08-1.87,6.58-1.42,8.96-.39l-.75-8.24c-2.85,3.71-6.01-1.29-8.28.33s2.13,6.44-.05,7.83c-1.67,1.07-6.39-2.31-8.15.46,2.47.86,4.33,4.47,1.92,6.44-2.93,2.4-4.84-2.78-7.92-2.32,2.93,2.67,4.5,7.95-1.08,6.7-1.47-.33-2.61-2.14-4.19-1.14-3.13,1.99,2.83,7.29-2.17,8.32-1.66.34-5.44-3.53-8.34-1.57-2.31,1.56,3.35,9.25-3.29,8.64-1.83-.17-3.71-2.48-5.7-1.15-1.51,1.01,1.04,5.9-.82,7.05-1,.62-7.86-.32-9.32,1.56-1.25,1.6,2.58,4.65-.3,6.44-2.29,1.43-4.29-1.45-4.5-1.15.12,5.96-3.44,4.67-7.5,3,1.76,8.03-6.01,2.32-6.74,3,.35,2.57,3.77,4.35,1.56,7.18s-5.35-1.41-6.75-.39c-.21.15-.61,2.88-1.87,3.76-1.7,1.19-4.88.08-5.67,1.82-.75,1.65,2.03.9,2.67,1.8,2.91,4.08-7.02,6.68-7.93,1.93-.57-2.97.81-8.44,3.77-9.73,1.26-.55,2.96-.12,3.6-.51.37-.22.69-2.43,1.58-3.3,2.62-2.57,1.3.68,3.39-4.07,1.53-3.47,4.37-2.87,7.1-4.16,1.06-.5,1.53-1.98,2.84-2.43.93-.32,3.05,0,3.21-.16.11-.1.06-2.82-.05-2.93-.16-.17-2,.03-2.91-.44-1.46-.77-1.64-2.82-3.98-2.5-4.7.64-1.67,6.5-3.5,7.82s-6.78-2.83-9.79-.42c-.78,1.07,4,3.81,1.92,6.79-1.45,2.07-5.54-.94-7.22.27-1.22.88-.27,3.61-1.05,4.95-.63,1.08-2.85,1.05-3.24,1.64-.71,1.06-.18,6.42-4.71,2.52-4.76-4.09.81-6.36,2.22-8.39.7-1.01.69-2.59,1.56-3.69,1.65-2.07,5.01-1.67,5.22-1.89.36-.38-.63-4.08,2.32-6.3,2.47-1.86,7.8-1.73,8.12-2.01s.64-3.07,3.14-4.72c1.8-1.19,5.01-1.47,5.77-2.1.89-.73,1.09-3.62,3.65-4.97,1.27-.66,3.8-.79,3.94-.93.26-.26.32-4.58,2.36-6.25,1.9-1.56,4.22-.72,5.09-1.28.34-.22.59-2.2,1.66-3.21,1.7-1.61,4.48-1.39,5.92-2.32.91-.59,1.45-2.41,2.64-3.36,4.02-3.2,2.35-.37,5.74-5.5,2.5-3.79,4.84-1.9,7.65-2.84,1.21-.41,1.86-2.94,3.55-3.94,1.54-.91,4.71-.99,5.06-1.3.25-.22.64-3.13,1.31-4.31,2.3-4.05,7.84-6.07,12.3-5.31-1.89-1.46-1.54-9.13-2.25-9.74-.28-.24-1.71.69-2.5.56-1.28-.21-2.92-2.76-4.98-2.05-2.02,2.07,5.97,15.27-4.49,8.99.5,5.43-3.07,3.54-6.75,3.01-.37.29,3.12,2.84,1.91,5.23-1.83,3.58-5.22-.51-7.9.02-.62.64,1.94,6.48-1.25,7.43-2.2.65-3.73-2.23-5.29-2.78-5.38-1.9-1.39,6.54-3.16,7.76l-6.83-.11c-1.62,1.46.14,5.55-1.15,6.5-2.51,1.86-4.71-1.82-5.9-1.57-2.66.54,1.25,8.5-4.35,7.38-.68-.14-3.54-2.31-3.52-.26,0,.34,3.72,4.18-.03,6.03-3.41,1.68-3.95-3.38-6.35-2.65-3.03.92,2.62,8.5-3.72,7.51-1.89-.3-2.42-2.81-4.15-1.93-3.45,1.75,1.93,5.75-.7,7.58s-5.99-2.77-9.06-.81c-2.23,1.42,1.36,3.01,1.89,4.15,2.07,4.5-1.47,3.76-2.42,4.67s.05,4.54-3.37,4.2c-2.56-.26-4.29-3.25-6.05-2.81-2.03.51-5.21,9.04-6.87,8.99-3.33-.09-4.25-3.32-3-6.05.2-.43,6.4-6.44,6.82-6.66,2.12-1.09,4.72-.52,5.42-.95,1.14-.7-.44-8.41,6.22-10.65,1.31-.44,3.63-.24,4.24-.63.42-.27,1.11-3.47,2.43-4.69,1.86-1.72,4.52-1.35,5.75-2.12.7-.44,1.71-3.12,3.67-4.2s9.29-4.32,10.57-5.54c.59-.56.87-3.36,2.48-4.63,1.99-1.57,4.2-.73,5.07-1.3.34-.22.55-2.29,2.11-3.52,1.67-1.31,4.96-1.38,5.38-1.74.34-.29.89-4.26,2.74-5.88,2.55-2.22,4.46-.87,6.64-1.6,1.19-.4,1.57-2.39,2.75-3.25s3.05-.83,3.55-1.32.39-2.22,2.04-3.58c1.38-1.14,3.01-1.03,3.93-1.7.64-.47.82-1.86,2.18-2.7.92-.57,2.88-.64,3.16-.96.6-.68.05-4.43,2.31-6.3,1.92-1.58,3.72-.32,4.56-1.8-2.3-.47-3.59-2.82-6.15-2.11-.79.22-1.52,1.35-2.48,1.37-1.58.03-2.41-3.04-5.16-2.23-3.42,1.01,3.55,6.3.36,8.63-2.18,1.59-3.97-2-6.05-.81-1.26.73,1.1,3.18.79,5.23-.77,5-6.4-1.85-9.02-1.1-.61.61,3.71,7.06.29,8.19-3.19,1.05-5.13-6.11-11.92-.71-5.52,4.39.85,7.96-1.44,11.3-2.54,3.69-5.36-4.89-9.07-.82-3.08,3.38,1.68,8.38-1.85,10.19-2.69,1.38-5.3-3.29-7.82-2.65-2.36.6-.04,3.21.19,4.28,1.96,9.09-10.02-1.41-14.1,1.71-.83.86,5.12,7.55,1.02,8.91-5.25,1.75-5.21-5.73-9.55-2.83-4.85,3.24,2.02,8.3-.65,10.97s-6.37-2.83-8.86-1c-1.64,1.2-.56,12.17-8.18,8.68,2.26,6.14-1.55,4.35-2.68,5.94-.32.45.48,1.72.28,2.5-.98,3.78-6.92,1.79-4.77-4.75.11-.35,3.1-5.95,3.38-6.36,1.45-2.18,4.29-1.55,5.36-2.88.89-1.1.61-3.26,1.24-4.75,1.82-4.29,6.96-3.41,7.58-4.03.34-.34.37-5.33,3.05-7.82s6.18-1.89,7.37-2.74c.71-.51,1.43-4.63,4.65-4.71-2.95-1.82-5.04-5.46-8.98-4.87-.76.73,5.82,10.87-5.25,7.49,1.58,7.29-5.96,3.41-6.78,4.06-.98.78-.66,3.86-2.16,5.36s-4.83,1.09-5.67,2.57c-.94,1.65.5,5-2.96,4.52-1.16-.16-2.17-1.69-3.01-1.53-2.15.41.06,2.16.22,2.82.86,3.52-2.22,3.23-2.7,4.09-.61,1.08.34,6.54-3.93,3.98-3.61-2.17-.14-6.47.57-8.45.41-1.14.02-2.57.58-3.91,1.45-3.44,5.1-2.45,6.22-3.14.35-.21.61-2.07,1.26-2.85,2.97-3.54,5.34-1.34,5.61-1.51.33-.21.61-4.5,1.45-5.68,1.14-1.59,3.59-1.33,4.38-2,.64-.54.35-1.97,1.45-2.87,1.45-1.18,5.22-1.3,5.42-1.5s-.11-3.15.88-4.75c1.63-2.63,5.47-1.61,5.87-2,.13-.12.11-2.43.61-3.5,2.33-4.95,5.75-2.43,9.4-3.21.52-.11.62-1.22,1.45-1.71s3.18-1.03,3.43-1.42c.91-1.45-.33-5.68,3.87-6.98-8.15-5.95-2.68,3.77-5.72,4.79s-7.44-3.31-10.23-1.48c-2.64,1.73.69,8.39-3.87,8.72-1.79.13-7.28-2.26-8.53-.29-1.94,3.04,4.08,10.67-8.35,5.89,2.62,7.11-1.26,5.01-3.56,6.93-1.59,1.33-.89,6.27-6.17,2.06,3.2,7.93-.29,4.73-2.86,6.14-1.49.82-1.66,7.01-6.89,4.35,1.51,5.28-.02,6.74-5.25,5.25,3.22,9.49-7.43,4.56-4.1-2.99,1.12-2.54,3.96-1.83,4.69-2.43.41-.34.89-3.71,3.18-4.7,1.27-.55,2.95-.12,3.59-.52.53-.33,3.02-6.68,3.85-7.76.92-1.19,5.84-4.98,7.52-6.72,1.39-1.45,1.69-3.65,4.14-4.1,1.17-.22,4.53.25,4.83-.05.13-.13.09-2.42.59-3.52,2.37-5.26,10.22-2.8,10.67-3.19.32-.28.31-5.63,3.46-7.41,2.89-1.63,5.65-.17,8.04-.95,1.49-.49,1.55-2.97,2.76-3.98,1.84-1.55,4.23-.71,5.1-1.27.35-.23.55-1.99,1.29-2.82,2.78-3.16,7.5-2.03,7.81-2.32.21-.2.09-3.88,1.5-5.62,1.85-2.3,5.37-1.96,6.76-2.98.75-.55.95-2.37,1.84-3.41,1.13-1.32,2.8-1.65,3.41-2.94-7.52-3.18-4.33,4.78-6.09,5.88-1.53.96-6.81-1.27-7.39-.65-.18.19.47,3.79-2.03,4.41-1.34.33-5.98-3.05-5.38.35.21,1.16,2.72,2.11.72,4.67-1.83,2.34-3.87.04-5.68-1.16-2.28,1.71.89,3.88-1.06,6.41-2.05,2.66-4.29-.72-4.55-.43-1.96,11.19-7.38-1.05-9.36-.75-2.26.35,1.17,3.2,1.19,4.86.07,6.54-8.11-1.52-10.51,1.19-.38,2.31,1.12,4.43-.14,6.61-2.19.98-4.16-1.03-5.69-1.28-4.52-.74-.57,2.69-.34,4.15.75,4.73-4.21,3.59-6.97,1.7-1.75.96-.15,3.3-1.47,4.52-1.19,1.09-3.18.55-3.39.76-.39.38,1.53,6.65-4.88,5.98-1.43-.15-1.88-1.78-3.39-1.5.86,6.04-1.2,7.51-5.99,3.75l-1.94,4.47c-4.55.42-3.7-6.33-1.45-8.23,1.56-1.32,3.45-.28,4.88-1.11.89-.52,1.22-2.74,3.18-3.57,1.35-.57,3.84-.38,4.2-.68.31-.26.18-1.83.79-2.56.85-1.01,2.4-.78,2.88-1.25.52-.52.39-2.41,1.33-3.54,1.16-1.39,3.71-1.52,4.66-2.46s.97-3.12,2.79-4.33c2.97-1.96,5.87-.02,7.15-5.21-7.73-1.1-9.71-4.53-8.35,5.88-2.63,1.62-4.15.25-6.26-1.37-2.25,1.23.53,3.57-.68,5.28-.98,1.38-3.99.23-4.84.79-.55.36-.6,3.76-1.52,4.85-1.02,1.2-2.72.79-3.77,1.47-.78.5-3.6,5.6-5.13.56-2.12-7.01,3.62-5.19,4.95-6.35.32-.28.38-2.22.96-3.15.91-1.47,2.48-1.76,3.25-2.76.98-1.29,1.35-3.46,2.13-4.24,1.12-1.14,4.01-1.2,4.85-1.9.61-.51,1.4-3.4,2.44-4.29-2.69,1.28-5.72-4.5-7.48-2.24-.39.5,2.51,8.32-3.23,6.64-1.94-.57-1.67-4.1-3.54-2.55-3.97,3.3.62,6.73.78,9.07.39,5.73-6.56.35-7.86.29-.32-.02-3.3,5.03-4.74.24-1.97-6.53,4.44-4.95,5.06-5.51.32-.29.24-5.53,2.99-7.87,2.01-1.71,4.09-1.26,5.99-2.25.7-.36,5.62-3.25,5.87-3.5.73-.72.67-4.35,2.87-5.74,2.09-1.32,5.73-.49,6.22-.9.15-.13.45-2.48,1.22-3.65,3.57-5.41,13.69-5.72,19.08-3.02.39-7.08,9.31-8.88,14.99-6.75-.14-4.17,2.46-7.82,6.54-8.83,1.37-.34,4.03.13,4.61-.26.47-.32.6-4.3,3.56-5.8,2.43-1.24,5.02-.39,6.12-1.01.38-.21,1.42-2.96,3.21-3.9s4.76-.57,5.21-.86c1.41-.91,2.34-4.84,5.97-4.08-5.37-6.55-10.58-20.35-10.41-28.77.54-25.78,38.21-49.4,60.03-56.12,42.98-13.26,85.9-8.89,123.41,15.64,5.86,3.83,16.66,9.4,17.87,16.6,1.37,8.16-3.33,30.56-7.47,37.89s-11.93,14.24-17.83,20ZM247.26,19.53c-1.35-.19-2.19.95-3.22,1.65-17.44,11.84-34.01,25.09-49.98,38.81l12.66-8.69,40.54-31.77ZM227.03,70.48c6.06-.85,10.99-5.06,15.97-8.37,17.94-11.94,34.53-26.11,52.2-38.46-3.69-3.64-6.68-.13-9.96,2.01-20.48,13.32-40.17,28.38-58.21,44.82ZM201.55,22.53c-4.06,1.71-8.16,5.08-11.24,8.23,4.06-1.71,8.16-5.08,11.24-8.23ZM310.95,32.25c-.16-.8-.62-1.41-1.54-1.18-.75.19-5.64,3.52-6.94,4.33-10.22,6.35-20.39,13.31-29.74,20.84l38.21-23.99ZM318.44,36.01c-1.33-1.07-10.75,6.52-11.98,8.23,3.53-1.67,7.44-3.98,10.57-6.3.36-.27,2.78-.84,1.42-1.93ZM254.75,39.76l-13.72,9.12-14,11.1,19.72-13.62,8-6.6ZM330.42,45.76c-.86-.73-16.65,11.48-17.98,13.48,6.48-3.03,12.5-7.26,18.39-11.21l-.42-2.26ZM215.04,52.51l-10.84,7.51c-8.48,7.62-18.05,14.2-25.87,22.46l12.34-9,24.37-20.96ZM316.19,69.73l13.02-7.58,1.21-2.9-14.23,10.48ZM198.56,116.2c-2.17,2.42,3.64,57.35,7.83,61.48,4.47,4.41,20.22,8.84,26.63,10.09,13.96,2.73,21.92,1.77,35.39-2.09,16.93-4.86,41.79-18.26,43.97-37.71s-9.97-28.3-8.07-47.04c.44-4.31,4.05-14.06,3.67-17.34-.42-3.59-15.17-6.21-18.61-6.88-16.04-3.1-33.26-4.02-49.59-3.98,4.17,7.7-4.32,7.79-5.69,9.71-.47.66.73,3.53.31,5.48-.45,2.1-2.35,3.54-3.61,5.04,3.34,0,14.77-5.14,17.12-3.63.74.48,1.06,3.07.19,4.08-1.31,1.51-16.35,5.38-17.74,3.35-.81-1.19.79-4.9-3.57-2.32-.67.4-.57,2.4-1.57,3.83-1.42,2.04-4.76,2.72-4.93,2.96-.16.22,1.62,2.08-.41,5.2-2.42,3.72-6.65,2.71-7.04,3.08-.26.25.19,4.16-3.07,6.3-3.78,2.47-7.28,1.87-11.21.4ZM225.53,77.22c1.37.28,10.36,1.11,9.73-1.85l-3.3-1.12-6.43,2.98ZM488.53,74.99c-2.48.34-6.15.3-8.43.92-4.23,1.15-27.67,21.96-32.79,26.41-8.58,7.46-20.61,17.06-28.12,25.09-1.37,1.46-2.25,2.2-1.84,4.52l71.18-56.95ZM545.48,78.74c-1.93-.52-2.3-.95-4.16-.09-4.43,2.06-14.95,10.87-19.41,14.35-6.03,4.72-12.11,9.66-17.64,14.95l41.21-29.21ZM463.06,79.49c-2,.27-4.21.88-5.97,1.89-1.02.59-18.11,14.54-17.26,15.33l23.23-17.22ZM228.29,83.45c-2.92-3.58-3.92-.22-5.8.89-2.21,1.3-2.98-1.05-3.71,4.13,3.7,1.06,14.57,1.19,9.51-5.02ZM556.72,81.73c-2.13-.41-3.16.63-4.74,1.62-6.71,4.23-13.71,11.31-19.98,16.35l23.17-15.42,1.55-2.56ZM565.71,85.48c-1.37-.24-2.24.11-3.43.68-1.11.54-14.47,10.7-13.8,11.29l7.73-4.63,9.5-7.35ZM438.33,86.98c-4.61.9-8.85,5.67-11.99,8.98l11.99-8.98ZM209.78,89.22c-1.15-1.17-1.4.62-1.7.96-.54.61-3.4,3.75-2.78,4.28,1.33-.08,4.08.47,4.93-.71.46-.64-.28-4.37-.44-4.53ZM571.7,89.22c-.96-1.07-18.91,13.02-20.23,14.98l19.31-12.51c1.21-.08,1.14-2.22.92-2.47ZM217.27,89.97c-2.4-1.82-1.54,5.28-2.24,5.99,1.62-.09,5.17.63,5.98-1.13.7-1.5-1.74-.99-2.62-1.84s-1-2.92-1.13-3.02ZM200.79,96.71c-2.96-.1-2.25,3.17-2.24,5.25,5.67.27,2.55-1.72,2.24-5.25ZM200.04,175.41c-6.47-25.17-6.8-51.29-7.1-77.18-.67.97-3.1.52-3.35.77-.33.32.06,7.72-.05,9.33-.8,12.58-.3,25.56.76,38.22.42,5.01,1.16,16.61,2.39,20.84.43,1.49,5.68,6.85,7.34,8.02ZM215.03,104.21c-.11-.88-2.04-5.76-2.26-6-.49-.53-7.88,2.21-5.98,6h8.24ZM170.07,99.72c-4.27,0-8.56-.32-12.73.75-.05,1.34,1.98.84,2.81,1.67,1.45,1.44.98,4.48-1.09,5-1.48.37-3.47-2.54-3.97-.29-.3,1.34.57,2.8.77,4.11,4.49.38,3.73-3.67,6.43-5.17,1.34-.74,3.27-.57,3.88-.99.48-.34.64-2.06,1.28-2.83.97-1.17,2.46-1.06,2.63-2.24ZM184.32,99.71c-2.61.1-5.27-.13-7.88,0-.84.04-2.06-.49-1.86.74,2.36-.2,2.83,3.19,4.24,3.64,1.59.5,3.79-.31,5.49.87v-5.25ZM154.34,101.22c-.92.22-4.92.59-5.15.84-.38.41.22,2.57-.78,3.34-1.68,1.29-4.05-1.68-3.8.67,4.17,4.38,4.84-.12,6.71-2.26,1.06-1.22,2.64-1.37,3.02-2.59ZM175.33,106.47c-.13-.13-2.9-.14-3.38-1.49-2.3,4.13.4,7.45-6.37,4.81-2.16,1.38-.06,3.54-1.49,5.66,1.58.69,10.05-4.14,10.35-4.62.12-.19,1.05-4.2.89-4.35ZM201.73,111.51c1.32,1.3,4.57.92,5.5-.55.78-1.23-1.95-4.16-1.19-6.01-2.14,1.18-7.31,3.59-4.3,6.55ZM143.79,111.03c-.92-1.36-8.88-3.92-7.79-.86.42,1.18,2.46,3.47.42,4.96-2.62,1.91-5.06-3.65-8.59-1.12-2.68,1.92-.9,5.52-1.19,8.18,1.3-1.75,7.69-2.02,8.11-2.38.29-.25.24-1.77.84-2.5,2.8-3.48,7.15-2.32,7.49-2.65.13-.13.83-3.47.72-3.63ZM184.31,110.2c-1.48,1.32-4.75-1.23-5.24-.74-.3.29,1.93,5.95-3.74,6,.37,1.4,2.1.93,2.65,2.92,1.5,5.48-6.21.93-6.83.83-3.92-.66-10.06,3.64-10.09,7.85-.03,3.83,4.91,11.43,7.5,14.27,5.05,5.55,11.18,6.83,17.25,10.85l-1.49-41.97ZM154.35,113.21l-5.93-.69-.81,6.69c2.83-2.89,7.22-.85,6.74-5.99ZM146.85,120.7c-5.06-.23-8.34-2.86-7.48,4.49,2.04-2.79,7.22-1.09,7.48-4.49ZM122.35,122.7c-.63-.53-.38-1.8-2.1-2.05-5.28-.78-5.65,4.45-4.11,8.29,1.47-.62,1.19-2.34,3.17-3.18,1.16-.49,8.38-.48,6.55-2.81-.12-.15-1.74,1.23-3.51-.24ZM157.34,122.2c-8.63-2-4.68,4.99-6.69,6.41-1.74,1.23-4.22-.42-5.73-.36-3.25.13-2.96,5.95-4.06,8.18,3.28.63,3.02-2.77,4.85-4.51,3.24-3.09,7.55-2.68,10.88.02.24-3.24-.66-6.71.76-9.74ZM484.41,133.44c-2.45.74-14.31,0-17.98,0-.23,0-.65-.62-1.85-.44-.68.11-10.06,3.86-10.36,4.33-.4.64-.97,6.5-.95,7.73.17,11.08,3.21,25.78,6.26,36.5,1.58,5.55,9.5,29.17,13,31.96,3.18,2.53,16.13,6.42,20.48,7.25,17.69,3.35,40.74-.03,52.46-15.03,7.63-9.77,13.51-36.95,12.75-49.44-.43-7.05-5-26.89-11.29-30.68-2.08-1.25-15.02-2.49-18.31-2.67-17.2-.94-33.15,1.6-49.82,5.25.88,1.87,5.2-.28,6.42,1.44.76,1.07.37,3.45-.8,3.8ZM138.61,125.95c-2.7,1.19-5.24-1.75-7.74-.07-1.57,1.06-.66,4.65-2.48,5.26-1.5.5-5.02-1.39-7.02-.7l-.85,6.64c-2.01.43-4.18.35-5.52-1.38-1.63,1.18-.59,3.45-1.12,5.23,1.82-1.48,4.05-1.15,5.94-1.92.92-.37,1.66-1.83,2.99-2.25,1.44-.45,3.77-.04,4.43-.44.79-.49.76-4.18,5.91-5.71,4.04-1.21,3.43,1.37,5.44-4.66ZM109.27,134.82c.17-.15,1.65-3.82,1.29-4.4-1.1-1.8-6.08-1.78-7.97-1.15-3.58,1.19-2.33,5.87-3.7,8.65,2.16.39,3.55-2.42,5.03-2.83s4.81.21,5.35-.28ZM160.34,138.68l-2.26-5.23c-1.49-.08-.78,2.76-1.97,3.04-2.64.62-4.37-2.12-6.96-1.49-.58,12.22-7.07,4.56-10.59,7.02-1.6,1.12.2,5.7-1.4,6.84-1.93,1.38-5.84-1.68-7.22.28-1.24,1.77,1.85,4.93-.63,6.85-2.11,1.63-5.89-.12-7.95,1.04-1.37.77.99,2.72.79,4.49-.13,1.14-1.74,2.35-1.52,2.64.12.15,3.45.99,3.72.74.22-.2.33-3.2,3.08-4.83.82-.48,2.26-.16,2.77-.57.46-.37.71-3.4,2.2-4.36s9.96-5.42,11.24-5.81,3.12.18,3.85-.26c.29-.17.69-2.64,1.96-3.66,1.42-1.15,4.19-1.1,4.73-1.64,1.27-1.27.55-6.56,6.16-5.09ZM97.39,138.69c-5.03-2.02-5.45-4.36-11.61-3.75-9.71.95-4.97,10.05-7.19,11.91-3.38,2.83-5.4-5.7-7.42-3.66-.94.95,2.43,6.42,1.5,8.24,1.22-.73,5.48-.52,5.88-.86.23-.2.24-1.75.82-2.52,2.35-3.11,4.37-1.25,7.01-1.84.67-.15,1.14-2.44,2.95-3.21,3.32-1.41,6.32.78,8.05-4.3ZM113.13,141.69c-1.48.84-5.05-1.71-5.24-1.51-.09.09.03,1.54-.42,2.2-2.53,3.71-4.78-.17-5.94.05-1.85.35-.85,4.89-1.13,6.27-.09.42-2.96.77-1.51,1.98.27.22,6.42-1.72,6.72-1.89.68-.4,1-1.84,1.99-2.5,2.15-1.44,4.57-1.35,5.53-4.59ZM463.81,207.63c-5.98-14.53-11.93-30.5-14.15-46.17-.85-6.03-.2-12.42-1.96-18.27-.82,1.06-2.49,2.75-2.55,4.08-.26,5.61,2.89,18.89,4.32,24.87,2.54,10.6,6.12,19.53,10.22,29.5.89,2.18.24,5.73,4.12,5.99ZM167.08,147.67c-1.49-3.83-3.51-1.83-5.42-2.36-1.04-.29-1.43-1.74-2.82-1.37,3.51,6.74-5.53,4.75-6,5.23-.65.67,1.5,9.66-6.73,4.5,1.24,6.75-4.23,3.43-4.5,3.74-.94,1.07,1.58,5.75-6,3.01,1.9,2.67,2.67,6.75-1.82,5.99-1.43-.24-3.21-2.74-4.57-.76-1.02,1.47,2.09,5.53-1.11,7.17-2.61,1.34-4.82-2.76-7.48-2.66-.08,2.07,2.72,3.19,2.14,5.46-1.03,4.09-5.63,0-8.14.54-.3.22,4.87,4.31.75,6.37-4.59,2.3-5.66-4.88-10.49-3.37.34,4.89,8.4,6.21,3.74,11.23,1.34-.26,6.07.44,6.66-.08.26-.22.2-1.96.64-2.71,2.32-3.93,8.7-2.81,9.15-3.24.17-.16.14-2.73,1.19-4.43,2.29-3.71,6.41-3.3,7.46-4.53,1.34-1.58,1.17-4.45,4.11-7.13,3.61-3.29,8.78-3.04,10.32-4.29.9-.73.77-3.43,3.37-4.5,1.72-.71,3.87-.23,5.06-.93.28-.17,4.67-3.86,4.87-4.13,1.31-1.8.75-7.12,5.62-6.75ZM96.64,149.92c-.11-1.91-4.55-2.94-5.24-2.24-.3.3.87,4.5-1.5,5.67-1.91.95-3.8-2.59-5.99-1.92l.75,5.24c1.4-.81,5.11-.4,5.87-.87.41-.25,2.59-6.68,6.11-5.88ZM417.88,153.08c-5.77,1.71-2.42,13.05-.68,16.85.99,2.15,3.22,4.66,5.03,6.21,2.62,2.23,7.03,3.41,8.63,4.86,1.19,1.07,5.8,8.53,6.84,10.4,6.44,11.61,9.42,23.9,7.69,37.23,8.99,4.17,16.43,11.16,25.7,14.81,4.73,1.86,20.03,5.86,24.19,3.56,1.38-.76.14-1.21-.39-1.88-5.18-6.55-8.45-11.4-8.96-20.26-24.24-8.02-45.89-24.57-51.15-50.77-.61-3.06-.24-6.94-1.15-10.09-1.57-5.4-9.76-12.69-15.75-10.91ZM451.81,197.14l-11.22-41.96c-.32,2.36-2.18,5.45-2.03,7.76.53,8.4,2.78,18.29,7.14,25.71l6.12,8.49ZM411.35,167.91c-5.82,2.73-11.01,5.24-17.23,7.12-13.73,4.16-28.61,4.05-41.71,9.99-6.42,2.91-13.17,7.3-12.61,15.11,2.21-1.94,10.38-8.09,10.03-1.86-.09,1.72-3.89,8.61-4.78,11.61-1.24,4.18-1.86,8.46-2.62,12.73.77.78,14.84-10.19,19.69-8.88s.36,6.36-.36,8.36c-4.48,12.42.61,28.55,5.41,40.25,3.1-2.25,3.75-10.7,8.48-8.87,1.4.54,1.71,2.81,2.75,4,3.99,4.62,19.53,17.64,25.13,18.35,1.64.21.85-.25,1.17-1.05,3.16-7.98,5.29-11.88,10.44-18.78,1.27-1.71,3.85-3.26,4.79-4.95,3.62-6.45,3.15-8.69,9.41-14.57,4.19-3.94,10.57-5.98,11.25-11.98,1.22-10.82-2.06-21-7.1-30.37-.77-1.43-5.37-9.17-6.03-9.71-1.2-.97-3.91-1.32-5.83-2.42-4.94-2.84-9.56-8.36-10.27-14.09ZM197.05,179.9c-2-4.69-14.75-5.25-15.73.42-.45,2.6,1.72,5.52-.32,7.15-2.16,1.72-3.42-.67-5.36-.83-5.17-.41-.17,6.25-2.52,7.93-2.68,1.92-5.66-3.94-9.04-2.67-.52,2.88,2.21,3.76,1.01,6.55-1.63,3.79-5.42-.77-7.76.56-1.25.71.81,2.86.81,4.51,0,6.19-6.59-.03-7.91.36-2.04.6-.35,5.33-1.83,6.42-2.17,1.59-3.97-2-6.05-.81-1.38.78.69,2.41.77,3.81.31,5.5-8.48,1.91-9.01,4.45-.26,1.27,3.18,4.2,2.25,6.36,3.78.4,5.85-3.15,8.96-4.15,1.42-.46,3.71-.09,4.57-.68,1.39-.95-.05-5.86,5.9-7.59,1.02-.3,3.56-.19,3.74-.37.15-.14.18-2.63.89-3.98,2.63-5.01,8.75-2.82,9.57-3.54.14-.13.44-2.48,1.22-3.64,1.48-2.21,3.71-2.03,4.89-3.36.75-.85.75-2.43,1.79-3.45,1.64-1.61,3.92-1.03,4.75-1.62.57-.4.46-2.36,2.61-3.76,1.56-1.01,4.77-1.23,4.95-1.42.73-.74.62-8.15,6.83-6.66ZM299.71,180.65c.67-.65-.78-3.29-1.87-3.63-1.06,1.59-10.09,6.39-10.11,7,0,.16,1.59,1.59,1.91,2.59,1.73,5.37-3.4,6.67-3.48,7.26-.32,2.25,2.51,4.86-1.44,7.75,5.77-.28,2.13-4.28,3.31-6.02.87-1.28,6.44-1.27,6.41-2.59-8.03-7.13,1.51-6.1,2.27-7.13.33-.45-1.52-3.11-.44-4.54.8-1.07,3.26-.52,3.44-.7ZM247.25,194.15c-13.22.36-26.22-3.84-38.2-9,1.84,13.91-1.18,24.77-9.44,35.91-.91,1.22-5.18,4.62-4.48,6.08.96,2,12.9,6.19,15.59,6.92,2.53.69,12.73,2.08,13.31,2.43.32.19,4.11,5.01,4.67,5.82,1.45,2.1,3.74,8.08,5.59,8.64,4.06,1.25,9.86-1.67,13.71-2.88-1.6-5.72-4.14-16-.59-21.17,2.14-3.12,12.87-7.27,14.83-12.52-12.24-.76-14.73-9.51-14.99-20.24ZM284.72,187.42c-1.25-1.51-6.5.39-8.24.74,3.31,3.23.53,5.39.15,8.03-.28,1.93,1.38,3.93-.9,6.2,3.59.08,2.53-1.81,3.39-3.68.36-.77,1.83-1.66,1.84-1.93,0-.45-3.44-1.93-1.89-4.88,1-1.9,7.91-1.73,5.64-4.47ZM272.73,191.9c-6.38-2.19-4.88.44-6.8,3.31-.62.92-1.91,1.04-2.1,1.3-.36.5,1.02,1.99.33,3.6s-3.04,1.6-3.41,3.02c.96-.16,4.16.3,4.47-.02.85-.89-1.27-5.23,6.02-3.73-1.26-1.78-3.05-2.96-2.17-5.51.72-2.08,3.52-.3,3.66-1.96ZM256.92,194.23c-.66-.57-3.84-.27-4.31,1.14s-.5,6.27,1.03,7.01.92-2.28,1.8-3.45c.54-.72,2.05-.86,2.25-1.14.11-.15-.63-3.44-.77-3.55ZM203.64,197.33c-.95-.9-3.13-1.2-4.34-.57-1.61.85,2.06,2.71.44,4.93l-4.18.7c3.99,5.4-.37,5.65-5.24,5.24,3.26,10.38-7.73,1.5-6.74,8.99.62.71,16.31-7.09,17.19-7.9,1.75-1.61,4.53-9.83,2.87-11.39ZM266.73,207.64c-2.11.05-4.25-.08-6.37,0-.9.03-2.79-.56-2.61.74,2.64.28,8.47,3.75,8.98-.74ZM285.46,208.39c-2.25-.08-12.31-1.62-13.4-.67-.19.16-.9,3.31-1.71,4.65-1.35,2.24-5.82,7.69-7.7,9.53-1.6,1.56-9.49,6.6-9.33,7.72,2.66,3.5,4.99,7.36,5.95,11.72,14.02-4.11,25.7-18.25,26.19-32.95ZM352.42,280.81c-14.54-15.07-26.05-41.26-38.92-58.13-5.47-7.17-14.18-9.65-22.78-11.31-2.85,17.75-15.96,29.93-32.05,36.6-4.27.84-4.32-11.43-8.41-13.36,3.19,16.06,7.63,31.78,11,47.82,8.34,39.68,12.83,79.23,28.13,117.26,3.81,9.48,8.87,18.35,13.39,27.47l66.61-16.8c-11.5-15.92-20.41-34.46-28.6-52.33-3.93-8.59-7.26-20.83-11.98-28.49-6.15-9.99-18-20.75-25.21-30.99-1.16-1.65-10.74-14.95-2.39-11.1,1.66.77,10.59,13.79,12.77,16.46,14.84,18.24,27.94,31.41,44.58,47.59,9.89,9.61,18.95,20,29.05,29.4,5.14,2.83,15.19-1.55,20.51-3.77,8.97-3.74,18.23-9.32,25.66-15.57.77-3.18-14.57-19.78-17.53-22.8-19.83-20.28-44.57-38-63.82-57.95ZM196.3,216.63c-.5-.42-6.42,2.78-7.51,3.38-.69.38-2,.1-1.47,1.47,2.12,5.48,7.64-2.69,8.98-4.85ZM221.03,254.84l-2.22-13.89c-10.2-1.56-20.28-5.02-28.74-10.97-1.65-1.16-7.82-7.04-8.36-7.1-2.62-.28-10.31,4.71-13.88,3.5-1.69,1.4,10.26,13.12,11.59,14.25,11.29,9.69,26.49,16.76,41.61,14.22ZM564.2,254.85c-5.96,2.87-22.84,13.1-28.83,12-2.2-.4-2.72-2.84-1.14-4.14.91-.75,13.86-5.11,16.76-6.47s11.72-5.37,13.13-7.84c2.46-4.29-.5-13.49-5.24-15.58-6.23-2.75-10.66-.02-16.38,2.19-29.31,11.35-48.55,27.37-80.7,9.47-4.38-2.44-15.17-11.38-19.37-11.3-2.68.05-15.78,11.92-16.01,14.67-.23,1,.62,1.16,1.14,1.65,4.09,3.81,10.65,7.59,15.28,11.7,6.09,5.42,12.89,12.19,18.75,17.96,3.74,3.69,10.11,13.3,15.32,13.91,16.58,1.95,40.42-4.67,56.59-9.39,7.32-2.13,28.59-8.47,31.66-15.56.68-1.56-.28-12.8-.94-13.29ZM173.34,241.84c-1.63-1.58-6.63-8.44-7.74-9.15-.35-.22-.55-.52-1.02-.26-16.01,10.77-33.31,20.01-34.99,41.5s-1.22,68.67,4.88,89.6c2.1,7.19,12.22,17.1,17.6,22.86,14.96,16,33.54,32.41,51.05,45.62,1.75,1.32,6.71,5.51,8.2,6.05,3.67,1.33,12.84-3.3,16.46-5.21,8.97-4.73,18.44-11.5,23.91-20.15-11.7-9.97-22.13-21.31-33.27-31.97-10.33-9.88-21.32-19.13-31.29-29.4-.62-1.24-.66-2.58-.63-3.93.13-5.8,1.43-12.87,1.59-18.7.37-13.5-.04-27.08-1.57-40.48.5-3.46,4.75-2.57,5.3,2.21,2.19,19.16.22,40.15.15,59.44.67.45,1.5.66,2.09,1.24,5.06,4.94,19.35,20.13,24.31,22.94,2.4,1.36,4.41.06,6.83,1.42,3.7,2.08,2.6,5.69,3.72,8.27.2.45,6.75,7.11,7.09,6.76,1.19-9.6,3.57-19.23,4.5-28.86,1.5-15.59-.5-33-2.33-48.61-1.92-16.39-4.21-37.2-7.64-53.07-1.09-5.06-2.57-9.53-5.02-14.09-1.28-.19-.8,1.78-.73,2.6.36,4.55,3.59,9.22-1.64,11.12-15.72,5.72-38.65-6.98-49.8-17.74ZM634.91,288.31c-10-11.09-18.04-23.5-29.48-33.85-9.87-8.92-23.71-18.81-37.48-18.34,2.73,6.5,1.03,13.79,1.47,20.63,1.38,21.86,10.77,36.03,5.53,60.18-2.9,13.37-13.11,23.16-14.4,36.56-1.01,10.48,2.84,22.25,5.89,32.15-.33,2.35-2.43,2.77-4.48,2.61.82,4.42,5.04.61,8.64.66,1.98.03,3.04,1.24,4.16,1.23,1.41-.02,8.42-1.91,8.83-3.12.03-6.47.21-12.94.86-19.37,1.37-13.6,3.54-30.77,6.08-44.13.57-3,1.38-7.34,5.36-5.62,2.58,1.11,10.28,7.5,12.88,9.67,11.49,9.61,21.7,20.92,33.75,29.95,1.59.26.88-.25,1.19-1.03,7.15-18.24,22.76-25.31,41.88-25.2.2-1.53-1.26-2.5-2.3-3.32-3.54-2.77-8.5-4.41-12.05-6.69-10.77-6.93-27.59-23.27-36.34-32.97ZM249.5,252.6c-4.9,2.28-9.63,3.15-14.99,3.76.95,3.06,1.63,6.3,2.13,9.48,3.2,20.02,6.63,41.96,8.36,62.09.87,10.14,1.95,20.35,0,30.34,8.27.05,16.58.39,24.66-1.55l.07-1.76-20.24-102.35ZM461.12,286.76c-11.47-11.7-22.6-23.78-36.02-33.35-2.5-.45-12.04,13.82-13.28,16.52-4.15,9-1.27,10.85,3.41,18.13,14.62,22.74,35.32,44.01,52.29,65.36,8.63,10.87,17.02,22.07,25.12,33.33,6.51-12.38,22.44-20.85,36.34-20.6-18.95-29.36-43.52-54.56-67.87-79.38ZM559.71,385.25c-2-12.46-5.96-24.14-3.53-36.89,2.11-11.08,9.85-19.23,12.91-29.8,4.02-13.87,1.99-30.51-1.89-44.22-12.28,10.05-28.41,13.21-43.37,17.32,1.06,7.67.42,16.6-1.8,24.05-1.62,5.42-9.99,16.51-7.63,21.57,4.73,5.76,9.4,11.69,13.71,17.77,2.71,3.81,5.39,9.97,7.98,13,3.17,3.71,10.4,7.13,14.27,10.46.8-1.34-.79-3.04.71-4.49,4.08-3.95,5.25,4.72,6.03,6.74.47,1.2,1.47,3.91,2.61,4.5ZM511.76,402.48c-2.11-5.46-5.13-3.14-9.36-3.75-4.54-.65-8.33-2.39-11.62-5.62-7.87-7.75-17.34-23.56-24.76-32.94-18.15-22.94-37.76-44.71-54.66-68.61l6.32,40.51c4.87,7.14,19.57,19.23,21.24,27.49,1.2,5.96-4.04,5.86-6.58,9.93,6.47,2.85,13.7,3.27,19.98,6.62,2.62,1.4,7.21,6.44,8.28,6.75,4.89,1.4,12-6.07,16.46-1.15,1.56,1.72,4.7,11.25,4.76,13.67.21,8.88-13.39,6.82-14.86,10.61-.42,1.07.06,2.31-.85,3.64-.68.99-6.12,3.74-7.37,3.93-2.2.34-3.52-.73-5.02-.6-1.12.1-8.13,3.11-10.67,3.44-2.85.38-6.04-.45-8-.24-1.75.18-4.53,3.4-7.65,3.51s-3.87-2.52-5.32-2.85c-.57-.13-3.74.55-3.88.71-.66.76,2.19,17.17,2.19,19.75l-1.53,52.12c22.06-3.11,33.74-21.98,56.19-26.61,21.18-4.37,38.01,5.15,59.03-1.66,13.69-4.44,25.11-10.43,40.29-9.98,2.23.07,12.91,1.98,13.74,1.44.91-.59,2.42-8.39,2.39-10.04-.23-10.65-3.75-24.39-5.2-35.31-.21-1.59-.09-3.19-.1-4.77-1.13.18-7.17,1.28-7.41,1.57-.58.73.88,2.94-1.32,4.3-1.54.95-9.54,1.98-9.93,2.43-.68.8,1.17,7.61-2.35,10.02-2.57,1.76-5.42.61-7.69,1.14-.78.18-.9,1.74-1.6,2.28-3.96,3.06-7.04,1.37-10.56,1.82-1.08.14-2.09,1.84-4.48,1.96-3.17.16-5.05-2.14-6.7-2.22-2.05-.09-3.28.99-6.45.34-3-.62-5.39-3.36-5.72-3.43-3.87-.75-11.07,4.14-14.72,1.57-1.57-1.1-4.16-14.53-3.82-16.63.75-4.56,5.81-3.95,9.32-5.17ZM519.25,293.07c-10.11,1.63-20.78,4.96-31.06,5.28-3,.09-5.75-.77-8.66-.4l29.6,32.58c2.12-5.25,6.22-10.74,8.01-15.95.4-1.16,2.1-7.66,2.1-8.39v-13.12ZM659.37,360.52c-3.4,1.14-6.5,4.07-10.3,4.31-1.54.1-5.26-.58-6.72-1.15-3.27-1.27-14.77-11.76-18.2-14.77-5.72-5.02-10.82-10.73-16.46-15.76-1.39-1.24-10.88-9.32-11.62-9.34-.86-.02-1.04,1.87-1.14,2.59-1.86,13.35-4.02,27.09-5.22,40.49-.57,6.35-.98,12.72-.75,19.1l67.67-17.38c2-2.65,4.11-4.76,2.75-8.11ZM686.93,335.97c-4.02-2.37-26.9,4.73-29.48,8.81-.73,1.15,4.84,10.92,5.81,12.98.85,1.8.83,5.86,3.41,5.23,5.26-1.28,2.18-2.38,3.69-6.06.31-.75,2.19-1.81,2.44-1.63.19.13,2.22,3.73,2.3,4.11.63,3.28,1.01,20.05,2.26,21.35,1.06-.08,4.09-.81,4.28-1.83.56-3.04-3.18-12.1-1.36-14.35.86-1.06,2.75-1.56,3.87-.74,2.06,1.49,1.55,15.13,3.67,16.6.41.28,7.25-.92,7.52-1.19.61-.59-3.99-15.9-1.04-16.54,5.86-1.27,5.33,13.58,6.28,17.29,1.62.26,3.52-.6,3.55-2.45.05-2.57-4.58-18.73,1.98-16.21,2.37.91,2.07,15.12,3.54,16.33.28.23,3.45.2,3.63.03,1.85-1.73-.65-23.61-2.29-26.48-2.39-4.2-18-10.38-22.7-13.3-.82-.51-1.03-1.76-1.37-1.96ZM211.29,445.2c-21.64-17.87-43.57-34.63-62.96-55.06-3.8-4-16.37-17.02-17.77-21.2-2.69-8.08-2.6-18.84-5.07-27.16-7.25,38.12-26.09,73.37-50.53,103.07,37.4,25.25,79.81,45.26,125.38,49.66,1.75-.32,5.67-9.91,6.58-12.07.82-1.94,5.38-12.16,4.36-13.25-9.59,2.98-12.69,3.6-17.52-6.08-7.24-14.52,6.35-16.86,17.52-17.91ZM403.84,402.47c-.56-3.06-1.36-15.5-3.69-16.88-.59-.35-8.27,2.25-10.92,1.96-1.93-.21-4.74-2.28-6.29-3.49-8.92-6.9-18.5-19.83-27.39-28.06-4.69-4.35-10.18-8.03-14.62-12.72,6.3,16.49,14.12,34.13,22.83,49.48,1.35,2.39,9.09,14.86,10.46,15.78.95.64,1.7.93,2.84.56l26.79-6.64ZM274.96,374.74c.66-.67-2.28-12.22-3.45-12.62l-26.08,1.35-2.68,14.28,32.2-3.01ZM558.23,416.73c.77.63,3.23-.38,3.01-1.87l-3.4-24.37-25.11-19.1c-7.07-1.38-13.52.21-19.7,3.51-1.24.66-8.09,5.16-8.45,5.84-.57,1.08,1.7,4.05,2.37,5.19,1.34,2.26,8.72,13.8,10.03,14.7,2.09,1.44,1.42-1.9,3.53-2.54,1.04-.31,2.13-.35,2.87.64,1.77,2.37,2.24,20.66,3.45,21.64.27.22,2.8.2,2.9.1,1.15-1.08-1.3-13.33-.65-15.26.61-1.81,4.7-1.96,5.76.04,1.64,3.1,1.33,11.6,2.58,15.41.27.84,1.65,2.78,2.45,1.32,2.24-4.05-3.77-16.23-1.15-19.14,6.45-7.12,7.81,16.58,9.04,17.6,1.08.9,3.8,0,3.67-2.48-.14-2.71-3.26-15.41-2.87-16.14.55-1.05,3.98-1.9,5.48-.78,2.14,1.59,3.39,15.02,4.19,15.68ZM457.82,407.73c.63.47,4.09-1.5,4.22-2.59.27-2.23-5.63-18.83-7.34-20.9-5.23-6.35-20.2-7.41-27.25-11.7l-22.08,11.63c2.31,4.57,2.26,9.62,2.99,14.57,6.28-1.8,1.68-2.87,3.69-7.17,1.26-.68,2.37-.44,3.48.37,2.29,1.69,6.76,15.59,9.16,19.31,3.15,4.88,3,2.2,7.64.97-1.2-2.09-8.53-18.46-1.25-14.17,3.28,1.93,4.6,13.47,8.36,13.46.69,0,1.77-.62,1.88-1.17.17-.84-5.31-11.36-5.71-13.79s4.43-1.74,5.53-.63c1.65,1.68,4.02,14.27,7.15,13.97.41-.04,3.53-1.55,3.57-1.86.41-2.57-7.56-13.85-3.34-15.23,4.86-1.6,7.48,11.74,9.29,14.93ZM659.37,374.01l-81.9,21.13c-1.96.57-.38,2.02-.51,3.59l81.98-21.65.44-3.07ZM277.22,379.25l-34.78,3.66c-1.33,8.14-4.04,10.73,2.55,16.97,2.44,2.31,11.2,6.86,12.06,8.17,2.77,4.24-1.75,8.07-1.55,9.01s6.04,3.18,7.53,4.5c2.52,2.25,4.07,7.13,5.6,8.63.83.81,2.14.79,3,1.5.91.75,1.3,2.67,2.29,2.91,2.51.61,19.42-5.78,23.53-5.89-7.37-16.19-16.17-31.92-20.23-49.46ZM626.4,391.25l-12.64,3.09-31.57,90.58c.54.52,6.97-3.79,7.32-5.04,10.56-28.79,25.99-57.16,36.3-85.85.34-.93.82-1.71.59-2.78ZM607.67,396.5l-17.99,4.5,4.51,32.96,13.48-37.46ZM406.86,407.74l-131.1,32.58,1.81,3.24,128.02-32.05,1.27-3.76ZM413.52,418.31c-9.42-3.92-19.32,3.53-29.14,3.67,4.21,6.28,8.72,12.48,13.51,18.33,2.54,3.11,12.8,11.03,10.11,15.39-2.18,3.54-37.79,16.06-43.88,18.39l3.05,8.57c6.84-2.86,18.18-1.04,23.97,3.36,10.63,8.09,13.13,24.94,11.88,37.4-.34,3.39-3.88,12.45-3.55,14.15.17.88,8.46,13.15,9.77,15.03,1.23,1.77,7.06,10.27,8.47,10.26,3.3-8.33,25.93-32.24,25.9-39.36-.02-6.72-13.04-23.59-15.06-31.1-2.43,1.18-13.99,2.89-14.85.27,0-24.84,3.23-49.67-.19-74.38ZM257.02,432.49c.62-.71,11.95,0,1.43-7.84-7.71-5.75-6.73-2.33-11.59,1.8-8.49,7.23-19.55,13.44-30.23,16.6.11,4.41,2.41,20.63,5.91,22.79,1.06.65,5.1-.11,5.29-.85-.3-5.5-3.35-11.64-2.3-17.17.33-1.73,1.64-2.37,3.35-1.9,1.08.3,4.08,19.07,5.65,21.77.87-.25,5.07-1.3,5.24-1.52.63-.84-4.45-16.8-3.76-20.57.37-2.02,2.1-2.55,3.78-1.54,2.47,1.49,3.37,19.98,5.93,21.8,1.3.92,3.35-.28,3.61-1.64.42-2.19-3.37-13.94-3.57-17.93-.26-5.2,3.64-5.04,4.76-2.42.97,2.28,2.77,16.42,3.5,17.07,1.29.06,4.26-.86,5.04-1.69,3.38-3.59-2.92-25.74-2.03-26.76ZM342.42,475.18c20.41-6.26,41.2-12.49,59.93-22.85l-22.99-27.99c-8.51.93-16.83,3.93-25.22,5.82l-11.72,45.03ZM347.66,431.72l-13.45,3.02-19.51,94.4,7.47-2.62c-11.31-9.04,3.19-18.39,8.81-25.68l16.67-69.13ZM322.94,460.94c1.16-.13,1.16-1.1,1.42-1.94,2.15-6.9,2.83-15.64,4.56-22.79l-18.72,4.5,12.75,20.23ZM73.04,734.49c-3.3.47-7.45-.34-10.86,0l14.25,10.85c17.6,15.85,33.35,33.62,47.18,52.85l33.6-90.44c17.61-43.68,35.02-87.56,57.7-128.9,12.37-22.55,29.53-51.93,47.7-69.95,19.27-19.1,31.11,9.66,41.23,22.48,1.24,1.19,3.21.87,4.78.68l13.54-63.21-16.9-26.67-28.03,7.15c-1.54,3.71-2.08,5.25-6.02,6.72-1.52.57-5.26.91-6,1.49-1.01.8-.32,3.22-2.19,5.31-2.46,2.76-5.69,2.43-8.23,3.76-1.96,1.03-3.04,4.04-5.83,4.66s-4.48-.47-6.49-.35c-2.53.16-6.01,2.87-8.28,2.75-3.02-.16-3.71-3.45-4.53-3.58-.5-.08-2.18,1.06-3.21,1.17-4.8.52-5.78-.53-9.18-3.58-1.26,6.46-3.86,12.55-6.62,18.49-4.93,10.61-4.06,13.8-16.89,12.89-11.26-.8-22.32-4.61-33.37-6.6-19.59,39.9-39.65,79.54-57.9,120.1-15.19,33.75-28.24,68.61-45.57,101.31,7.03-.33,17.38-1.6,22.49,4.48,6.09,7.26,2.72,14.84-6.38,16.13ZM645.88,443.71c-12.54,1.07-25.25,7.11-35.15,14.67-2.01,1.54-10.65,8.41-9.47,10.78.39.79,5.7,5.84,6.8,6.75,10.53,8.75,25.85,14.53,39.32,16.5-9.31-10.95-11.53-26.96-6.13-40.22,1.24-3.05,3.32-5.52,4.63-8.48ZM656.17,443.88c-7.05,1.47-11.78,12.57-12.44,19.03-.93,9.05,2.28,23.97,11.39,28.14,12.81,5.86,20.1-12.84,20.01-22.95s-6.46-26.82-18.96-24.22ZM569.37,456.53c-13.51.44-25.83,8.11-38.29,11.37-10.23,2.67-20.38.79-30.55.16,3.77,2.83,9.09,10.98,13.43,12.05l60.38,7.83c2.5-.49,4.61-9.46,5.24-12.08l-10.2-19.33ZM585.94,457.95l-11.24-1.5,7.12,12.73,4.12-11.23ZM503.83,478.62c-2.13-2.09-9.57-10.38-11.57-11.29-4.62-2.1-17.28.75-22.29,2.41-13.6,4.49-24.05,14.62-36.57,21.17-.85,1.38,13.53,24.39,14.83,28.7,1.79,5.96-1.01,9.58-3.9,14.42-6.89,11.58-16.92,22.13-23.84,33.84,17.17,29.17,37.37,56.67,57.16,84.17,1.03-.97,2.04-1.95,2.93-3.05,7.1-8.76,15.77-22.24,22.03-31.93,12.49-19.33,36.91-62.53,39.01-84.64.9-9.5-.15-11.2-5.28-18.52-8.51-12.14-21.87-24.83-32.53-35.29ZM358.83,475.99c-.75-.54-17.21,4.59-17.76,5.34-.97,1.33-2.2,11.64-3.14,14.08.46.49,10.31-5.97,11.7-6.65,3.78-1.85,8.22-3.44,12.27-4.6-.41-1.21-2.72-7.92-3.07-8.18ZM638.22,496.34c-6.33-2.12-12.82-4.06-18.83-7.02-2.87-1.42-13.7-8.87-14.99-8.87-8.58.03-23.09,10.49-26.84,18.21-6.23,12.82,2.62,22.69,8.02,33.47,16.86,33.68,34.78,66.79,51.7,100.44l1.85-1.81-52.34-116.94c-.45-13.18,22.61-14.58,31.74-13.89,2.32.17,4.61,1.46,6.79,1.52,4.19.11,9.52-3.38,14.58-.78l-1.67-4.32ZM573.21,493.18l-54.7-7.49,12.77,13.82,37.7,5.6c1.18-.38,4.69-11.48,4.23-11.93ZM368.64,487.93c-14.56,2.88-30.84,12.23-40.48,23.58-6.72,7.91-6.02,8.69,1.92,15.36,10.97,9.22,27.57,14.99,41.56,17.25-13.94-14.85-15.09-39.85-3-56.19ZM378.93,488.1c-14.67,2.67-14.65,30.17-10.65,41.03,8.54,23.13,27.63,13.91,29.57-7.12,1.02-11.08-3.25-36.76-18.92-33.91ZM616.66,504.42c-5.27-.07-20.14,1.32-23.57,5.27s3.37,9.87,3.34,14.21l20.22-19.48ZM570.21,510.42l-32.97-4.5c-.68.52,8.75,11.77,9.39,14.21,3.89,14.8-7.13,39.28-13.89,52.48,2.33-.01,7.68,2.23,8.9.33l28.56-62.52ZM297.46,531.39c-5.83-6.61-14.37-27.22-25.51-23.64-4.55,1.46-13.67,15.93-17.94,19.54l1.12,1.1c14.04,1.23,28.19,2.65,42.33,3.01ZM622.66,508.17c-5.64,2.05-11.02,7.14-15.01,11.59-2.76,3.08-5.9,7.06-7.47,10.89l22.47-22.48ZM525.99,589.1l22.14,5.08,29.22-64.98-5.28-10.55-26.55,58.68c-3.44,3.78-12.34-.77-15.05.88-.57.35-4.97,10.37-4.48,10.88ZM594.19,562.87l-5.96,25.15c-4.84,34.35,1,101.32,32.97,122.07,19.59,12.72,35.14-13.37,40.98-28.62,13.37-34.97,12.03-85.35-1.7-120.08-7.21-18.26-25.43-46.61-47.58-28.87-1.54,1.23-6.54,6.32-7.1,7.92-.83,2.37.79,4.92,1.74,7.21,11.31,27.33,25.32,53.68,36.72,80.99-.28,6-1.71,9.68-8.46,8.39-5.12-.97-4.87-5.19-6.5-8.48-9.01-18.23-18.45-36.48-27.99-54.44-1.61-3.04-3.73-7.61-5.45-10.26-.35-.54-.61-2.21-1.68-.97ZM657.86,541.88c.1-.08.3-1.43,1.09-2.26,3.39-3.54,8.97-7.35,10.15-11.97-2.05,1.58-13.14,10.9-13.48,12.38-.26,1.16,1.57,2.36,2.23,1.86ZM347.66,542.64c-2.26-.9-5.14-1.78-7.25-2.87-7.18-3.72-11.55-9.63-20.26-7.04-10.25,3.04-21.98,17.34-22.27,28.26-.38,14.4,18.6,41.87,25.94,55.34,11.86,21.78,23.14,44.96,35.71,66.21.42.71,4.12,7.68,5.37,6.24.76-3.12-1.3-4.7-2.26-7.1-15.5-38.98-31.45-77.78-46.38-116.99-1.56-8.44,8.15-17.45,15.64-19.45l15.76-2.58ZM304.2,537.4c-18.29-1.28-36.6-3.2-54.92-3.77l-9.52,14.25,54.94,3.78c2.33-5.72,5.08-9.94,9.5-14.26ZM379.14,549.38c.14,5.93,6.73,5.79,11.21,7.89,54.42,25.43,61.04,120.09,53.86,171.48-.52,3.69-3.31,13.02-2.87,15.8.39,2.5,9.97,16.34,12.12,19.4,1.42,2.02,9.21,13.39,10.59,13.16,1.48-.25,11.36-8.05,12.91-9.62,4.49-4.53,9.9-12.59,13.39-18.08,8.53-13.4,16.38-28.55,19.06-44.36-24.06-34.31-49.74-67.49-73.18-102.23-13.68-20.28-26.32-41.33-39.86-61.69-4.64,4.43-10.45,8.61-17.22,8.25ZM374.64,553.12c-2.6-4.5-8.76-4.86-13.49-5.23,4.04,6.53,6.06,6.68,13.49,5.23ZM359.65,556.12c-1.3-6.85-12.49-7.86-18.35-7.47-5.34.35-19.75,4.39-18.93,11.5.31,2.65,7.76,12.91,9.18,16.2,7.26-8.81,16.75-17.43,28.1-20.23ZM667.62,565.87c2.62-3.45,11.44-8.73,13.12-11.98.6-1.16-.28-2.26-.76-2.24-.79.03-10.43,10.04-11.28,11.19-.75,1.02-1.39,1.57-1.08,3.03ZM289.96,556.13l-54.33-2.26-13.07,22.91c3.71,15.81,5.85,32.05,5.96,48.3l35.61-5.24,25.84-63.71ZM191.06,640.06l85.43-4.85,22.3-51.85c-2.5-6.29-5.38-12.75-5.08-19.73l-1.64,1.73-24.33,59.79-73.26,10.48c-2.41.24-2.61,2.63-3.42,4.44ZM585.19,578.61c-3.61.43-4.03,4.63-3.74,7.49,2.91-1.33,3.53-4.57,3.74-7.49ZM324.44,629.57c-10.2,40.52-8.9,83.96,4.12,123.65,10.82,33,41.48,71.63,68.41,25.71,25.49-43.46,23.14-129.26-1.5-172.82-12.57-22.23-32.84-37.65-53.43-13.28-2.15,2.55-6.3,7.08-5.12,10.34l32.31,80.15c1.5,8.08-1.9,14.94-10.37,9.43l-34.41-63.17ZM220.28,589.11c-1.85-.85-8.06,5.43-7.49,5.98,2.73-1.04,5.77-3.71,7.49-5.98ZM205.25,628.78c-.12-5.48.76-11.19-1.08-16.45l-8.62,17.98,9.7-1.53ZM223.11,623.42c.41-.72.44-3.55-.21-4.34l-8.62,8.23c1.75.75,8.26-2.91,8.83-3.9ZM425.9,640.38c3.2-3.11,9.98-6.69,7.92-11.55-4.49,5.41-14.36,13-17.59,18.75-.33.58-.88,1.98-.02,2.23,3.1-3.27,6.47-6.3,9.68-9.43ZM673.62,660.3l15.77-14.57.7-4.91c-5.42,5.86-15.96,10.81-16.47,19.49ZM204.55,644.56c-2.82.5-14.95.26-16.14,1.48-9.25,20.66-17.48,41.72-25.48,62.9,9.39,23.75,22.48,10.85,29.75-5.41,2.62-5.85,5.38-15.23,6.99-21.49,3.11-12.11,5.5-24.95,4.87-37.48ZM426.78,674.97c1.95-2.08,12.18-12.12,12.68-13.2,1.1-2.38-.79-4.91-.38-7.48l-18.34,20.25-.38,6.73c2.48-1.72,4.39-4.14,6.42-6.31ZM585.94,654.31c-6.22,1.46-2.21,6.19-2.24,10.49,4.9-2.35,2.22-6.3,2.24-10.49ZM510.27,693.27c4.61-6.15,9.72-14.06,8.9-22.03-1.23-11.94-10.16-11.75-13.76-1.18-2.87,8.44,1.81,15.6,4.86,23.21ZM218.53,675.8l.63-2.75-10.12,9.73,9.49-6.98ZM420.35,707.51c3.28-3.17,21.21-20.27,21.6-23.03.17-1.18-.55-2.09-.63-3.2l-19.81,22.52-1.15,3.71ZM520,694.02h13.11c2.27,0,9.84,2.44,12.12,3.62,3.35,1.73,8.54,6.44,9.19,10.28,2.43,14.21-14.09,15.18-23.7,10.97-2.21-.96-4.38-3.26-5.86-3.88-2.23-.94.16,2.58-.69,3.76-2.4,3.31-8.51-4.17-10.54-5.25-4.3,5.41.17,4.31,3.03,7.45,1.79,1.97,2.58,5.32-.78,5.3-1.68,0-4.81-4.79-5.98-3.02-1.68,2.54-3.21,8.02-4.74,11-8.1,15.71-18.77,32.99-33.17,43.43,2.04,6.94,15.71,21.77,22.9,21.89,7.57.12,24.3-15.9,28.85-22.01,5.26-7.06,3.14-7.99,5.46-14.77,2.15-6.29,17.43-13.6,22.16-20.56,5.59-8.23,9.59-33.44,8.17-43.15-1.1-7.53-5.58-7.71-12.26-8.72-8.09-1.23-21.11-2.5-27.26,3.66ZM313.19,697.02c-.75-.83-7.6,6.94-7.85,7.5-.75,1.66-.33,3.5-.38,5.23,3.23-3.69,8.42-7.29,8.23-12.74ZM515.51,700.03c5.7,5.49,14.85,14.65,22.91,15.66,6.77.85,15.1-1.64,9.3-9.3s-23.16-9.16-32.21-6.36ZM602.16,700.08c-4.96,3.23-3.27,5.08-.1,8.92,4.29-3.37,5.74-5.98.1-8.92ZM29.75,701.66c-4.24.92-4.72,4.62-4.11,8.3,1.66,9.98,26.47,23.01,19.67,2.06-1.87-5.75-9.46-11.69-15.56-10.36ZM61.23,718.93c-1.4.22-4.22,1.29-5.57,1.93-1.28.61-4.61,1.83-3.25,3.53,1.55,1.94,11.24,5.39,13.89,5.62,3.84.33,12.76-.89,10.3-6.56-2.13-4.9-10.84-5.23-15.36-4.51ZM315.43,724c-.39-.34-6.55,6.93-6.91,7.7-.53,1.11-.56,2.84.55,2.78.64-.04,8.35-8.73,6.36-10.48ZM169.33,725.51c-1.89-1.01-7.54,5.22-6.74,5.98,2.76-.62,4.97-3.93,6.74-5.98ZM45.32,730.75c-3.83-.64-9.1.47-13.11,0l7.42,4.94c20.74,15.69,41.73,34.01,54.9,56.76,6.12,10.57,10.87,22.12,15.23,33.49,3.46-5.65,6.73-12.15,8.4-18.58.8-3.07,1.66-4.83.11-7.93-2.3-4.58-12.2-16.41-15.99-20.72-6.64-7.55-16.21-17.6-23.6-24.36-5.61-5.13-26.98-22.53-33.35-23.6ZM13.22,731.62c-1.06.37-2.36,3.1-2.57,4.17-3.25,16.28,16.48,48.56,30.3,57.04,5.55,3.41,13.68,3.6,17.38,9.6,5.89,9.56,6.25,14.75,15.83,23.13,8,6.99,24.36,15.82,32.11,4.63-8.09-22.56-19.64-43.8-36.21-61.23-9.74-10.25-35.98-34.09-49.24-36.93-2.09-.45-5.65-1.08-7.6-.41ZM411.36,780.21l18.38-18.7,1.83-4.53-14.61,15.73-5.6,7.5ZM339.05,786.97c-.51,0-6.19,7.49-6.26,7.99-.12.84,1.52,2.48,1.77,2.47.53-.01,6.24-8.08,6.21-8.61-.01-.29-1.59-1.85-1.72-1.85Z"/>
  <path fill="currentColor" d="M287.49,647.67c2.12-.62,3.39.3,3.29,2.5-1.48,7.44-3.19,14.92-3.8,22.5-2.94,36.32,6.91,91.67,27.41,122.46,1.51,2.27,9.77,11.8,9.97,12.58.33,1.26-.77,2.85-1.94,3.15-2.4.61-9.04-8.07-10.58-10.18-24.32-33.39-36.69-105.93-27.51-145.65.48-2.08,1.07-6.74,3.16-7.35Z"/>
  <path fill="currentColor" d="M268.76,667.91c2.25-.65,3.22.28,3.29,2.5.17,5.54-2.73,15.22-3.09,21.71-1.53,27.2,4.52,56.99,14.67,82.07.94,2.31,7.18,11.66,2.21,12.07-1.82.15-2.34-.82-3.24-2.05-8.15-11.15-15.49-44.36-17.25-58.44-1.81-14.51-3.19-41.62,1.45-55.3.39-1.16.6-2.16,1.96-2.56Z"/>
  <path fill="currentColor" d="M100.2,279.02c2.13,1.83.44,5.07-2.39,4.95-30.2-5.09-62.06-5.59-92.15-10.43-7-1.13-2.7-7.34,3.69-5.19l90.85,10.67Z"/>
  <path fill="currentColor" d="M10.21,506.78l95.05,8.13c1.82.09,2.18,1.72,1.9,3.36-.69,4-6.07,1.39-8.66,1.15-28.69-2.65-57.42-4.85-86.11-7.55-3.05-.23-5.01-3.24-2.18-5.08Z"/>
  <path fill="currentColor" d="M109.26,304.42c1.16,2.09,1.22,4-1.17,5.03-26.21-3.44-52.76-5.8-78.84-10.06-1.87-.88-1.72-2.91-.29-4.11,26.84,1.8,53.53,6.3,80.3,9.14Z"/>
  <path fill="currentColor" d="M560.19,603.4c1.46-.49,3.56.47,3.91,1.96.27,1.13-2.65,11.92-2.87,14.85-1.14,14.93,1.49,32.25,5.96,46.48.89,2.84,7.64,14.61,1.9,14.61-3.21,0-7.02-13.19-7.88-16.12-4.03-13.79-6.21-30.63-5.22-44.97.17-2.51,1.98-16.06,4.21-16.81Z"/>
  <path fill="currentColor" d="M393.25,135.57c-2.93,1.86-50.45-7.17-57.9-6.69-7.81-3.09-3.47-5.46,2.94-5.18,17.11.73,35.81,6.13,53.18,6.76,2.67-.12,3.24,4.18,1.78,5.11Z"/>
  <path fill="currentColor" d="M539.86,629.09c4.91-.02,1.35,8.51,1.14,11.36-.8,10.7,1.75,24.69,5.84,34.6.96,2.32,4.15,4.8,2.33,7.27-4.42,6.01-9.41-9.98-10.22-12.87-2.48-8.86-3.97-21.34-3.2-30.5.21-2.49.9-9.84,4.11-9.86Z"/>
  <path fill="currentColor" d="M399.18,153.11c.87.84.87,3.72.08,4.22-2.42,1.52-38.31-4.44-43.78-5.09-.96-3.22-.48-4.72,3.01-4.58,10.77.45,27.33,2.82,38.21,4.59.81.13,1.9.29,2.48.86Z"/>
  <path fill="currentColor" d="M58.97,544.24l40.93,3.76c2.8.88.76,5.71-2.09,5.17-4.94-1.55-39.16-2.54-40.56-4.48-1.03-1.43.04-4.01,1.72-4.45Z"/>
  <path fill="currentColor" d="M221.57,278.2c7-1.07,11.69,17.12-1.33,13.03-6.36-2-3.53-12.29,1.33-13.03Z"/>
  <path fill="currentColor" d="M229.81,328.52c7.13,5.67,1.29,15.8-6.05,10.91-6.99-4.65-.22-15.9,6.05-10.91Z"/>
  <path fill="currentColor" d="M360.12,709.1c4.64-1.56,4.26,3.71,4.68,7.12,2.52,20.26,5.59,43.44,6.83,63.63.11,1.86.54,4.72-1.89,4.91-3.83.3-3.6-5.14-4.02-8.01-2.8-19.49-5.74-44.11-6.85-63.64-.08-1.35-.36-3.47,1.23-4.01Z"/>
  <path fill="currentColor" d="M366.23,649.62c-2.51,2.92-4.53-.84-5.27-2.97-4.08-11.75-12.17-37.47-13.86-49.1-.22-1.5-.81-4.78,1.02-5.38,3.54-1.17,4.2,3.85,4.99,6.11,4.1,11.72,11.53,35.59,13.41,47.36.18,1.11.45,3.13-.29,3.99Z"/>
  <path fill="currentColor" d="M406.77,722.41c-1.27.8-3.87-.35-5.12-1.07-4.79-2.77-21.34-16.1-25.52-20.19-3.95-3.87-1.52-6.93,2.53-4.78l27.39,21.32c1.46.66,1.72,4.09.72,4.72Z"/>
  <path fill="currentColor" d="M374.43,686.65c1.1-.32,2.18-.21,3.22.22,4.16,3.15,29.47,11.26,31.09,13.88,2.37,3.83-2.34,4.08-4.91,3.41-3.3-.85-26.82-10.8-29.41-12.54-2.06-1.39-2.9-4.11,0-4.96Z"/>
  <path fill="currentColor" d="M346.71,698.67c4.24-.89,5.45,2.19,2.42,4.7-1.16.96-14.55,7.01-16.43,7.56-3.97,1.15-5.07-2.22-3.02-4.54.62-.7,15.73-7.44,17.04-7.71Z"/>
  <path fill="currentColor" d="M635.86,546.44c1.83-.59,3.77.67,4.02,2.59l5.3,65.22c.49,2.58-3.59,4.68-4.95,2.63-.21-.31-.96-6.02-1.08-7.16-1.86-18.59-3.57-39.06-4.53-57.67-.08-1.55-.45-5.05,1.24-5.6Z"/>
  <path fill="currentColor" d="M637.56,643.9c.59.93-.07,3.65-.77,4.68-9.54,11.06-17.12,25.49-26.56,36.39-1.84,2.12-6.19,5.3-6.29.45-.08-3.71,25.7-34.15,28.56-40.37.57-1.69,4.29-2.34,5.05-1.14Z"/>
  <path fill="currentColor" d="M595.92,664.26l31.27-26.04c3.42-2.49,6.48-1.02,4.83,3.33l-33.39,27.36c-3.12,1.21-4.73-2.39-2.72-4.66Z"/>
  <path fill="currentColor" d="M220.74,155.23c2.9-.95,7.3,5.53,9.67,7.42,5.81,4.62,15.12,8.92,22.52,6.07,1.42-.55,5.07-4.55,6.22-1.07,1.27,3.83-3.92,6.49-7.09,6.94-7.82,1.11-15.49-1.38-21.97-5.62-2.11-1.38-15.17-11.83-9.34-13.74Z"/>
  <path fill="currentColor" d="M238.79,108.12c10.33-3.09,8,16.27.6,16.28-6.87,0-5.85-14.7-.6-16.28Z"/>
  <path fill="currentColor" d="M285.28,108.07c8.85-1.59,6,16.32-.93,16.32-7.39,0-5.13-15.23.93-16.32Z"/>
  <path fill="currentColor" d="M284.17,93.16c.69-.68,2.03-.95,3-.8,1.71.27,12.17,4.79,12.77,6.06,3.17,6.71-10.99.92-13.25-.3-1.89-1.02-4.96-2.58-2.52-4.96Z"/>
  <path fill="currentColor" d="M249.96,139.47c1.45-.42,4.34,2.03,6.66,2.24,3.15.29,9.11-3.43,9.42.36.57,6.83-17.88,5.67-17.34-.75.07-.78.5-1.63,1.26-1.85Z"/>
  <path fill="currentColor" d="M476.29,195.7c.89-.27,8.17,3.27,10.18,3.88,6.82,2.08,14.8,2.67,21.93,2.06,2.69-.23,5.19-2.33,7.9-1.17,3.39,5.02-6.76,6.14-10.17,6.4-7.17.55-24.14-1.72-29.85-6.09-1.91-1.46-2.4-4.37.01-5.08Z"/>
  <path fill="currentColor" d="M478.58,139.54c6.61-1.83,6.33,16.15.59,16.45-7.49.39-5.63-15.06-.59-16.45Z"/>
  <path fill="currentColor" d="M531.46,147.16c6.51-5.57,9.56,12.78,2.38,14.01s-5.53-11.31-2.38-14.01Z"/>
  <path fill="currentColor" d="M505.55,176.69c.56-.56,2.57-6.18,5.11-2.04,3.96,6.42-18.16,15.08-19.81,8.49-1.11-4.47,5.34-2.31,7.59-2.64,1.96-.28,5.7-2.41,7.1-3.81Z"/>
  <path fill="currentColor" d="M527.27,132.06c.79-.18,12.25,1.31,13.76,1.7,3.13.82,5.49,3.64,1.66,4.78-1.02.3-12.93-1.11-14.65-1.53-3.64-.87-3.5-4.34-.77-4.96Z"/>
  <path fill="currentColor" d="M86.91,791.45c-.05,1.04.22,2.28-.13,3.25-.73,2.07-18.62,8.99-21.42,11.57-3.52,1.23-5.61-2.02-2.73-4.25,1.19-.92,18.38-9.84,19.75-10.22,1.52-.42,2.97-.45,4.52-.35Z"/>
  <path fill="currentColor" d="M80.71,791.26l-19.22,10.33c-2.34.45-4.41-2.73-2.29-4.5l18.53-10c2.62-.85,5.11,1.98,2.97,4.17Z"/>
  <path fill="currentColor" d="M421.61,159.74c3.93-.98,6.93,8.79,2.75,9.56-3.92.72-7.1-8.48-2.75-9.56Z"/>
  <path fill="currentColor" d="M173.07,127.44c.54,1.44-.84,3.84-.62,4.8.29,1.27,3.65,1.66,3.65,3.81-.01,4.82-8.36,1.91-8.34-4.5,0-3.76,1.83-4.44,5.32-4.11Z"/>
</svg>