<?xml version="1.0" encoding="UTF-8"?>
<svg id="Layer_1" xmlns="http://www.w3.org/2000/svg" width="800" height="1000" version="1.1" viewBox="0 0 800 1000">
  <!-- Generator: Adobe Illustrator 29.6.1, SVG Export Plug-In . SVG Version: 2.1.1 Build 9)  -->
  <path d="M531,718.69c-1.74-.8-5.11-1.03-5.3-1.23-.16-.17-.17-3.07-.77-4.55-2.03-4.94-5.71-9.68-8.02-14.51-8.54-17.81-19.43-45.05-33.79-58.91-1.75-1.69-3.77-1.81-5.74-3.65-13.72-12.85-29.15-49.63-39.68-67.28-4.84-8.11-9.86-12.7-15.56-19.35-7.82-9.13-15-19.25-25.02-26.12-5.72,4.38-11.58,3.21-18.19,4.58-15.75,3.26-32.55,9.58-48.3,13.48-15.27,2.13-26.14-9.17-38.84-15.48-4.52-2.25-8.3-3.06-13.32-3.68-24.77,14.03-29.96,45.92-52.81,62.4-.61.02-5.38-3.89-6.16-4.7-10.28-10.64-18.54-23.39-27.07-35.11-3.69-5.06-4.45-11.99-13.65-9.64-3.32.85-10.18,9.72-11.62,12.95-6.81,15.26-8.76,28.72-9.82,44.99-.55,8.43-4.56,9.93,1.43,19.73,4.04,6.61,7.6,2.41,11.56,3.96,6.85,2.68,25.6,27.87,27.01,35.28.5,2.61-.87,3.65.44,7.62,2.43,7.36,18.64,21.5,25.71,24.24,3.83,1.49,5.34-.45,8.74-.57,12.34-.44,18.24-3.4,29.03-4.5,6.22-.64,9.56,3.65,14.49-3.58.92-1.35,5.26-10.23,5.65-11.61,4.27-15.06,11.86-23.67,19.22-37.33.81-1.5,21.1-22.77,23.47-24.77,9.3-7.87,21.79-7.92,33.33-9.06-3.16,5.44,6.19,10.55,9.52,14.35,16.28,18.56,23.18,47.02,36.37,67.88,7.17,11.34,16.98,22.31,24.66,34.08,6.42,9.83,12.81,20.26,18.03,30.44,4.19,8.18,17.9,28.44,19.28,35.84.61,3.25-1.94,7.94.58,12.34.82,1.43,3.13,2.2,4.13,3.5,1.59,2.06,2.31,5.5,4.28,7.41,1.39,1.35,4.62,2.25,5.15,2.98,1.34,1.84.09,6.61,4.39,9.35,2.37,1.51,3.26.16,4.76.58,1.49.42,1.8,2.36,4.02,1.96,6.77-1.22,7.39-9.66,10.42-14.36,4.59-7.12,14.1-15.82,19.96-22.41.81-.91.97-2.81,1.82-3.33,1.17-.71,4.84-.17,6.31-1.73,1.12-1.18.33-2.8.78-3.32.29-.34,2.52-.18,3.57-.76.97-.54,1.66-2.55,3.63-3.34,2.62-1.04,6.49-.16,8.27-2.45,4.69-6.05-4.57-17.05-6.8-23.03-2.29-6.12-2.25-16.21-9.55-19.58ZM629.74,317.57c-.3-6.22-10.61-11.99-16.02-13.27,3.34-14.56-9.89-17.99-21.64-17.81-4.33.07-13.59,2.88-16.23,2.59-1.63-.18-2.05-1.95-3.4-2.45-4.83-1.78-15.45-1.53-20.76-1.03-9.18.86-11.76,4.16-15.01,12.78-2.87,7.61-.52,8.58-.32,14.89.12,3.67-1.19,5.26-.16,9.79.62,2.72,4.07,8.83,4.15,10.71.05,1.25-1.9,4.09-2.42,5.87-.52,1.77-.05,3.83-.62,5.52-.74,2.19-3.49,2.2-3.46,6.66.03,5.44,6.57,20.9,12.77,21.11,6.39.22,12.76-3.33,18.54-5.59,7.96,14.15,21.16,17.22,32.13,3.76,2.18-2.67,5.91-10.62,7.32-11.91.91-.82,3.72-1.34,5.38-2.52,3.94-2.83,8.76-11.65,11.17-16.11,3.01-5.58,8.87-17,8.58-22.99Z" fill="#fff"/>
  <path d="M74.56,426.01c.64.63.68,12.29.5,13.98,5.22-4.66,11.63-4.11,5.83,3.2,2.15-.59,7.55,1.08,6.84,3.72-.56,1.98-6.69,1.93-7.07,2.22-.38.29,6.11,6.79,1.15,8-2.82.68-5.7-4.96-6.27-4.25-.96,1.18,1.69,12.82-3.87,10.78-2.45-.88-.92-7.75-1.13-10-5.55,5.37-10.6,2.45-4.86-3.16-1.93-.32-5.48.4-7.02-.69-1.06-.77-1.11-4.17-.74-4.58.32-.29,7.54-.38,7.98-.73.38-.29-1.79-2.44-2.12-3.3-3.03-8.01,5.93-1.05,6.25-1.46.7-.95-.23-9.97.47-12.25.28-.96,3.71-1.86,4.07-1.54v.06ZM250.11,758.56c.35.38.46,8.52.65,9.98,9.63-8.86,12.31-2.63,3.75,5.12,2.25-.16,8.27-.29,6.84,3.72-.82,2.28-5.62.94-6,1.29-.81.64,4.58,7.28,2.63,9.09-2.14,1.92-6.88-4.27-7.83-3.28-.38.41,1.02,9.94-1.41,11.48-5.48,3.55-3.55-10.46-3.55-13.62-7.36,6.58-15.44,6.69-5.83-3.2-3.11.43-6.03-1.02-4.86-4.62.55-1.62,7.1.09,7.05-1.73.02-.55-2.82-2.48-3.32-3.65-3.16-7.89,4.2-5,7.5-.68.37-1.62,0-9.59.38-9.94.13-.12,3.83.03,3.94.15l.07-.12ZM390.89,49.59s3.82.03,4,.15c.7.76-.12,17.3-.76,19.89,15.11-12.35,5.15,3.54,5.79,4.23,1.11,1.08,7.24-1.97,5.91,2.72-.84,3.06-2.64,2.33-5.07,2.29,0,1.82,3.3,2.68,3.64,3.36.39.8.19,4.62.06,4.8-2.46,2.34-9.14-7.03-10.72-5.39-.57.59,1.27,14.5-1.6,16.45-.75.52-2.81.56-3.05.31-.53-.57.37-12.8.57-14.92-9.01,7.06-11.17,3.03-3.75-5.12-1.4.07-7.68-.78-7.94-1.88-1.1-4.66,1.33-2.93,3.71-3.26,7.63-.98-.17-3.47-.37-4.69-.25-1.29.4-4.05,1.74-4.3,2.51-.39,4.69,4.43,7.3,4.29.59-2.65.03-18.28.73-18.92h-.18ZM661.35,529.38c1.54.97.52,8.52.81,8.84.35.44,3.14-1.16,4.4-.8,1.74.55,1.14,3.44,1.61,3.89,1.11,1.07,8.5-1.62,7.75,3.82-.24,1.51-5.44,1.01-5.95,1.47-.5.47.14,4.38-1.82,4.79-2.27.52-4.13-3.07-5.38-2.21-.31.23,2.6,5.08-.29,7.46-1.94,1.62-4.33-1.14-3.93-3.61-1.5-.42-.53,1.25-1.83,1.87-7.49,3.66-.54-6.58-.95-6.96-2.12-1.66-11.95,2.76-9.87-3.78.41-1.2,7.53-1.47,9.09-1.23-11.58-13.07,1.7-6.25,2.27-6.9.76-.82-1.67-10.39,4.08-6.65Z" fill="#fff"/>
  <path d="M434.06,456.74c1.05,1.13,25.27-9.78,28.66-11.05,10.54-3.97,31.25-8.94,38.69-16.25,9.02-8.88,13.51-16.6,27.66-19.89l27.58-55.72c-7.68,7.05-13.9,15.74-21.29,23.11-1.45,1.46-14.6,14.92-13.63,7.07,4.05-4.16,32.18-36.35,34.66-36.2.42.02,4.82,5.71,5.1,6.45l-23.62,49.13.43,1.47c12.56-6.2,5.69,6.72,1.83,12.34-3.86,5.62-9.64,9.1,3.02,5.1l27.81-65c2.67-3.18,6.37,3.4,8.41,2.33.12-.06-1.02-1.98-.03-2.49,1.11-.56,2.8-.14,4.1-.88,1.18-.68.9-4.46,4.61-1.34,2.76,2.35,14.64,23.64,17.07,28.34,1.47,2.79,8.7,15.39,6.49,17.49-.32.29-3.04.06-3.42-1.16l-23.88-40.75c.74,7.56,17.62,59.94,15.52,62.35-.13.12-2.58.81-2.99.49-3.06-2.42-14.08-47.66-16.1-55.2-.42-1.59-.67-3.18-.54-4.82-1.77.24-1.29,5.11-1.28,6.45.36,14.28,1.27,28.77,1.08,43.03-.61,3.32-2.16,5.63-4.27,2.14l-2.13-48.9-25.54,56.34c-.89,2.58,3.73.93,5.6,2.89,1.87,1.95-.08,11.59-.81,14.72-1.88,7.88-3.5,10.55-8.16,16.32-1.02,1.3-.57,3.68-2.75,5.12-2.99,1.95-9.41.06-10.29.76-.25.23-1.24,5.36-1.9,6.79-1,2.33-7.88,17-8.63,17.64-.75.7-6.89,2.23-8.04,2.18-1.52-.06-14.61-3.84-15.31-4.59-3.67-3.97,3.22-11.23,3.14-15.36-10.63,8.15-21.16,16.62-31.38,25.15-12.74,10.68-36.29,35.77-53.63,35.1-4-.15-12.15-4.6-13.61-4.41-.67.1-1,2.27-3.09,3.04-4.87,1.94-14,2.38-19.52,3.81-13.93,3.72-27.37,9.15-41.57,12.13l-.95,2.7c3.72,7.55,2.91,23.79,6.61,30.31.4.74,7.51.41,7.98.85.18.13-1.29,3.65-1.85,3.94-1.6.67-6.88.46-8.43-.32-3.21-1.7-7.31-27.91-8.08-33.16-.19-1.28.78-2.88.66-2.95-.53-.38-9.99.77-12.53.55-11.68-1.05-38.21-21.74-44.5-19.19-.8.33-11.05,11.11-12.33,12.7-7.07,8.72-12.5,21.87-19.84,31.36-16.16,20.75-24.47,28.51-35.17,54.27-7.36,17.75-16.11,35.27.29,51.02,11.01,10.62,18.96,10.81,33.35,9.11,4.33-.5,28.01-3.66,30.05-4.62.68-.34,5.25-11.94,6.37-14.09,14.95-28.94,31.99-63.14,66.54-71.1,3.43-.78,20.83-3.15,22.68-.77.4.56-.02,3.76-1.08,4.45-2.06,1.32-5.86-.71-8.04.6,7.08,6.89,13.97,14.14,19.05,22.71,3.2,5.34,4.82,12.03,7.55,16.99,22.14,40.2,48.44,76.36,72.27,115.35l7.16,15.88c2.98-8.08,8.41-15.1,14.76-20.87l44.86-29.79c2.97-4.68-24.4-52.49-29.04-59.65-10.21-15.57-25.66-27.46-34.46-41.94-4.74-7.83-7.76-17.6-12.36-25.98-9.87-18.17-25.59-37.29-39.07-53.05-1.51-1.76-12.28-9.21-9-12.25,2.08-1.92,10.9,7.04,12.65,8.93,23.11,24.51,34.54,44.68,49.37,74.21,8.35,16.59,25.53,29.34,36.43,45.9,12.05,18.25,23.45,39.27,29.75,60.22,11.12-6.56,10.96,8.8,13.82,16.44,2.53,6.72,11.4,22.66,10.14,28.56-.67,3.25-7.48,14.59-5.47,17.46.23.37,1.99-1.26,2.91-1.41,1.34-.13,3.36.98,3.99.58.62-.4,5.3-11.46,6.4-13.3,8.3-13.89,26.98-35.4,45.03-27.97,14.23,5.89,11.13,27.99,7.22,39.81-4.59,13.67-14.16,24.05-19.1,37.4-4.94,13.35-4.46,27.7-9.93,38.97-6.27,13-14.04,11.55-27.28,9.94-24.96-3.02-27.47-15.2-39.27-33.69-1.32-2.05-5.46-6.59-6.01-7.94-.44-1.11.57-2.29.35-2.72-.51-1.05-8.63-7.74-9.85-7.54-3.24.6-1.87,15.41-15.16,4.34-4.53-3.76-24.13-28.01-25.64-32.92-.87-2.77.47-4.23.17-6-3.91-23.1-38.57-64.63-51.96-86.03-13.39-21.4-24.05-47.31-38-68.43-2.81-4.3-15.26-19.96-19.4-21.45-5.63-2.1-22.43,7.09-27.55,10.6-11.41,7.82-18.84,19.38-25.96,31-8.42,13.76-15.97,28.41-22.36,43.16-14.6.66-31.47,6.75-45.79,6.56-9.47-.06-21.91-8.19-27.65-15.39-9.33-11.65-5.65-25.29-17.58-35.59-4.33-2.66-10.01-13.01-13.88-14.98-.54-.26-4.86,9.47-6.07,11.06-10.47,13.44-27.33,11.22-36.46-2.43-14.7-22.06-7.83-76.14-.8-101.01,4.07-14.36,6.11-18.35,21.14-12.85,10.72,3.93,20.72,9.05,32.34,13.2,3.65,1.29,19.28,16.53,21.04,19.87,1.18,2.35.5,4.27,1.21,6.54.54,1.72,19.37,23.7,20.95,23.76,1.33.05,15.47-16.95,17.38-19.49,6.27-8.26,9.82-17.11,15.29-24.98,3.34-4.85,13.22-12.12,14.94-15.94.13-.36-4.43-1.63-3.6-5.91.68-3.43,9.58-9.17,12.07-13.99,1.31-2.56,4.22-13.56,2.82-15.07-1.11-1.2-26.92,5.34-31.73,5.64-4.02.21-9.48.12-13.33-.81-9.62-2.37-24.93-16.38-24.83-26.94,0-6.44,15.59-29.82,19.98-36.45,1.94-2.96,7.25-8.47,8.31-10.73.46-.89-1.26-3.57-1.37-5.52-.26-5.9,7.54-11.25,11-16.15,7.32-10.29,20.97-41.82,31.39-45.85,8.32-3.2,24.29-1.62,34.1-2.58,4.94-.48,22.59-3.14,25.67-5.94,1.57-1.46,5.21-9.09,6.15-11.48.74-1.85,5.84-16.11,5.19-16.68-.76-.7-14.8,9.09-13.8,1.9.41-2.72,14.09-4.92,14.37-15.36.06-1.58-1.83-9.3.85-9.5.61-.04,3.12.97,3.33,1.89,2.93,13.83-2.46,38.77-10.91,50.22-6.6,8.98-16.59,6.71-26.31,9.92,8.72,8.59,20.85,20.05,33.54,21.69,12.69,1.64,28.1-2.75,39.84-6.67,1.54-.55,17.03-5.54,15.94-7.1-.98-1.43-12.81-3.28-15.11-6.65-4.66-6.74.61-25.48-.64-27.71-.17-.25-4.11-2.1-5.41-3.12-3.42-2.68-20.57-19.43-15.34-22.75,2.99-1.89,4.51,4.24,5.73,5.68,1.68,2.07,9.94,11.55,11.49,12.4,4.51,2.6,2.91-4.62,6.66-4.18,3.38.37-.11,7.65.18,7.96.12.13,2.81,1.2,2.93,1.14.62-.46.21-5.52,3.67-3.87,2.08,1.05,1.09,4.78,1.32,5.03.12.13,2.85.23,2.97.11.25-.23-.45-5.6,1.75-5.95,3.6-.53,3,5.82,3.29,6.08.64.69,8.41-.71,9.94-1.14,26.67-6.69,30.04-32.73,39.97-54.33.24-3.15-4.42-4.97-6.48-8.26-7.44-11.88-1.86-19.62-.09-30.85,1.51-9.29-1.68-3.65-5.05-4.63-7.56-2.29,8.75-11.32,10.36-1,1.61,10.32-8.24,20.27-1.6,32.24,1.02,1.86,7.73,7.52,9.16,6.42.88-.69-9.91-12.22-6.91-16.23,3.32-4.31,6.49,6.38,8.16,8.81.98,1.43,16.02,14.52,6.2,12.56-4.16-.83-4.34-7.09-9.28,2.8-7.62,15.13-10.93,38.02-24.82,48.84-12.58,9.84-29.36,11.87-44.64,8.25l-.59,15.4c-.01.3,1.1,6.17,1.21,6.54,1.4,3.15,27.89,8.9,33.78,13.8,12.36,10.25,12.71,53.37,15.82,68.92,1.39,8.07-15.61,4.81-15.72,7.72-.09,2.43-1.15,15.8-.63,16.43l.17.19ZM281.74,426.12c.41.26,3.1,7.89,4.21,9.03,2.87,2.78,9.58.49,12.97.68,17.57.92,34.59,3.76,52.68,3.84,6.19.05,18.26.4,23.63-.37,6.04-.86,8.89-6.95,17.4-7.11,9.23-.13,16.45,6.52,19.66,6.76,1.33.05,7.76-2.74,10.39-3.24,6.06-1.16,15.28-1.11,20.56-2.67,1.29-.38,1.68-.97,1.79-2.24-2.48-14.43-2.46-29.18-5.86-43.58-1.46-6.31-4.08-17.04-9.71-20.71-9.78-6.33-14.14-.3-23.01,3-17,6.33-35.19,12.01-53.61,9.42-13.05-1.83-28.7-16.4-36.95-26.13-8.34,2.17-24.29-1.48-31.45,3.04-8.52,5.38-18.46,28.5-24.52,37.8-2.19,3.32-12.8,15.42-13.28,16.86-.28.96-.3,1.57-.1,2.55.37,1.47,16.39,20.67,17.65,21.14.78.27,15.56,1.26,16.18.8.5-.29-6.73-8.27-1.11-9.03.67-.1,1.82-.11,2.36.27l.13-.12ZM428.96,460.06c1.45-4.44-.36-14.28.74-19.4-2.1-.75-14.27,1.64-14.91,2.52-.65,1.01.04,3.71-.38,5.27-2.03,7.03-1.99,13.83-5.68,19.82-2.14,3.5-9.17,9.49-9.99,12-.89,2.64-4.15,19.51-4.32,22.36-.09,2.43,4.37,15.77,5.44,16.6.35.26,2.77-.87,4.21-.63,6.27,1.03,7.97,4.43,16.64,3.01,14.24-2.43,50.13-37.24,63.04-47.92,6.77-5.63,19.45-13.16,24.71-18.97,1.14-1.23,11.76-21.77,12.12-23.22.94-3.79-2.67-4.84,5.35-6.6,2.66-4.39,10.8-7.66,10.03-12.97-6.42,4.37-15.65,5.96-21.78,10.7-4.44,3.47-7.17,9.56-11,13-7.48,6.64-46.41,17.9-58.89,23.43-8.34,3.75-20.07,8.7-24.46,17.1-1.71,3.33-2.85,14.22-4.52,14.82-2.65,1.05-3.09-1.76-3.2-3.71-.36-6.45,2.79-14.28,7.04-19.04,1.71-1.94,9.58-7.47,9.78-8.07v-.12ZM549.79,428.32c-1.4-1.45-6.93,1.92-6.05,2.74,2.46,2.46,8.39-.35,6.05-2.74ZM542.7,431.03c-1.8-3.65-9.82-1.89-13.13-1.17-1.04.2-2.98.19-2.85,1.59l15.92-.36.06-.06ZM234.83,457.05c-3.48-2.62,8.68-12.72,11.06-14.51,3.69-2.77,7.66-4.93,11.69-7.08-1.07-2.17-11-14.08-11.92-13.88-1.96.41-19.83,29.48-21.86,33.35-5.31,10.12-5.74,13.62,2.67,22.33,14.66,15.2,31.87,9.72,50.06,5.56,27.32-6.24,56.85-17.92,85.13-18.96,3.1-.12,6.83-.77,8.17,2.2,6.15-.37,20.41,10.86,25.06,9.89,1.65-.36,11.13-11.6,11.74-13.27,1.22-3.35.27-7.03.89-10.41.47-2.78,3.11-5.04,2.34-8.78-.47-2.08-13.48-6.29-16.21-6.33-6.98-.03-10.44,6.28-16.49,7.14-33.82,4.84-74.82-4.39-109.17-4.91-8.57.22-15.69,5.29-22.31,10.13-2.06,1.5-8.49,9.27-10.79,7.54h-.06ZM548.42,437.2c-1.17-1.14-16.3-.87-18.43-.71-1.83.17-1.56-.36-1.53,1.94,5.16-.04,13.37,2.82,18.21,1.73.61-.16,1.93-2.84,1.81-2.97h-.06ZM516.74,482.8c1.06-.75,10.89-22.72,10.7-24-.13-1.4-4.24-1.92-4.6-5.15-.28-2.26,1.07-4.15,1.08-5.91-.04-3.58-1.23-7.58-.35-11.49l-21.51,41.5c-.03.79,14,5.46,14.68,5v.06ZM545.14,445.09s-7.04-.21-8.49-.33c-1.33-.05-8-2.07-5.43.7.47.5,11.67,4.46,12.28,4.42,1.4,0,2.17-4.35,1.64-4.86v.06ZM539.75,455.81c.98-3.36-11.25-5.9-11.75-5.43-.25.23-.46,2.41.55,3,2.31,1.42,8.35,2.44,11.2,2.37v.06ZM394.33,481.14c-.35-.32-7.1-1.79-9.07-2.65-22.09-9.83-23.66-10.14-48.06-5.67-15.47,2.87-30.77,7.56-45.98,11.47-3.04,1.71-1.66,8.56-2.23,12.12-.72,4.47-3.16,9.72-5.97,13.25-1.21,1.53-6.96,5.74-6.72,7.27.25,1.35,13.31,5.91,16,7.23,8.82,4.41,21.72,14.68,31.42,14.99,14.67.56,50.54-13.24,67.63-17.08,1.22-.26,4.07.03,4.25-.08.75-.64-6.29-13.3-6.27-18.7-.02-4.19,5.68-21.4,4.86-22.16h.12ZM141.65,521.25c-2.34-2.4-5.83,4.7-6.37,6.07-2.14,5.02-3.18,11.66-4.3,17.08-4.15,19.64-5.94,40.94-5.43,60.94,1.75.31,1-2.21,1.1-3.42,1.9-22.64,3.98-46.72,10.46-68.52.62-2.04,5-11.71,4.59-12.15h-.06ZM174.02,535.48c-.35-.44-8.69-2.94-10.78-3.94-2.8-1.32-13.79-7.69-15.36-7.88-1.57-.18-1.98.96-2.63,2.09-4.86,8.01-9.02,32.69-10.38,42.65-1.35,9.97-3.56,26.22-3.43,35.75.04,2.01,1.89,13.98,2.54,14.55.35.32,5.29-3.5,8.23-4.06,2.94-.55,11.41.26,11.85-.15s-.26-9.18-.84-9.81c-.46-.62-9.18-2.96-9.58-5.04-.91-4.71,8.65-.82,9.03-1.11,1.26-1.23-8.72-9.99-6.55-11.18,3.47-1.87,7.91,4.31,8.86,3.31.13-.12.27-3.82.15-3.94-.23-.25-6.56,0-6.91-1.9-1.22-6.3,5.78-1.84,7.1-3.07,3.53-3.27-8.39-4.33-5.64-8.17,1.48-2.07,6.66.5,6.97.27.94-.87,5.88-20.42,7.73-24.29.93-2.03,2.36-4.58,3.59-6.48.78-1.25,6.34-7.04,6.11-7.42l-.05-.18ZM196.62,558.87c.64-.76,2.22-2.46,2.37-3.19.23-1.21-14.8-17.75-16.11-18.41-2.92-1.51-6.74,3.08-8.58,5.26-10.69,12.64-17.27,48.28-16.02,64.6.37,4.63,8.19,11.3,9.58,9.78.32-.35.08-6.74.32-8.43.73-4.89,2.18-10.97,3.64-15.77.83-2.58,2.46-11.81,6.29-8.81,2.24,1.73-2.59,13.68-3.39,17.17-.52,2.41-3.45,17.17-2.93,17.92.17.25,3.29,1.28,4.81,2.73,6.92,6.34,13.52,14.91,19.55,22.18,4.2-8.16,6.62-17.6,10.29-26.2,4.6-10.69,10.4-20.91,16.24-30.95-6.45-7.66-13.73-14.13-19.99-21.9-.75-.94-.82-2.4-.94-2.46-3.36-2.56-11.78,15.76-12.71,16.27-5.21,2.84-3.82-3.3-2.49-6.29,2.19-4.96,6.62-9.64,9.99-13.52h.06ZM158.41,617.89c-.73-.03-1.88,1.45-3.09,1.46-4.68.12-15.92-1.22-19.07,3.28-2.7,3.84,7.6,17.17,14.13,16.33,5-.66,16.48-10.12,15.17-15.51-.37-1.41-5.98-5.63-7.13-5.62v.06ZM537.35,763.99c4.54-2.8,7.95-1.46,9.69-2.48,5.28-3.14-4.48-19.42-6.24-24.04-1-2.53-5.6-18.73-6.56-18.83l-49.11,32.91c-6.24,4.38-18.78,21.14-17.3,28.48.57,2.63,16.33,22.18,19.25,25.45,10.08,11.01,8.02,4.5,14.37-4.19,7.5-10.28,25.48-30.96,35.98-37.36l-.06.06ZM611.19,749.46c.51-.59-.26-2.8-.65-3.73-2.62-6.17-10.99-8.01-16.94-6.42-1.6.42-11.6,6.42-10.21,8.11.64.81,15.62,5.82,18.88,7.95,4.85,3.22,4.96,6.75-1.48,5.23-4.03-.94-20.22-10.98-22.45-9.97-.99.45-3.74,2.59-2.15,3.92,2.82,2.48,21.47,8.6,20.4,12.74-.37,1.62-2.85,1.47-4.3,1.17-4.09-.88-19.36-11.31-21.29-10.17-1.12.62-8.02,12.69-7.49,13.19.82.88,18.62,5.27,22.35,7.66,3.73,2.39,2.64,5.57-1.16,5-2.96-.48-21.47-8.41-22.35-7.66-.88.69-4.55,18.77-5.75,21.64,4.78.3,31.82,14.27,33.31,13.3.5-.34,4.38-11.31,4.04-11.87-2.06-3.18-23.13-6.35-26.11-9.44-5.84-5.99,8.22-2.3,11.05-1.58,3.31.86,16.63,6.47,18.04,6.1,1.41-.37,7.86-10.26,7.06-11.51-.92-1.37-27.09-10.81-30.8-12.29-1.82-.13-.61-4.58-.3-4.87,2.2-1.92,32.83,13.28,34.32,12.25,1.87-1.26,5.59-19.03,4.67-22.1-.91-3.07-18.42-7.26-19.04-11.84,0-.12.7-2.4.76-2.52,2.19-1.62,17.04,8.43,17.62,7.66l-.06.06ZM543.74,766.85c-.75-.94-2.4.94-3.03,1.34-8.3,5.88-28.17,25.33-32.99,33.77-.46.83-1.79,2.36-1.22,3.17.17.25,5.41,3.12,5.84,2.84.94-.63,7.76-12.27,9.49-14.63,2.88-3.84,10.82-14.58,14.83-16.13,1.85-.66,5.18-.35,5.61-.63.69-.52,1.99-9.21,1.47-9.78v.06ZM551.22,796.65c1.38-2.86,5.43-13.27,4.92-15.84-.51-2.57-3.25-.79-3.8,1.01s-1.24,11.79-1.68,12.2c-.38.35-3.76-.02-4.51-1.14-1.32-1.93,1.74-5.88.37-8-2.81,2.02-4.86,12.81-8.44,12.67-5.88-.23,1.68-10.62,2.27-13.15.22-.9.9-2.76-.68-2.76-.61-.02-8.12,7.46-9.2,8.7-2.22,2.59-16.3,23-16.43,24.75-.01.36,4.3,3.44,5.69,5.2,6.31,8.01,14.41,27.94,23.27,31.25,2.51.95.88-.88.73-1.67-.35-1.96-1.59-10.69-1.94-11.13-1.62-2.01-10.57-1.5-10.03-10.89.54-9.39,9.93-7.09,10.45-8.16.85-1.61,1.75-9.16,2.91-12.46,1.37-4.02,4.74-7.89,6.05-10.51l.06-.06ZM587.72,815.35c-5.06.47-32.98-13.96-34.42-12.86-.81.58-3.82,7.87-3.3,8.43.12.13,2.78.23,3.98.64,3.83,1.36,24.74,8.84,25.89,10.47,1.85,2.56-1.06,3.91-3.53,3.45-7.23-1.37-19.69-7.37-25.97-11.5-.71-.45-1.02-1.86-2-.08-1.44,2.62-2.04,12.07-2.11,15.4-.04,2.55.73,14.36,1.58,15.79,1.82,3.1,15.15,2.28,15.66,4.85,1.57,8.14-11.11-1.64-14.11,3.83,7.92.85,28.18,7.7,30.04-4.31.33-2.17-.26-1.16-1.4-1.57-5.39-1.91-23.51-4.42-26.58-6.85-.94-.7-.78-3.31-.33-4.02,1.36-2.13,30.01,7.59,31.58,6.13.13-.12.17-2.85.11-2.97-1.1-1.44-30.41-8.27-33.43-11.79-.81-1-1.53-2.91-.9-3.49,2.52-2.27,34.05,11.51,35.49,10.35.75-.64,2.53-16.97,3.73-19.77v-.12ZM541.49,825.54c-5.53.21-6.42,2.79-2.25,6.41,5.11,4.39.94-2.21,2.25-6.41ZM553.13,298.57c.17.31,1.19.53,1.53,1.15,1.92,3.78,4.37,9.4,3.54,13.68-.37,1.75-4.14.27-5.07.9-2,1.38.24,3.35-.19,4.91-.41,1.26-4.19,1.66-3.01,2.44,1.01.71,3.7.02,1.24,4.18l-69.36,5.17.15-3.94,66.94-5.39c-1.37-2.24-6.82-2.69-9.47-3.22-7.9-1.46-58.25-5.88-59.66-8.54-2.72-5.02,4.03-3.85,7.48-3.6l59.92,8.31-6.31-3.28c-10.51-4.47-25.69-7.66-35.19-13.49-.89-.52-5.16-4.87-2.97-4.85,1.52,0,5.72,1.25,7.4,1.8,12.6,4,24.63,10.05,37.3,13.88l-28.38-27.87c-1.35-2.78-4.02-6.04.19-5.03,3.13.73,21.24,19.27,25.11,22.82,1,.95,7.44,6.96,8.2,6.33-2.16-5.43-30.95-47.82-28.99-49.93.13-.12,2.57-.63,3.05-.43.71.39,8.05,11.66,9.26,13.53,6.18,9.77,11.79,20.31,17.35,30.48h-.06ZM399.78,175.75c10.42-1,22.93,3.79,32.62,7.69,3.89,1.54,14.65,5.97,5.63,8.29-19.01-7.89-32.78-16.19-53.02-6.04-42.66,21.44-18.3,68.76-47.11,90-5,3.69-11.85,6.53-18.16,6.35-8.74-.15-10-6.82-2.8-6.18,5.57.46,5.52,1.61,11.75-.76,24.59-9.56,19.44-44.55,26.87-64.24,6.42-17.06,25.81-33.32,44.21-35.1ZM495.24,265.81c-2.6,1.36-11.89-3.55-14.24-5.52-3.35-2.8-12.28-17.11-7.55-20.09,4.73-2.98,3.58,3.23,4.39,5.76.66,1.91,2.46,5.5,3.67,7.12,3.11,4.37,1.36-.55,1.36-2.13-.03-11.9,10.94-30.3,5.4-39.56-1.03-1.74-10.63-11.03-12.64-12.26-2.96-1.87-6.67-3.53-10.1-4.09-2.66-.41-14.88.04-15.28-.71-3.6-5.84,13.3-4.71,15.59-4.38,10.93,1.63,27.74,14.42,29.13,25.77,1.63,12.94-11.19,29.08-5.13,40.24,1.25,2.29,4.16,3.92,5.06,5.9.11.19.58,3.85.4,3.9l-.06.06ZM598.03,354.82c10.38,9.57,20.52,22.34,30.5,32.68,8,8.32,18,16.66,25.5,25.33,5.81,6.72,4.25,9.57-3.38,4.36-6.8-4.69-23.35-23-30.06-29.99-7.06-7.37-25.11-24.58-29.68-31.98-2.8-4.48-1.62-6.8,3.25-3.94.65.39,3.05,2.73,3.93,3.55h-.06ZM372.59,272.16c.62-.4,3.61.81,3.82,1.73,2.31,10.96-11.19,19.55-12.26,9.25-.62-6.1-.62-5.97-2.17-11.5-2.51-9.08-1.83-17.31,5.36-24.26,8.2-7.88,18.74-1.1,15.46,2.17-2.97,2.98-7.24-4.35-13.45,4.1-3.91,5.31-5.12,11.64-1.64,17.55,3.93,6.71,3.64,1.78,4.94.98h-.06ZM550.96,345.67c.47.5-.57,3.86-1.45,4.62-16.08,10.92-30.68,24.08-46.41,35.32-1.62,1.15-9.73,8.31-10.6,4.09-.46-2.32,2.66-4.45,4.17-5.79,8.05-7.16,18.48-14.84,27.23-21.36,2.94-2.2,24.85-19.33,27-16.94l.06.06ZM542.84,232.78c1.83-.36,2.42.27,3.21,1.76,1.7,3.16,4.42,16.14,5.64,20.68,1.69,6.5,2.83,13.28,4.46,19.84,2.05,8.34,7.14,21.28,8.18,28.97.19,1.4.15,3.89-1.5,4.19-3.36.54-5.51-9.93-6.26-12.45-5.74-19.83-9.38-40.37-14.69-60.31-.81-1,.1-2.55.95-2.7ZM666.06,332.11c1.05,1.07-.44,3.57-2.64,3.91-6.35.85-21.74.08-28.77-.31-9.7-.49-24.86-.95-33.82-3.12-2.59-.65-3.79-2.39-3.33-5.05l68.56,4.63v-.06ZM548.19,338.58s.18,3.23-.76,4.04c-3.32,2.73-11.71,4.53-15.73,6.38-3.71,1.74-7.99,4-12.01,5.91-4.02,1.91-29.3,15.21-30.99,14.9-.6-.08-2.24-1.85-2.4-2.28-.27-.92,1.28-.19,1.72-.6.32-.35-.92-1.25-.11-1.89,3.26-2.67,14.25-7.53,18.77-9.72,9.59-4.73,21.9-10.7,31.76-14.39,1.6-.61,8.75-3.49,9.75-2.42v.06ZM580.16,310.9c-3-5.58,14.01-50.16,15.69-59.21l5.47-12.72c2.01,1.41,1.19,2.29.94,4.04-3.01,21.56-14.07,43.91-18.06,65.55.6,1.85-3.92,2.52-4.1,2.33h.06ZM549.49,331.65s-1.02,2.87-.15,3.88c-9.3-1.27-65.25,13.53-69.13,10.41-.12-.13,1.07-2.51,1.87-2.9,4.96-2.6,26.34-6.16,33.19-7.41,4.89-.9,31.98-5.94,34.22-3.97ZM447.03,223.1c-2.77,2.44-4.53-3.82-6.88-2.75-6.36,2.85-8.13,22.03-20.51,26.54-4.25,1.54-15.57,2.32-17.75-2.56-3.35-7.66,7.21-1.24,12.02-1.48,15.33-.75,15.27-29.17,27.97-27.95,4.05.4,7.09,6.59,5.15,8.27v-.06ZM648.28,379.27c-.57.65-3.36.6-4.62.07-9.38-3.88-30.1-19.31-39.51-25.86-2.31-1.61-12.23-7.27-9.27-10.13,1.89-1.81,20.7,11.12,23.73,13.05,7.88,5.16,19.92,12.48,26.8,18.33.82.7,3.88,3.31,2.86,4.54ZM661.96,309.06c1.83,1.47-5.89,4.87-7.18,5.19-13,3.39-31.52,6.5-44.96,8.48-1.59.24-10.85,1.22-11.2.85-.12-.13-.05-3.52.27-3.88.19-.24,4.72-1.09,5.88-1.41,6.5-1.57,54.89-11.07,57.19-9.22ZM653.79,287.86c.41.5-2.54,2.82-3.16,3.28-9.61,6.68-26.52,15.5-37.29,20.86-2.1,1.01-13.07,6.85-14.48,5.64-.12-.13-.63-2.57-.43-3.05.99-1.97,33.83-19.23,38.6-21.59,2.97-1.46,14.64-8,16.83-5.12h-.06ZM423.87,198.47c.34.62.16,3.65.04,3.83-.82.82-11.84-3.19-14.32-3.52-11.05-1.52-17.34.79-26.13,6.95-1.94,1.38-7.42,8.34-9.72,6.55-2.77-2.11,4.24-9.25,6.18-10.63,9.13-6.88,20.42-10.09,31.75-7.65,1.99.44,11.65,3.36,12.28,4.48h-.06ZM598.2,334.54c5.34,1.66,52.23,15.66,52.06,18.45-.01.36-2.34,2.52-3.36,2.18-11.71-3.3-23.49-6.55-34.93-10.81-4.79-1.82-15.35-3.56-13.77-9.76v-.06ZM438.51,312.33c-2.18,3.01-24.2.83-28.57-.67-3.78-1.3-19.75-12.35-14.51-15.8,2.62-1.72,10.91,8.43,14.55,10.03,2.57,1.13,9.73,2.74,12.46,2.91,3.4.13,12.35-2.08,14.74-1.2,1.73.67,2.1,3.85,1.33,4.85v-.12ZM633.25,277.11l-35.13,34.05c-6.63,3.51-4.75-1.15-1.81-5.05,4.61-6.14,18.07-18.49,24.28-23.54,3.57-2.9,8.39-8.24,12.66-5.47ZM564.41,254.5l6.27,45.6c-1.99,12.37-4.7.73-5.53-4.52-2.06-12.89-2.19-26.86-4.48-39.82l3.75-1.31v.06ZM614.62,270.39c1.51,1.7-22.44,34.18-23.36,39.24-3.54,3.63-4.59-.66-3.42-4.38.97-3.24,9.02-15.14,11.47-18.81,2.06-3.08,9.74-14.81,11.86-16.3,1-.69,3.28,0,3.51.26h-.06ZM462.66,803.57c-.45.71-8.36-3.66-9.56-4.07-7.31-2.65-25.82-6.09-30.97-9.45-1.01-.65-2.17-3.54-1.6-4.07,1.88-1.57,39.71,9.6,41.8,13.56.51.93.72,3.37.33,3.96v.06ZM516.63,851.48c.41.38-.3,3.08-.64,3.98-1.31,4.02-15.07,25.71-18.12,29.12-.89,1-4.52,3.77-5.57,2.82-.59-.57,5.04-11.16,5.95-12.71,1.69-2.91,13.16-21.84,14.23-22.71,1.07-.87,3.74-.83,4.09-.51h.06ZM580.03,262.08c1.34,1.39-3.19,32.54-2.4,37.25.07,4.56-4.63,9.96-5.15,2.84-.27-4.08,2.95-38.99,4.58-40.2.13-.12,2.85-.01,2.97.11ZM483.64,828.3c1.4,1.51-1.22,3.35-2.46,4.09-8.52,5.32-21.18,7.75-30.08,13.18-3.31.72-4.16-2.35-1.22-4.48,3.31-2.36,12.56-6.14,16.7-7.86,2.71-1.11,15.26-6.82,17.01-4.93h.06ZM412.64,210.85c.41.44-.02,3.58-1.14,4.45-1.44,1.1-9.82,2.72-13.16,4.41-2.73,1.41-12.17,10.16-14.21,7.96-3.03-3.21,8.12-10.74,10.48-11.98,2.48-1.3,16.76-6.28,18.04-4.83ZM345.83,288.99c.52.63-.23,4.3-1.12,5.48-4.15,5.43-25.48,7.22-27.9.75-2.04-5.48,7.16-1.37,8.55-1.19,4.53.6,8.5.02,12.69-1.64,1.42-.55,6.33-5.1,7.84-3.46l-.06.06ZM475.97,212.61c1.92,2.08,8.15,12.4,1.82,11.24-1.63-.31-6.39-9.17-9.52-11.36-2.78-1.93-7.67-2.78-9.79-4.44-.29-.25-.96-3.38-.84-3.49,4.15-2.27,15.36,4.78,18.27,8.05h.06ZM350.55,294.21c5.99,3.75-16.07,23.31-20.51,17.06-1.5-2.06,11.07-8.44,12.91-10.43,2.41-2.58,3.63-9.15,7.6-6.63ZM393.86,232.05c.57-.65,11.35.01,16.34-3.32.75-.52,5.52-7.62,6.76-2.17,1.56,6.74-18.46,14.17-22.33,9.1-.69-.88-1.28-3.02-.77-3.61ZM340.74,285.51c-.76.76-4.69,2.01-5.98,2.32-4.11,1.06-18.51,2.81-17.66-3.35.33-2.23,12.66-.91,15.29-1.24,2.38-.33,5.69-2.58,7.38-2.45,2.85.11,2.74,3.08.97,4.77v-.06ZM416.84,291.4c-1.68-2.19-1.33-6.37,1.37-5.6.42.14,4.1,3.98,7.09,5.01,3.24,1.1,11.68-.65,9.98,4.15-1.36,3.89-15.85-.06-18.51-3.5l.06-.06ZM422.35,257.06c6.45-1.82,1.06,13.52-1.53,12.88-4.63-1.21-.32-12.34,1.53-12.88ZM449.02,278.91c-1.87-1.89.66-7.63,2.01-9.58.77-1.18.75-2.1,2.78-1.11,4.18,1.92-2.38,13.08-4.78,10.69ZM369.63,266.95c-1.41-1.33.33-10.25,4.77-8.8,3.9,1.24-2.07,11.27-4.77,8.8ZM147.39,534.64c3.05-2.01,10.75-1.59,13.09,2.32,7.02,11.62-8.47,22.99-14.91,11.88-2-3.42-1.11-12.25,1.82-14.2ZM156.66,540.03c-1.56-2-7.65-1.51-7.51,2.75.36,9.61,11.79,2.82,7.51-2.75Z"/>
</svg>