<svg class="spark" version="1.1" xmlns="http://www.w3.org/2000/svg" xmlns:xlink="http://www.w3.org/1999/xlink" xml:space="preserve" xmlns:serif="http://www.serif.com/" viewBox="7.47 5.62 367.33 308.53">
<g transform="matrix(1,0,0,1,-5360.58,-5539.02)">
<g id="Civic-spark-logo" serif:id="Civic spark logo" transform="matrix(2.06491,0,0,0.887967,-10610.8,726.484)">
<g id="Pantone-on-white-wide" serif:id="Pantone on white wide" transform="matrix(0.728937,0,0,0.778859,1167.66,2897.07)">
<g transform="matrix(3.6812,0,0,2.01579,-3528.43,2817.46)">
<g transform="matrix(0.192525,0,0,1.2626,2845.49,-218.277)">
<g transform="matrix(0.928983,-0.0760271,0.125449,0.563001,1893.41,367.203)">
<path d="M1180.73,197.272L1260.72,287.357L1339.66,355.951L1326.74,370.786L1256.11,290.28L1165.48,200.194L1180.73,197.272Z" style="fill:var(--cust-black);"></path>
</g>
<g transform="matrix(-0.38895,-0.516901,0.852915,-0.235719,3352.17,1136.52)">
<path d="M1140.53,139.506C1140.53,139.506 1201.31,223.427 1242.54,266.976C1251.48,276.417 1260.97,292.142 1272.12,303.91C1301.12,334.508 1339.38,371.305 1339.38,371.305L1312.66,369.173L1237.62,271.006L1127.43,156.184L1140.53,139.506Z" style="fill:var(--cust-grey);"></path>
</g>
<g transform="matrix(-0.699964,-0.377888,0.623536,-0.424206,3798.23,1010.8)">
<path d="M1175.24,187.752C1175.24,187.752 1197.43,219.772 1238.66,263.321C1270.84,297.31 1304.11,343.273 1304.11,343.273L1285.42,339.066L1236.67,265.706L1167.22,203.287L1175.24,187.752Z" style="fill:var(--cust-black);"></path>
</g>
<g transform="matrix(0.70345,-0.573483,0.843416,0.379978,1976.19,1046.77)">
<path d="M1150.41,240.645L1258.92,277.575L1358.27,298.668L1351.76,307.764L1258.53,283.385L1157.85,258.305L1150.41,240.645Z" style="fill:var(--cust-black);"></path>
</g>
<g transform="matrix(1.14994,-0.157946,0.23229,0.621155,1601.1,458.349)">
<path d="M1117.25,233.377C1135.48,239.803 1129.81,240.467 1197.12,258.789C1233.67,268.74 1216.15,265.32 1244.97,274.026C1244.97,274.026 1261.53,275.87 1285.01,280.653C1308.44,285.424 1370.12,293.334 1370.12,293.334L1348.5,306.568L1302.85,291.39L1245.1,277.226C1259.51,280.843 1253.1,277.674 1201.37,264.687C1174.86,258.607 1130.63,250.341 1130.63,250.341L1117.25,233.377Z" style="fill:var(--cust-black);"></path>
</g>
<g transform="matrix(-1.16024,0.127323,0.187253,0.626716,4505.68,93.7055)">
<path d="M1112.39,244.388C1171.64,262.781 1223.58,274.728 1261.7,281.956L1419.12,310.696L1396.28,321.365L1261.05,286.681L1113.81,257.799L1112.39,244.388Z" style="fill:var(--cust-grey);"></path>
</g>
<g transform="matrix(1.1791,0,0,0.636908,1617.87,253.616)">
<path d="M1382.38,319.508L1379.82,336.251C1303.7,303.545 1285.38,297.389 1256.3,287.233L1120.03,231.6L1121.36,211.78L1256.59,282.887L1382.38,319.508Z" style="fill:var(--cust-grey);"></path>
</g>
<g transform="matrix(0.759194,0.546751,-0.804101,0.410089,2377.22,-357.412)">
<path d="M1355.75,287.575L1362.72,303.281L1296.24,288.353L1239.22,277.987L1125.83,241.264L1111.93,222.217L1242.83,275.957L1305.13,285.086L1355.75,287.575Z" style="fill:var(--cust-grey);"></path>
</g>
</g>
</g>
</g>
</g>
</g> </svg>