<?xml version="1.0" encoding="UTF-8"?>
<svg id="Layer_1" xmlns="http://www.w3.org/2000/svg" width="800" height="1000" version="1.1" viewBox="0 0 800 1000">
  <!-- Generator: Adobe Illustrator 29.6.1, SVG Export Plug-In . SVG Version: 2.1.1 Build 9)  -->
  <path d="M525.23,695.28c2.37-.75,6.37-.24,8.13-1.23.39-.22,5.28-6.77,5.43-7.2,1.71-4.7,1.67-15.36,2.97-20.9,1.18-4.99,7.68-4.62,2.57-13.41-6.04-10.4-19.63-13.4-27.02-21.38-2.66-2.88-4.97-7.65-7.6-10.78-10.09-11.99-20.78-22.92-31.36-34.35-7.66-8.28-10.56-16.34-19.89-24.35-13.03-11.19-19.22-17.4-30.61-30.3-6.74-7.63-11.91-9.89-16.27-19.78-1.16-2.62-5.66-13.95-5.85-16.01-.08-.83,0-1.06.36-1.79.33-.68,6.98-8.74,7.86-9.57,11.34-10.74,28.07-13.75,40.51-23.73,8.43-6.77,17.07-15.56,23.72-24.03,1.66-2.12,4.75-3.22,5.22-6.43.5-3.39-1.82-4.83-2.84-7.57-.87-2.33-1.27-5.26-2.36-7.3-1.09-2.06-7.7-7.24-9.77-7.62-4.27-.77-6.19,1.35-9.15,1.34-6.44-.02-16.43-2.92-22.87-2.77-4.41.1-8.7,3.42-12.95,4.38,1.47-5.44-1.42-5.11-3.36-7.57-5.8-7.35-8.96-9.79-19.26-9.05-7.87.57-18.03,3.72-26.64,4.42-2.36.19-4.79-.22-7.15-.25-1.32-.42-8.88-14.52-10.8-16.7-2.66-3.03-6.2-3.12-8.18-4.72-1.65-1.33-2.36-5.7-3.75-7.6-2.82-3.87-9.38-3.33-13.69-4.81-3.86-1.33-8.49-5.29-12.94-5.49-3.63-.16-6.3,1.91-9.35,2.68-5.5,1.39-7.04.28-12.68,4.21-5.85,4.08-6.56,7.03-9.12,13.3-5.35,13.1-4.59,14.68-4.31,28.01.3,13.91-1.05,27.77-.19,41.94.87,14.19,4.57,31.14,4.44,44.82-.04,4.41-5.52,11.92-8.27,15.94-4.32,6.3-6.67,10.47-10.61,16.84-5.28,8.52-12.15,14.01-16.4,24.3-.9,2.18-2.17,8.61-2.42,9-.22.35-1.85.54-2.74,1.72-2.16,2.83-4.9,10.98-6.99,14.78-5.5,9.98-7.91,14-12.08,24.73-6.5,16.74-18.03,32.77-24.46,49.98-5.19,13.87-11.95,26.53-17.89,39.92-2.88,6.49-9.59,32.51-13.06,35.5-1.28,1.1-3.36.53-4.13,2.63-.98,2.68,1.02,5.46.2,7.9-.47,1.38-2.8,2.35-3.54,3.94-.25.52-2.58,7.95-2.64,8.38-.87,7.18,12.6,8.07,17.01,10.38,2.02,1.06,3.73,3.46,6.14,4.63,1.8.88,7.03,2.52,8.94,2.44.14,7.79.15,15.03,7.07,19.97,3.82-.89,7.46,1.06,11.36.69,1.87-.18,2.97-1.42,4.16-1.49,2.29-.13,6.68,2.08,9.69,1.2.87,4.67,8.28,8.7,12.54,6.81,1.24-.55,1.45-2.62,3.77-3.62,5.48-2.36,14.13-1.88,19.1,1.51,1.17.8,1.37,2.15,2.25,2.71,5.08,3.2,12.43,5.98,18.51,5.93,6.78-.05,11.12-5.62,17.18-7.09,11.69-2.83,23.17-1.45,35.63-5.79,3.73-1.3,9.89-5.65,13.39-4.39.45.16,5.41,3.03,6.13,3.5,1.47.96,1,3.5,5.38,3.26,5.01-.27,4.03-5.14,6.62-7.48,6.4-5.79,12.07.3,19.26-.44,1.74-.18,3.09-1.44,5.06-1.44,3.5,0,7.36,2.66,13.04,2.31,7.9-.49,6.71-1.73,9.02-7.2.31-.73,2.91-1.39,1.8-4.67l1.93,1.81c2.92.31,5.57-3.15,7.94-3.46,1.31-.17,2.62,1.4,4.49,1.5,6.28.35,14.38-2.5,19.23-6.58,2.06-1.73,3.21-4.74,4.99-5.83,3.79-2.3,12.01-1.82,15.12-7.49,3.76-6.86,5.55-11.95,10.81-17.49,1.17-1.24,5.54-5.57,5.93-6.47.52-1.21-.2-2.55.32-3.85.71-1.78,2.64-3.74,3.04-5.45.37-1.58-.42-3.86-.1-4.37,2.08-3.37,20.28-3.65,25.69-6.31,4.75-2.34,5.9-9.99,11.35-11.72ZM606.34,282.94c-1.85-.13-3.52,1.04-5.51.37-.35-.12-5.77-4.13-5.97-4.45-1.66-2.62-.06-5.23-4.74-9.45-6.63-5.99-13.42-7.78-21.98-4.39-3.16,1.25-7.59,6.11-9.05,6.47-1.76.43-3.97-.15-6.06.26-8.13,1.59-21.91,11.13-22.05,20.25-.03,2.24,1.43,10.73,2.09,13.08.53,1.88,3.53,6.76,3.39,7.93-.06.47-2.59.75-3.32,3.38-2.42,8.69,8.86,31.04,17.21,34.35,7.4,2.94,15.19-2.92,20.44-7.54,8.68,10.51,19,2.19,23.89-7.2,21.32,8.84,34.57-25.86,27.68-40.91-2.15-4.7-10.93-11.78-16.02-12.14ZM333.44,898.25c-4.37.34-3.25,3.97-5.01,6.16-.89,1.11-6.12,3.94-7.7,4.06-6.17.47-12.33-.68-18.05-.89-16.34-.59-28.38.37-43.69-7.31-3.41-1.71-12.93-11.13-16.22-6.37.06,2.73-2.92,8.55-2.87,10.38.03,1.29,1.06,2.38,1.31,3.61.61,3.03-.26,4.81,3.21,7.29,3.82,2.73,18.79,3.73,23.98,4.13,9.62.74,19.81.13,29.55.4,11.81.34,34.27,3.68,44.37-.51,4.87-2.02,14.24-10.03,10.01-15.71-1.93-2.59-15.4-5.53-18.88-5.26ZM590.01,789.63c-1.56-.09-6.4,1.05-7.92,1.71-5.59,2.43-4.34,8.57-7.33,13.54-4.69,7.79-10.64,8.99-16.86,13.44-2.48,1.77-4.47,4.48-6.98,6.15-12.26,8.21-24.82,12.64-39.23,15.63l-1.66,1.69c-.89,2.99,2.16,3.71,2.72,4.73.68,1.24-.13,2.64,1.62,4.44.36.37,8.28,5.14,8.86,5.33,7.99,2.57,17.3-4.24,23.44-8.87,11.87-8.92,22-20.37,33.62-29.13,3.51-2.65,7.52-3.82,10.68-7.71.77-.94.8-2.72,1.53-3.51,1.46-1.59,5.66-.71,6.35-4.32.1-.5.27-6.8.19-7.15-.53-2.27-6.74-5.86-9.03-5.99ZM342,892.06c-1.16-1.83-3.48-2.22-5.52-1.7-7.32,1.86,3.56,12.44,5.52,1.7Z" fill="#fff"/>
  <path d="M149.84,532.61c1.1.63,8.35-4.94,6.7,2.56-.07.35-3.2,1.83-3.03,3.43,2.35.44,6.53-.7,8.17,1.26.11.12.37,2.73.3,2.85-1.04.97-5.4.62-5.77.9-.24.17,4.07,4.95.25,5.8-2.62.61-4.98-4.39-6.15-3.13-1.66,1.71,2.76,12.76-3.77,10.56-2.33-.8,1.44-11.41-2.09-10.31-1.44.42-4.78,4.43-4.9-.19-.01-1.18,1.31-3.2,1.13-3.33-.52-.43-6.17.53-4.71-3.55.73-1.98,5.08-1.28,6.85-1.22-7.74-12.36,2.64-4.16,3.08-4.73.62-.8-.87-8.19,1.81-8.68,3.93-.68,1.72,7.63,2.12,7.83v-.06ZM387.2,87.67c.35.25,4.41-5.57,6.94-3.64,2.41,1.81-2.49,6.41-2.21,6.71.23.19,5.14.2,3.41,3.56-1.15,2.26-4.17.9-4.6,1.24-1.1.9,2.58,3.65,2.75,5.49.5,7.11-6.49-.25-6.81.21-.56.75.13,12.01-1.42,13.9-1.42,1.72-3.56.22-3.88-1.98-.28-2.02.84-9.61.39-10.16-.28-.31-7.38,2.79-6.44-1.72.22-1.17,5.06-3.95,3.81-5.18-.63-.56-7.54,2.37-5.72-3.47.4-1.29,3.77-1.22,3.96-1.44.43-.52-1.93-2.14-2.31-2.99-3.36-7.99,6.48-.82,7.34-1.67.86-.85-2.47-11.21,2.9-12.48,1.85-.46.64,12.62,1.9,13.67v-.06ZM562.64,496.04c.63.62.66,11.97.48,13.62,5.08-4.54,11.33-4,5.68,3.12,2.09-.57,7.35,1.05,6.66,3.63-.55,1.93-6.52,1.88-6.88,2.16-.37.28,5.95,6.61,1.12,7.79-2.74.66-5.55-4.83-6.11-4.14-.93,1.15,1.65,12.48-3.77,10.5-2.39-.86-.89-7.54-1.1-9.74-5.4,5.23-10.32,2.38-4.73-3.08-1.88-.31-5.34.39-6.83-.68-1.04-.75-1.09-4.06-.72-4.46.31-.28,7.35-.37,7.77-.71.37-.28-1.74-2.37-2.06-3.21-2.95-7.8,5.77-1.02,6.09-1.42.69-.92-.22-9.71.46-11.93.27-.94,3.62-1.81,3.96-1.5v.06Z" fill="#fff"/>
  <path d="M497.67,312.45l49.73-7.91c3.89.27,2.16,5.35-1.85,5.13-15.82.87-32.41,6.33-47.84,7.8-8.55.8-8.36-3.93-.04-5.03ZM504.84,884.07c-1.38,3.49-9.92,27.35-9.62,28.84.1.48,2.24,1.74,2.42,1.75,2.07.08,13.69-34.72,14.57-39.23h.06c-4.03-2.75-6.05,5.15-7.43,8.65ZM498.53,245.13l59.35,46.5c6.46-.46,3.45-3.71.14-6.74-12.97-11.91-28.32-23.14-42.77-33.27-2.25-1.56-14.09-10.35-15.67-9.29-.12.11.94,1.69.76,1.86-.13.17-2.78.01-1.81.99v-.06ZM548.08,311.37l-31.59,14.34c-2.88,2.73-22.16,10.39-21.59,14.01.29,1.78,2.48,1.51,3.85,1.21,5.96-1.31,18.66-10.16,25.05-13.35,6.75-3.41,18.06-6.94,23.71-10.74,2.85-1.9,5.61-6.05.56-5.48ZM561.86,286.77c.49,1.08,3.93.8,3.93.8.55-.45-.22-3.56-.59-4.58-1.5-4.02-14.97-29.13-17.42-31.53-6.27-6.21-2.19,3.17-.77,6.3,4.47,9.87,10.14,19.25,14.85,29.01ZM498.09,293.66c6.56,1.55,15.13,1.7,22.06,2.97,5.34.97,29.59,6.99,32.55,5.51.18-.11,1.02-3.39,1.02-3.39v-.06s-32.25-7.03-32.25-7.03c-6.88.5-16.78-3.3-23.19-2.9-5.22.33-3.88,4.05-.19,4.9ZM625.6,329.89c-4.55-3.13-20.75-14.04-24.9-15.26-5.85-1.76-4,2.45-.55,5.18,2.98,2.36,34.65,23.21,36.35,21.91v.06c3.72-2.93-8.65-10.32-10.9-11.89ZM573.56,286.92v-.06c1.72-1.53-6.47-22.48-7.88-25.84-2.27-5.65-6.87-16.76-10.24-21.32-.56-.79-2.31-3.04-3.23-2.13-1.84,1.82,17.12,42.22,17.41,48.62.43,1.02,3.93.74,3.93.74ZM632.28,359.18c3.6,1.62,2.68-2.09,1.34-4.03-2.8-4.07-15.3-14.36-19.76-18.14-4.18-3.53-13.66-12.23-17.78-14.4-1.04-.51-3.72-1.68-4.4-1.05-.37.34-.06,3.01.32,3.91.98,2.11,15.66,12.6,18.81,15.27,5.21,4.52,15.95,15.93,21.47,18.44ZM607.36,367.74h.06c.55-.57-.28-3.5-.59-4.57-1.78-5.92-12.97-28.88-16.54-34.22-3.58-5.34-5.85-3.24-4.07,2.8,1.57,5.32,12.37,27.38,15.62,32.23.78,1.15,3.94,5.29,5.53,3.76ZM436.75,243.54c.28.37,2.55,1.34,2.55,1.34v-.06c1.64-1,3.88-8.72,3.97-10.96.09-2.24-.87-11.15-3.53-11.25-3.96-.09-.62,8.37-.9,11.08-.31,3.48-4.07,7.41-2.09,9.85ZM611.41,301.97c11.76.1,28.84-1.14,40.66-2.46,1.84-.23,10.2-.91,10.34-2.86,0-.18-.91-2.4-.91-2.4l-62.06,2.35c-2.02,6.37,7.48,5.31,11.97,5.37ZM614.66,308.18c-3.34-.72-10.48-2.59-13.32-2.7-4.01-.15-4.92,3.54-1.01,4.75,21.64,4.61,43.11,10.7,64.91,14.14-.22-1.96-3.01-.12-.83-2.93-16.57-4.3-32.91-9.84-49.75-13.26ZM578.83,326.91l8.09,68.19c.95-.08,3.84.15,3.84.15.49-.4-.46-11.13-.63-12.97-1.33-14.6-2.91-32.16-5.31-46.44-.67-4.16-.56-10.01-5.99-8.92ZM572.17,333.99c.97,3.88-1.6,29.38-.58,30.49.23.25,2.24.2,2.97-.3.73-.5,2.11-8.79,2.3-10.67.29-2.95,1.06-21.54-1.55-22.82-2.61-1.28-2.89,1.43-3.14,3.31ZM582.26,288.2c.19-.23.95-4.75,1.23-5.75,1.72-.23.68,3.87,2.27,3.93,3.25.13,32.13-48.38,37.78-53.84.19-.6.71-3.36.79-3.76-2.06-2.06-9.59,8.21-10.46,9.36-10.34,13.56-18.76,29.61-28.92,43.41.48-9.56,5.4-19.07,8.3-28.3-3.86-4.23-2.57.85-3.15,1.83-4.68,8.04-5.69,12.73-9.09,21.29-.59,1.57.37,2.62-2.27,2.04.45-10.27,2.35-21.14,2.15-31.43-.02-2.42-.27-9.77-.62-11.55-.75-3.64-3.1.53-3.44,1.82-1.65,6.09-2.81,39.27-2.19,46.39.33,3.8,6.35,5.62,7.63,4.55ZM597.06,281.55c-1.17,1.31-6.21,6.32-1.69,6.97,2.77.34,36.45-33.13,42.19-36.4v.06c6.49-10.57-5.5-1.51-9.34,1.47-8.83,6.76-23.82,19.84-31.17,27.9ZM597.75,291.33c-.07.29.65,3.22.76,3.34.4.37,9.32-2.54,10.76-3.02,4.43-1.49,35.34-13.49,36.58-15.03.68-.8,1.53-2.84,1.02-3.39-.85-.92-8.16,1.52-9.78,2.05-4.67,1.54-38.85,14-39.34,16.05ZM624.33,228.73s0,.02-.01.05c0,0,0,0,0,0v-.06ZM520.51,284.23c10.55,3.84,21.57,6.44,32.06,10.51,6.59-2.17.48-4.77-3.37-6.28-12.41-4.79-37.18-14.02-49.5-16.74-2.81-.64-2.65,1.2-1.07,3.33.89,1.34,18.79,8.05,21.88,9.18ZM375.35,699.18c-.96,3.33,1.31,16.78,1.1,22.21-.43,9.8-4.73,26.31-7.65,36.01-.34,1.05-.06,3.13-1.53,2.84,6.26-42.86,7.68-86.21,2.83-129.26-.5-4.04-3.36-29.63-4.61-30.8-.46-.37-4.63-.95-3.83,1.21,2,14.27,3.99,28.65,5.15,43.01,2.57,31.67,2,68.13-1.87,99.73-.69,5.71-6.06,22.24-2.06,26,4.68,4.38,8.66-5.23,9.84-8.49,3.78-10.73,8.2-31.79,8.75-43.06.09-2.3-1.42-20.16-2.15-20.9-.34-.31-3.69.57-3.96,1.5ZM418.1,225.5c1.22-3.97.96-14.21-2.65-9.44l-.06.06c-.69.92-.64,6.01-2.04,8.38-1.08,1.91-4.75,3.6-5.29,5.36-1.82,5.78,7.81,2.9,10.04-4.35ZM383.04,543.21c-6.31-6.63-3.08,7.92-2.46,11.67,3.73,22.94,11.62,46.64,16.06,69.61,1.55-.19,1.43-1.25,1.64-2.35.83-4.76-1.21-13.11-2.14-18.24-3.59-20.36-9.87-40.23-13.11-60.69ZM282.51,363.03c1.21.93,4.09-.37,3.99-2.27-1.43-2.95.59-15.47-1.87-16.04-5.39-1.27-3.56,17.31-2.12,18.37v-.06ZM255.26,452.28c1.37-.3,1.42-1.6,1.18-2.91-.1-.54-2.84-7.56-3.19-7.81h-.06c-5.81-4.13-3.77,11.97,2.07,10.72ZM265.3,423.45c.29.07,3.28-.76,3.28-.76h.06c.5-.63-3.59-12.73-3.83-15.64-.18-1.6,2-7.43-1.63-6.86-6.25,1-1.16,22.42,2.12,23.26ZM296.11,549.86c-2.8-1.11-2.97,1.84-3.93,3.75-16.39,32.72-33.52,72.27-47.3,106.33-2.49,6.23-8.11,18.85-8.7,24.91-.09.88,1.16.52,1.93.55h-.06c17.3-37.95,35.54-75.74,51.68-114.21,2.02-4.83,6.39-14,7.1-18.65.16-1,1.02-2.03-.72-2.69ZM640.43,825.29c-3.99-.86-30.83-5.5-32.05-4.42-1.41,1.25,1.07,4.42,3.24,4.91,8.26,1.97,22.14,3.86,30.74,4.79,2.24.2,10.43.87,11.3-.22h-.06c1.68-2.13-12.05-4.84-13.17-5.06ZM621.15,862.33h.06s-36.94-11.11-36.94-11.11c-8.05-1.31-4.67,3.07.51,5.1,7.4,2.94,25.64,8.31,33.5,9.92,4.05.81,5.45-1.68,2.87-3.91ZM554.81,910.23c-1.29-6.38-6.04-18.21-8.57-24.75-.53-1.5-2.13-6.23-2.63-6.9-2.14-2.86-4.34-.82-3.76,2.52.83,4.7,8.91,28.31,11.1,32.77.59,1.25,3.14,4,4.27,2.98.59-.68-.11-5.26-.41-6.62ZM586.19,819.55c-13.72,10.83-38.67,36.95-55.06,40.4-13.23,2.8-24.64-14.42-32.92-23.38-10.39-11.22-19.92-23.29-30.19-34.68-8.39-9.37-17.39-18.23-25.3-28.05-5.96,1.25-11.1-.43-16.92,1.66-7.37,2.61-12.54,12.53-19.45,13.8-4.65.89-9.03-3.42-12.69-3.68-2.42-.15-5.78,2.68-9.61,2.35-3.24-.3-6.07-3.48-9.4-3.14-6.7.63-8.96,11.6-18.78,8.56-2.04-.67-4.29-3.83-6.33-4.44-3.74-1.21-13.45,3.92-17.87,4.99-16.18,4.11-25.4,5.41-41.65,11.47-1.26.48-4.88.88-5.07,1.11-.37.4-.47,9.15-1.54,11,2.11,15.93-9.13,53.1,3.85,64.71,8.35,7.41,30.99,7.63,41.78,11.3.73-.68-4-12.81,3.81-11.56,5.88.94,4.37,6.32,5.11,7,.69.62,5.44-1.45,8.23,1.26,3.19,3.14-.11,7.51.12,7.81,1.01,1.46,8.99-.07,11.41,7.71,2,6.46-2.24,13.81-8.08,16.54-8.73,4.1-22.37,3.7-32.07,3.74-18.92.04-46.26-1.06-64.91-3.43-13-1.62-15.93-6.94-14.27-19.47,1.24-9.29,4.16-19.06,4.95-28.96,2.04-25.35-4.85-47.67-6.92-72.52-7.6,2.49-11.09-6.87-15.89-8.18-7.96-2.14-22.92,2.61-27.43-6.37-2.14-4.34-1.09-13.11-4.49-15.49-2.71-1.88-4.98.4-8.46-1.45-3.25-1.72-4.28-5.6-6.52-7.17-10.66-7.21-18.36,2.31-11.89-18.37,10.38-33.13,27.58-67.12,40.76-99.31-.16-8.17-3.48-17.16.13-25.07,1.04-2.33,4.19-4.51,4.7-6.91.07-.41-.06-7.75-.1-8.28-.91-8.79-8.72-14.58-6.81-24.5,2.51-13.09,18.97-32.15,20.76-46.33.33-2.41-2.73-5.84-3.07-9.4-.64-6.47.61-15.88,2.74-22.07,1-2.86,2.94-8.93,6.05-6.63,2.47,1.87-3.38,11.16-3.47,13.47-.18,4.61-1.08,11.25-.6,15.53l.05.12s1.08,2.58,1.38,2.48c5.24-2.52,3.55-15.36,6.55-18.2,3.5-3.3,3.93.74,3.27,4.03,4.7-5.38,10.69-12.01,14.42-18.19,1.45-2.37,4.56-6.51,3.18-8.81-4.67-7.75-8.78-2.46-12.49-4.32-2.44-1.22-2.66-4.54-3.62-5.87-1.96-2.74-1.96,1.7-3.49,3.18-1.78,1.71-6.18,2.42-8.6,3.87-10.89,6.44-14.56,15.82-15.51,28.14l3.57-6.72c9.16-6.15.94,6.42,1.11,11.16.15,3.85,6.85,15.69,5.13,17.28-.31.28-3.01-.12-3.82-.62-2.6-1.64-3.5-8.94-4.92-10.36-3.36-3.44-6.49,1.11-6.38-9.47.09-11.59,5.42-25.69,15.31-32.35,1.7-1.18,10.58-4.62,10.85-5.5.34-1.23-2.59-3.47-2.67-5.96-.06-1.6,1.7-8.86,2.52-10.31,2.92-5.21,8.26-.99,8.57-1.33.62-.75-1.6-13.9,1.21-19.35,1.85-3.54,5.47-5.53,8.01-8.5,1.86-2.23,2.97-5.03,4.71-7.09.81-.98,2.77-1.2,2.89-1.37.81-.97-6.97-18.6-5.56-24.63,1.2-5.1,10.06-10.91,13.61-15.62,11.4-15.05,5.94-22.36,8.62-38.1,1.91-11.4,17.22-15.84,18.04-18.76,1.03-3.63-3.85-16.76-2.68-24.17,1.96-12.46,17.02-18.21,19.14-25.81.48-1.7-4.45-14.95-4.81-19.46-1.19-16.66,7.83-46.82,23.46-55.15,12.98-6.95,25.79-3.39,39.35-3.87,12.2-.42,23.52-2.88,35.89-1.58,14.01,1.54,45.87,10.98,54.36,22.54,10.06,13.63,2.68,31.79-11.09,39.31-1.75,1-3.93.68-5.52,2.09-2.88,2.55-6.91,16.82-6.48,21.04.59,6.23,8.57,17.06,5.38,23.09-2.29,4.35-14.64,2.45-16.7,5.21-3.18,4.19-2.92,16.09-7.7,21.94-8.13,9.98-30.63,4.62-33.78,8.17-4.63,5.2-.64,24.28,2.57,30.19,3.53,6.52,15.27,13.36,21.34,18.56,1.37,1.18,2,3.33,2.52,3.7,2.25,1.57,6.79,1.68,11.1,5.16,2.29,1.86,8.24,10.25,8.89,10.27.35.01,1.88-1.35,3.02-1.6,11.56-2.28,21.37.94,32.45,1.84,5.89.46,13.21-.73,19.27,1.57,6.56-4.48,7.73-13.36,14.34-17.84,7.35-4.98,18.03-3.03,25.88-7.34l30.73-55.05-31.25,16.19c-.48.1-1.49-2.78-1.1-3.65.58-1.34,11.8-7.17,13.98-8.45.72-.39.88-1.44,2.03-2.11,2.84-1.55,20.19-9.99,21.89-9.51,2.4.68,1.33,5.49.31,7.28l-29.16,51.27c-.74,2.4,2.63.81,4.28,2.53,4.61,4.79-3.57,13.05-6.95,16.23,1.66-.05,3.65.49,5.2.08,3.35-.94,13.81-27.14,16.24-31.9,5.95-11.66,13.17-22.73,18.13-34.9,6.09-6.09,4.84,3.38,4.49,7.86-.34,4.13-6.82,37.64-8.41,38.82-.37.28-3.61.1-3.78-.03-1.36-1.41,4.01-21.19,4.56-24.84.16-1.06,1.25-3.26-.59-3.16l-24.74,48.54c1.21,5.43-.96,6.64-2.24,10.56-3.07,9.05-7.84,22.58-18.05,25.15-3.13,4.49-6.85,16.88-9.94,20.31-2.47,2.74-9.85-.67-12.93-1.97-16.17-6.89-5.61-9.44-2.21-19.48.86-2.45-2.49-1.28-3.23-.66-1.1.96-1.19,4.86-2.82,7.22-3.44,4.95-32.96,32.97-37.82,34.85-6.84,2.69-10.88,1.59-18.39,6.33-2.48,1.56-18.18,14.62-18.41,16.09-.15.94,1.83,6.4,2.42,7.78,8.38,20.37,47.37,53.85,64.1,72.4,16.73,18.56,33.03,42.18,51.65,57.8,7.62,6.38,18.28,10.52,21.51,20.28,1.06,3.29,6.06,24-2.52,16.34-.57-.5.09-2.24-1.4-1.95l-.57,15c-.07,1.89-4.2,9.42-5.85,10.83-3.68,3.35-8.17,1.87-11.21,4.06-3.22,2.3-4.56,9.52-8.02,11.81-7.34,4.8-18.23-1.11-24.14,1.91-7,3.57-2.87,19.34-10.59,24.9-2.07,1.46-6.39,1.53-6.36,3.95,12.94,17.17,22.91,37.95,35.19,55.27,4.21,5.9,12.05,15.72,19.71,16.42,9.19.88,29.26-12,37.66-16.89,1.09-.61,3.17-.88,3.23-1,1.18-1.49-7.11-7.19-1.9-10.66,3.7-2.46,5.34,1.09,7.58,1.24.59.02,1.69-5.49,6.82-3.52,4.08,1.52,1.05,6.43,1.34,6.67,1.15.99,9.88-1.69,14.39,3.92,1.92,2.38,5.83,11.34,4.07,14.05-6.61,4.42-13.51,8.59-19.73,13.49ZM509.78,431.46c-.24-1.43-9.02-3.77-9.91-6.71-1.51,2.42-11.9,17.34-11.82,18.47-.03.77,11.14,7.11,14.3,3.33.62-.74,7.58-14.25,7.44-15.09ZM484.85,426.13c.86.68,8.26-4.24,10.55-3.73.3-.37.6-.83.92-1.35.67.47,1.72.54,2.37.01.1.06.23.13.23.12.51.3.93.71,1.46.99.87.45,1.76.64,2.65.47.45.18.92.29,1.42.38,3.28,1.03,6.19,2.93,9.61,3.58.88.15,3.68,1.21,3.69-.69.04-.95-9.26-3.73-10.78-4.08-.04,0-.07-.02-.11-.03.07-.23.12-.48.12-.73.2-.38.26-.83.2-1.3.59-.08,1.1-.46,1.4-.96.61.32,1.39.34,1.96-.03.36-.23.62-.54.78-.88.06-.05.1-.11.15-.17,2.06.95,4.61,1.5,6.22,1.78,1.88.31,6.04,1.41,5.27-1.63l-10.98-1.9c-.14-.66-.58-1.21-1.25-1.47-.1-.05-.19-.1-.28-.16-.04-.04-.09-.09-.13-.13-.05-.08-.1-.16-.14-.24-.03-.08-.05-.16-.07-.24,0-.07,0-.14,0-.22.01-.04.02-.08.03-.12,0,0,0,0,0,0,.01-.01.02-.02.04-.04.31-.2.63-.38.95-.56.45-.26.91-.51,1.36-.77.34-.19.61-.5.78-.86,3.04.86,11.06,2.61,12.33,1.02.56-.69.75-2.69.53-2.94h.06c-.42-.45-8.99-.22-13.36-.4-.28-.25-.61-.42-.96-.49-.09-.3-.27-.6-.56-.87-.64-.59-.8-1.55.09-2.02.41-.22.95-.2,1.39-.31.76-.2,1.36-.54,1.94-1.05.04-.04.07-.09.1-.13l13.01.5s2.5-2.09,2.53-2.8c-4.79,0-9.66-.96-14.37.16-.32.08-.61.11-.86.13-.23-.57-.68-1.05-1.3-1.2-.66-.17-1.27-.41-1.83-.75.14-.65.34-1.29.6-1.89.14-.32.19-.67.17-1.01,1.4-1.33,15.29-10.27,13.43-12.1h-.06c-.46-.43-9.84,3.7-11.57,4.11-4.95,1.23-11.09.99-15.84,3.06-6.13,2.6-8.02,8.62-11.75,13.56-1.31,1.72-4.82,3.9-5.29,5.41-.27.88,2.58,14.47,3.15,14.96ZM478.17,435.57c.35.01,2.08-1.81,2.34-2.51,1.2-3.44-4.29-25.41-7.68-21.88l-.06-.06c-.86.91,4.09,24.4,5.39,24.45ZM375.66,399.48c-1.6.17-6.9-.38-7.15-.16-1.16,1.02,8.14,20.42,5.94,22.52l-.12.05c-.61.57-2.42-.21-3.33-1.13-1.99-1.97-6.83-17.82-9.2-22.35-6.82-13.27-22.06-29.29-36.68-33.28-8.72-2.4-20.13-3.96-28.18.93-6.96,4.23-18.35,28.21-16.99,36.13,1.06,6.31,7.76,25.9,10.28,32.62,5.95,15.9,27.68,46.12,38.05,61,6.33,9.17,13.47,23.4,26.45,24.13,24.61,1.3,51.09-33.99,71.12-46.05,7.99-4.84,15.22-3.67,22.03-8.5,2.92-2.08,25.76-24.26,26.3-26.01.2-.58-.29-3.2-.89-3.05-5.2,1.4-21.45,16.56-26.22,13.07-2.01-1.44-.5-2.33.66-3.4,3.62-3.41,21.06-11.08,22.81-13.67.94-1.5.68-6.95-.3-7.7-4.6-3.43-25.12,10.51-30.17,11.2-2.8.43-5.46-1.04-3.52-3.86.63-.92,17.95-8.59,20.28-9.33l12.73-3.41c-6.76-4.1-16.67,1.55-24.09,2.21-3.97.32-9.93,1.33-8.36-3.99l30.8-4.61c1.39-5.39-4.76-2.31-8.18-2.44-8.21-.31-22.43-4.17-30.31-2.23-4.9,1.23-21.97,14.65-27.9,18.27-14.17,8.68-30.95,13.12-35.98,31.73-1.24,4.51-1.35,13.55-3.07,16.85-1.72,3.3-4.8,1.71-4.6-1.83,1.54-34,19.67-38.09,43.71-52.78,2.18-1.33,16.68-11.01,16.9-12,.63-2.58-7.11-10.44-9.37-11.59-6.49-3.32-25.26,1.93-33.45,2.68ZM412.45,312.79h.06c-.57-.55-12.26-.94-15.66-1.84-3.75-.97-11.13-5.69-12.84-5.87-4.12-.51-3.07,4.61-1.57,7.09,3.18,5.09,9.82,9.07,15.77,9.71,1.47.17,11.48-.15,11.91-.55.37-.28,2.68-8.23,2.34-8.54ZM241.94,457.5c.68.85,3.14-1.65,4.5-1.78,6.95-.8,4.49,7.8,6.05,8.86l8.05,1.43c2.19-6.12,3.73-12.45,6.27-18.44,2.15-5.12,8.21-13.7,9.16-18.39,1.91-9.62-2.97-24.3-.4-35.79,1.21-5.45,11.08-25.35,15.07-29.16,7.3-6.82,23.58-5.95,27.58-11.6,2-2.76,2.96-18.51,1.31-20.29-.68-.74-18.71,11.52-14.45,2.05.97-2.15,14.01-7.68,17.02-8.93,5.88-2.38,13.82-1.13,14.67-9.43.2-2.06-2.41-18.9,2.77-12.02,1.8,2.38,2.29,12.8,1.64,15.79-2.15,9.85-15.37,7.75-17.2,10.69-.44.75,1.2,13.47.82,17.06-.19,1.94-.98,5.46-1.7,7.27-.46,1.16-2.79,3.44-2.57,3.74.45.61,11.3,2.92,14.09,4.27,12.83,6.17,24.64,20.46,31.75,32.49,4.05-.67,30.28-3.16,31.52-4.7.93-1.15-19.02-15.81-21.41-19.86-3.27-5.56-6.69-22.78-5.86-29.2,2.18-16.83,21.29-7.7,33.56-13.26,6.26-2.84-.59-1.44-2.37-1.51-11.81-.28-27.07-8.01-24.82-21.82,1.7-10.46,15.98-.33,21.83,1.19,3.04.83,12.85,2.44,14.91,1.16,1.15-.72,1.16-4.15,4.12-5.64,2.95-1.48,12.76-1.28,13.5-2.08,1.73-1.94-3.86-13.51-4.38-16.78-1.16-6.73-.44-13.26,2-19.67.73-1.98,4.6-5.8,3.14-7.98-.34-.49-10.64-4.72-11.23-4.86-4.28-.99-11,3.07-17.2-.13-1.97-1.02-3.58-3.86-1.68-4.03,5.52-.5,12.66,1.43,17.98-1.73,4.78-2.89,5.72-13.38,6.38-13.77v.18c.42-.28,2.3.03,2.93.53,3.67,2.92-3.66,15.23-3.15,15.96.34.43,8.65,4.06,9.65,4.21,5.99.94,10.22-4.34,13.17-8.9,13.51-20.89-7.91-31.29-24.76-37.43-22.86-8.27-33.73-5.49-56.4-4.82-14.68.44-33.96-4.02-45.91,6.93-11.95,10.95-19.13,36.22-15.77,52.02.2,1.01,2.15,7.29,2.49,7.55,1.9,1.31,4.99-2.17,3.32,4.38-2.65,10.6-16.81,17.51-19.88,24.96-3.78,9.26.97,17.83,1.5,27.08.66,12.03-1.9,4.89-5.92,6.4-.48.16-7.19,5.64-8.05,6.49-9.15,8.81-3.68,26.47-3.4,37.77.04,1.95.54,12.14-3.26,9.57-2.48-1.69-.59-6.23-2.61-7.37-.95,7.71-15.09,15.68-16.87,20.64-1.86,5.25,4.67,18.51,5.92,24.53.55,2.68,2.61,13.64-.56,14.52-4.66,1.3-2.9-6.14-3.05-8.39-.35-4.86-2.77,1.31-3.57,2.23-2.73,3.38-10.09,10.14-10.69,13.66-.23,1.29.01,13.6.46,14.15ZM255.59,482.38v-.06c.37-.28,2.17-7.25,1.81-8.56-1.56-5.68-6.32-3.14-8.61-5.18-1.77-1.55-.74-6.83-2.51-6.96-.41-.01-3.52,2.35-5.12,2.46-2.31.09-7.42-3.83-8.55-2.04-.44.69-2,7.43-1.72,7.74.34.31,4.8-.29,6.77.73,1.97,1.02,2.29,5.11,3.61,6.05,1.32.94,4.82-.82,7.86.12,2.1.67,4.63,7.21,6.46,5.69ZM210.3,599.49c.33.66.4,3.39,1.96,1.43.49-.57-.48-4.34-.31-5.81.71-6.24,4.71-22.52,8.49-27.23,3.04-3.73,4.01.15,3.18,3.43-1.68,6.79-5.94,13.13-7.06,20.66-.16,1.12-1.2,5.16.63,5.23,1.87-7.08,4.39-14.2,7.19-21.01,1.76-4.31,6.76-17.42,8.94-20.35,3.05-4.08,4.71-1.12,3.59,3.63-2.46,10.25-11.22,24.4-14.67,35.62-.4,1.23-3.83,12.03-.41,9.15,18.07-37.98,38.31-75.34,62.28-109.9-.48-18.47-6.24-36.25-6.47-54.82-1.51.71-3.16,3.78-3.93,5.29-7.92,15.42-10.16,33.78-18.63,49.48-7.13,13.27-19.75,24.61-27.04,37.4-3.36,5.9-4.63,12.89-7.53,19.1-3.67,7.9-13.18,22.97-14.99,30.23-1.46,5.8,2.34,13.1,4.79,18.45ZM216.24,612.67c1.8.78,2.61-3.33,2.45-3.63-.28-.42-6.98-2.93-7.66-2.3-1.9,1.82,3.82,5.29,5.21,5.93ZM206.02,635.63l7.36-14.74c.39-1.03,1.51-3.41,1.06-4.23-.38-.16-3.24-1.33-3.64-1.13-.42.22-4.91,7.73-5.04,8.2-1.22,4.15.65,7.83.25,11.89ZM338.72,895.85c1.22.64,3.67-.15,3.97-1.74-1.22-.46-4.96,1.29-3.97,1.74ZM328.59,908.65c-9.73,8.5-45.2,3.77-57.28-.3-4.26-1.46-23.83-12.32-25.26-12.08-1.9.34-3.63,11.39-3.53,13.46.42,6.11,5.16,7.35,10.45,8.09,15.53,2.13,40.1,2.84,56.23,3.16,9.16.17,25.93.7,34-1.59,1.67-.47,6.18-2.25,7.34-3.21,2.26-1.98,4.44-9.29,1.73-11.11-1.85-1.19-17.8-4.41-19.44-3.46v.06c-.37.22-2.21,5.18-4.23,6.99ZM280.97,807.37c-.63-.5-7.16-1.46-9.19-2.3-8.62-3.52-12.88-12.5-24.65-9.52-.42.1-6.62,4.65-6.76,5.06-.61,2.11,1.22,13,1.63,16.09,2.53,17.3,7.32,34.34,6.52,51.99-.16,4.19-3.31,18.62-2.64,21.01.52,1.79,16.91,9.4,19.87,10.64,13.45,5.48,29.24,8.51,43.86,8.07,5.27-.15,13.99-.94,17.02-5.85,3.78-6.12-.93-3.58-4.97-4.51-9.26-2.13-23.02-4.19-31.29-7.41-5.18-2.03-9.18-5.85-11.41-10.9-5.39-12.15-1.65-45-.44-59.44.21-2.48,2.96-12.48,2.45-12.91ZM450.82,760.2c4.08-2.98,10.16-2.92,13.52-5.57,3.35-2.65,5.8-13.91,9.55-17.9,4.31-4.56,10.87-2.78,11.09-13.23.54-27.89-19.08-76.18-32.25-101.04-2.76-5.19-17.8-29.12-17.99-32.03-.62-9.96,9.29-.29,12.01,2.94,12.32,14.72,19.86,32.63,28.13,49.62,1.81,3.73,13.15,20.84,10.27,23.63-.8.8-2.99-.65-3.84-1.57-1.71-1.78-7.58-13.53-9.17-16.73-4.12-8.08-7.23-16.6-11.71-24.69-.11-.18-3.34-6.87-3.54-3.27,13.85,24.3,22.87,51.19,29.52,78.29.62,2.45.75,9.84,2.49,10.74,1.62.89,1.67-1.89,3.06-2.72,5.21-3.17,18.2,1.88,23.01-.36,3.61-1.7,5.39-9.43,8.45-12.09,4.77-4.19,9.76-.22,13.55-6.52,5.24-8.73.24-18.73,4.62-25.01,1-1.44,3.1-.53,3.1-3.84,0-9.11-13.83-15.49-20.02-20.81-14.2-12.13-20.88-22.8-32.61-36.14s-23.6-25.97-35.47-38.61l.06.06c-12.55-13.37-35.01-32.26-44.04-46.57-1.84-2.91-7.71-17.97-8.71-18.07-1.41-.17-18.45,15.43-22.62,17.94-38.86,23.4-50.16-7.13-68.2-34.78-14.01-21.53-23.17-34.06-31.21-58.96-.43-1.26-1.07-4.42-2.48-4.71,1.04,6.84.59,13.98,1.27,20.8,1.15,11.63,9.24,49.02,7.14,57.39-1.05,4.28-9.13,13.01-11.9,17.4-42.88,68.07-81.86,153.55-108.96,229.43-.66,1.75-4.03,11.14-3.3,11.99.4.49,9.16,1.65,10.72,2.66l6.44,4.8c3.42-18.26,8.43-39.35,16.87-55.94,1.79-3.54,8.14-16.42,8.62-5.88-5.86,6.4-24.26,62.22-21.7,64.86.17.18,3.79-.03,5.13.37,8.3,2.51,3.89,18.71,10.61,20.98,2.22.74,22.27,2.15,23.18,1.42.24-.17-.92-3.82-.8-5.29.6-7.9,11.37-34.51,14.86-43.6,1.78-4.72,7.43-21,9.67-23.87,1.12-1.44,4.37-2.91,5.33-1.81.68.74-.39,10.27-.58,11.98-1.42,9.35-4.78,27.61-7.54,36.25-.27.82-1.59,4.49-1.83,4.6-.54.33-3.61.16-3.72-.02-.91-.92,4.43-21.59,4.71-25.6.04-1.12,1.08-3.51-.7-3.34-1.29,5.8-3.28,11.46-5.26,17-3.05,8.52-16.33,34.2-7.05,40.59,7.43,5.19,10.15-3.99,15.86-4.89,2.68-.43,9.65-.28,12.35.29,5.05,1.02,15.98,13.44,21.48,10.46.06,0-.72-1.21-.28-1.9,19.78-31.76,24.25-78.77,30.87-115.89.98-5.46,3.59-33.45,6.84-34.98,2.53-1.2,2.5,7.31,2.04,8.36-9.91,42.49-10.13,94.57-29.2,133.87-.9,1.86-6.9,10.32-6.38,10.75,1.32,1.12,15.42-5.79,18.47-6.74,8.98-2.85,18.51-3.25,27.59-5.51,6.03-1.54,16-7.13,21.6-5.03,2.68.99,4.36,5.02,7.98,4.74,5.28-.39,8.07-11.46,18.36-8.64,2.16.61,3.68,2.68,6.1,2.84,3.07.18,6.66-2.46,9.67-2.29,6.9.38,10.53,7.68,17.15-.11,5.94-6.93,4.46-28.51,5.29-37.7,1.66-18.68,3.87-36.1,4.12-55.13.15-10.16-2.57-20.97.24-30.91.75-2.57,2.61-3.33,4.92-1.82,1.84,1.25,6.84,22.2,7.41,25.83,2.71,17.31,1.17,37.41,1.02,55.09-.03,2.25,2.19,9.25-.86,10.08-3.94,1.09-3.93-7.07-4.02-9.32-.78-19.66,3.65-45.74-3.09-64.45-.27-.72-.09-3.73-2.1-2.21-.73.56,1.28,15.95,1.23,18.91-.05,9.1-.5,19.14-1.08,28.16-.52,7.49-6.85,53.84-5.12,56.51.28.42,6.42-3.83,9.62-4.24,5.7-.73,11.28,1.79,16.36-2.51,2.26-1.86,2.9-4.68,5.82-6.81ZM544.84,826.42c5.07-2.64,27.72-16.67,29.47-20.63.84-1.8,1.54-4.67.49-6.55-14.16,6.97-34.57,24.16-50.84,15.32-11.47-6.18-33.47-44.62-41.78-57.6-1.17-1.82-5.27-10.61-5.78-11.04v.06c-2.82-2.18-6.31,10.22-8.69,12.32-3.73,3.23-10.77,3.37-14.29,5.78-1.15.78-6.2,7.45-6.06,8.34.13,1.13,13.77,14.01,15.82,16.22,6.98,7.72,13.39,16.36,20.36,24.14,7.32,8.14,15.06,16.01,22.43,24.1,7.66,3.84,31.23-6.43,38.89-10.45ZM581.4,816.47c5.86-4.68,12.11-9.06,18.75-12.53v-.06c1.13-10.96-9.65-13.44-17.71-8.48-4,2.45-1.89,6.14-2.64,10.25-1.04,5.46-6.97,9.08-11.17,12.17-16.73,12.37-36.44,21.96-57.13,25.07,6.43,6.45,9.97,14.51,20.85,11.44,12.85-3.7,37.4-28.6,49.05-37.85ZM555.27,916.81s-.03.02-.05.04c0,0,0,.01-.01.02l.06-.06ZM396.66,624.55s0-.05-.01-.07c-.02,0-.03,0-.04,0l.06.06ZM407.54,263.52c2.87-.78,9.65,1.26,6.83-3.88l.06-.06c-1.99-3.62-15.01,1.38-14.53,5.65.49,4.27,6.38-1.35,7.63-1.72ZM408.85,267.95c-3.66-1.68-5.71,8.59-4.66,10.4.11.12,2.48,1.52,3.3.25,1.13-1.79,4.03-9.42,1.35-10.65ZM384.16,230.17c5.84,1.94,7-17.65,5.05-19.2-4.07-3.23-3.39,8.09-3.53,8.79-.45,2.53-4.56,9.4-1.52,10.41ZM334.73,291.84c-4.4-5.49-6.88-16.46-.83-21.55,4.89-4.07,9.87,1.56,11.35.14,2.7-2.56-3.3-6.45-6.19-6.74-18.79-1.84-15.8,34.4-.25,37.48,1.76.3,5.77.63,7.28-.14,1.09-.55.16-4.07-.01-4.26-.8-.8-6.37,1.23-11.34-4.93ZM312.32,344.31c-.82-4.94-13.03,5.24-15.75,5.25-.31.28-1.07,3.27-1.07,3.27,3.1,2.48,17.49-4.41,16.82-8.52ZM341.59,277.97c-.67-1.09-3.79-1.51-4.33-1.05-1.83,1.41-1.03,11.55,1.39,13.12.81.5,3.57.91,3.88.62,1.41-1.31-1.4-6.68-1.63-8.4-.24-1.49,1.14-3.5.7-4.29ZM328.31,305.31c-.14-.89-1.97-2.62-3.1-2.54-1.54.12-12.62,6.73-12.57,8.62.04,5.2,16.03-3.29,15.67-6.08ZM304.5,321.78c1.7-1.12.83-15.46.71-18.48-.12-4.5-2.49-5.95-3.88-2.04-1.06,2.98-1.41,19.69.21,20.82.46.31,2.3.15,2.97-.3ZM337.98,256.54l-.06-.06c-.55.51.08,2.6.75,3.52,3.99,5.36,22.18,1.26,27.28-2.03,2.06-1.34,4.93-5.31,6.78-5.77,3.94-.97,8.22-.04,13.2-1.86,6.06-2.25,16.58-13.02,12.7-19.68-2.61-4.47-6.4,8.15-8.26,10.33-2.42,2.86-13.58,8.7-16.14,6.24-.63-.5,6.04-15.62-.96-13.58-1.67.47-2.83,9.12-3.62,11.21-3.48,9.09-10.87,12-20.11,12.65-2.43.2-11.12-1.37-11.55-.98ZM316.47,249.92c2.81.76,3.45-9.86,4.32-12.49,1.41-4.32,4.85-9.33,7.82-12.77,2.04-2.41,14.7-11.79,12.15-14.61v.06c-3.23-3.67-20.18,15.9-21.91,19.2-1.72,3.3-7.71,19.16-2.39,20.6ZM341.78,245.16c7.71,1,17.79-5.88,20.89-12.86.77-1.63,2.72-7.76,1.81-8.68-.17-.13-3.48-.25-3.78-.03-.3.23-1.32,5.15-2.45,6.94-.95,1.5-6.46,6.67-7.98,7.56-2.96,1.72-11.33,2.46-11.7,2.98-1.5,2.13.98,3.82,3.21,4.08Z"/>
</svg>