<?xml version="1.0" encoding="UTF-8"?>
<svg class="svg-include" id="Layer_1" xmlns="http://www.w3.org/2000/svg" version="1.1" viewBox="0 0 612 792">
  <!-- Generator: Adobe Illustrator 29.6.1, SVG Export Plug-In . SVG Version: 2.1.1 Build 9)  -->
    <g>
      <path d="M384.92,456.43c1.63,1.91,5.44,5.08,7.6,6.43,3.96,2.47,11.32,3.59,13.85,5.57,3.7,2.89-3.43,5.06-5.36,6.3-38.35,24.61-18.23,54.82-33.26,90.23-13.03,30.71-30.65,43.87-64.43,45.98-30.63,1.91-42.43-8.26-68.06-19.54-30.43-13.4-35.04-1.26-58.17,14.81-28.19,19.59-52.28,34.81-87.54,20.49-44.01-17.86-68.42-80.47-26.27-113.41,15.5-12.11,31.45-14.73,47.41-23.8,9.59-5.46,11.36-8.02,10.69-19.41-.85-14.54-4.29-25.77-2.63-41.13,3.25-30.11,17.35-43.86,44.43-54.88,10.88-4.43,23.07-5.94,33.2-12.2-1.27-11.91,4.49-21.43,8.12-32.06,4.49-13.14,9.76-27.82,5.67-41.65-6.67,1.05-19.83-.43-25.4-4.31-14.32-9.98,2.32-12.15,10.2-15.85,29.37-13.81,18.78-35.78,21.12-61.85,2.98-33.19,12.4-66.48,46.2-79.89,21.3-8.46,42.63-8.65,60.93,6.04,4.16,3.34,14.06,15.37,18,15.99,12.12,1.88,31.63-14.68,42.08-20.57,29.52-16.63,84.34-42.01,117.18-27.01,33.04,15.09,20.28,38.34,32.97,63.73,9.46,18.93,20.38,24.91,35.7,37.47,21.78,17.85,23.46,41.3,15.7,67.28-15.75,52.68-69.46,29.97-106.39,46.49-23.08,10.32-48.68,38.2-59.33,60.88-.92,1.97-4.77,10.02-5,11.39-.4,2.39,2.32,11.47,1.84,16.81-2.2,24.26-23.28,20.42-32.13,35.82-3.61,6.3-3.66,10.31,1.07,15.86ZM546.87,190.54c-7.59-7.36-16.01-19.55-19.95-29.38-9.36-23.39.76-42.78-28.18-56.1-30.1-13.86-79,8.5-106.51,23.07-13.98,7.41-33.01,24.07-48.45,24.73-9.15.4-12.27-6.87-17.94-12.09-16.88-15.56-29.24-18.75-51.9-13.34-38.81,9.26-50,42.84-53.28,78.69-2.58,28.18,8.34,51.07-23.73,65.78-3.99,1.83-8.53,3.95-12.85,4.47,3.18,5.52,13.3,7.4,19.28,7.82,6.77.48,11.11-3.1,12.56,7.04,1.77,12.34-2.38,26.78-6.35,38.39-3.09,9.04-8.56,17.88-8.5,27.76,7.55-5.26,14.47-14.48,18.87-22.61,19.25-35.62,37.16-64.48,76.06-82.05,40.23-18.16,89.45-28.4,122.29,8.6,23.17,26.11,14.66,51.77,1.74,80.16-6.24,13.71-16.68,23.67-9.32,39.81.27.58.24,1.96,1.36.91.61-.57,5.14-12.56,6.67-15.22,13.81-23.95,42.3-52.89,69.77-59.59,26.13-6.38,72.58.78,87.24-27.74,8.63-16.79,12.37-42.38,3.46-59.69-6.78-13.17-22.04-19.46-32.32-29.42ZM376.14,241.75c-1.5.08-3.09-1.35-4.23-.01-10.35,15.89-22.54,31.09-32.61,47.12-.51.81-1.26,1.44-1.04,2.55l37.88-49.65ZM333.67,245.01c-.47-.37-7.34,1.36-7.83,2.94-9.88,14.07-20,27.99-29.67,42.19-6.74,9.9-15.03,21.14-20.9,31.37-.47.83-1.27,1.45-1.04,2.55l59.44-79.05ZM312.77,251.55c-.68-.55-5,1.59-5.91,2.25-3.95,2.89-12.83,15.22-16.18,19.75-19.7,26.64-39.35,57.47-56.58,85.86-3.09,5.09-6.39,10.2-8.87,15.63l87.53-123.49ZM285.98,263.96c-.69-.61-7.44,4.78-8.11,5.93-7.44,12.3-17.05,24.19-24.16,36.6-.47.83-1.27,1.45-1.04,2.55l33.31-45.08ZM421.21,272.45c-1.26-.28-1.56.64-2.22,1.37-15.07,16.5-31.19,40.19-44.69,58.54-1.41,1.92-8.68,13.37-9.4,13.79-1.38.81-6.7-.83-8.36-1.5-2.58-1.05-10.5-8.82-11.5-3.63s11.15,9.35,14.93,10.53c.48.15.45,1.18.77,1.18,9.05.05,19.43-2.06,26.19-8.39,1.75-1.64,5.17-4.54,3.29-7.24-2.1-3-5.8,2.21-7.24,3.29-4.81,3.62-11.1,6.84-17.29,5.57l54.51-70.28,1.01-3.23ZM411.42,318.19c4.57-6.08,12.61-13.64,16.11-20.15.62-1.16,1.17-1.92.87-3.37l-15.26,20.33-1.71,3.19ZM412.73,326.68c5.27-6.15,13.1-12.23,15.01-20.25-4.07,4.5-7.84,9.5-11.36,14.45-1.25,1.76-2.96,3.8-3.66,5.81ZM243.51,334.52c-11.09,13.68-20.41,28.68-30.4,43.16-.74,1.4,1.18,2.24,1.99,3.22l27.37-43.83,1.04-2.55ZM268.16,341.25c-3.01-2.44-6.55-.34-4.7,3.71.55,1.19,5.28,4.93,6.63,5.77,8.45,5.24,19.16,6.16,28.09,1.53,2.21-1.15,9.2-6.01,5.83-8.66-2.76-2.17-7.56,3.41-11.14,4.65-11.68,4.07-16.64-.48-24.71-7.01ZM411.41,406.07c.44-3.3-.32-7.38,0-10.78l-8.69,7.31c-11.04,6.46-23.32,8.34-33.71,15.94-21.08,15.4-30.79,35.09-44.87,55.75-21.46,31.48-80.64,26.79-93.54-9.56-5.98-16.86.05-34.32-4.4-51.79-1.1-4.33-3.19-10.57-4.88-14.72-4.71-11.59-14.62-17.85-21.44-28.21-.57-.87-1.34-3.31-1.49-3.42-.58-.41-8.92,3.87-10.72,4.54-23.78,8.89-50.39,13.2-60.27,40.34-8.26,22.69-2.8,36.54-1.45,58.61.83,13.48-2.48,17.73-13.96,23.99-16.86,9.19-34.24,12.08-49.44,25.69-31.64,28.32-13.12,80.63,20.25,98.69,46.59,25.21,73.02-5.25,108.9-28.97,29.56-19.54,44.76,0,72.08,10.65,26.09,10.17,65.98,9.54,85.55-13.08,22.79-26.34,18.02-49.28,22.99-80.25,2.69-16.77,12.63-27.52,26.68-36.04-16.39-5.91-30.22-18.92-16.6-36.21,8.82-11.2,26.71-11.41,29.02-28.48ZM374.18,409.66c1.83-.16,3.65-1.36,4.86-2.64,8.38-8.88,15.28-24.26,23.93-33.56l.6-2.99-29.39,39.2ZM351.97,427.3c3.72-3.59,8.1-6.56,10.98-10.9l28.86-43.33-39.84,54.23ZM406.18,380.92c-1.36-.3-1.49.72-2.1,1.49-4.91,6.15-9,14.22-13.57,20.72.45.38,2.97-1.06,3.48-1.41,1.64-1.15,11.63-15.09,12.37-17.09.55-1.47-.1-2.29-.18-3.7ZM277.59,396.04c-2.61,4.13,7.82,9.54,10.78,10.92,13.23,6.15,36.32,8.09,47.93-2.19,1.81-1.6,5.69-6.07,2.99-8.23-2.86-2.29-5.78,2.97-7.91,4.62-11.58,8.92-32.38,5.43-44.28-1.42-1.89-1.09-7.54-6.81-9.51-3.69ZM234.38,461.28l12.4-20.91c-3.27,5.12-8.62,11.23-11.22,16.54-.71,1.45-1.46,2.61-1.18,4.36ZM301.48,486.58l23.69-40.32c-9.66,12.94-16.93,27.55-26.12,40.84.36.86,2.05-.14,2.43-.52ZM266.39,489.37l2.24-1.34,15.39-26.09c-5.4,7.87-11.36,15.74-16.21,23.97-.36.61-1.84,3.04-1.42,3.47Z"/>
      <path d="M472.82,522.7c9.86,9.96,16.68,22.65,19.39,36.47,3.1,15.82,2.49,28.25-4.25,43.03-.77,1.69-5.05,11.2-7.66,7.44-1.42-2.04,2.77-7.67,3.75-10.05,8.74-21.33,6.6-44.66-6.11-64.04-2.06-3.15-8.97-11.36-12.33-12.5-3.97-1.34-14.33-.05-19.27-.33-7.17-.41-15.94-2.12-22.07-6.02-11.71-7.45-8.17-22.41-6.12-33.98.65-3.66,4.69-17.78,4.38-19.77s-6.09-5.53-7.86-7.21c-15.01-14.26-.59-21.69,12.97-26.59,2.47-14.8,7.48-29.58,15.52-42.3,1.81-2.87,8.8-10.89,9.34-12.89.34-1.27-.19-.71-.76-1.03-2.86-1.62-12.58-6.54-13.43-9.46-1.52-5.23,7.43-1.45,9.99-1.48,2.24-.03,5.18-1.27,7.54-1.33-4.32-4.23-5.02-8.79-4.56-14.68.23-3.01.76-8.79,5.22-6.55.63.31,4.17,5.16,5.93,6.49,2.18,1.65,4.56,2.76,7.12,3.65-1.09-3.05-2.64-13.76,2.28-13.78,2.46,0,10.09,6.45,13.62,8.01,13.79,6.1,29.22,3.74,43.81,5.84,19.9,2.86,34.55,12.33,45.48,29.04,1.93,1.01,16.38-8.46,14.22-.2-.53,2.03-3.92,4.37-4.43,6.68.21.97,18.89,6.54,1.31,8.84,2.52,6.99,3,14.49,2.61,21.88-.18,3.36-2.31,12.06-1.99,14.36.46,3.26,8.75,2.86,8.54,6.5-.08,1.32-4.39,6.97-5.56,8.23-4.3,4.63-8.02,3.6-7.51,10.77.44,6.18,4.12,18.61,10.46,20.9,5.27,1.91,12.24.45,4.21,7.51-4.59,4.03-9.84,5.88-15.99,5.24-1.08,1.1,3.19,20.5,4.67,23.1,1.4,2.46,4.8,4.03,3.86,7.83-.82,3.4-17.71-1.7-19.62-4.79-.62.83,2.12,9.79,2.81,11.23,1.17,2.43,8.56,9.99,1.09,8.77-5.52-.9-12.29-4.42-17.63-6.27-.52.55,2.03,8.28,2.59,9.49,1.33,2.85,6.72,6.98,2.88,9.39-2.62,1.65-11.54-1.28-14.61-2.55-.5.53,1.26,2.6,1.69,3.2,6.89,9.6,16.35,16.33,26.75,21.63.69,7.64-12.49-1.58-15.33-3.65-21.8-15.93-34.37-46.07-32.73-72.8-3.26,1.68-3.19,5.75-4.65,8.74-4.01,8.23-11.8,13.84-20.18,17.06-1.22.47-8.84,2.95-9.46,2.95h-19.92ZM565.59,509.63c6.9-1,4.71,1.32,9.34,4.06.91.54,6.69,2.78,6.99,2.47-2.4-5.85-4.57-12.34-5.14-18.7-.21-2.37-.52-9.64.05-11.55.96-3.23,5.25-1.07,7.38-1.06,2.5.01,5.59-1.37,7.51-3l-5.54-3.59c-5.13-4.37-11.21-26.33-7.58-31.1.44-.58,3.69-1.91,4.95-2.89,2.22-1.74,3.62-4.2,5.56-6.19,0-.87-6.53-2.58-7.16-5.9.89-9.9,3.53-19.95,1.79-29.87-.39-2.2-3.11-8.65-3.09-9.33.03-1.36,1.59-1.79,1.95-2.92-5.69.22-4.12-4.49-1.96-7.84-3.08-.08-4.9,3.24-8.03,1.33-1.11-.68-5.74-8.04-7.31-9.84-20.01-22.9-39.57-19.2-66.63-21.56-8.8-.77-18.48-5.22-25.48-10.45-2.81,3.25,8.87,13.73,1.34,13.76-6.33.02-14.35-4.79-18.65-9.18-.29,4.35-.23,7.77,3.24,10.8,1.75,1.53,5.37,2.04,4.51,5.07-.71,2.5-10.09,3.28-12.64,3.75-.83.15-2.06.19-.99,1.27.48.49,7.98,3.08,9.3,3.45,3.64,1.03,7.39,2.03,11.21,1.72,2.9-.23,8.4-3.12,6.31,3.05l-8.52,6.82c7.15,1.9,15.71,5.97,23.18,5.94,2.27-.01,6.62-2.17,8.2-1.07,1.9,1.33-.71,4.01-1.06,5.54-1.03,4.49-1.08,8.73.38,13.11l4.58-6.84c1.65-1.85,6.55-6.84,9.13-5.27,3.11,1.9-1.05,10.29,0,13.42,8.55-4.73,4.22,4.66,3.92,8.83-.66,9.28-.38,20.1,1.96,29.07l3.14-7.62c1.29-2.17,8.68-15.84,11.55-10.01,1.58,3.21-3.17,14.59-2.28,18.95,10.43-5.45,17.95,3.71,21.67,12.63,4.22,10.1,4.16,27.72-7.97,32.12-2.59.94-13.53,1.85-13.73,2.73-.38,1.64-.12,8.26.04,10.34.56,7.32,5.44,26.85,9.77,32.52,1.43,1.87,13.87,7.94,15.04,7.01-2.09-3.61-3.39-7.57-4.39-11.61-3.9-15.91,1.31-9.16,9.83-5.25,1.11.51,7,2.99,7.63,2.49-2.3-4.99-4.34-11.09-3.91-16.67.08-1.06.57-2.05.64-2.93-.57.08-1.21.7-2.27.68-4.01-.09-7.42-6.59-10.8-8.52v9.47c0,.24-1.3,1.38-1.78,1.52-3.95,1.18-4.46-3.39-5.79-3.7-1.88-.43-6.52,2.85-4.41-3.92,1.46-4.65,4.87-2.71,7.39-.11-.21-1.98.3-8.49,1.95-9.48,4.55-2.74,8.07,6.6,11.77,8.18-.21-6.99-1.73-17.04-.61-23.81.44-2.64,2.21-4.6,4.79-2.9,1.35.89,1.65,3.4,3.67,3.19.39-3.45-3.35-14.6-1.67-17.02.73-1.06,3.71-1.02,4.19.46s-.05,4.42.18,6.36c.42,3.59,2.96,11.62,2.54,14.42-.74,4.92-6.95.73-9.15-.94.26,1.63-.4,3.25-.41,4.79-.06,7.4,1.06,13.78.41,21.34ZM466.94,377l-10.37-1.9c-2.48,4.91-6.52,8.96-9.5,13.7-8.39,13.37-12.19,27.8-15.76,43.04-3.58,2.08-18.11,7.28-19.15,11.59-1.63,6.81,14.42,14.17,14.94,17.55-1.29,11.76-12.09,40.67-2.95,49.95,4.28,4.35,15.59,6.83,21.53,7.21,11.8.75,34.31,1.23,45.69-.1,8.77-1.03,21.2-7.64,25.76-15.4,3.49-5.94,2.35-12.25,10.95-13.87,6.73-1.27,16.74.48,20.44-7,4.06-8.2,2.03-18.46-2.65-25.94-3.54-5.66-7.84-9.22-13.83-4.26-1.3,1.08-5.59,8.54-7.98,5.17-1.48-2.09,1.93-4.28,2.3-6.28.63-3.47.09-8.96.68-12.71-.93.02-1.28,1.86-1.6,2.63-.72,1.75-1.54,4.04-1.98,5.86-.66,2.69-.83,14.01-5.39,9.62-.36-.34-3.14-6.94-3.46-7.96-3.28-10.46-3.03-22.87-1.94-33.68-.25-.34-2.51,3.2-4.61,1.68-1.53-1.1.45-12.93.69-15.4-2.87,1.98-6.44,8.05-6.56,11.46-.07,1.75,1.78,4.71-1.08,5.44-3.03.77-3.94-3.85-4.78-6.1-2.44-6.56-3.51-12.25-1.95-19.28-5.6.27-11.2-.61-16.61-2.01-3.51-.91-14.42-4.6-16.96-6.56-1.39-1.08-1.49-2.14-.46-3.58l6.58-2.87Z"/>
      <path d="M105.15,326.8c-8.83,9.94-10.34,31.48-1.76,41.71,1.57,1.87,6.67,4.42,4.09,7.02-2.3,2.32-7.27-3.21-8.62-5.1-8.55-12.04-7.14-33.62,1.59-45.33-4.68-3.15-9.64-5.89-13.72-9.83-1.95-1.89-3.88-3.11-3.26-6.21,1.92-1.92,8.73,5.51,10.51,6.8,11.25,8.2,34.32,12.06,47.67,8.59,8.47-2.2,11.09-11.66,12.83-19.18,2.82-12.16,3.75-25.44,4.55-37.87,4.85-4.23,21.42-16.37,20.36-23.21-.52-3.37-12.27-11.54-12.83-13.33-.73-2.32,1.06-8.71,1.21-11.61,3.04-57.72-54.72-85.54-102.38-57.97-26.08,15.09-35.56,44.32-25.68,72.64,3.48-3.04,16.58-2.17,15.7,3.58-.61,4.01-4.05-.43-5.72-.82-5.09-1.18-10.4,1.28-12.95,5.72-7.21,12.54,4.47,25.93,16.67,28.77.31-2.02-4.63-6.1-1.53-7.1,4.36-1.41,5.22,4.86,6.12,7.76,2.14.12,2.3-3.11,3.04-3.3,4.32-1.13,4.24,3.6,1.22,5.93-1.24.96-3.26,1.15-3.93,1.95-1.7,2.04-.42,6.36-5.25,6.55-5.39.21-5.52-4.06-6.22-8.18-.2-1.17.7-1.95-1.28-1.64,3.13,23.56-5.64,51.49-20.57,69.92-2.09,2.58-8.22,10.21-11.67,9.06-4.44-1.48,2.99-6.16,3.85-7.08,16.08-17.28,26.09-44.7,24.5-68.34-.62-9.3-5.56-8.69-9.06-15.76-2.68-5.42-3.17-14.35-.37-19.75.79-1.53,3.44-3.86,3.5-4.93s-1.76-5.24-2.14-7.01c-7.26-33.23,5.59-62,37.01-75.79,55.63-24.43,111.13,14.5,100.49,75.45,2.67,4.06,12.37,10.44,12.75,15.24.75,9.47-14.57,19.42-20.57,25.53-.47,11.79-1.78,23.97-4.34,35.52-1.81,8.16-5.65,20.63-14.59,23.31-2.71.81-7.37,1.37-10.24,1.52-9.81.51-19.38-1.59-28.98-3.18Z"/>
      <path d="M152.06,303.81c1.05,3.32.23,4.11-3.01,4.49-7.94.95-15.77-1.46-20.78-7.82-1.98-2.51-6.08-10.49-1.85-12.19l25.3-5.39c1.08.1,2.32,1.16,2.32,2.28-.09,1.15-.88,1.68-1.8,2.14-3.26,1.64-21.6,3.9-22.4,4.72-.23,4.3,3.85,8.14,7.4,9.92.61.3,4.44,1.84,4.69,1.84h10.13Z"/>
      <path d="M148.34,217.77c7.98-7.24,8.51,12.79,1.41,13.53-6.24.65-4.54-10.7-1.41-13.53Z"/>
      <path d="M154.52,201.99c1.86-.19,3.79,1.73,2.12,3.49-.54.57-11.09,5.18-12.24,5.4-3.13.61-5.4-.28-3.44-3.45,4.03-.48,10.03-5.09,13.57-5.44Z"/>
      <path d="M50.64,247.79c1.85,1.79-.14,4.02-2.45,3.76.2,2.82,6.51,3.46,4.3,6.57s-10.4-3.3-7.73-9.04c.96-2.06,4.28-2.85,5.88-1.29Z"/>
      <path d="M132.89,270.57c4.64-1.22,1.47,15.43-2.35,9.95-.93-1.34.45-9.45,2.35-9.95Z"/>
      <path d="M148.08,269.25c.24,2.44.67,10.4-3.46,9.02-2.06-.69-1.04-11.97,3.46-9.02Z"/>
      <path d="M155.24,269.28c.81,1.28.82,11.2-3.86,8.1-.93-.61-.09-6.55.36-7.54.63-1.39,2.94-1.43,3.5-.56Z"/>
      <path d="M140.86,278.89c-.4.24-2.2.25-2.73.12-1.56-.4-.73-8.02.6-8.46,4.54-1.5,2.86,7.9,2.13,8.34Z"/>
      <path d="M102.51,313.06c2.87-1.8,7.41,1.46,4.48,4.82s-7.3-3.04-4.48-4.82Z"/>
      <path d="M138.18,318.35c3.02,3.02-1.98,7.28-4.47,4.15s1.85-6.77,4.47-4.15Z"/>
      <path d="M44.11,224.59c-2.37,2.39-6.82-.92-4.46-4.13,2.89-3.92,7.17,1.4,4.46,4.13Z"/>
      <path d="M113.33,315.01c3.9-1.08,4.93,5.39,1.57,6.12-4.13.89-4.47-5.32-1.57-6.12Z"/>
      <path d="M124.79,318.35c1.69-1.69,5.56-.56,4.95,2.62-1.08,5.64-8.35.77-4.95-2.62Z"/>
      <path d="M122.48,309.15c4.73-1.4,6.37,6.09.54,5.11-2.96-.5-3.1-4.35-.54-5.11Z"/>
      <path d="M45.09,209.87c1.88-1.6,6.85.24,4.74,3.78-1.86,3.11-7.58-1.37-4.74-3.78Z"/>
      <path d="M110.67,307.15c4.17-1.4,5.77,4.61,1.61,5.51-3,.64-3.71-4.8-1.61-5.51Z"/>
      <path d="M143.97,312.35c3.1-1.01,4.71,3.62,2.91,4.89-3.76,2.65-5.52-4.04-2.91-4.89Z"/>
      <path d="M55.38,228.67c-7.66.99-2.57-8-.33-3.26.49,1.04.36,2.16.33,3.26Z"/>
      <path d="M136.33,308.44c1.46,2.06-1.72,4.08-3.87,3.22-1.63-3.22,2.73-4.84,3.87-3.22Z"/>
      <path d="M285.25,236.42c-.43.69-3.37.8-3.87-.38l-18.94-41.65c-1.61-2.58.79-5.81,3.33-3.31.92.9,2.42,4.55,3.15,6,5.78,11.6,10.21,23.94,16.11,35.5.27.93.67,3.14.23,3.86Z"/>
      <path d="M245.57,220.93c2.05-3.21,5.78,4.04,6.55,5.34,5.31,8.93,9.55,18.57,15.06,27.4,1.92,3.99-1.45,6.37-3.97,2.67-4.07-10.06-13.57-21.36-17.23-31.11-.39-1.05-.97-3.44-.42-4.3Z"/>
      <path d="M432.89,207.84c.46.73.1,2.78-.54,3.55-7.48,6.02-14.1,15.59-21.17,21.62-3.58,3.05-6.86,1.12-4.05-3.07,1.62-2.42,19.03-19.71,21.59-21.52,1-.71,3.33-1.9,4.16-.57Z"/>
      <path d="M362.56,179.82c2.17-1.47,4.11-.81,4.22,1.99l-4.48,32.04c-1.26,1.97-3.41,2.32-4.33-.02.63-11.35,3.01-22.72,4.58-34.01Z"/>
      <path d="M479.03,283.82c2.06.19,3.24,2.45,1.64,4l-25.99,9.35c-2.26.54-4.41-1.44-2.81-3.53,1.96-2.58,22.93-7.77,27.16-9.82Z"/>
      <path d="M456.96,239.9c4.72-.58,4.22,2.06,1.5,4.78-5.34,5.34-13.97,9.72-19.64,15.01-1.64.99-4.2-.23-3.64-2.29.76-2.8,18.74-14.18,21.78-17.5Z"/>
      <path d="M337.99,187.56c5.54-1.82,2.89,9.68,2.84,12.01-.05,2.54.58,16.25-.58,17.06-.7.49-2.66.49-3.36,0-2.02-1.41.75-23.61.05-27.48.05-.71.32-1.35,1.05-1.58Z"/>
      <path d="M236.1,239.21c1-.33,2.4-.27,3.17.58,1.77,4.41,12.79,16.84,12.79,20.59,0,1.93-.96,2.75-2.87,2.18-1.03-.31-9.51-13.3-10.78-15.38-1.04-1.7-5.23-6.99-2.31-7.96Z"/>
      <path d="M470.01,276.5c2.06-.03,3.07,2.84,1.11,4.38-.87.68-15.32,6.78-16.57,7.01-3.13.57-4.52-2.63-2.24-4.26.95-.68,16.75-7.1,17.7-7.12Z"/>
      <path d="M287.39,224.64c-.83-.52-8.13-16.81-7.97-17.84.28-1.83,1.78-2.1,3.31-1.34,1.05.52,8.05,14.72,8.36,16.51.46,2.68-1.96,3.75-3.7,2.67Z"/>
      <path d="M429.77,252.78c-.4-.56.14-2.71.56-3.4.35-.57,8.28-6.91,8.88-7,.83-.13,2.11-.09,2.63.62,2.09,2.45-8.25,10.15-9.35,10.38-.59.12-2.51-.31-2.72-.6Z"/>
      <path d="M450.43,256.89c2.87-.63,4.71.96,2.84,3.52-1.39,1.9-15.62,10.41-12.13,2.9.43-.92,8.14-6.16,9.29-6.42Z"/>
      <path d="M300.11,525.36c2.01-.66,3.14.96,3.84,2.56,2.46,5.6,9.83,26.43,10.63,31.85.18,1.23.63,3.53-.9,4.03-3.03,1-4.04-4.09-4.84-6.14-2.43-6.24-8.82-23.1-9.65-28.93-.16-1.13-.53-2.9.92-3.38Z"/>
      <path d="M195,461.11l-31.17,15.56c-2.28,1.07-5.08-1.08-3.33-3.35l32.05-16.34c2.74-.36,4.23,1.71,2.44,4.13Z"/>
      <path d="M241.89,508.56c2.14,0,2.93,2.51,1.79,4.17l-15.83,27.31c-2.09,1.12-4.16-.56-3.44-2.75l15.29-27.22c.45-.71,1.34-1.5,2.19-1.5Z"/>
      <path d="M244.01,537.55c-2.69,1.82-4.19-.43-3.63-3.26.22-1.13,6.93-14.59,7.8-15.75,1.99-2.63,4.99-1.35,4.38,1.71-.91,4.56-7.16,12.3-8.55,17.3Z"/>
      <path d="M313.18,518.82c1.38-.41,2.77,1.3,3.41,2.34,1.32,2.18,6.06,11.87,6.77,14.13,1.12,3.57-.41,6.3-3.44,3.44-.93-.88-3.89-7.37-4.66-9.06-.94-2.07-5.39-9.87-2.08-10.86Z"/>
      <path d="M191.81,425.44c1.29.82.86,3.45-1.05,4.31-1.18.53-15.37,4.08-16.2,4.04-1.84-.1-2.85-2.01-1.64-3.59,1.1-1.45,17.5-5.64,18.89-4.76Z"/>
      <path d="M292.32,527.34c.78-.2,1.31,0,1.89.52.95.83,3.86,16.31,3.55,18.02-.51,2.79-3.57,2.15-4.54-.69-.6-1.75-2.73-13.36-2.69-15.01.03-1.15.58-2.53,1.79-2.83Z"/>
      <path d="M426.54,477.06c1.85-1.19,22.27,4.05,26.01,4.17,5.06,4.53-1.71,13.6-6.55,16.27-4.4,2.42-15.87,3.58-20.19,1.33-1.38-.72-1.99-3.05-.71-3.93,2.49-1.72,15.21,4.06,21.93-4.2.97-1.19,3.71-4.95,1.17-5.77l-21.08-3.74c-1.61-.4-1.45-3.57-.58-4.13Z"/>
      <path d="M451.08,413.04c7.04-1.09,4.3,15.85-2.07,14.95-5.35-.76-2.93-14.17,2.07-14.95Z"/>
      <path d="M534.03,462c3.45-.89,4.99,10.14,4.78,12.66-.48,5.64-7.86,10.04-7.87,5.23,0-1.5,3.23-2.89,3.66-5.51.54-3.27-4.31-11.42-.57-12.39Z"/>
      <path d="M453.63,397.29c1.8-.58,11.63,6.95,12.33,8.46,1.06,2.32-.14,3.66-2.58,3.27-.63-.1-9.78-6.91-10.2-7.48-.82-1.12-1.17-3.72.45-4.25Z"/>
      <path d="M527.53,370.95c-1.32,1.26-13.98,1.8-16.96,2.31-.69.12-2.6.17-2.47,1.11,4.55,1.09,22.01,3.44,24.55,6.48,3.06,3.65-1.71,6.08-2.99,9.2,6.01.64,8.55,2.1,6.54,8.5.29.3,6.14-3.34,7.11.44.83,3.23-10.46,6-12.03,2.83-1.13-2.29,1.57-6.19.37-6.88-13.24.61-8.6-4.3-3.3-11.41-10.87-2.5-21.65-5.8-32.85-6.68-4.68-3.41-1.68-4.4,2.14-5.43,9.28-2.49,19.02-2.65,28.47-4.18,1.99.11,2.78,2.41,1.42,3.7Z"/>
    </g>
</svg>