<?xml version="1.0" encoding="UTF-8" standalone="no"?>
<svg
   class="svg-include colorized-orange"
   viewBox="0 0 300 300"
   fill="none"
   version="1.1"
   id="svg1"
   sodipodi:docname="svg-bicycling.svg"
   inkscape:version="1.4.2 (ebf0e940, 2025-05-08)"
   xmlns:inkscape="http://www.inkscape.org/namespaces/inkscape"
   xmlns:sodipodi="http://sodipodi.sourceforge.net/DTD/sodipodi-0.dtd"
   xmlns="http://www.w3.org/2000/svg"
   xmlns:svg="http://www.w3.org/2000/svg">
  <defs
     id="defs1" />
  <sodipodi:namedview
     id="namedview1"
     pagecolor="#ffffff"
     bordercolor="#000000"
     borderopacity="0.25"
     inkscape:showpageshadow="2"
     inkscape:pageopacity="0.0"
     inkscape:pagecheckerboard="0"
     inkscape:deskcolor="#d1d1d1"
     inkscape:zoom="3.328"
     inkscape:cx="125"
     inkscape:cy="147.38582"
     inkscape:window-width="2560"
     inkscape:window-height="1440"
     inkscape:window-x="0"
     inkscape:window-y="0"
     inkscape:window-maximized="0"
     inkscape:current-layer="svg1" />
  <path
     fill="currentColor"
     d="m 178.48356,89.941922 c 1.96648,0.7792 4.77517,3.1974 7.58571,1.73667 2.50017,-1.04797 7.18728,-0.43971 2.34997,1.0556 -3.41715,1.01655 -8.7247,1.02613 -10.11907,-2.55386 z m 8.58989,-6.292776 c 4.28704,-0.553345 -3.88099,5.573406 -4.03199,1.355236 1.35541,0.31081 3.41616,0.16573 4.03199,-1.355236 z m -81.23457,-5.39387 c 1.90222,-0.30296 3.46041,3.865303 6.42232,3.493758 7.48262,-1.928388 3.0993,3.352458 -1.86461,0.912568 -1.82539,-0.589735 -4.90349,-2.038263 -4.55771,-4.406326 z m 88.28627,-1.934184 c 4.34946,-2.704306 1.58231,7.142096 -0.86843,2.363184 -0.43161,-0.776474 0.73249,-1.65263 0.86843,-2.363184 z m -15.71351,-1.600478 c 3.12066,-3.391582 2.64613,6.118691 -0.19148,2.567525 -0.26237,-0.879674 0.23466,-1.700866 0.19148,-2.567525 z m -64.96323,-0.360946 c 1.17622,-0.947143 7.277,0.229049 2.31868,1.150982 -0.82758,-0.02069 -2.08688,-0.163482 -2.31868,-1.150982 z m 80.34951,-2.942045 c 7.67503,-0.517592 0.53846,4.293837 0,0 z M 90.91478,70.225737 c 2.473696,0.158306 0.676276,6.095245 0,0 z m 32.65306,-5.100978 c 4.4458,-0.704291 -2.05861,8.184268 -0.8287,0.892161 0.097,-0.475297 0.36028,-0.692259 0.8287,-0.892161 z M 110.0699,64.688837 c 4.24956,-1.724799 1.26838,7.561282 -0.21513,2.812771 -0.66834,-1.04174 0.20276,-1.912391 0.21513,-2.812771 z m 14.07958,-4.127098 c 4.2414,-0.485295 3.46615,3.632425 0.008,0.653838 -0.5537,-0.241241 -0.0965,-0.421529 -0.008,-0.653838 z m -14.11941,-1.041934 c 3.14178,-1.076321 4.61056,1.929239 0.22313,1.416544 -2.36762,1.43343 -2.45272,-1.446238 -0.22313,-1.416544 z m 8.23081,-41.220145 c -4.71643,1.042019 -10.41344,0.230868 -14.17518,3.381742 6.66199,-1.472059 14.06149,-3.604331 20.82103,-1.199252 7.46026,1.227416 12.99164,6.725436 19.32047,10.122736 0.3651,0.98175 2.78458,0.997479 3.853,1.749502 3.38997,0.512273 6.8576,0.471523 10.22112,0.298183 -5.40506,-1.04193 -11.58577,-0.36626 -16.19111,-4.072521 -5.61398,-4.088361 -11.31474,-8.225123 -18.43078,-9.132066 -1.71098,-0.855684 -3.59205,-0.669528 -5.41855,-1.148324 z m 30.24622,0.779596 c -0.0352,1.268941 2.29614,1.5308 3.49889,2.410792 5.00227,2.306912 10.46806,3.581674 15.98839,3.674962 1.25944,0.274181 3.2305,1.267753 4.01427,0.758529 -0.2534,0.579036 1.57185,1.231571 2.15969,0.865619 0.60365,0.976691 2.3297,0.294086 0.49296,-0.04037 -1.47004,-0.946075 -4.52485,-1.434819 -5.48367,-2.068383 -4.93921,-1.069497 -10.41761,-0.536965 -14.97875,-2.979686 -2.17159,-0.277307 -3.84833,-1.616074 -5.69178,-2.621459 z m -44.81272,2.663619 c -2.43066,1.273173 -1.60328,1.840749 -0.0228,0.674268 0.32492,-0.06016 0.29683,-0.574983 0.0228,-0.674268 z m 71.92122,5.509846 c -2.90699,0.09889 1.51236,0.503298 0.0165,4.57e-4 h -0.0158 z m -57.76909,7.736258 c -5.54301,1.582412 -11.44545,-0.681149 -16.75626,2.145511 -5.715146,0.242171 -10.02584,4.562928 -14.535146,7.688862 -2.538503,2.275855 -4.727416,4.565009 -4.613267,7.931301 -0.796805,2.007422 0.808048,4.733777 -1.299249,6.221201 1.046676,2.610714 1.679415,4.050073 4.542453,4.166413 0.814314,1.894123 -3.772375,1.169417 -4.909431,1.669892 1.110698,1.396586 2.41765,4.504913 4.55817,3.255409 5.899146,-2.180036 0.274253,3.922964 3.427412,6.442197 2.102101,3.007132 7.335835,2.214979 7.529146,6.953235 -0.430737,3.769732 2.958704,5.164302 4.247402,7.627402 1.10852,2.10846 0.33646,3.75711 -1.618603,4.32511 -2.606373,1.05521 -6.218613,0.57516 -7.504859,2.80649 -1.554667,-0.4356 -3.998594,-3.32289 -0.780222,-2.73913 3.091107,-0.50541 7.490319,0.31861 10.008364,-1.51895 -1.403257,-1.6216 -6.691326,0.54828 -9.211257,0.0528 -1.870233,0.18711 -6.96136,0.18403 -3.569765,2.8289 1.682688,1.42096 3.228091,3.38879 -0.496989,3.23996 -3.887821,0.16483 -5.682868,4.144598 -7.726501,6.602838 -1.970948,3.24854 -1.996467,7.18904 -3.220158,10.8154 -0.966356,2.0051 0.660001,4.43112 1.62625,2.53258 -0.365402,-1.78517 0.08805,-3.59529 0.78267,-4.87525 -0.252717,4.70214 0.425159,9.8855 -1.341949,14.10316 -0.38258,0.99642 0.992919,1.55231 1.490998,1.45253 0.279893,3.66951 -0.650814,8.25721 1.642296,11.32639 5.054425,1.0195 7.381358,6.25996 11.330556,9.13983 2.840561,3.77527 6.301955,7.42733 10.143519,10.16112 2.73236,-1.27325 -1.58688,-2.57344 -2.3759,-3.77871 -4.686331,-4.61685 -9.14797,-9.51341 -13.736024,-14.1677 -1.06831,-1.52669 -4.244986,-1.1729 -4.790434,-3.74419 -1.322214,-5.94741 -0.653092,-12.42931 -1.002316,-18.35504 0.315792,-0.81693 -0.05984,-5.22608 0.748074,-4.5297 0.380808,2.2974 0.893787,5.22912 0.772964,6.92801 2.472905,0.79516 0.665026,-3.38714 0.837283,-4.71284 -0.639595,-3.5912 -1.764553,-7.30314 -1.569607,-10.46856 -0.55236,-1.34518 1.827614,-3.46356 2.646059,-4.93744 2.522551,-2.533488 6.911922,-3.991458 9.918817,-1.587238 1.390776,0.272098 0.348582,-0.4755 1.429458,-0.27057 2.004219,0.725918 6.294616,1.528258 5.185135,4.077108 2.065971,1.42935 3.501961,4.90199 6.078741,4.59191 0.55471,-1.03717 0.15669,-0.37792 0.34401,-1.11203 -0.72801,1.83486 1.32126,3.95092 2.10349,2.24927 0.22098,1.83994 0.93711,4.6698 0.84427,5.86316 -0.25847,4.07512 1.67024,8.80671 1.48928,13.05012 0.27913,1.94175 1.39087,3.37897 0.95698,5.33267 0.38242,1.72704 -0.72235,3.89364 0.48663,4.99254 0.32524,3.32858 1.83017,7.04876 1.53983,10.10331 -3.2391,-3.81369 -8.76778,-5.81504 -11.78703,-10.15808 -1.832252,-2.15795 -4.240979,-4.4094 -5.123686,-6.94793 2.037162,-5.43175 1.112516,-11.16874 1.657897,-16.62306 -2.842309,0.0879 -0.538081,5.26398 -1.553655,7.08868 0.211573,3.14291 -0.312201,6.27323 -1.427345,8.97801 -0.585204,2.84208 3.095415,4.28574 4.112344,6.81632 3.546125,4.24227 8.110965,7.51999 12.414205,10.68609 0.47219,1.23616 4.48896,2.82096 1.96824,3.24841 -3.55057,0.64494 -7.71388,1.95804 -9.79262,5.23123 1.88714,1.15029 -1.71313,2.66623 -1.26067,4.60459 -2.854358,-0.59903 -5.988564,0.108 -4.83734,2.96265 0.889723,1.7092 1.725806,5.01067 4.57628,3.10651 2.30813,-0.68229 1.24524,-2.31508 -1.17105,-1.04191 -1.321248,0.23758 -3.052986,-4.41054 -0.42134,-3.65756 2.35007,0.30553 4.87093,-0.96522 6.58164,-1.95676 2.46625,1.6323 1.67573,4.58151 -0.78139,5.7207 0.98022,2.65972 5.37703,-2.27119 3.68209,-4.03845 -0.73729,-1.4995 -2.62644,-4.31308 -3.88941,-3.09251 0.70166,1.26821 -3.1188,1.87381 -1.09053,0.84424 -0.21002,-0.63967 0.7714,-1.04398 0.91559,-1.38924 2.87257,-4.02642 8.1914,-4.6578 12.11186,-6.57915 2.41141,-2.06921 6.21947,-2.02326 9.17798,-2.77694 -3.8521,-1.31249 -7.78395,1.5833 -11.44821,1.22904 -0.61025,-1.76667 -0.24413,-3.10634 -0.85621,-4.90979 -0.96879,-4.58378 -2.4521,-9.39103 -2.52502,-13.70371 -1.16318,-3.0234 -1.00427,-7.16473 -1.2905,-10.72693 -1.14503,-2.70087 -1.31639,-6.99527 -1.70669,-10.29124 -0.37997,-1.42003 0.16926,-5.07668 -1.64028,-5.40692 0.77607,-3.86358 -0.42552,-6.02316 -1.37834,-8.493028 -2.15741,-0.0414 -1.8777,-2.91426 -3.19605,-3.49396 -1.89277,2.33702 2.73377,3.52842 1.95249,5.20977 -1.06293,1.165658 -3.01173,4.501018 -0.36004,2.112318 2.10873,-3.169118 0.79808,3.03145 0.99736,3.67723 0.48182,0.71238 0.007,3.46824 -0.56755,1.12394 0.42391,-3.68581 -1.99025,0.78709 -2.9867,-1.40994 -1.03494,-0.85896 0.44095,-1.93404 -1.14883,-2.58348 -3.230375,-1.46441 2.69072,-3.982898 -2.110614,-3.963048 -2.881675,-0.11861 -5.571224,-0.98523 -1.87124,-1.96122 3.871274,-0.77164 6.153964,-4.92171 3.578544,-8.16672 2.32214,0.56571 7.72471,4.94521 11.38671,2.2826 -2.62503,-2.35774 3.19719,-0.47077 5.04266,-1.74355 4.5774,-1.11673 8.96569,-3.16534 12.38227,-6.423094 0.37095,2.64504 8.66711,3.234124 4.18418,0.898957 -2.48778,-0.06832 -4.02294,-2.560887 -1.65751,-4.958595 1.60806,-4.586678 0.69726,-9.670911 -1.76133,-13.722066 0.36759,-2.783026 4.1106,-3.107268 4.76541,-6.041818 1.44247,-2.40356 1.24757,-5.639593 3.01111,-8.022673 0.37368,-3.469407 -3.1645,-5.806473 -5.2272,-8.117533 -1.86458,-0.910139 -2.89644,-2.60779 -3.97042,-3.763017 -4.23356,0.196415 -6.82319,-4.391308 -11.31238,-3.536643 z m 0.73394,0.979763 c 1.73834,-0.860876 1.9878,2.943452 -0.0111,0.849765 -1.79197,-0.08943 -1.42498,-0.816394 0.0111,-0.849765 z m -6.5616,1.469644 c 4.55753,0.161089 6.01701,1.41315 -0.15619,0.505803 -0.64914,-0.04856 -0.0341,-0.438275 0.15619,-0.505803 z m -8.72129,0.437205 c 1.62777,1.412683 -1.92368,1.25349 -2.82885,1.873982 -4.735571,1.211039 4.27847,-1.655375 1.68038,-1.273018 -0.72733,0.07999 0.35852,-0.556927 1.14847,-0.600964 z m 10.7967,2.186028 c 0.87673,1.087733 -7.02321,6.686478 -9.32354,7.669537 0.87145,-1.420877 3.60281,-2.674789 2.99895,-4.402595 -3.21658,1.368792 -5.60333,2.913919 -0.87098,-0.67261 2.0092,-1.999459 4.4015,-2.626072 7.19557,-2.594332 z m 2.64957,0.198412 c -0.34903,0.89846 -0.84555,2.908118 -2.19661,3.289367 -0.18076,-1.730414 0.72438,-2.580772 2.19661,-3.289367 z m 3.48536,0.0755 c 3.36801,0.623641 2.2078,1.754451 -0.67767,0.674577 -1.46583,0.473667 -0.40392,-0.131024 0.22261,-0.558847 l 0.45476,-0.115885 z m -17.1476,0.333611 c -0.16991,0.712136 -1.75601,0.752559 -2.46544,1.285004 0.2376,-1.132359 1.65094,-0.886646 2.46544,-1.285004 z m 18.45571,1.294059 c 3.59831,-0.08094 -1.67175,1.827393 -2.28789,2.539157 -1.37769,0.694871 -3.11523,2.222775 -1.20233,0.08307 1.05634,-1.136645 1.58591,-2.789947 3.49022,-2.622224 z m -17.21257,0.231771 c 1.25516,0.09898 -1.97026,0.980302 -1.28356,1.326246 -1.56735,1.684226 -5.61637,2.606189 -1.19402,0.484525 0.14877,-0.995815 1.7883,-1.035241 2.47758,-1.810771 z m 19.86916,0.502173 c 2.8774,0.400053 -1.95361,3.530536 -1.78741,0.967556 0.55185,-0.394063 1.18289,-0.678452 1.78741,-0.967556 z m -27.201573,0.191387 c -1.068458,2.40136 -3.235506,2.280233 0,0 z m 30.288353,0.0878 c 3.08587,-0.130088 4.57992,4.552237 0.70246,4.842748 -2.25445,-0.552237 1.44341,-4.591209 -1.3398,-3.901286 -0.91671,0.383516 0.36249,-1.075443 0.63734,-0.941462 z m -10.25591,0.825248 c -2.38438,3.540595 -6.35545,6.994677 -9.71146,9.807277 -4.89919,2.143698 -0.93199,-1.645115 1.23449,-3.125411 2.68301,-2.251318 5.43035,-4.782717 8.47697,-6.681866 z m -4.37556,0.460031 c 1.54181,1.375697 -3.21683,3.261631 -4.1912,4.744449 -1.36218,0.920162 -1.39586,0.890653 -2.38605,1.12205 1.29773,0.96587 -1.52929,0.828573 -0.59527,-0.03846 2.17079,-1.994953 4.63565,-4.250517 7.17252,-5.828036 z M 89.589669,44.84279 c -0.326782,0.71425 -0.139036,0.317117 0,0 z m 31.580651,0.416135 c 3.30161,0.337699 -1.35188,2.612331 -2.11236,3.719045 -1.48343,1.711579 -4.19035,2.840506 -4.92482,4.794073 -1.69519,-0.191971 -7.41961,1.485699 -3.52059,-1.292716 3.33167,-2.376731 6.35667,-6.714261 10.55777,-7.220402 z m -21.556524,0.293226 c 0.107216,0.703467 -2.262344,1.388326 -0.228423,0.128155 l 0.22826,-0.128176 z m 5.416784,0.05267 c 1.3554,0.194687 -1.99578,1.752452 -1.94732,2.221725 -3.332849,3.773617 -7.796273,6.429139 -11.077919,10.244261 0.786136,0.938275 -1.548615,2.769339 0.884981,1.805291 1.252631,-0.685897 3.978874,-3.595091 4.972642,-2.895686 -1.453053,1.426808 -3.001105,3.870156 -4.542942,4.632009 -1.370096,-0.651155 -2.752704,-1.42217 -4.063071,-2.130045 0.0022,-0.908732 -2.676934,-3.079668 0.644398,-4.797049 2.184531,-2.183843 5.036698,-4.161454 7.501447,-6.038267 -1.414648,2.268348 -5.669183,3.36394 -5.85926,6.2088 2.866853,-0.753249 5.094576,-4.060856 7.962715,-5.241951 1.539499,-1.736745 3.679269,-2.660441 5.524329,-4.009088 z m -16.431208,0.263377 c -1.636776,2.503374 -0.774405,1.196904 0,0 z m 4.36679,0.09482 c 0.759674,1.174461 -2.81824,3.578006 -3.469553,2.809358 1.007783,-1.322869 1.831308,-2.345307 3.469553,-2.809358 z m 42.147338,0.09306 c 1.1498,4.231405 -2.66422,0.429393 -4e-5,0 z m -10.59829,0.544312 c 1.27285,1.440174 -1.85382,3.400174 -2.78832,4.862191 -1.01573,1.746252 -4.02169,2.413188 -5.29932,2.144936 2.18822,-2.73487 5.13724,-5.131846 8.08764,-7.007127 z m -28.599226,0.333611 c -1.855147,3.453081 -3.628646,1.577795 0,0 z m 40.575856,0.47759 c 2.1045,2.621968 -2.13091,4.496593 -0.30207,0.783069 0.15127,-0.198641 0.0325,-0.636095 0.30207,-0.783069 z m -6.41937,0.475834 c 1.84971,3.73752 -3.11685,1.040023 0,0 z m -3.69958,0.06848 c 1.53755,1.170791 -3.62136,2.873576 -0.46363,0.261332 0.0893,-0.144617 0.25463,-0.32082 0.46363,-0.261332 z m 6.78284,0.409112 c 2.58271,3.051806 -3.64651,4.003871 0,0 z m -48.731761,0.488126 c 0.968536,1.001046 0.362202,-0.03699 0,0 z m 43.255281,0.47759 c 2.30199,1.369863 0.66275,4.124261 -1.84877,3.392902 -3.50434,0.851293 -2.66859,-0.886276 -0.49682,-1.743924 0.55864,-0.760228 1.57864,-1.124721 2.34559,-1.648978 z m -36.474202,1.213291 c 1.201466,0.671607 -1.796177,2.287828 -2.579511,3.273093 -0.404119,-1.519732 1.650996,-2.501694 2.579511,-3.273093 z m 11.367352,0.475834 c -0.47291,1.047043 0.0437,0.127893 0,0 z m 1.8331,0.205434 c 1.63339,0.354498 -2.12569,1.338452 0,0 z m -18.178277,0.36521 c 0.555558,0.07161 -0.36569,1.14084 0,0 z m 100.399297,0.791886 c -8.61719,0.632593 -18.19042,2.35581 -24.51718,8.670996 -1.80445,3.216751 -1.19791,7.259742 -1.54689,10.675776 2.67044,4.087349 -1.52764,4.645991 -1.13071,9.107574 -0.64784,-1.252319 -1.07746,-0.72296 -1.73681,1.165824 -4.71452,3.160934 -11.32442,-0.07409 -15.8487,3.438354 -2.11114,1.49352 -5.58865,6.01599 -3.02894,8.22104 1.38218,-0.45216 0.21106,-5.71478 3.10788,-6.83563 4.84953,-4.56134 12.51441,-0.16578 17.569,-4.510772 0.73929,2.12155 3.62964,5.243152 5.75396,3.404712 -3.97187,-0.51223 -5.94105,-6.352717 -3.08326,-8.839429 2.60705,-1.438262 3.22498,0.427564 3.53255,2.681336 1.68571,5.994133 2.71037,13.059633 7.75697,17.177973 1.63954,0.77114 4.2927,-0.17553 6.1598,1.34884 6.81836,3.048928 14.87563,0.39568 20.29433,-4.12662 2.3981,-1.86907 1.77835,-4.93682 2.45447,-7.35532 0.48968,-2.654188 2.48481,-3.883888 1.65748,-0.59339 -4.35185,2.52318 1.59362,3.47942 1.43307,-0.70054 -1.38567,-3.315309 -1.73401,-6.405119 -2.3985,-10.352468 -0.43564,-2.030477 -2.41474,-4.126118 -2.89903,-5.645172 3.24108,-0.984531 4.92562,-6.853299 7.85577,-3.255382 6.75788,0.666416 -4.55595,1.830423 -0.90773,3.553879 2.40745,-0.19754 5.62029,-2.600099 5.56282,-4.902322 -2.34979,0.920845 -7.00226,0.502367 -5.6908,-3.153462 -1.53848,-7.023893 -10.29341,-8.384214 -16.32603,-7.539808 -0.50553,-1.518159 -3.67984,0.301526 -3.58547,-1.401563 -0.16487,-0.04023 -0.27311,-0.195363 -0.43805,-0.234426 z m -58.34853,1.095648 c 3.04899,0.625573 -0.34789,0.881011 0,0 z m 3.10609,0.342391 c 1.95395,2.042019 -1.85185,0.540631 0,0 z m -23.89356,0.333611 c 0.62224,1.816321 2.12722,0.452268 4.19655,0.714707 4.29126,-0.07183 -4.06765,1.413083 -5.29919,1.566256 -4.52227,0.327096 -0.44025,-1.834536 1.10264,-2.280963 z m 80.13156,0.04038 c 2.03407,2.239217 -8.55564,0.832419 -10.35782,1.72946 2.82458,-1.702442 6.97902,-1.23184 10.35782,-1.72946 z m 2.40024,0.330098 c 1.88121,0.03226 1.34829,0.667085 -0.28792,0.852187 -1.08089,0.468113 -0.029,-0.904359 0.28792,-0.852187 z m 2.73913,0.02107 c 0.96857,-0.06503 -0.16106,0.507727 0,0 z m -0.57066,0.02107 c 0.12277,0.625369 -1.10771,0.143998 2.7e-4,3.11e-4 z m -72.08802,0.03688 c 3.58038,1.859496 11.95166,-1.279441 9.75198,5.271044 -1.19393,3.153293 -0.91934,6.240934 1.26772,8.80557 2.26361,6.449766 -1.22165,13.840527 -7.5786,16.359232 -5.4678,2.80296 -12.09955,3.83756 -17.9523,1.3615 -2.5657,-0.7283 -5.701338,-1.897834 -5.25207,-5.291991 -1.409868,-4.497978 0.0756,-9.251626 -0.19837,-13.695603 -2.490988,0.253915 -1.321655,7.039878 -1.787544,9.669575 -0.190782,1.447711 1.622402,7.608439 -0.572487,3.768038 -0.476132,-3.886744 -3.152835,-13.822438 1.594314,-14.043137 3.497107,0.156207 7.068057,-2.015216 5.099067,-6.082084 -1.22776,-5.147259 4.9764,-3.134163 8.00844,-4.663543 2.56243,-0.415054 5.05762,-1.182415 7.61985,-1.458601 z m -17.66382,0.142223 c 0.85057,0.942031 -1.6464,0.308156 0,0 z m 74.5866,0.15627 c -1.46728,0.597984 -3.11485,1.169854 -4.66009,1.32187 1.40979,-0.841023 3.05825,-1.075114 4.66009,-1.32187 z m 18.40478,0.565383 c 2.33062,0.698687 4.9283,1.474443 6.6387,3.222137 -3.10847,1.434109 -6.20208,3.186099 -9.14807,4.807963 0.92182,-1.59148 5.7258,-5.458735 2.38577,-5.798331 -3.06375,1.232493 -5.91906,3.249714 -8.84109,4.556591 1.40982,-1.355337 7.47962,-7.37255 2.47927,-4.581079 -2.08293,1.444872 -3.92855,3.345326 -6.14409,4.514336 2.54033,-3.319079 5.47649,-6.202848 9.78533,-6.333833 0.90854,-0.319523 2.01272,-0.06443 2.84418,-0.387784 z m -64.00587,0.319564 c 0.13921,0.672621 -0.56225,0.377865 0,0 z m 68.97843,0.293226 c 2.25735,0.395344 0.64237,1.651927 -0.34256,0.03532 l 0.34239,-0.03512 z M 102.604,56.299683 c -0.7037,2.803149 -3.741826,5.195758 -4.263114,7.987544 3.582854,0.777105 2.147214,-4.178366 4.693554,-5.699307 0.44566,2.520903 1.35693,7.052887 -2.58126,6.851971 -2.273216,0.417136 -3.008134,-1.237597 -4.589956,-0.375544 -1.423252,1.283175 1.403925,12.572993 -0.756758,12.087205 -0.136397,-3.223338 -5.52708,-0.312805 -6.096257,-3.927938 -1.085145,-2.00177 -0.01308,-6.321616 2.772731,-5.053492 0.367778,-2.620927 -2.84909,-1.021149 -3.952672,-1.928645 -1.638721,-0.05186 -3.667914,1.200785 -4.946376,-0.126057 1.679195,-0.744403 5.959309,-1.804853 5.099279,-4.245803 -3.77812,0.86528 -0.491451,-3.171086 1.313378,-1.164195 1.906198,1.754295 5.520639,3.09827 7.348677,0.359848 1.713961,-1.868446 3.861984,-3.377783 5.958774,-4.765587 z m 78.86735,0.305517 c 6.52667,-0.609462 1.46065,2.436209 -1.21854,4.317622 -1.9125,1.070768 -4.10392,3.396188 -5.61015,4.024609 2.19607,-2.85523 4.44792,-5.663503 6.82869,-8.342231 z m -2.2387,0.142224 c 0.98514,1.114499 -1.28765,0.803635 -1.92963,0.988864 -4.05206,5.104257 -8.74059,10.120333 -13.4727,14.329897 3.10721,-5.005143 6.38314,-10.436465 11.04413,-14.126863 1.4643,-0.440595 2.91228,-0.732667 4.3582,-1.191898 z m -6.03133,0.333611 c -0.0258,0.683665 0.10802,-0.02582 0,0 z m -2.23344,0.63386 c -0.65465,1.486615 -0.9364,0.442491 0,0 z m -86.584295,1.000837 c 1.507004,1.168446 -1.111152,2.970644 -0.632236,0.756581 0.216599,-0.246513 0.231977,-0.654696 0.632236,-0.756581 z M 195.1055,58.852688 c -2.00462,2.745532 -4.44411,6.116532 -7.37102,7.797756 -3.50398,-4.410056 5.13907,-5.835488 7.37102,-7.797756 z m 9.70456,0.340634 c 1.8582,1.662898 0.61139,2.716461 -0.40769,0.319568 l 0.14397,-0.231771 0.26338,-0.0878 z m -36.95881,0.01405 c -0.81177,1.917846 -2.92045,4.922865 -5.55753,5.569734 0.0972,-1.869156 1.45561,-5.42805 4.15103,-4.589904 0.52415,-0.246644 0.82544,-0.791632 1.4065,-0.97983 z m 16.066,0.121154 c -1.55957,2.94942 -8.40643,7.00714 -2.32655,1.703294 0.70536,-0.680058 1.56893,-1.122399 2.32655,-1.703294 z m 18.91222,0.04917 c -0.93126,2.637008 -4.70424,3.858701 -6.68809,5.740113 -3.8231,1.005729 -2.17326,-1.440922 0.73929,-2.614455 1.87356,-1.225709 3.91565,-2.203519 5.9488,-3.125658 z m 1.38712,0.904261 c 2.80873,1.84991 -1.93569,5.628052 -0.22796,0.477463 0.14964,-0.131709 0.026,-0.383758 0.22796,-0.477463 z m -19.00177,1.539877 c -0.75479,1.839794 -4.1186,3.115206 -4.06942,5.122009 1.91142,0.806795 4.36604,-4.572206 5.03609,-1.232569 3.46898,3.800867 -9.47913,2.606947 -4.81983,-0.934197 1.29873,-0.945723 2.47978,-2.083254 3.85316,-2.955243 z m 16.40838,1.478423 c 1.47762,2.240446 -6.06013,6.384696 -2.41425,2.533728 -2.20055,-0.09538 2.31776,-2.462734 2.41425,-2.533728 z m 2.26856,0.558359 c -0.89103,1.967074 -1.62053,1.190502 0,0 z m -26.22708,0.208945 c -0.75241,4.002828 -0.97055,2.825234 2.6443,4.115702 -3.33205,1.453241 -10.04989,2.208429 -10.57396,7.034329 1.53145,4.652438 1.87734,9.95983 4.21444,14.52097 0.49262,1.50444 2.77335,5.79011 -0.43628,2.92891 -4.61365,-2.00714 -3.68529,-7.909941 -6.27883,-11.613159 0.48757,-5.650286 1.27782,-3.860566 2.13513,-8.770454 2.47095,-3.029516 4.89836,-6.132426 8.2952,-8.216298 z m -5.18853,0.914797 c -1.10948,2.096562 -2.83229,4.218058 -4.34255,5.905067 -1.24698,-2.379785 3.50112,-4.153664 4.34255,-5.905067 z m 19.6409,0.414379 c 4.03303,3.113816 6.13246,2.409836 -1.63286,2.635523 -3.11785,0.711082 1.26575,-2.465287 1.63286,-2.635523 z m 1.54514,3.641626 c 3.83347,-1.085443 6.46782,1.540952 7.6186,4.934089 1.61708,3.904607 1.79,8.791596 -1.07636,12.13469 0.84902,3.74595 -0.50871,7.73542 -4.43893,9.10072 -5.25128,3.42535 -12.77649,3.38063 -17.52164,-0.31428 -2.57723,-1.64394 -3.08918,-6.37074 -4.56472,-9.37869 -0.80095,-3.264039 -2.08993,-6.909628 -2.09682,-10.059366 -0.92243,-1.828721 1.52195,-3.646509 3.75402,-4.300147 1.2736,0.237504 9.07727,1.571175 4.65296,-0.732193 -4.22766,-0.978481 6.37143,-0.293811 4.97962,-0.641106 2.86868,0.04476 5.73473,-0.790783 8.69327,-0.743717 z m -29.98809,0.988542 c -0.24686,1.727819 -2.13002,1.088138 0,0 z m 42.31589,0.07024 c -1.33409,1.503133 1.91785,3.037899 3.34305,3.086943 -0.62742,2.330176 -5.54461,-1.39583 -3.99818,1.386837 1.87824,2.003703 4.90205,1.132365 6.03349,-0.904344 0.5147,-0.74616 1.83486,-0.577051 1.21044,-2.024717 -2.47004,0.0408 -5.04666,0.973678 -6.5888,-1.544719 z m -39.23789,0.723408 c 1.99772,2.231573 -2.99644,6.214206 -2.12422,2.380554 0.7162,-0.788788 1.54046,-1.543444 2.12422,-2.380554 z m -82.270188,3.850571 c -1.881841,0.06635 -3.236346,2.413489 -0.404163,2.56365 1.05413,0.223638 3.388892,1.62538 0.796987,1.599236 -2.57545,0.04025 -2.994518,2.143337 -0.160014,3.058437 -1.756416,0.572506 -2.65118,1.761055 -0.661912,2.825406 4.946761,2.924589 8.366894,0.549019 1.100916,-0.728678 0.206621,-1.491278 5.546441,-3.769206 -0.222995,-3.608306 -0.679167,-0.258398 5.650715,-1.807441 2.142081,-2.895552 -3.135037,-0.401012 -0.06129,-1.92583 -2.5909,-2.814193 z m 54.942188,2.853239 c -1.76235,0.863814 -4.32937,2.663291 -6.27012,0.881595 -0.40719,3.117028 6.97046,0.273059 3.77503,2.444069 -2.04631,0.722678 0.5986,2.614306 0.69348,0.844877 1.34014,-0.590106 3.09564,-2.910407 1.80161,-4.170541 z m 23.77592,2.078922 c -2.73019,3.269663 3.22555,3.839927 0,0 z m 46.13486,0.670733 c -0.95262,1.655579 3.49246,4.554727 2.46352,7.318364 1.26166,2.47535 1.55976,-3.057148 0.12313,-4.017367 -0.62738,-1.060748 -1.30912,-2.89181 -2.58665,-3.300997 z M 97.531363,83.025425 c 0.56403,1.1361 4.101567,3.988957 0.944772,2.714537 -0.51209,-0.828443 -1.065882,-1.761878 -0.944772,-2.714537 z m 29.717697,2.401997 c -2.65981,1.36267 1.81381,3.00256 3.22728,3.22748 2.1489,0.3702 2.00039,-2.97757 -0.64604,-1.84573 -3.35442,-0.29728 0.15537,-1.24457 -2.58124,-1.38175 z m -23.6969,1.62065 c 3.3203,0.0627 5.26053,3.23184 0.99553,1.13602 l -0.43896,-0.3775 c 0.0723,-0.2195 -1.05604,-0.56424 -0.55657,-0.75852 z m -10.031151,0.1352 c -1.250402,1.42882 -7.194904,3.82019 -1.833103,4.02618 6.402082,-1.08399 -2.847475,-1.0325 2.59689,-2.88126 0.485164,-0.51997 -0.205005,-1.23327 -0.763787,-1.14492 z m 61.356291,0.58294 c -4.22527,1.08398 -10.27019,2.97965 -11.55707,7.31146 3.43354,0.70745 2.97567,-4.66532 7.68886,-4.89003 1.41829,-0.14719 3.91792,-1.68341 4.90114,-0.44939 -1.48895,1.87527 3.32695,-2.60806 -1.03293,-1.97204 z m -46.19632,0.98678 c 3.7407,0.2359 -0.20705,1.27649 0,0 z m 4.95852,1.29757 c -1.85361,2.69124 3.15043,5.27695 5.1802,3.70513 -0.75902,2.38361 -3.63249,3.54259 -6.00014,4.25152 -0.0774,2.347798 3.1372,3.655288 2.96566,6.244078 3.49477,-0.58983 -0.85714,-3.44727 -1.2923,-5.264068 3.35617,-1.02031 5.0842,-5.70583 9.14621,-4.68465 7.19386,-1.26686 8.98368,7.080728 12.55109,11.394118 0.71487,2.65503 3.62982,-0.20757 0.70796,-1.41705 -3.4509,-4.05335 -5.36669,-11.398928 -11.82459,-11.307428 0.30183,-2.47814 -9.3456,-3.35868 -5.55373,-1.21856 3.46191,0.25394 7.199,1.61993 0.75706,1.58047 -0.66874,-2.22454 -5.22149,1.7381 -6.31757,-3.12716 l -0.31605,-0.15627 h -0.002 z m 93.59539,1.15184 c 1.40191,2.48439 -3.06039,7.29728 -0.26514,6.93221 1.29865,-1.37202 2.64716,-6.30591 0.26514,-6.93221 z m -49.37264,1.77692 c -3.70379,0.71687 -5.07376,4.7457 -6.58999,7.641738 2.14435,1.6224 2.52725,-2.452618 3.52222,-3.901488 -0.0417,-1.80938 4.87243,-2.55663 3.06777,-3.74025 z m -61.377372,2.13862 c 0.985023,0.26564 -1.166106,0.57541 -1.39455,0.86603 -2.868285,0.1157 0.481452,-1.13684 1.39455,-0.86603 z m 29.122472,1.12374 c -0.52454,1.6463 -0.50771,3.11849 -3.33762,2.48662 -3.15694,0.34874 -3.18738,4.496778 -3.76981,7.149798 0.0754,0.68605 1.2423,2.02924 0.63718,2.42587 1.34635,0.29522 0.33983,2.55027 1.2749,3.58959 0.27898,1.23717 0.41061,3.24203 1.13926,4.27061 -1.11873,2.20323 2.9765,2.77873 0.6602,-0.12803 -0.13801,-3.18786 -2.36565,-5.94148 -2.32499,-9.18891 1.08229,-2.43045 -0.38856,-6.41503 3.91202,-6.981248 2.79069,0.204868 3.06551,-1.79546 1.80886,-3.6243 z m 33.21008,1.29406 c -1.42655,1.35293 -4.29896,2.758898 -4.77957,4.175438 1.31063,0.12692 6.80072,-2.673858 4.77957,-4.175438 z m 42.23161,0.57943 c -6.20797,1.76684 -12.35564,4.334128 -18.64623,5.775248 -1.10389,-0.60756 -1.5353,-5.877898 -2.86028,-4.516118 -0.31589,3.088628 4.2209,6.599968 -1.7207,4.563488 -2.57458,0.50923 -10.0075,-3.73076 -3.74521,-3.5012 -0.69259,-2.103848 -4.32499,-0.815238 -6.01563,-0.939558 -3.64661,-0.0394 -3.7505,5.543638 -7.09186,4.222808 -3.2419,0.66035 -6.14751,3.6753 -7.06769,6.47176 2.50751,-0.2276 3.78767,-5.67845 7.50268,-5.32022 3.89394,2.95034 7.84557,6.13483 11.53988,9.50838 5.89649,6.33417 10.51229,13.62096 16.63035,19.90916 0.5359,3.1586 4.43911,2.39069 1.73303,-0.0492 -4.28411,-4.74067 -8.29607,-9.79116 -12.36925,-14.65022 4.18241,0.88569 8.13168,-1.28102 12.17509,-1.48386 1.37323,3.43643 -0.48471,8.27999 -2.90808,11.03253 2.03481,2.70625 2.44165,-0.16094 3.32206,-2.41782 1.65338,-2.84702 1.54588,-6.58553 1.42239,-9.37117 0.90105,-0.64831 8.60202,-2.85795 4.90747,-3.63816 -5.27019,2.86415 -11.39586,4.74928 -17.40621,4.56514 -4.86936,-0.18991 -6.56091,-6.05446 -10.53384,-8.14423 -1.93096,-1.6081 -4.82143,-3.15238 -5.69014,-5.44339 0.15645,-0.3855 0.15651,-1.32726 0.11245,-0.95636 1.07012,-2.2532 4.66,-4.486418 6.41605,-1.48019 3.50066,3.51676 9.58042,3.69389 14.09368,2.40425 2.70565,-1.90873 3.62414,0.83863 6.02433,-1.78393 3.71982,-0.79341 7.23898,-3.892248 11.13082,-2.900898 1.17896,1.601018 0.0499,3.325738 0.83753,4.992118 2.91635,4.99544 4.72668,11.29038 3.28798,16.8366 -0.32631,2.99305 -1.80178,6.17449 -4.41764,7.62084 -0.31624,2.10736 -1.89191,5.1319 -0.93412,7.88037 0.82131,2.47166 0.99628,6.08353 3.40281,7.09016 2.08015,-1.98088 -0.50594,-2.80045 -1.09049,-5.18324 -1.80283,-3.1599 -0.93524,-8.32133 2.00699,-10.65817 3.01122,-4.64498 3.54082,-10.84174 2.28778,-15.9907 -0.57233,-2.11571 -1.02118,-4.50065 -2.57452,-6.40255 -0.71279,-1.93553 -1.2369,-5.83784 3.45027,-4.39318 2.85954,0.91861 5.94186,1.46802 7.96821,4.15459 5.0592,4.40813 7.83245,10.70902 11.75356,16.00554 -1.28596,1.87601 2.81086,1.60608 3.14647,3.40509 0.54569,0.88791 4.78048,3.37696 1.43483,3.303 -3.44949,0.92927 -5.96198,3.84948 -7.22721,7.0842 -2.95296,-0.70536 -4.58139,-7.09457 -7.66629,-5.01829 2.36694,3.01743 6.25387,5.14178 7.82351,8.30282 1.82529,0.21064 1.04247,-1.33462 2.08964,-2.07508 -0.88986,-1.36946 0.97701,-2.70378 1.91238,-3.89124 2.76357,0.8967 4.60662,4.55812 7.48189,4.20223 -0.39255,-2.00236 -4.07669,-2.57694 -5.38758,-4.5289 -3.82976,-2.39609 7.38114,-1.25762 5.11651,-1.41695 -0.70058,2.01958 4.42137,4.60324 5.55382,3.51513 -1.11825,-2.04943 -4.5252,-1.8569 -4.53388,-4.01236 -2.4036,-3.4645 -6.4175,-5.75749 -8.44776,-9.42637 -3.27438,-4.14943 -5.86687,-8.63711 -8.92494,-12.99639 -2.90617,-2.5934 -5.5458,-6.59539 -9.63968,-6.85162 -2.2753,-2.947348 -4.66343,-0.31737 -7.35897,-2.540788 -0.62122,-0.57038 -1.49044,-0.82001 -2.30626,-0.86317 z M 79.400493,107.90928 c 0.873862,0.77699 -0.124984,4.01736 -0.517951,1.95258 0.487648,-0.64215 -0.116151,-1.39348 0.517951,-1.95258 z m 60.134227,1.03419 c -3.64409,1.05833 3.44445,1.87325 4.26324,3.44503 5.97083,3.78685 10.36914,9.50381 15.49911,14.16633 1.74325,0.74623 1.54896,4.35716 3.47508,3.67204 -1.49054,-5.42886 -7.3108,-8.11149 -10.72658,-12.29316 -2.72139,-2.54443 -5.77101,-5.73738 -9.24302,-6.50363 0.23975,-0.80764 -2.36447,-2.4047 -3.26783,-2.48661 z m -89.50427,0.53203 c -0.514058,1.33033 3.809171,0.76335 0,0 z m 3.945387,1.03419 c 0.186571,1.4005 5.413968,3.20475 7.792447,4.06654 2.786171,-0.99854 -2.671362,-1.38157 -3.1553,-2.27574 -1.519861,-0.74925 -2.946129,-1.44177 -4.637147,-1.7908 z m 100.766263,0.021 c -2.03491,0.88417 1.14065,1.79116 0,0 z m -113.857853,1.98764 c -1.196353,0.77487 1.953731,1.07855 0,0 z m 0.391553,1.09038 c -0.41225,1.05057 1.530232,2.1753 1.98938,2.58155 1.508622,2.92611 6.240192,1.44104 9.20435,2.11128 3.478981,-0.0572 7.041566,1.31496 8.948856,3.97542 3.387084,-0.24252 -2.43725,-3.75908 -3.952409,-4.22817 -4.484871,-1.74587 -9.749472,0.23987 -13.888995,-2.26038 -1.521566,-1.792 -0.670482,-0.38401 -2.301182,-2.1797 z m 84.80387,0.28621 c -0.48942,4.7641 4.67381,7.32582 7.08847,10.98224 4.19721,0.18895 -3.5567,-4.47961 -4.30183,-6.63711 -1.51826,-1.09311 -0.98458,-4.09503 -2.78664,-4.34513 z m -3.79438,4.95675 c 0.50284,2.44444 0.32436,5.53417 1.41872,8.41051 2.78732,3.70268 -0.46493,9.51051 2.18958,12.60003 1.07699,-0.62527 0.66012,3.71047 0.48625,4.5155 -0.36654,1.08649 1.0251,2.105 0.86932,1.92137 0.38161,1.46283 0.58698,2.89807 0.86029,4.63051 1.29069,1.3436 1.6865,0.81147 1.11489,3.22222 2.21634,0.2408 0.23607,-4.65173 1.14826,-5.60466 -0.63688,-2.25607 2.25085,0.44933 1.63322,1.75529 1.57206,3.17903 3.97488,2.51874 1.75213,-0.76204 -1.85493,-3.40573 -2.57492,-7.15338 -2.66876,-10.68026 -2.84475,-0.86452 -0.33141,3.85384 -0.66915,5.59947 1.16236,2.97165 0.003,3.18745 -0.89229,0.59837 -0.85072,-1.15916 -0.28977,-3.5908 -1.64177,-5.08221 0.84456,-2.27697 -3.7508,-0.58448 -1.3942,-5.22372 0.4295,-5.17683 -2.82453,-10.4438 -3.37112,-14.96198 -0.34888,-0.2797 -0.31888,-0.81979 -0.83537,-0.9384 z m 90.44715,5.27808 c -3.19417,1.70948 -0.30033,7.13658 -3.1185,9.09356 -1.07132,4.16585 -1.25798,8.89025 -1.40074,13.06184 -0.18476,2.80012 5.86289,3.84044 3.48001,6.53882 -3.56495,-0.88092 -3.9952,2.01662 -5.43261,4.47397 0.51971,2.17226 -2.25697,3.17949 -3.45926,2.75874 0.21528,-0.85572 1.34059,-1.52352 1.17353,-2.26893 -2.9412,2.41755 0.29647,-3.73871 -3.54653,0.93937 -2.8089,4.40389 -8.58256,2.34729 -12.34184,4.52838 -0.44969,1.59682 3.16458,-0.11006 3.47331,0.39012 -2.17779,0.98281 -5.0184,4.65755 -7.48176,1.74177 -1.55569,-0.79676 -2.52774,-5.39134 -3.83308,-3.59613 1.01923,1.96869 1.65691,4.13775 3.02018,5.91193 -4.19384,1.85451 -8.78805,3.53973 -13.17938,4.32649 0.13132,-2.31769 -0.75041,-4.7695 0.67721,-6.77812 -1.51163,-1.05788 0.0592,-0.54245 -1.29921,0.27299 -1.77775,2.97575 2.02641,8.7862 -4.78811,8.01023 -3.99954,1.15493 -2.58987,-4.71382 -2.38922,-6.94128 0.42819,-2.26985 1.12453,-5.29782 2.02332,-7.19896 0.51157,0.63841 0.89965,-0.60377 1.2473,-0.63964 -1.4856,-4.02252 -3.63321,5.03604 -3.48537,2.24047 0.2344,-1.14777 0.67619,-5.82357 -1.1937,-4.2085 0.47022,4.33662 -1.87666,9.02056 -0.99728,13.00753 2.49706,-0.48761 -0.92339,5.20871 1.17119,5.24661 2.87364,0.64779 3.72621,5.3111 6.43868,4.88689 1.8594,2.39675 -1.80567,3.73748 -2.788,5.56677 -1.37047,0.16439 -4.16782,3.50646 -1.75696,2.28058 0.9194,-0.27745 4.60249,-2.86273 2.44753,-0.71429 -2.5814,1.92712 -6.76723,8.50681 -7.60992,2.04204 2.40067,-1.38254 -2.83765,-3.78346 -1.23599,0.2389 0.40566,1.94189 2.07404,4.2797 2.25616,6.72891 2.27124,0.73871 1.18697,3.28429 1.52977,5.25888 0.0663,4.18378 0.88756,8.37633 1.56055,12.42795 -1.63841,-2.46041 -0.96202,-5.76753 -3.25929,-7.8335 -0.93239,-1.39581 -0.13725,-4.33697 -2.12716,-4.15258 0.31947,2.95805 2.35958,5.65096 2.22992,8.75129 -1.63245,-3.86781 -4.19044,-7.90637 -6.03216,-11.12998 0.36933,0.0475 1.79774,0.87369 1.75876,0.52118 3.69474,0.12813 -0.61534,-3.29552 -1.77328,-4.26138 -5.87213,-2.26811 5.70908,5.2178 -0.16854,2.54074 -2.34587,-2.26918 -3.73413,0.0518 -0.87601,1.68725 3.19343,3.93062 4.47002,8.7358 6.95741,12.91574 0.96868,0.93795 1.38826,4.5503 1.75551,6.33327 3.30437,8.21559 0.45138,17.09778 -1.13339,25.41152 -0.68044,5.55285 -3.93905,12.46438 -10.36751,12.36216 -7.28574,0.40226 -15.66048,-2.26353 -18.2153,-9.75199 -2.10088,-5.43765 -4.1385,-11.34106 -4.42063,-17.12981 -0.345,-2.34807 0.0124,-5.06427 -0.009,-7.33601 1.56409,2.5999 0.99941,5.6204 2.57513,8.37034 0.18003,1.50907 2.34769,3.37519 1.33114,0.51192 -2.18186,-5.21221 -3.16976,-10.8648 -2.98125,-16.5376 0.38524,-0.92893 1.77512,-4.01946 -0.13711,-3.29615 -0.94778,-0.14217 0.98299,-2.48571 0.70918,-3.17328 -0.2857,-1.1434 2.63955,-2.83492 -0.12633,-1.7862 -1.38494,1.64676 0.30586,-2.14957 -0.31979,-2.65498 1.12821,-3.32095 0.17938,-2.64262 -1.01146,0.39504 -0.79491,2.63467 -0.13591,7.16056 -1.85798,8.71819 -2.35481,-1.1173 -3.04513,2.83389 -2.94476,4.69551 0.82102,4.80126 -1.73749,8.86082 -1.63655,13.57056 -0.17876,3.80331 0.11018,7.30587 0.71993,10.91765 -3.14669,0.38458 -3.69001,-3.90325 -5.21314,-6.14916 -0.92992,-1.96197 -1.41908,-3.01386 -0.55817,-5.10797 0.63391,-3.89377 -2.04338,-7.06823 -4.40722,-9.58175 1.93196,-6.0125 3.28168,-12.37727 6.05711,-18.15648 0.62946,-1.58971 2.7297,-4.25892 -0.10339,-4.74812 1.4894,-1.11944 4.84034,-0.81135 1.71366,-3.21489 -1.10267,-0.65592 -3.64205,-2.50033 -3.97387,-0.50901 1.14297,0.40502 -0.88466,0.43797 -1.44502,-0.0684 -3.05024,-0.68397 -1.55041,1.72311 0.20021,2.08961 1.13617,-0.57724 2.57331,0.44923 3.41718,0.39619 -1.17948,3.16035 -6.83576,2.47526 -8.22987,0.89921 1.13693,-2.00465 0.54072,-6.47051 2.91633,-6.82979 3.95311,1.19467 8.41382,1.60982 12.5862,2.9357 1.53593,-0.15623 4.24262,0.67706 5.94046,0.18271 1.99816,-1.24616 5.24924,-2.54862 7.47372,-1.41838 1.78572,0.8571 4.18965,1.8023 6.05624,1.13119 -1.49922,-1.31667 -3.88617,-1.18007 -5.6575,-2.13199 2.5466,-1.35292 4.04016,1.75225 6.53375,1.63481 3.48296,1.25811 0.37165,-3.76982 -1.84906,-2.85386 -1.76199,-0.28008 -4.0868,-0.15027 -5.41916,-0.16979 1.5423,0.54399 -2.92495,1.08034 -1.6414,-0.37924 3.18384,0.85193 -2.40448,-1.72931 -1.40997,0.68455 -0.55052,0.19226 -0.003,1.47475 -2.82879,1.73861 -4.57567,-0.49705 -9.71794,-0.4231 -14.3369,-1.52867 -0.42043,0.11322 -3.84405,-0.30458 -4.05283,-1.08144 0.87713,-1.08279 2.5183,-0.78734 3.27476,-0.79062 -1.03062,-1.36929 2.93075,-1.22509 3.84021,-1.98911 1.71983,-1.34094 4.45501,-0.79059 5.67323,-2.36454 -1.1861,-1.82371 -3.85295,1.04728 -5.55247,0.9133 -2.90742,1.21222 -6.22288,2.3323 -9.06238,3.28971 1.67031,-3.27591 6.74366,-3.15563 9.93676,-4.39373 2.16402,-2.80041 -5.92204,0.79714 -3.42774,-1.97894 1.51687,-0.98447 -0.0906,-2.8333 -1.40811,-1.03289 -1.57868,0.68726 -2.56489,3.671 -4.23905,3.47521 0.67079,-1.80878 1.83577,-3.35295 3.27478,-4.22353 -2.07214,-2.68485 -3.28541,1.92061 -4.27921,3.3721 -1.22326,1.55659 -1.45535,3.90529 -3.26773,4.81587 -1.66639,-0.1376 -5.30212,-0.0874 -3.41315,-2.54384 0.40691,-4.18381 0.0106,-8.6777 0.13573,-12.84106 1.70844,0.87421 0.43333,2.50116 1.28715,3.84259 1.25418,2.81632 1.19328,6.31943 3.51392,8.43198 2.23252,-1.72155 1.44331,-5.44311 2.38992,-8.0579 0.14827,-2.35327 0.50704,-12.24014 3.1799,-6.98108 1.07826,2.7255 2.81399,5.79597 4.80412,7.21354 -1.72666,-3.11052 -3.1457,-6.4539 -4.77936,-9.53613 3.40518,-1.80507 2.23913,-6.28475 0.01,-8.16862 -0.22588,-2.38465 -2.8192,-0.12447 -0.83187,1.25057 1.25063,1.04792 2.51627,4.79833 -0.17522,5.40159 -2.54629,-2.32408 -2.7126,2.39937 -2.75679,4.12712 -0.59944,3.6703 -0.48079,8.17584 -2.27025,11.07427 -0.95514,-3.07465 -2.39738,-6.26471 -3.33101,-8.81965 -0.0463,-1.32332 -2.06024,-4.26067 -2.51792,-1.90634 0.13331,4.67768 0.49491,10.95055 -0.33539,14.73523 -0.62123,2.69971 -0.88821,-1.60931 -1.36308,-2.01878 -0.878077,-2.09417 -0.798788,-5.17561 -2.484859,-6.61955 -0.725527,2.57095 0.957992,5.15889 1.41074,7.87848 0.898329,1.96147 0.325292,2.91689 -1.68927,2.10498 -3.015353,0.31839 -1.758774,-5.04183 -1.913938,-6.74889 -0.922475,-1.46871 0.257544,-7.7639 1.594433,-3.59821 1.612342,0.44569 0.03211,-3.65386 -0.819952,-3.92977 2.179953,-1.33796 0.550655,-2.15925 -1.076375,-0.63213 -0.766404,1.13166 -0.971266,-3.11517 -2.150907,0.27218 -1.094538,1.37655 -1.387931,4.83648 -3.148359,4.8883 0.897732,-2.54112 2.901305,-4.79847 3.508852,-7.16818 -2.320348,-2.00377 -1.949203,1.61771 -3.267109,2.82452 -0.426016,1.1311 -1.802578,3.19144 -1.953668,3.89594 -1.069484,2.39079 -2.877653,4.70759 -3.807015,6.45843 -2.141557,3.88265 -4.376264,8.27645 -7.188624,12.1913 -0.923832,0.85014 1.036858,-2.25677 -0.676266,-0.54441 -0.788418,1.46791 -3.057832,3.58712 -1.554061,4.90521 -2.011515,2.81806 -2.499519,6.29385 -4.340423,9.41728 -0.542053,1.38988 -1.906475,4.80663 -3.213313,6.13143 0.694125,-2.47665 -0.919422,-0.74439 -1.139455,0.42199 -0.961123,3.0719 -0.367871,0.50076 -1.65081,0.44923 -0.392766,0.71779 -0.252633,2.10294 0.423535,2.54887 -0.615311,1.47423 -0.699339,2.69746 -0.0961,3.88971 -1.657674,0.52413 0.0175,2.68432 -1.497949,3.80706 -1.622617,3.79056 -3.034797,7.99195 -5.936765,11.03436 -0.107567,0.82781 -1.384828,2.4957 -1.76836,2.69048 0.353051,0.71124 -1.269243,2.46674 -1.777194,2.03154 -1.287393,-0.0779 -4.815463,-4.30511 -4.160399,-1.2615 0.87011,0.79843 2.860115,1.28914 3.439895,2.59944 -1.513942,2.23298 -5.040826,-4.15414 -4.912856,-0.54259 1.301621,0.25146 -0.06056,1.65502 1.354044,1.92822 0.156806,0.26462 2.705828,1.50547 2.925496,1.90613 1.15337,0.27005 2.110698,1.50601 2.308942,1.43478 0.535023,0.72893 2.032046,1.56318 1.891291,1.80564 0.584874,0.44791 1.687287,1.62969 1.359349,2.1574 -0.206717,1.13139 2.335168,0.80384 1.505056,1.43509 0.360284,0.23725 1.781354,1.1873 1.936818,1.3791 0.182361,0.80036 1.626915,1.10765 2.001979,2.00893 1.395129,0.0647 1.471676,1.86761 3.193943,1.94148 3.190096,-0.29793 -1.968991,-4.16286 0.702428,-5.50326 0.881341,-1.60906 3.887892,-3.99051 4.867982,-3.38336 -0.0029,1.9029 2.443296,2.65717 0.351185,4.03159 -0.848575,1.53051 -3.516068,0.99766 -2.071739,3.33812 0.597523,1.57501 1.347199,3.97956 1.450049,4.80168 1.196661,2.86758 1.487312,6.38142 1.975725,9.23007 -1.268383,1.2473 -4.519569,-0.49343 -7.106024,-0.0349 -0.846581,-0.81117 -4.339068,0.55797 -4.154663,-1.18261 -0.955467,0.97174 -1.418353,-1.53545 -2.658646,-1.55758 -1.103805,-0.65653 -5.046064,-3.42456 -3.330968,-0.71464 1.231716,1.08771 3.156514,1.70067 3.984228,2.96246 -1.326254,0.93573 -3.529271,-1.78938 -4.813151,-1.34811 -1.427599,-0.81987 -0.509402,-3.03316 -2.997922,-2.28351 -2.945368,-1.66078 -5.169608,-4.98856 -5.950626,-7.97404 -1.983683,-4.41004 -5.090866,-9.58755 -3.603001,-14.3525 0.774648,0.20702 0.629504,-0.75472 1.950734,-0.35011 -0.358078,-2.17564 -3.416665,-0.46413 -4.10866,0.47488 -1.566596,0.53121 0.143576,-2.74139 0.939375,-3.44702 1.346097,-0.94164 1.671398,-2.19793 3.522242,-2.8682 1.67393,-0.27984 1.369116,-0.603 2.907675,-0.54432 2.129688,-0.52111 4.162973,1.04414 6.040588,0.44206 -3.568896,-2.24306 -9.078464,-2.06261 -12.072095,0.82402 -3.127298,2.62541 -4.137419,6.74641 -3.801433,10.73514 -0.395767,1.47704 0.583876,3.34282 1.864709,4.07389 0.162922,0.6485 0.348459,1.39716 0.937605,1.45167 0.81691,1.27984 1.808977,2.54656 2.280853,4.17055 0.695945,-0.19457 0.648571,2.63188 1.722464,3.01455 0.323513,1.10173 2.155861,1.07505 2.031466,1.87256 0.887978,1.1357 0.984271,1.01135 1.457499,2.16673 1.336431,0.51768 -0.215471,0.76376 1.323842,1.61887 0.160721,0.63314 0.987056,1.50613 1.45487,1.65519 0.917413,1.30623 3.123991,3.0646 3.754313,0.47693 -0.418755,0.28442 1.836939,0.78142 1.376912,1.06331 1.349986,0.18377 2.735389,1.96767 3.581907,1.15831 0.656121,0.61097 1.858639,-0.0222 2.75045,0.92033 1.800674,-0.72414 3.043616,3.15255 4.406195,2.13478 1.369523,-1.2203 -2.334802,-2.07819 0.335119,-2.07532 1.139446,0.70467 2.59628,1.17557 4.112539,0.84416 0.618079,0.0917 1.407758,0.83338 1.70537,0.58686 1.378341,0.42528 0.951738,-2.24806 2.295862,-2.10304 1.159191,-1.96915 5.533085,-2.7728 4.637392,-5.43147 -2.687762,1.21367 -4.996928,4.2076 -4.582786,-0.73567 -0.227299,-2.77931 1.498487,-5.80489 2.670966,-8.34246 2.303927,-0.24148 1.746662,-3.69541 3.124737,-4.93892 0.645123,-1.21016 0.631411,-2.5388 1.83426,-3.95799 2.32219,0.0793 1.60301,-3.54416 2.590255,-4.89747 0.223688,-1.14645 1.074635,-2.83142 1.266172,-3.24947 1.583328,-2.03279 0.195783,2.6685 1.887883,2.66601 1.609646,0.88134 3.123298,-0.0234 4.14577,-0.87043 2.499703,-0.54819 4.330449,-0.7463 6.207847,-2.56461 3.8874,-2.54231 6.39027,-8.299 5.33816,-12.28436 1.54599,-2.97759 0.86513,2.52848 1.45107,2.90233 0.0477,1.37442 0.88888,3.35994 2.68519,2.84113 2.07239,-1.91009 3.08835,2.00794 4.14,2.92579 1.46935,1.18679 -1.11899,2.06339 -2.80069,1.43926 -1.11711,-1.05323 -5.04853,-1.17634 -2.51095,0.48502 0.43215,0.10361 2.52384,1.54349 2.41428,1.12283 2.35652,1.3975 -2.80234,-0.0178 -2.98863,1.41541 -0.84384,1.58137 2.85908,1.72334 3.48386,2.57653 1.97089,1.06302 4.48726,1.43033 6.38974,2.0567 -2.77491,0.8181 -6.35636,-2.17974 -8.30374,-0.3272 0.8302,1.36561 2.87961,0.82988 4.32893,1.44486 0.23695,-0.21628 1.78819,0.84198 1.29093,0.18374 2.35544,0.87678 5.33938,0.5066 7.58594,1.07078 1.17496,3.23647 3.08761,6.16733 4.88463,9.07153 2.34748,2.48846 5.78486,5.23336 8.66661,6.88425 -2.25108,2.9462 3.9701,0.12911 4.63945,1.26953 2.73534,0.52562 6.50746,0.11089 9.42789,0.31664 1.46459,0.31532 3.98584,0.21106 4.99535,0.4788 3.47031,0.20903 6.5213,0.35238 9.94693,0.1957 2.50008,0.2596 5.72786,-0.42095 7.86579,-0.41463 0.32086,-2.46563 -5.09977,-0.071 -7.01298,-0.81312 -4.64093,0.0894 -10.1761,0.25231 -14.39172,-0.73552 3.20857,-0.98232 4.25702,-4.14481 5.86494,-6.55388 4.16887,-3.63153 4.64998,-9.50548 6.01645,-14.4722 -0.0332,-1.42409 0.9954,-2.92955 1.02309,-4.19814 1.37368,-7.87602 -0.7573,-15.79017 -2.24051,-23.30628 2.49011,-0.99533 2.33775,-3.84973 3.55442,-6.11639 1.82903,2.07928 0.73104,9.39702 0.68999,13.46049 -0.58513,1.70423 -1.11508,5.84366 1.64548,2.70764 1.13144,-1.55911 1.29134,-3.63653 2.74212,-5.19617 0.87619,5.68025 -2.49856,10.99612 -2.86962,16.36851 0.70112,1.07324 2.77936,-1.32219 2.55854,-1.69154 1.66156,-1.97027 2.67232,-4.99278 3.9372,-6.81266 0.42414,4.19543 -1.47802,9.39378 -2.47027,13.75743 -0.60962,3.14893 -3.1699,6.46082 -1.68962,9.37577 2.21104,-0.15165 2.68744,-3.5078 3.86989,-5.1892 0.38334,-1.27679 0.5835,-0.71576 1.68405,-0.1554 3.07464,1.21091 -0.34988,5.92622 0.0159,8.486 0.96592,2.11903 2.48913,-0.1903 1.74559,-1.38364 0.19898,-1.26608 0.78998,-4.02497 0.97113,-4.74572 0.94557,1.0877 3.77273,1.65182 1.80145,3.72621 -3.17441,3.09749 -1.51032,5.98897 0.62158,1.76992 0.60443,-2.31337 2.09847,-3.60837 4.24731,-4.37216 0.66211,1.16035 -0.25296,6.24156 -1.39413,7.73633 0.0506,3.17683 -2.84236,2.512 -5.23101,1.57988 -5.15837,-1.10885 -9.16644,-4.74317 -13.44825,-7.46464 -1.57063,1.03977 1.47226,2.58815 2.22647,3.4136 1.63462,0.48728 2.21812,2.41197 3.89614,2.66906 -0.68506,0.33575 2.77627,0.98621 2.79753,1.4389 0.89942,0.67657 4.01814,1.60131 3.84542,2.45665 -2.53228,-0.22342 -2.71356,1.40483 -0.78328,2.68312 2.40992,1.77413 5.43698,3.8389 8.43439,4.63987 1.15687,0.19477 0.99208,1.06463 2.04793,0.0691 -0.0925,-1.34125 -4.61487,-1.80098 -1.63293,-1.92975 2.77027,-0.35818 4.46161,1.20237 6.82083,0.95335 1.21848,-2.37209 2.28463,-5.13758 3.18307,-6.89534 0.74476,-2.17077 1.30893,-4.14392 2.66482,-5.73507 0.87031,-1.81103 2.39993,-3.39438 3.62587,-3.52746 1.69239,-0.99433 2.01013,-2.15692 2.73358,-3.82756 1.27879,-4.30301 1.68017,-9.05419 2.18485,-13.60834 -0.64321,-4.34697 -6.57537,-4.22881 -9.97731,-4.97155 -1.45008,-1.59841 -4.67396,1.39285 -3.99973,-1.60147 0.32093,-2.68861 -2.54189,-5.2875 -4.88451,-2.99558 -2.66543,1.14537 -3.37971,4.10211 -4.52727,6.31577 -0.60579,-1.87555 -1.73826,-3.99936 -2.58083,-5.51155 3.30886,1.06232 3.28132,-4.55439 4.55136,-6.6617 1.19817,-3.40446 2.28179,-6.64722 3.27472,-10.0669 1.64563,-0.76378 2.17586,-2.29638 4.03448,-2.66706 2.98896,-1.66015 5.0694,-3.61617 8.24353,-4.87099 1.98262,0.754 -0.0472,2.21751 0.15136,3.4034 -0.11252,6.21699 -2.09389,12.30369 -1.59258,18.37493 2.10498,1.76278 5.46613,0.74707 7.89697,0.52488 0.64663,5.73711 4.02073,10.82102 8.38973,14.19987 1.70597,1.69895 4.09104,1.60587 5.94586,2.92141 1.58727,0.46132 3.53892,0.52196 4.74177,1.09659 2.42205,0.23722 3.93989,-0.54774 5.86115,-1.40428 0.19357,-0.58161 3.07303,-0.31275 4.05793,-0.56574 1.24784,-0.52913 4.47169,0.67284 4.97257,-0.90629 -3.27123,0.36492 -11.18238,-0.47052 -3.97525,-1.90702 2.13788,-0.29524 4.3923,0.18281 6.25492,-0.81885 0.65579,-2.07887 -3.38832,-0.0528 -4.26333,-0.38049 -5.17989,1.47241 -2.30281,-1.67977 -1.64894,-4.05812 0.8322,-4.89825 4.79128,-8.77106 4.9158,-14.03742 0.33843,-2.97607 -0.15332,-6.15621 -0.35828,-8.84822 0.18072,-1.49868 -0.17302,-2.79385 0.55649,-0.87085 3.19748,-0.20634 -0.88522,-7.12079 0.11954,-7.71693 -2.03477,-3.20292 -1.22537,-7.82704 -2.95523,-11.4079 -1.36987,-5.1248 -3.62353,-10.31108 -8.89936,-12.44568 2.05779,-3.10841 5.39962,-8.98517 2.74185,-13.34749 -1.85493,-2.46268 -5.64154,-1.62728 -7.7293,-0.76408 -3.14308,3.85265 -1.78683,9.82398 -0.23825,14.14522 -1.99733,0.63845 -0.18985,1.72383 -1.45753,1.96149 2.64111,-1.60839 6.84215,-1.65039 9.13991,1.05415 3.11376,2.65759 4.79135,6.72759 5.4815,10.61974 -1.49136,-1.09819 -1.63569,-4.45103 -3.3309,-4.66884 -1.23032,4.96078 5.51381,8.07109 3.86457,13.38305 -1.29033,9.11263 -3.81975,17.91399 -5.57885,26.92293 -3.08173,6.61424 -12.98417,10.27622 -18.42941,4.0175 -1.72629,-2.17989 3.15356,-3.04346 1.25021,-3.92983 -2.30356,-0.68938 -2.55231,4.09853 -4.09506,0.47065 -3.17009,-6.70517 -2.2762,-14.57776 -2.75122,-21.76088 -0.4757,-3.11484 1.49629,-6.42307 0.79703,-9.05666 -0.1965,-0.50876 1.62915,-2.69663 1.75275,-0.40925 2.07895,5.5652 4.70665,11.23187 8.23138,15.97124 2.96419,2.00925 6.39224,-1.46539 4.27888,-4.42659 -2.31201,-6.2272 -4.98085,-12.41263 -7.77651,-18.4716 -2.71038,-0.15456 1.21366,4.55163 1.67333,6.27891 1.46571,4.05357 3.81766,8.305 4.19157,12.41799 -3.92857,-0.81444 2.57016,2.223 0.31823,3.3151 -3.77094,0.33049 -4.12253,-5.06699 -6.25447,-7.32021 -2.28052,-4.04321 -3.6315,-8.7363 -4.99715,-13.07582 -1.99034,0.053 -0.17156,2.56487 -0.26693,3.81555 -2.29387,0.45273 -2.15355,5.54113 -2.71979,7.86446 -0.0326,8.40132 -0.87404,17.25685 2.28635,25.16328 1.97772,1.90351 1.86556,2.45623 0.63037,4.39314 1.74016,3.88459 -0.68504,0.5567 -1.58565,-1.20434 -3.48199,-6.70892 -1.32796,-14.05141 -2.81435,-21.3386 0.0671,-3.97159 -1.96721,-9.33877 1.32244,-12.463 1.70552,-0.55021 -1.02592,-0.50614 0.27951,-1.84078 0.44824,-0.82341 0.52289,-2.30787 1.32158,-3.09967 0.85936,-3.58304 2.99237,-7.51145 5.83292,-9.37624 -0.43047,0.45378 -2.84851,0.40615 -1.20313,-0.41484 1.29826,-1.83858 4.34309,-2.39292 5.04272,-4.38104 -5.26965,-0.0902 -9.22622,5.38894 -12.6913,9.03071 -2.42535,2.69275 -1.96494,7.24085 -5.57855,8.5879 -2.21349,1.39334 -5.68994,2.51335 -7.49045,3.24827 1.37234,-1.5514 1.53179,-4.0813 3.2354,-5.74083 0.8801,-1.39286 1.32655,-3.47219 2.4547,-4.30539 0.9573,4.11331 1.74198,-0.7828 0.48781,-2.34589 0.0464,-1.62066 1.61766,3.01639 2.7485,1.20162 -1.45941,-3.48928 -4.28017,-6.67078 -5.81032,-9.69132 4.18031,0.47587 8.71287,1.39786 12.76534,0.63326 -1.28555,-1.88425 -5.43289,-0.61281 -7.15516,-2.80621 2.56051,0.42887 6.17654,2.31314 8.88528,1.64808 -1.59496,-0.38722 0.1612,-1.73409 -1.56998,-2.06301 -1.40271,-0.89343 -5.33043,-1.24649 -6.03121,-2.03927 2.97954,-0.27863 -2.00403,-1.18245 -2.91647,-1.14314 -4.51144,-1.31853 -9.29899,-0.15225 -1.67338,0.68129 5.64796,-0.16241 2.29757,3.51522 -1.45041,1.25893 -2.92172,-0.73408 -0.50416,1.48874 1.19424,1.09704 6.02381,1.74818 5.04443,3.3827 -1.5523,1.84542 -1.73867,0.12248 -3.97017,-2.05598 -4.5422,-3.11899 -0.92684,-0.67594 -2.45367,-3.01855 -1.21847,-4.63936 1.5654,-2.99292 7.47076,1.06457 10.71593,0.49712 4.83469,0.22106 9.68009,1.62466 14.31049,2.20239 -0.009,-1.40489 -0.78377,-1.21434 1.65062,-1.50617 1.4314,-2.36902 -6.82326,-1.26948 -9.06719,-2.64249 -3.96476,-0.91758 -7.67633,-0.60595 -11.55355,-2.1583 2.44024,-0.45267 6.12,-0.15342 7.92813,-1.73936 -3.4638,-0.59195 -3.00761,0.46079 -1.78741,-1.80212 1.48299,-3.03571 2.31576,3.35474 3.33264,-0.97634 1.72632,-1.58705 2.83477,-2.45943 0.4864,-3.43976 0.28515,-1.66232 -1.41349,-4.56733 2.07219,-4.2018 4.0258,-0.36437 2.7922,-4.87493 -0.1593,-5.96335 -2.6849,-2.02312 1.7085,-2.70487 3.34677,-2.48115 1.27846,-0.5954 5.84521,0.36151 1.55405,1.02021 -2.14323,0.16568 -6.22184,2.69776 -1.31363,1.64876 4.95756,-1.62525 10.93132,-0.83525 15.28317,-3.78066 -2.74627,-0.20842 -5.6067,1.36071 -8.45996,1.18846 0.58507,-2.66619 4.89038,-1.99734 7.34345,-3.19709 3.0594,0.19508 4.99177,-2.21687 7.95914,-2.28299 -1.69918,1.48432 -0.2749,5.0243 2.57417,3.67853 2.64336,-0.53511 6.73539,-1.0351 8.3037,-3.71982 1.04115,-2.49957 -2.09057,-4.44564 -2.81266,-6.04119 -1.35722,-1.09026 -3.11162,-2.35171 -4.49385,-1.86647 -2.48917,-1.20044 1.06283,1.27963 2.0159,1.74886 1.37736,2.07024 4.18785,3.10091 3.88041,5.91383 -2.24977,3.07665 -1.46067,-4.83972 -3.11662,-2.0752 -1.98953,1.00065 -3.37434,-0.97399 -4.97488,-1.59889 0.37279,2.06439 2.06687,3.07258 3.70843,3.75577 3.52468,2.64688 -3.83494,2.38334 -3.36244,-1.0886 -1.46386,-2.67944 -4.40039,1.64803 -6.93942,0.50865 -4.94377,2.11682 -11.38985,1.62227 -16.7336,3.61045 -2.03136,0.47851 -6.37058,3.1842 -5.1079,-0.93198 1.79728,-3.54054 0.75995,-8.13987 2.71685,-11.59919 -0.019,-2.05793 0.78292,-6.90301 3.30821,-3.47307 2.89386,0.34106 4.66752,4.76376 7.59253,4.31166 -0.33593,-2.08287 -4.91943,-3.16923 -6.21393,-5.40275 -1.15976,-1.24891 -3.06283,-1.42638 -4.51591,-1.98104 z m -70.67808,5.54145 c -1.58793,2.15946 3.72918,3.40076 4.75665,5.25371 3.49997,1.23433 4.64136,7.08527 8.91815,5.7311 -1.57511,-0.0507 -3.06459,-1.89507 -4.1929,-3.49799 -2.68426,-3.00377 -6.45308,-4.63672 -9.4819,-7.48682 z m -3.60826,0.65142 c -0.98053,1.56867 2.51483,6.64003 -0.94996,5.38514 3.81501,2.1263 -0.13971,5.28287 0.9637,6.43707 -1.0488,2.43097 4.79092,5.10671 4.02442,3.35721 -2.61322,-0.75459 -2.36372,-3.21453 -1.61905,-4.95868 0.0912,-3.2149 -0.27009,-8.0263 -2.41911,-10.22074 z m 53.32329,0.58996 c -3.5564,0.46138 2.43463,1.38803 0.009,0.51398 0.16874,-0.10528 0.47831,-0.5778 -0.009,-0.51398 z m -27.74764,0.0193 c -1.51291,2.80737 5.54145,5.76961 2.36688,8.28417 -2.7349,1.61051 -6.03726,1.67142 -8.82138,1.32719 -1.55803,1.3028 -5.77532,2.99265 -3.21135,5.06074 3.21535,-2.46896 7.24069,-3.69272 11.25183,-2.4172 2.09245,2.19857 4.8114,5.88761 3.47301,8.87422 -0.39972,4.60368 4.0191,-2.32786 0.97274,-4.65126 -2.54171,-2.64563 1.18759,-1.69867 2.98885,-1.92815 1.28738,0.39 1.85464,7.91672 2.82869,3.7312 -0.15288,-2.76884 -0.49016,-6.29111 -4.46297,-4.71127 -2.41278,1.68113 -4.93027,-1.44858 -1.73634,-1.79134 -1.76318,-0.63688 -4.64583,-0.68493 -5.82428,-1.45242 2.20454,-0.65979 6.88058,-2.42329 3.95241,-5.14124 -1.73803,-1.38346 -1.75148,-4.53948 -3.77809,-5.18464 z m -88.686041,2.57759 c 0.160051,3.34939 -0.336985,7.46332 -2.85164,10.30345 -0.810983,0.96915 -2.269399,3.51943 -2.828827,3.92242 -3.331219,4.51658 -8.864568,8.09522 -14.01734,10.62904 2.118736,1.73976 6.278514,3.19317 8.87756,1.32367 -1.537774,0.24125 -6.318667,-0.0441 -5.297341,-1.8489 4.131518,-2.76293 9.207906,-5.71915 11.735911,-9.77114 2.998181,-3.91701 7.210562,-9.3364 4.91645,-14.50652 0.484284,0.5133 -0.593461,-0.2286 -0.534773,-0.0521 z m 172.590921,0.20017 c -4.00078,1.90627 1.14839,0.71539 1.41156,2.4161 -1.52951,-1.3241 -2.77724,-0.57374 -0.60071,0.8697 1.59766,1.3953 -1.02355,4.50771 2.88846,2.46349 -0.4881,-2.23137 -0.0533,-6.67854 -3.69931,-5.74929 z m -54.43826,3.29221 c -5.36694,0.98397 7.20935,2.96141 0,0 z m 3.59246,3.37122 c -3.05473,1.35096 1.94508,7.51503 0.86915,2.94806 -0.84973,-1.86174 1.4648,-2.17598 -0.86915,-2.94806 z m 3.54505,0.89197 c -2.52641,0.82021 1.47326,5.65723 1.29888,2.51262 -1.29274,-1.21794 1.06276,-2.30709 -1.29888,-2.51262 z m 36.90965,0.40209 c 1.0725,0.25473 -0.85516,0.79878 0,0 z m -17.20378,1.09038 c 1.14928,0.0476 -1.36243,0.34549 0,0 z m -1.34674,0.27215 c 0.45831,0.17629 -1.18585,0.4699 0,0 z m -1.77691,0.33889 c 1.25361,0.11415 -0.8585,0.40471 0,0 z m -89.42175,1.13076 c 1.00199,0.76177 0.55113,4.23168 -0.0672,1.28801 0.74465,0.0337 -0.37692,-0.85753 0.0672,-1.28801 z m 76.18793,0.23352 c -1.57742,1.63044 0.93656,1.58434 1.69667,3.0165 2.32768,2.30253 -2.65085,7.32883 2.17551,3.69096 1.49118,-2.53807 -1.90179,-5.73867 -3.87218,-6.70746 z m -40.05613,0.9587 c -2.02111,1.64027 1.79563,4.33751 0.71799,6.79214 -3.37159,1.92631 0.47465,3.3896 1.28883,0.47572 0.68229,-2.46663 -0.88086,-5.4236 -2.00682,-7.26786 z m 29.85642,0.12993 c -2.49123,1.04789 1.92348,1.26877 2.37375,2.88171 1.95588,2.14018 1.11469,4.63749 -1.87547,4.57086 -4.93334,0.90273 -1.93367,2.95323 1.56441,0.48284 1.95814,0.76772 2.27234,2.10042 3.53824,-1.60313 -1.75874,-1.85098 -1.21382,-5.68001 -4.76565,-6.21603 l -0.83578,-0.11589 z m 26.98736,0.14925 c 1.49633,0.19322 -1.99545,0.20799 0,0 z m -4.79698,0.12993 c -1.14628,0.0321 0.48193,0.39542 0,0 z m -0.86738,0.31078 c -0.49764,0.57403 0.68433,0.14035 0,0 z m -14.19251,0.43896 c -2.24254,1.19898 3.90524,3.13742 1.27462,5.57668 -1.00441,0.0948 -3.7108,3.12207 -1.29039,2.86391 3.51954,-1.26158 4.36977,-6.26584 0.76503,-8.05307 l -0.74975,-0.38804 z m -41.11489,0.81648 c -2.41065,1.55504 -6.68661,2.02931 -10.09485,2.64978 -1.91531,-0.74113 -12.20645,2.80484 -6.4545,3.06558 3.59298,0.55689 -2.19479,-0.13095 0.38264,-0.88714 2.32536,-1.3642 5.92756,-1.14993 1.40998,0.0684 3.85478,0.60269 7.1101,-1.31953 10.69329,-2.20764 2.51208,-2.61411 7.1282,0.25749 3.847,2.4863 -4.57977,1.73129 2.06744,0.91345 1.5153,3.12538 1.56542,-0.39121 0.83611,-2.59428 2.09461,-3.45943 -1.76086,-0.72517 -1.11389,-4.2839 -3.39347,-4.84122 z m 32.35849,0.0615 c -3.65428,2.63889 -9.25242,1.38334 -12.56485,3.66451 2.00302,2.7103 3.59746,7.10731 7.65729,4.50898 2.0566,-0.90609 4.01444,-1.91087 5.99433,-2.87301 -3.29419,-0.31047 -6.73863,3.31376 -9.7801,1.8367 -1.68888,-2.18072 -3.18834,-4.24506 1.09923,-3.80696 2.93582,-0.45434 5.97869,-0.87962 8.46339,-2.61668 l -0.45476,-0.67951 -0.41438,-0.0351 z m 33.44009,1.38887 c -1.81908,4.08527 -0.20343,9.62823 -0.93788,14.13808 -1.26013,-2.27939 -1.60341,-5.99664 -3.54737,-8.24126 -0.49358,-2.10528 -1.86014,-4.04021 -3.76098,-4.87023 -3.03408,0.57374 0.39196,6.44329 0.009,9.12513 0.73703,2.98762 -1.04518,7.98039 2.06309,9.54302 1.59197,-2.50021 -0.14569,-6.22429 -0.208,-9.25038 -0.22296,-2.36617 -1.16444,-4.71447 -1.13062,-6.86445 2.05739,2.45141 1.90047,5.3335 4.12623,7.72928 -0.21737,4.19713 5.02388,4.59481 4.51096,0.27216 -0.28599,-3.57183 -0.53159,-7.33125 -0.0405,-10.98024 -0.34481,-0.56499 -0.23378,-0.62522 -1.08363,-0.60111 z m -114.96053,4.94453 c 0.67094,0.12639 -1.44686,0.26957 0,0 z m 44.24558,0.21246 c -3.02927,1.17293 -6.88255,1.20365 -9.45021,2.88649 2.45488,0.64923 6.33504,-0.29936 8.89336,-1.17832 0.82446,-0.0147 2.48221,-1.7832 0.55685,-1.70817 z m -45.21832,0.12816 c -0.78756,1.07116 -3.11835,2.01187 -4.34229,3.20134 0.33378,-1.66042 2.85547,-2.43436 4.34229,-3.20134 z m 23.11397,0.0123 c -1.62991,-0.49213 -9.03926,2.3665 -4.58803,2.41249 1.06311,-0.98939 7.04401,-0.75795 4.58803,-2.41249 z m -11.90289,1.04999 c -2.09966,-0.22232 -0.8339,2.79125 0.54242,1.15206 3.36593,0.58904 5.56045,4.94159 3.46657,7.52615 -3.03338,-1.25205 0.0919,2.96299 1.62407,0.37352 2.83665,-3.62449 -1.67389,-9.19686 -5.63306,-9.05173 z m -50.619295,2.57583 c -2.576063,-0.85551 -2.224349,3.86164 -0.870758,1.84416 -1.553937,0.57204 0.496581,-1.00023 1.395647,-0.33854 1.66098,0.57913 2.049334,1.53091 3.695965,2.41877 1.352732,1.42957 4.422393,3.24461 5.307903,4.02496 1.771373,0.48024 4.600303,-1.59518 5.378241,-3.07262 -2.225205,0.70218 -4.579306,3.32759 -6.573934,0.57922 -2.803248,-1.75638 -5.009747,-4.61739 -8.333064,-5.45595 z m 136.945485,0.7199 c -0.0207,0.25866 -0.31134,0.72314 0,0 z m -75.15725,0.23703 c -1.56512,0.1434 -6.62125,2.5089 -2.49857,2.24924 0.81778,-0.28125 6.57176,-1.84068 2.49857,-2.24924 z m -12.89845,0.30903 c -1.13783,1.31046 -0.0559,2.46944 0.52656,3.91614 1.37142,2.73626 -1.32644,3.86252 -2.91827,3.81907 -0.87916,2.91397 5.18169,0.83862 4.74254,-1.58554 -0.0874,-1.82222 -0.84162,-5.26837 -2.35083,-6.14967 z m 23.47216,0.49164 c -0.80126,0.73386 -0.96335,2.69713 -0.77136,3.20664 -1.17624,6.41518 2.61254,12.84281 1.79266,3.40635 -1.19738,-1.78181 1.31642,-6.54689 -1.0213,-6.61299 z m 37.04133,0.12115 c -0.31766,0.53764 0.96232,0.11992 0,0 z m -44.50193,2.51965 c -0.86229,2.85196 0.66722,6.48028 0.54034,9.69093 0.41399,3.20956 0.53147,6.99803 -0.44582,9.7873 -2.45551,-0.7303 -4.6884,0.75683 -0.94805,1.02203 2.19882,-0.67551 0.6454,4.13896 3.1378,1.94205 0.045,-7.08434 -0.37348,-14.74741 -1.4682,-21.81383 -0.40862,-0.0408 -0.37105,-0.66393 -0.81607,-0.62848 z m 68.72734,0.0895 c 2.79781,0.14124 -1.26672,0.5514 0,0 z m -8.65807,0.1826 c 1.64931,0.40733 -2.43845,1.12604 -0.24007,0.12292 0.20496,0.0961 0.12027,-0.1023 0.24007,-0.12292 z m 6.11035,0.83052 c 4.04779,-0.33571 -3.33412,1.8199 -0.56519,0.28804 l 0.56538,-0.28796 z m 30.3814,1.11145 c 4.57102,0.91093 2.70781,7.49399 0.78833,10.18066 0.01,4.18446 -7.36887,2.20412 -4.40491,1.29372 2.18143,-1.02088 2.25579,-5.08625 1.72982,-7.08334 -0.75559,1.33024 -0.86652,4.97866 -1.9293,5.55201 -1.08133,-3.16154 0.25825,-7.17841 1.85771,-9.47483 -0.521,-0.30465 1.95519,-0.49083 1.95835,-0.46822 z m -34.37245,0.24406 c 1.26117,1.09065 -3.18541,1.02405 -0.45689,0.0684 l 0.45651,-0.0685 z m 30.20407,0.26513 c 0.80373,2.48936 -2.18393,3.83663 0,0 z m -30.55523,1.88051 c 4.33682,0.71095 8.70409,1.52144 12.74045,2.92361 -4.61949,-0.63635 -10.48777,-0.60248 -14.42252,-2.31603 0.19138,-0.80674 1.13186,-0.45636 1.68207,-0.60758 z m -8.50006,2.13863 c 1.5895,0.70634 -0.62118,1.23092 0,0 z m -3.33961,0.84456 c 3.35366,2.72077 6.90883,5.82325 7.86271,10.18783 3.21486,3.7855 0.81984,-0.33158 0.0157,-2.67596 -0.656,-2.43951 0.11793,-2.28163 1.62561,-0.20393 2.13714,2.84787 4.56591,6.01945 5.11491,9.52028 -2.28121,5.32625 -5.55969,10.10831 -8.19149,15.26399 -2.04877,0.34676 -6.56043,5.01598 -2.54045,3.10438 1.95912,-1.10037 -1.35626,2.82868 -1.62591,3.88217 -2.9603,3.56814 -6.05875,8.17378 -8.36312,11.241 -4.53826,-5.09075 -7.90378,-11.45123 -11.78803,-16.87504 -1.96775,-2.51472 -4.55132,-5.96283 -6.3037,-8.66993 0.76792,-1.83604 1.91329,-4.14034 3.76091,-4.76982 -0.87814,1.67637 -4.4288,5.32979 -1.56284,5.8242 3.36785,-3.49217 6.97149,-7.4659 7.90504,-12.3612 -0.77196,-2.4625 -3.43895,2.40035 -2.28579,-0.18438 1.6428,-0.8141 0.53773,-2.56064 -0.014,-3.72148 -0.18993,-0.64177 -0.24076,-1.87003 -1.46936,-2.42915 0.0316,-0.47443 2.10311,-0.48765 1.29775,-1.30002 3.24179,0.18384 4.8373,-0.94507 0.87796,-1.31012 -1.11487,1.47514 -6.71863,0.44644 -3.08119,-0.25694 1.26181,-0.0993 2.72627,-1.31049 3.87738,-0.60593 0.99411,-0.90572 4.47964,0.20076 6.22452,-0.90151 2.89623,-0.90256 5.72033,-2.23973 8.66335,-2.75844 z m 2.31771,0.0404 c 1.23832,0.10806 1.7663,2.71744 0.69123,0.95345 0.0615,-0.26289 -1.29445,-0.95559 -0.69123,-0.95345 z m -39.60488,0.47759 c -1.31179,0.52086 -0.34601,1.10018 -1.63148,1.49793 -3.71156,4.38349 -5.1796,12.23513 -0.35994,16.38284 3.70394,3.25797 9.09857,0.58165 10.31318,-3.55568 0.9922,-3.37388 3.70847,-7.61739 0.0325,-10.56025 -2.44016,-2.72073 -6.38275,-2.7401 -9.34881,-1.58513 -0.053,-0.89373 2.2632,-1.60821 0.99463,-2.17971 z m 46.61948,0.76731 c -0.77094,0.23422 2.20716,0.75954 0,0 z m -4.37381,1.40112 c 4.06088,3.24642 -0.91427,1.79906 0,0 z M 150.3876,173.002 c 4.86938,0.16878 7.7239,5.30867 5.45901,9.75236 -0.70775,1.62542 -1.26458,2.12041 -1.81803,3.75889 -0.68473,1.27767 -3.70652,3.20862 -4.70056,2.28278 2.35233,-0.99825 -4.39634,0.20959 -4.22283,-2.86024 -1.64562,-3.34055 -1.12657,-8.26911 1.9227,-11.00458 -0.2114,-1.15915 2.46004,-1.73421 3.35971,-1.92921 z m 55.33551,1.94723 c 2.47536,0.69261 2.50863,1.18352 -0.3003,0.58826 -0.18238,-0.37124 0.0226,-0.43847 0.3003,-0.58826 z m -110.836053,0.50393 c 0.765845,2.01711 -0.909189,5.24245 0.09685,7.58903 -0.872424,1.58104 1.476336,5.45975 -1.566663,4.18149 -1.737326,-0.30096 -2.378839,-4.62505 -1.459205,-5.44156 0.308246,-1.39762 -1.466388,1.28129 -0.333729,-1.06538 0.769721,0.62925 -0.06715,-0.84237 1.043373,-0.79244 -0.403749,-1.44616 1.630312,-2.75663 2.219377,-4.47114 z m -4.619632,3.05868 c 1.090298,-0.2296 -0.505371,2.17609 -0.890071,2.28109 0.165896,-0.28829 -0.127231,-0.84473 0.214072,-0.9072 -0.162387,-0.44859 0.53621,-0.97942 0.675999,-1.37389 z m 75.643615,4.57047 c -1.7864,1.17516 1.52364,0.0405 0,0 z m -75.380237,1.43277 c 1.183712,0.95931 -0.2153,0.85433 -0.06148,0.15268 l -0.09657,-0.10184 c 0.0051,-0.0524 0.152116,-0.10646 0.158056,-0.0508 z m 77.079907,0.0579 c -0.0294,0.40545 -0.35264,0.70175 4.5e-4,2.5e-4 z m -0.58646,0.54431 c -0.66482,1.59651 -1.50818,0.48441 0,0 z m 1.65752,0.40911 c -0.46948,1.10195 -2.10678,3.32616 -2.91456,2.99035 0.56761,-1.34323 1.96108,-2.0358 2.91456,-2.99035 z m -78.714594,0.40912 c -0.0062,1.32007 -0.788358,0.34315 0,0 z m 128.812394,0.40735 c -1.3344,0.58059 0.94243,0.47149 0,0 z m -133.45134,0.40911 c 0.01518,0.50919 -0.488651,2.50865 -1.17859,2.34967 -0.509913,-0.72819 0.857084,-2.16235 1.17859,-2.34967 z m 142.82932,0.0246 c -0.83106,3.73768 2.53425,7.81812 2.88306,11.92744 1.54591,2.18546 -2.34219,6.54256 1.7225,5.34102 2.57003,-0.89468 4.69944,-7.04918 1.55203,-7.49922 -2.75389,1.3658 2.06238,1.12056 -0.32132,3.40321 -0.20274,1.14135 -1.60707,3.60835 -1.28725,0.83231 -0.23635,-4.5845 -2.98388,-8.74482 -3.51564,-13.32146 -0.23792,-0.29929 -0.619,-0.6755 -1.03338,-0.6833 z m -17.00712,0.0439 c -0.53802,2.07615 -3.06133,4.20852 -3.57512,6.68864 -0.60858,-1.51336 1.63422,-4.7557 2.97116,-6.07551 -0.0134,-0.48844 0.39792,-0.45916 0.60396,-0.61313 z m -124.477221,0.27216 c 0.380385,0.50395 -1.209935,0.54882 0,0 z m 1.582017,0.453 c -0.664886,0.84824 0.336924,3.36362 -0.136591,4.64853 0.823168,5.92276 0.496995,11.72955 0.731738,17.33997 0.410918,6.06016 -0.379509,2.52308 -0.94804,-0.57806 -1.230859,-5.184 -1.089126,-11.15423 -2.891899,-15.89653 0.676712,-1.93012 1.668051,-4.21373 3.244792,-5.51391 z m -2.098236,0.0913 c 0.982879,0.24549 -0.807011,0.80253 0,0 z m 4.328161,0.0685 c 1.438167,0.12652 0.435706,2.14098 1.353627,3.78165 0.485769,2.21533 0.489551,4.59949 0.86065,6.981 0.812218,2.73209 0.778239,6.17409 1.051393,9.17619 3.24533,1.42987 1.770301,-5.56091 1.259058,-6.48466 1.359256,-3.26779 0.814635,-8.32648 1.070652,-11.92629 0.0175,-1.97344 3.387182,-0.0117 4.275399,-0.013 0.37895,0.65555 0.24322,0.0886 0.6176,1.35472 0.0941,2.84114 2.87874,1.85404 2.44947,-1.00555 1.37182,0.31214 3.50223,0.46907 2.56726,2.24052 -1.72439,3.74649 -4.14583,6.16942 -6.023628,9.64044 -3.750008,5.02173 -6.672373,11.14026 -9.204885,16.74605 -1.341141,-6.80767 -0.358931,-14.85116 -1.275402,-22.07192 -0.08636,-3.02873 -0.577656,-5.97738 0.998806,-8.41912 z m 15.321519,0.0685 c -1.65404,1.16339 2.84458,1.49226 0,0 z m -11.434075,0.43545 c 1.665007,1.23705 0.05968,4.68872 0.329367,6.62899 -0.387509,0.76872 0.275129,2.02437 -0.674679,2.44398 -0.158619,-2.9713 -1.029687,-6.14231 -1.194862,-9.05193 0.563223,-0.10059 1.009578,0.15315 1.540174,-0.021 z m 64.070835,0.47056 c 0.004,1.4513 1.08733,0.14001 0,0 z m 52.56653,0.9464 c -0.0825,1.44886 -1.4822,5.30359 -2.50206,4.97082 0.53855,-1.82389 1.29595,-3.60491 2.50206,-4.97082 z m 26.78017,0.6602 c 1.16056,0.5543 3.01435,5.21996 1.01993,2.2475 -0.41484,-0.45185 -0.87506,-1.96833 -1.01993,-2.2475 z M 83.2019,190.92744 c 0.713362,0.24493 -0.832484,0.66051 -0.236491,0.10903 -0.05732,-0.0721 0.280521,-0.10786 0.236491,-0.10903 z m 59.3318,0.99381 c 1.32498,0.42502 3.40995,1.99148 0.35678,0.73559 0.32727,-0.20369 -0.77341,-0.56724 -0.35678,-0.73559 z m -58.085149,1.26948 c 0.972999,0.33449 -0.857985,1.45257 -0.05135,2.23763 0.02923,2.16828 0.834903,4.26324 0.779639,6.30077 1.202847,3.47945 0.901032,8.17883 2.128868,11.6469 -0.539386,0.58762 0.816405,2.24074 0.509439,2.86052 0.313717,1.98823 0.9065,4.96141 1.153733,6.92208 -0.852572,3.11882 -2.066413,7.27472 -2.864884,10.82155 -0.595566,2.36218 -1.30832,6.89039 -1.617422,7.79796 -0.432206,5.90628 -3.994102,10.62362 -6.470677,15.73479 -0.08933,0.2123 -2.024701,2.37523 -1.834672,2.53669 -1.482978,-0.14523 2.695558,-4.73094 -0.914774,-2.85505 -0.388391,0.24973 -1.069333,2.89828 -1.27486,2.97633 -0.477768,-1.11412 -2.229621,-3.37692 -0.518328,-3.66017 1.926477,-2.03817 4.285372,-3.73692 3.481847,-6.85702 -0.889865,-1.68651 -3.336229,-0.20597 -2.637453,-3.00237 -2.476849,-10.33268 -4.311089,-21.25892 -1.920069,-31.86252 1.083156,1.90617 0.842551,4.6895 1.274481,7.00289 0.119184,1.56865 0.534309,2.63627 0.729823,4.17699 -0.170786,-0.052 0.625073,2.45408 0.734913,3.18062 0.359336,2.29796 1.112556,3.95293 1.54641,6.57425 0.148585,0.93347 0.329298,0.32913 0.437703,1.65606 0.739534,3.63717 1.753707,7.46115 2.017663,10.69413 0.640023,1.94598 3.457765,-0.87142 1.815501,-2.4187 -1.441128,-6.25742 -2.88978,-12.50631 -3.179062,-19.0009 0.379263,-0.38716 -1.267741,-7.72321 -0.02425,-5.87172 -0.203898,1.62752 1.108513,4.44165 0.961398,6.37736 1.348967,4.10998 2.061208,8.41884 3.380773,12.53947 -0.44475,1.37504 1.209327,3.65304 2.135933,1.71449 0.127365,-4.29659 -2.085269,-7.43 -1.721656,-11.89906 -0.347187,-11.09513 -1.898834,-21.47382 -0.765501,-32.43783 1.508605,-0.7974 1.667794,-2.69095 2.706844,-3.88614 z m -3.450238,0.36521 c -0.212829,5.02837 -0.855355,10.60915 -0.154331,15.93745 -0.141755,6.53302 1.034647,13.88435 0.238343,19.94144 -2.210335,-7.24297 -2.625061,-15.07472 -3.299227,-22.56318 -2.768408,-0.15789 -1.102248,4.40854 -1.577221,6.04713 -0.205279,5.19842 0.607601,11.39558 0.923461,16.89088 -0.861154,0.21685 -0.660485,-2.81039 -1.171646,-3.5617 -0.776233,-5.23113 -1.806967,-10.73189 -2.407283,-16.15469 -0.711736,-2.21204 2.471821,-5.16689 2.931246,-7.41398 1.640012,-3.05368 2.739613,-6.34457 4.516658,-9.12335 z m 26.569467,0.13695 c 0.10498,0.92803 -0.24848,3.92558 -1.52974,4.48282 -1.92895,-0.56904 1.52262,-3.36069 1.52974,-4.48282 z m 20.18521,1.05352 c -1.28609,1.54781 1.93243,0.0699 0,0 z m 77.61368,1.84539 c 2.47892,2.21904 -0.2288,2.83446 -2.19832,3.7067 -3.66371,1.90203 -7.48782,3.35836 -10.63016,5.99319 0.66354,1.60386 -3.45622,2.35659 -1.003,0.40283 -0.11727,-3.04067 3.68283,-3.95119 5.20904,-5.06384 2.88899,-1.74635 5.59661,-3.60638 8.62244,-5.03888 z m -88.56841,0.83058 c 1.18655,0.50826 -0.83079,0.16355 0,0 z m -12.08022,1.52232 c 1.84913,0.55853 -1.10358,0.81338 0.54787,1.83093 0.63722,2.01077 -1.09596,3.29063 -1.24286,5.17658 -1.13267,2.78679 -1.9399,5.59539 -3.64238,7.93652 -0.838289,1.03039 -1.581848,3.46303 -2.495376,3.91546 1.260554,-6.43064 4.158186,-12.82202 6.832746,-18.85949 z m 56.75774,0.26337 c 4.66425,5.67481 8.93583,11.7215 13.03372,17.45508 2.33533,3.09513 5.39992,7.00769 6.6282,10.15436 -1.86044,-1.81822 -2.12686,2.5465 -3.16209,-0.29813 -1.43471,-1.51786 -2.35529,-4.1265 -4.14364,-4.9379 -0.38419,2.05597 2.28453,3.72075 2.11351,4.8699 -2.3305,1.54637 -3.15577,5.71161 -4.8067,6.94702 0.82733,-4.29102 2.60009,-9.17151 1.20313,-13.4367 -1.95412,-0.51353 -3.43846,4.03346 -3.80826,3.93643 -0.47777,-4.6082 0.76462,-9.98196 -1.0597,-14.36574 -2.68188,-1.11339 -2.77728,3.91882 -4.2948,4.23711 -0.80672,-4.74164 -1.69869,-10.18558 -1.70337,-14.56143 z m 45.79247,0.13696 c -1.25183,8.09185 1.87857,17.9191 0.5063,25.32129 -1.62882,0.59949 -5.51034,1.19178 -6.072,-1.58781 0.57236,-1.58436 -0.22218,-3.77327 0.21737,-4.87858 0.95362,-5.29287 1.15789,-10.11781 1.43053,-15.38342 -1.57411,-0.73727 1.83391,-1.43666 1.94296,-2.31063 0.45411,0.70713 1.32236,-1.20634 1.97484,-1.16085 z m -87.44291,0.49514 c -0.91558,0.95349 0.843,0.7009 0,0 z m 8.71252,0.49515 c -0.91676,0.31083 0.38553,0.76858 0,0 z m -12.69828,0.23529 c 0.74231,0.62949 -0.88713,1.09559 0,0 z m 3.7101,0.0228 c -1.32796,0.76302 0.0311,1.22946 0,0 z m -12.34887,0.52149 c 1.76667,1.14942 5.14672,0.0516 6.24765,1.75086 -0.82711,4.80085 -2.19666,9.5345 -4.73946,13.62981 -0.29337,0.46758 0.203,0.46459 -0.62286,1.29266 -0.77536,1.02449 -4.40578,1.52196 -3.84886,0.88665 -0.49446,-2.17106 -0.20149,-4.71992 0.0314,-6.57401 -0.26562,-1.62104 1.38464,-4.04629 2.19176,-5.53652 0.25254,-1.65482 -1.06814,-2.66093 0.13695,-4.22172 0.23102,-0.38752 0.57499,-0.75578 0.60339,-1.22773 z m -6.09103,0.20368 c 0.86367,2.16018 -1.245166,4.13941 -1.506453,6.19919 -0.910503,1.30893 -1.107234,3.73738 -1.925645,4.34646 -1.010377,5.31373 -4.058878,10.19565 -4.883088,15.57632 -2.779849,3.10081 -4.328269,7.16042 -6.040515,10.74594 -0.56157,-2.52488 1.092929,-6.12649 1.625953,-9.02338 0.925491,-2.3048 0.850517,-4.91346 2.461865,-7.04881 1.088525,-5.48896 4.046095,-10.35386 6.612799,-15.20983 1.242126,-1.79134 2.267085,-3.86142 3.655084,-5.58589 z m 17.63747,0.21245 c -0.79156,0.34325 0.45771,0.49079 0,0 z m 122.46151,0.29849 c 1.46999,3.80243 -1.22586,8.99652 -2.45539,12.19265 0.59659,-4.06733 1.86771,-8.13372 2.45539,-12.19265 z m -111.29257,0.38277 c -0.46988,2.28042 3.10281,4.67198 1.86643,7.25355 1.40212,3.7551 2.00864,8.16479 4.09668,11.84883 -0.26697,1.75464 1.36837,4.37525 2.43466,5.52617 1.83005,3.19768 4.48928,5.8953 7.15177,8.21954 4.08306,-0.84077 3.68716,-5.49356 1.84177,-8.2774 -4.34242,-6.74136 -7.17305,-14.25371 -9.33995,-21.92053 -1.8813,0.62725 0.7704,4.84869 0.87601,6.74772 1.78795,4.92828 3.40562,9.56541 6.28005,14.10083 0.79851,1.74576 3.34139,5.55895 1.29091,6.28438 -0.11349,-3.25294 -1.94791,2.85157 -3.48011,-1.18712 -4.63727,-4.61442 -7.16633,-11.57115 -8.58452,-17.35247 -1.97293,-3.36825 -1.20338,-8.78656 -4.4337,-11.2435 z m -14.91416,0.53729 c -0.28846,0.89804 -0.21211,2.33046 -1.11692,3.15904 0.33008,-0.90108 1.05663,-2.19284 0.84629,-2.62004 0.47612,0.0597 -0.48385,-0.51369 0.27063,-0.539 z m 30.01444,0.80243 c -1.18299,1.34457 0.85733,3.1033 1.18995,4.64042 2.16835,4.76491 4.29402,8.83227 5.59483,13.93499 0.318,1.69563 0.18297,3.95259 -1.65035,4.34643 -0.43004,2.96594 4.28775,-0.15461 3.46596,-2.17371 -0.85004,-7.35275 -5.45935,-13.51574 -7.87241,-20.46503 l -0.2985,-0.2265 c -0.0996,0.0527 -0.33036,-0.12003 -0.42948,-0.0566 z m 10.55966,6.83902 c -1.12253,1.29629 -2.33319,2.79991 -3.01259,4.31828 1.6357,1.41674 4.80357,-3.0731 3.01259,-4.31828 z m 85.71164,0.6005 c 0.14609,1.17676 -0.18878,9.54323 -1.61054,4.44591 0.64602,-1.39879 0.71849,-3.26622 1.61054,-4.44591 z m -53.63233,0.54431 c -0.62523,3.73205 -2.68027,7.99067 -3.74384,11.87114 -0.84918,2.11335 -0.48223,-2.96823 0.11953,-3.9705 0.99897,-2.78755 1.29269,-5.83309 3.62431,-7.90064 z m -63.81623,2.24748 c 1.23937,0.37682 -0.58388,2.57163 -0.75681,3.54172 -0.65909,2.16293 -0.29459,-3.56065 0.75681,-3.54172 z m -52.557751,0.0667 c 0.870868,0.37073 -0.578336,2.27551 -0.335422,3.26993 -0.696512,2.1491 -0.135614,4.88786 -0.661014,7.29045 -1.59383,-2.17312 -2.192646,1.9848 -2.224659,3.20107 -0.553715,1.81322 -0.544494,3.71908 -0.978464,5.34525 -0.910909,-4.18886 -1.706875,-8.54592 0.892288,-12.29363 0.973065,-2.39162 2.044195,-4.51955 3.307271,-6.81307 z m 167.265441,0.64966 c -0.0462,0.98152 -0.18961,0.28727 0,0 z m -136.1255,0.46178 c 0.10841,1.65873 0.6287,3.71542 0.55644,5.56999 -2.0506,-0.64417 -2.07541,3.06453 -2.29525,4.61329 -0.61108,4.58923 -1.370009,8.82942 -3.641824,13.19294 -0.889185,2.55882 -3.273298,-1.99709 -4.556549,0.11561 -0.22796,0.61646 -0.963117,4.15909 -1.346985,2.16551 2.058773,-4.26325 1.994335,-9.59429 5.206751,-13.23203 -0.545356,-0.97796 1.604396,-1.51024 1.057182,-2.41542 -0.300382,-0.4985 1.322122,-1.4243 0.775984,-1.59331 1.299442,-2.89448 2.795921,-5.7052 4.244251,-8.41658 z m 136.76287,2.44414 c 0.30088,3.28952 -1.19864,7.69954 -3.13978,10.12065 1.08399,-3.22754 0.93078,-7.30127 3.13978,-10.12065 z m -115.12032,0.80418 c 1.10223,2.16504 0.28387,5.91076 0.15244,8.21404 -0.57924,-2.71714 -1.68952,-5.45768 -0.15244,-8.21404 z m -14.82636,0.61279 c -0.15537,2.38919 -0.64341,0.46578 0,0 z m 132.87543,0.014 c 0.29423,1.7872 -0.32265,4.23522 -1.23311,5.24993 0.64625,-1.65458 0.58926,-3.63894 1.23311,-5.24993 z m -135.66898,1.07634 c 0.83287,0.95516 -0.77443,1.93099 0,0 z m 74.97289,0.61806 c 0.54949,0.3808 1.29518,0.004 0.80351,1.2127 0.18937,1.73663 -0.62554,4.03397 -1.41668,1.63241 -1.10331,-1.03829 -0.50955,-2.33251 0.61317,-2.84511 z m -54.92815,1.62591 c 0.77473,2.30346 -0.29881,0.3085 0,0 z m 113.03436,0.15631 c 0.6464,0.28989 -0.69645,1.35565 0,0 z m -130.74383,0.18611 c 1.2488,0.27212 1.60092,3.00088 2.74096,2.46677 0.52403,0.50741 -0.76402,0.83804 0.43014,1.55275 -0.55218,0.52539 0.68206,3.132 -0.62843,3.5423 -2.43141,-0.86953 0.60111,4.63373 -1.55402,1.31383 -0.54353,-0.88468 -1.49586,-2.69253 -1.13962,-3.50588 0.41109,1.45875 2.36314,-0.39072 1.73665,-0.80471 0.55258,-2.38359 -4.22186,-3.68908 -1.58568,-4.56506 z m -6.1279,0.0352 c 0.817,0.65097 1.37641,2.05402 1.03012,3.2017 0.69943,3.90856 1.35444,8.73579 -1.42432,11.96314 -0.91111,0.92539 -3.290584,3.10295 -3.915771,1.1152 1.975331,-3.88315 3.501701,-9.23629 3.753951,-12.99395 -0.39397,-1.42081 0.58666,-2.11054 0.46229,-2.83476 -0.37283,-0.0669 0.31184,-0.19525 0.0937,-0.45133 z m 136.58905,0.92709 c 0.39177,3.33098 -1.29974,6.9393 -3.46648,9.4659 0.11978,1.51043 2.0998,-1.86753 1.12412,0.98664 -0.17253,2.28137 -2.94513,3.28006 -2.86183,4.84279 -1.39537,2.7676 -4.58896,1.9866 -1.49771,-0.47755 1.74998,-2.85659 1.94651,-5.63597 3.92197,-8.58161 1.04542,-2.02337 2.25883,-4.24059 2.77993,-6.23617 z m -116.96396,1.36079 c 1.01722,2.64577 1.28476,7.06305 2.0561,9.80386 0.38332,1.6498 1.07045,3.52866 1.36233,5.1424 0.1787,1.6906 0.70511,3.27039 -1.2032,3.07082 -1.15464,-0.14748 -3.18015,0.12799 -2.79715,-2.10386 -1.01217,-5.3076 -0.94631,-11.18896 0.58192,-15.91322 z m 2.0561,1.70317 c 0.0666,1.03542 0.0387,0.52231 0,0 z m 10.9916,0.0492 c -1.06286,0.30288 -4.53446,3.41729 -1.79609,3.00282 0.85314,-0.32063 3.48784,-2.36883 1.79609,-3.00282 z m 55.66911,0.41965 c 2.78364,2.22192 0.57477,7.24127 -0.87616,9.9245 -0.17719,1.41315 -1.83918,2.9932 -2.33506,5.11372 -1.41655,-1.28082 -0.68834,-2.93411 -0.50683,-4.47469 -3.60996,-3.21566 -0.29786,-9.36726 3.71805,-10.56353 z m -14.09067,0.35995 c 2.62528,3.47256 2.65484,8.24062 5.89159,11.4783 0.0676,1.55951 3.7058,3.66273 2.41041,4.37931 -1.9313,0.13843 -3.87151,0.79265 -5.7987,0.97934 -0.13132,-1.70046 -0.0419,-5.85424 -2.31764,-3.68385 -1.68074,2.46929 -2.60625,6.31793 -4.66901,8.00119 2.28603,-6.89831 3.88479,-13.8086 4.48335,-21.15429 z m 3.24129,0.66898 c 1.11194,0.70247 1.57764,2.35963 2.03709,3.42621 -0.83852,-0.80685 -3.02166,-2.10203 -2.03709,-3.42621 z m -115.366126,0.77608 c 0.809559,2.93791 1.018151,6.42589 1.32502,9.27069 0.412489,1.42562 0.275075,3.74068 -0.995672,4.85759 -0.38417,0.68321 -1.082392,2.27829 -1.833056,0.55873 -0.738576,-0.91574 -2.072672,0.3707 -2.55049,-0.27194 -1.504911,-1.21505 -3.822238,-2.06146 -1.353508,-3.98442 2.23252,-2.88299 3.994711,-6.86061 5.407706,-10.43065 z m 4.073564,0.0404 c 1.167964,2.85167 0.661775,5.27428 1.7525,8.51525 0.433001,2.23517 0.529607,4.80928 1.594338,7.11874 -0.19925,1.32416 1.557688,4.22646 -0.358352,5.07542 -1.232495,0.10111 -2.909715,2.37021 -3.323868,1.92154 0.0092,-3.92317 3.050188,-9.17011 -0.43035,-12.32823 -0.274962,-3.4497 0.0086,-6.94903 0.765732,-10.30272 z m 165.023222,2.38443 c -2.0939,4.6624 -8.20525,8.57653 -13.25634,6.09741 -0.66888,-1.36875 -3.30565,-3.77852 -1.52931,-0.95526 0.75848,2.00754 -2.32296,-0.12823 -2.59004,-1.19024 -0.15536,-0.9408 -0.73406,-3.11123 0.53447,-1.53414 5.49206,4.16506 12.51131,2.1368 16.84122,-2.41777 z m -38.64793,0.81647 c 3.68967,0.53743 8.0192,0.54478 10.93094,2.99705 -0.0257,4.58411 -0.694,9.58992 -2.14398,13.82556 -3.12275,-1.55878 -4.24775,4.18389 -5.46589,6.23167 -2.47679,3.27997 -6.59547,6.99655 -10.79679,4.5706 -2.75365,-0.8583 -0.1058,-4.93019 -0.39833,-7.09097 0.0155,-2.41954 0.76111,-3.34692 2.53378,-1.29404 1.38325,1.83584 3.12356,2.51785 4.94264,2.99679 1.95139,-3.40749 -4.03453,-4.52631 -5.01987,-7.04827 1.70732,0.60043 4.09946,3.56228 4.76621,0.32606 -1.02809,-2.06477 -6.1225,-2.79846 -3.76984,-5.60472 1.13202,-2.84421 1.92201,-5.54904 2.791,-8.27621 0.49565,-0.57568 1.0253,-1.17475 1.63013,-1.63352 z m -32.6289,0.16856 c 0.36287,4.15877 0.55989,8.43893 -0.7349,12.19696 -0.53785,1.08608 -1.21629,1.86037 -1.86447,3.09824 0.82475,-5.13571 1.83913,-10.04478 2.59937,-15.2952 z m -53.84829,0.64967 c 2.01817,0.95684 0.0488,2.27328 0,0 z m 28.22874,1.22558 c -1.84754,2.42309 -1.87243,5.92517 -4.05618,8.29755 0.31038,2.58768 3.01583,-1.03737 3.07668,-2.1529 0.70162,-1.98037 2.92094,-4.5929 0.9795,-6.14465 z m 15.16173,0.98854 c -1.42742,1.9751 2.79145,2.38689 4.15282,3.48754 2.3243,2.00273 4.63322,-0.64676 0.74811,-1.29055 -1.69982,-0.58593 -3.14149,-1.94819 -4.90093,-2.19699 z m 80.43006,0.0457 c -0.26843,4.98552 -8.56952,8.78159 -11.52823,4.48288 4.56496,1.12033 8.37717,-1.4572 11.52823,-4.48288 z m -48.8336,1.4872 c 0.99824,0.6809 1.33493,4.32021 0.5704,2.11599 -0.32205,-0.55682 -2.59243,-2.40293 -0.5704,-2.11599 z m -39.4925,1.70142 c -2.41464,2.26446 0.18654,6.23774 0.7038,8.97662 0.90355,2.4932 1.68745,5.00157 2.08731,7.54084 2.45102,1.54301 1.86089,-3.50805 0.93336,-4.76727 -2.0088,-3.39893 -2.66419,-7.82517 -3.46613,-11.61149 l -0.25635,-0.13696 z m -50.21194,1.31161 c 1.323341,0.27954 2.095358,0.81577 0.87252,1.92898 -0.659704,1.73215 -2.921631,1.04988 -1.392389,-0.91071 -0.04092,-0.43731 0.272274,-0.72501 0.519869,-1.01827 z m 21.53546,0.99733 c 2.77492,1.3789 -1.14858,1.66162 -1.05961,0.23813 0.44342,-0.20242 0.56891,0.0587 1.05961,-0.23813 z m -17.365325,0.0123 c 0.59455,0.751 1.936805,0.004 0.553377,0.91341 -0.634027,0.55131 -3.98981,1.96037 -1.975537,0.11581 0.616772,-0.19572 0.689762,-1.16287 1.42216,-1.02922 z m 131.133625,1.28704 c 1.22886,0.0819 -1.27531,0.16247 0,0 z M 57.554252,242.3721 c 0.543974,0.63809 0.69708,-0.115 1.043633,0.44279 -0.414728,0.4105 0.844478,-0.14339 0.239199,0.44801 1.344253,1.12095 3.44862,2.75974 3.680208,4.30716 -2.216074,-0.62348 -4.195026,-1.93332 -5.85612,-3.27061 0.439593,-0.672 0.832814,-1.34813 0.89308,-1.92735 z m 120.047218,0.24582 c 1.16435,1.19403 -0.26981,3.19023 -1.58046,2.77254 0.86283,-0.71457 0.78369,-2.15056 1.58046,-2.77254 z m -87.084714,0.18437 c 1.170722,0.33939 0.820875,2.25262 -0.05621,0.7497 -0.236719,-0.26451 -0.0297,-0.50755 0.05621,-0.7497 z m 21.904184,0.61279 c 0.65019,0.23681 2.75691,0.2783 3.28188,0.53796 1.7482,-0.0166 3.68202,1.54073 5.66608,1.72268 1.26054,2.20186 -2.03956,0.12877 -2.71847,0.39589 -2.23045,-0.77582 -5.72493,-0.81479 -6.77283,-2.56134 0.15822,-0.10641 0.3746,-0.022 0.54334,-0.0952 z m -45.955768,0.56538 c 0.571454,2.53422 0.466467,5.23896 -0.0045,7.54242 -0.143164,3.00758 -1.674224,1.81643 -2.709365,0.10185 -0.560809,-0.67078 -1.222559,-1.99049 -1.666256,-2.37075 1.272511,0.59032 3.576445,-0.12291 3.371309,-2.26225 0.124104,-1.21943 0.189527,-2.47244 1.008777,-3.01127 z m 56.852548,0.1825 c 0.59246,0.7061 3.59337,-0.0886 2.90471,1.124 0.13018,0.38359 0.44732,2.16717 0.65959,2.94355 -1.45535,-0.25337 -4.4587,-0.81503 -4.1039,-3.35076 -0.20107,-0.66468 -0.20156,-0.21974 0.5396,-0.71679 z m 60.3221,0.58645 c 0.98091,0.18721 3.94505,-0.25319 3.09909,1.56187 -2.31128,-1.80293 -4.32144,1.33351 -5.57836,1.80324 -1.92233,-0.44016 -2.88859,-2.35489 -0.0792,-2.99562 0.93858,0.0212 1.67465,-0.36314 2.55844,-0.36949 z m -127.019678,1.32215 c 1.429676,0.99774 2.037028,1.62126 3.107643,2.69167 0.46661,0.97396 1.825765,1.57265 1.701671,2.41315 -1.591536,0.20444 1.862552,1.86605 1.928003,2.63218 0.94093,-0.0256 2.042484,2.07885 1.230637,2.44585 -2.397622,-1.73119 -4.522498,-3.8837 -6.412264,-6.17254 1.06335,0.0369 1.073023,0.13483 1.081637,-0.82892 -0.499352,-0.94068 -1.662096,-0.22463 -1.633255,-0.93219 0.144953,-0.53304 -1.795514,-1.81691 -1.004072,-2.2492 z m -8.795035,0.0913 c -0.836898,0.7144 1.800812,-0.19873 0,0 z m 173.287993,0.24757 c -3.34234,0.64583 4.65602,1.26577 5.52424,1.10574 5.21478,-0.0523 10.83338,-0.29318 15.97609,0.14432 3.97537,0.0654 9.00821,-0.31653 12.82899,0.69776 2.75733,-0.28584 5.74987,1.0231 8.38158,0.25266 -6.01791,-1.79562 -13.1673,-1.4681 -19.57603,-1.98744 -7.69114,-0.40354 -15.49565,0.37808 -23.13487,-0.21304 z m -43.83998,0.0158 c 1.45995,0.26236 -1.06983,0.39178 0,0 z m 7.51678,0.85684 c 2.89628,1.30459 0.91127,2.74664 -1.24671,1.35534 -0.6626,-1.31754 0.51361,-0.96963 1.24671,-1.35534 z m -143.861757,0.899 c 0.04021,0.7066 -0.401826,1.19927 -0.363436,1.44359 -0.23682,-0.57039 -0.38351,-1.62228 0.363436,-1.44359 z m 87.537727,0.68126 c 2.76968,2.23505 4.74539,5.18675 6.95818,8.03728 1.4331,1.3514 3.84238,2.4349 5.00119,3.51388 1.39376,0.25848 -0.11274,0.17176 1.73102,0.85268 2.63166,2.12115 5.85462,0.0292 8.76882,0.44058 -2.88335,5.66464 -11.65719,4.1904 -16.17921,1.23364 -4.04931,-3.57572 -5.52667,-8.94626 -6.28,-14.07806 z m 51.62364,0.27216 c 0.44522,0.14 3.53631,0.66953 1.48605,1.60754 -0.6207,-0.21168 -1.70818,-0.77476 -1.48605,-1.60754 z m -54.63317,0.55836 c 2.56448,-0.20337 1.9521,2.79228 2.8444,4.82136 1.0363,3.83267 -1.52847,0.65126 -2.19133,-1.16412 0.45249,-0.88935 -3.12848,-3.86106 -0.65307,-3.65724 z m 64.98739,0.12291 c 1.08762,0.57746 3.39276,2.86787 0.86177,1.15046 -0.0977,-0.24898 -1.77543,-1.06132 -0.86177,-1.15046 z m -6.40533,0.34064 c 1.37424,0.54434 -1.22774,0.76804 0,0 z m -108.836136,0.13693 c 1.215276,0.95409 -0.704708,2.63511 0,0 z m 82.786396,3.33787 c -1.06409,1.30642 -0.33337,0.13411 0,0 z m 1.21856,0.95166 c -0.007,2.49388 -2.8817,4.85781 -5.36067,5.58374 0.15765,-1.29355 1.24099,-1.89691 2.02536,-2.23297 1.09485,-0.89247 2.24723,-2.11585 3.33531,-3.35077 z m -22.97876,1.02191 c 1.20923,0.67125 1.47684,0.36985 2.28842,1.25935 1.8957,2.60865 -1.20154,0.062 -2.00906,-0.45986 -0.0952,-0.16257 -0.91873,-0.70954 -0.27936,-0.79949 z m 17.61816,1.30108 c -2.05464,3.5211 -7.02237,4.51827 -10.49504,3.12608 -1.57988,-8.3e-4 -3.60746,-1.8011 -3.64158,-3.06435 4.4363,0.95299 9.90327,2.18386 14.13662,-0.0618 z m 42.40545,2.03678 c -0.70205,3.1823 -2.41882,6.61705 -3.93532,9.70503 -3.63207,-1.55282 -9.04846,0.7703 -11.43584,-2.48631 0.29721,0.68945 1.19864,-1.18151 1.71377,-0.13665 1.92909,1.95707 3.79647,-0.78936 5.41904,-1.49836 2.2978,1.42006 5.18727,-0.55875 1.46956,-1.14327 0.94203,0.11496 3.06076,-0.54555 2.71663,-1.75115 1.46579,-0.88465 2.67574,-1.78347 4.05216,-2.68929 z m -10.68608,1.42926 c 4.65785,0.29945 4.48854,2.55431 -0.0228,1.17836 -0.69405,-0.0224 -0.74507,-1.30503 0.0228,-1.17836 z m -29.81427,0.47583 c 0.26527,0.22181 -1.01207,2.11296 -1.67941,2.44187 -1.0399,1.18143 -3.04116,2.41066 -4.04493,1.69494 2.00653,-0.5446 1.73253,-3.58669 3.50841,-3.50532 -0.402,0.42388 0.68434,-0.32696 2.21593,-0.63149 z m 26.73627,1.43102 c 0.71955,1.27389 1.59514,0.40434 2.44965,1.64997 0.53063,3.88625 -4.73046,-1.35009 -2.44938,-1.64881 z m 3.6346,1.74531 c -0.4097,0.61845 0.0844,-0.002 0,0 z m -6.01377,0.0246 c 2.53593,3.2714 -0.5466,1.44986 0,0 z m -1.67333,0.0755 c 0.50996,0.33534 0.70493,0.60358 0.91694,1.52737 -0.28413,-0.36012 -2.03167,-1.12789 -0.91694,-1.52737 z m -32.3023,7.26042 c -3.11887,-0.26211 -1.3197,2.55231 0.85213,1.30161 0.77166,-0.30434 3.18645,0.82858 3.13295,0.28332 2.85869,0.40288 5.04084,0.52366 7.99414,0.52544 1.46982,0.34563 0.24244,-0.3437 2.20739,0.0748 2.04132,-0.11923 4.19092,1.46789 5.76144,4.5e-4 -3.36647,-2.31347 -9.21258,-0.62512 -13.34636,-1.58777 -2.20181,-0.20749 -4.38523,-0.53378 -6.60169,-0.59785 z m 6.06118,3.79965 c -0.95041,1.18675 1.36497,1.32104 1.61214,1.6075 1.52432,0.54369 3.28419,0.90888 4.46484,1.34493 1.64549,0.42688 3.62746,0.0805 4.75134,1.21174 -2.05449,-0.31015 -6.47702,-0.002 -3.52532,1.99101 1.6121,0.66476 2.64648,0.97227 4.28831,1.32118 -0.2256,-0.7113 2.39218,0.3941 2.70966,0.0532 6.06929,-1.4866 -0.73699,-1.15723 -3.60123,-1.70868 -2.78468,-0.0676 -3.26662,-1.6204 -1.08692,-0.69128 0.38572,-0.35969 1.42262,0.18228 1.4053,-0.0515 0.0717,0.79949 2.25698,-0.32138 1.8586,0.33395 1.71134,-0.45544 3.29723,1.05964 4.397,-0.75445 -4.00835,-2.52782 -9.56363,-2.15947 -14.04753,-3.87139 -1.05363,-0.38088 -2.19827,-0.19996 -3.22619,-0.78619 z"
     id="path1"
     style="stroke-width:0.898993" />
</svg>
