<?xml version="1.0" encoding="UTF-8"?>
<svg class="svg-include" id="Layer_1" xmlns="http://www.w3.org/2000/svg" version="1.1" viewBox="0 0 612 792" style="fill:currentColor;">
  <!-- Generator: Adobe Illustrator 29.6.1, SVG Export Plug-In . SVG Version: 2.1.1 Build 9)  -->
    <g>
      <path d="M424.53,627.61c-2.28.96-5.13,8.93-7.49,8.34-1.92-.48-1.8-2.05-1.68-3.75-1.45.9-2.76,3.96-4.4,4.48-3.5,1.11-2.07-1.59-3.34-2.18-1.3,2.68-4.45,5.49-6.02,1.44,6.98-11.8,16.51-22.11,24.89-33.02.57-.74,2.33-2.46,1.77-3.39-10.31,10.83-19.6,22.51-28.62,34.43-1.59,1.32-3.83.25-3.65-1.87.03-.39.96-1.35.17-1.61-1.94,1.8-5.69,8.8-8.12,9.05-2.26.23-2.26-1.54-1.66-3.35,8.32-11.46,17.19-22.55,25.82-33.8.35-.45,1.55-1.1.58-1.71-11.09,11.34-21.55,23.33-30.91,36.15-2.28,1.9-5.16-1.2-2.87-3.44,10.8-14.36,22.23-28.25,33.16-42.51.57-.75,2.33-2.45,1.77-3.39-3.22,2.73-5.75,6.15-8.59,9.18-5.24,5.6-10.81,11.04-15.77,16.91-6.42,7.59-11.97,16.81-18.36,24.06-.94,1.06-3.56,4.08-4.89,2.05-1.52-2.33,3.42-8.03,4.91-10.05,6.85-9.25,14.73-17.89,21.48-27.25l.58-1.71c-4.67,5.25-9.58,10.35-14.04,15.77-7.22,8.76-14.08,20.39-21.49,28.38-2.69,2.9-4.95,2.31-4.18-1.89,11.12-15.11,22.59-30.08,34.56-44.55.38-.46,1.51-1.14.57-1.72-7.46,7.99-15.11,15.92-22.07,24.37-7.3,8.86-14.02,20.16-21.49,28.38-1.87,2.06-2.93,3.36-5.45,1.13.03.39-.1.78-.33,1.08-1.14,1.51-4.93,7.55-5.8,8.11-2.13,1.39-4.46-.42-3.18-2.72,12.36-18.27,24.96-36.44,38.3-54,6.66-8.77,13.89-17.13,20.58-25.85.35-.45,1.55-1.1.58-1.71-4.76,5.72-10.41,10.61-15.49,16.04-11.14,11.9-21.69,24.28-31.46,37.33-7.2,9.62-14.39,21.77-22.13,30.6-2.82,3.21-4.89,3.85-5.73-1.09,1.37-2.99,2.63-5.91,3.6-9.06,3.96-12.87,3.93-30.05-.45-42.85-.33-.98-2.86-7.18-3.19-7.41-1.05-.73-7.62,3.32-9.3,4.06-52.75,23.41-107.47-7.99-95.38-68.43,1.12-5.58,4.14-15.7,7.03-20.48,2.25-3.73,11.39-2.31,15.18-1.5,1.95.42,9.45,3.37,10.47,3.11,1.16-.3,4.15-4.27,4.87-5.49,2.5-4.21,3.58-8.7,2.93-13.61-.11-.82-1.87-5.54-2.26-6.06-.74-.99-1.01.09-1.15.84-.27,1.5-1.44,7.45-2.01,8.32-.64.99-2.46,1.32-3.38.62-.67-.51-.39-1.8-.28-2.56.23-1.72,2.7-9.91,2.2-10.62-2.18-.9-4.53-.6-6.84-.61-.52,2.56-1.51,11.23-2.83,12.94-.85,1.1-2.94,1.3-3.4-.12-.78-2.4,1.23-6.57,1.6-9.14.1-.68.22-1.92-.81-1.38-1.24.64-4.29,3.93-5.13,5.19-1.8,2.69-3.59,7.44-3.73,10.65-.06,1.39,1.36,5.92-1.95,5.28s-1.11-10.91-.24-13.26c2.22-6.01,9.11-13.27,15.68-14.13,20.61-2.71,23.99,23.24,11.15,34.67-.59.53-1.65.81-1.71.88-.07.1.6,1.39.53,2.45-.32,4.43-3.54,10.8-4,16.12-1.95,22.59,12.13,39.63,35.68,35.68,9.12-1.53,17.27-6.05,25.03-10.81-.65-3.95-2.17-7.75-2.75-11.73-1.86-12.73.24-28.93,8.57-38.95-.85-6.29-2.78-12.46-2.92-18.82.15-.93,4.88-1.05,5.19-2.65-2.3-.23-5.32-2.5-7.16-4.02-12.1-10.04-20.12-24.8-16.76-40.82,1.31-6.25,5.97-14.13,5.52-20.16-.36-4.76-2.28-10.08-2.81-14.96-1.09-9.9.73-21.48,7.19-29.51.61-.76,1.9-1.14,2-1.54.53-2.15-1.11-8.75-2.63-10.49-.94-1.07-2.79-1.1-2.59-3.17.36-3.71,7.86-.8,9.78,0,3.19,1.33,7.34,5.05,10.61,4.91s4.58-3.32,9.63-2.21c1.36.3,2.5,1.79,4.01,1.52,1.38-.25,3.75-2.89,5.57-3.65,1.92-.8,3.64-1.05,5.73-.86-.58-5.58-9.01-12.72-7.19-18.38.46-1.43,3.02-3.12,3.05-3.68.02-.32-2.07-4.72-2.44-6.03-1.55-5.49-2.29-12.54-.16-17.93.95-2.4,4.67-5.02,5.03-7,.87-4.77-3.49-12.56-1.41-16.9,1.87-3.89,5.93-2.06,8.32.25,4.6,4.47,9.4,15.09,11.46,21.21.68,2.02,1.83,8.4,2.54,9.5.9,1.39,3.45-.11,4.72.4,2.8,1.13,13.24,15.53,15.54,18.89,12.73,18.51,20.26,37.77,25.15,59.69,4.69,20.98,10.15,60.76,2.48,80.67-.56,1.45-2.42,4.15-2.33,5.12.08.81,3.95,6.51,4.72,7.95,3.62,6.82,6.99,14.45,9.92,21.61,12.57,30.72,21.91,64.87,17.93,98.16l-10.21,15.59c-.95.92-3.5,1.49-3.95-.03-.67-2.27,2.77-3.45,2.25-5.96ZM355.18,327.23c-2.93-9.5-6.31-21.95-13.45-29.25-.81-.82-1.29-1.36-2.6-1.13.58,5.08,2.87,10.01,2.31,15.21-.35,3.26-3.77,4.98-5.05,7.56-2.57,5.16-1.22,14.89,1.88,19.65,4.67-5.14,10.46-9.43,16.91-12.04ZM356.32,355.33c-2.63,2.01-5.27,8.04-8.02,9.46-1.25.65-2.97.15-3.36-1.27-.71-2.54,5.05-11.18,6.53-13.92.45-.82,1.7-2.57,1.13-3.45l-10.54,14.7c.67,1.1.85,3.4,1.37,4.21.66,1.05,5.29,2.92,6.61,2.03.44-.29,4.56-7.84,5.24-9.09.45-.85,1.13-1.68,1.05-2.68ZM375.81,347.3c-1.22-.27-1.31.61-1.82,1.33-1.31,1.81-2.99,4.74-4.14,6.75-.42.73-1.1,1.27-.91,2.24l7.19-8.04-.32-2.27ZM379.25,353.04l-2.02,1.13-11.17,13.77c2.01.08,4.23-.11,6.03-1.14,1.75-3.94,4.55-7.54,6.36-11.41.35-.75,1.11-1.22.8-2.35ZM356.33,366.79l2.59-.56c1.89-4.13,5.21-7.72,6.58-12.05l-5.96,7.51-3.21,5.1ZM378.11,365.07c2.08-1.72,5.56-4.55,4-7.45l-2.39,3.62-1.61,3.83ZM302.44,372.24c.45,3.21-.33,7.28,0,10.6,1.65-.06,2.16-1.8,3.84-2.18,5.01-1.13,3.19,2.21,3.66,5.28,2.11,13.62,12.72,16.04,21.17,24.11,1.17,1.12,3.18,3.15,1.57,4.75-1.89,1.88-3.34-1.02-4.75-2.15-8.03-6.43-18.24-11.61-21.23-22.33-.41-1.47.2-3.52-1.4-4.04.44,3.57-.09,8.46-3.93,4.21l-2.95-6.5c-3.44,7.33-5.84,14.29-5.11,22.58.51,5.8,2.9,12.14,3.32,17.89.66,8.92-6.77,18.92-6.73,28.6.04,10.1,8.77,22.63,16.26,28.94,1.32,1.12,6.86,4.41,7.05,5.52.1.59-.91,1.65-.19,1.93l70.75-24.12.61-9.13c-2.72.47-3.24,2.95-5.53,4.5-3.27,2.2-11.05,5.72-10.52-1.05-.77-.83-3.39,3.02-4.4,3.33-4.91,1.49-5.97-2.85-5.35-6.77-10.9,7.51-6.66-5.36-6.87-11.75.52-3.03,3.43-1.6,3.43-.58v8.6c0,.18-1.55,1.65.28,1.43,5.22-6.12,8.12-2.14,7.18,4.59,3.35-3.24,9.45-7.28,9.17.58,3.5.3,5.9-4.35,9.16-3.43l4.6-21.22c-1.73.43-2.38-.84-2.19-2.44.28-2.36,2.45-6.75,3.18-9.47,1.25-4.64,2.63-10.58,3.04-15.34.25-2.92-1.29-1.78-1.67-2.9-1.03-3.01,4.73-7.72,1.65-9.14-.75-.35-1.52.4-2.27.06-1.99-.91-.98-8.01-1.15-10.35-.49-6.8-2.39-12.54-10.09-13.41-4.09-.46-7.77.87-11.54,1.54-4.43.78-4.78-1.7-7.34-2.15-3.43-.6-7.07,1.23-10.76.44-1.5-.32-3.39-1.9-5-2.45-7.43-2.55-9.66,5.25-15.17,4.29-1.11-.2-1.67-1.15-2.56-1.46-4.12-1.42-6,2.08-9.49,2.09-4.71,0-8.95-4.78-13.47-5.78.5,1.16,1.56,3.13,1.72,4.3ZM389.58,393.16c1.75-1.74,3.39-4.5,4-6.88-2.05,1.61-4.01,4.18-4,6.88ZM396.45,391.44c-1.36.69-2.73,3.15-3.19,4.56-.34,1.04-.18,1.08.62,1.75,2.61-1.37,3.41-3.64,2.57-6.3ZM397.6,416.66c1.86-1.19,3.69-3.42,3.43-5.73-1.63,1.29-3.02,3.7-3.43,5.73ZM384.99,455.07l1.44-1.71,5.43-10.33c-3,3.53-6.05,7.36-6.87,12.04ZM398.74,481.44l4.59-9.74c-1.01,1.27-6.01,6.86-6.2,7.82-.16.78.88,2.83,1.62,1.92ZM375.81,472.27c-3.15.18-4.76,2.95-6.88,4.87l-8.59,12.9c4.37-3.54,7.36-8.48,11.45-12.33l4.02-5.44ZM376.39,487.74c3.05-.68,6.96-3.33,6.3-6.87-2.61,1.76-4.19,4.6-6.3,6.87ZM395.88,485.46c-2.81.38-5.53,1.88-8,3.18-8.69,10.73-18.39,20.59-27.54,30.93-.57.64-1.38.94-1.14,2.01l36.68-36.11ZM371.8,494.05c-2.11.24-4.23,3.18-5.73,4.87-.57.64-1.38.94-1.14,2.01l6.87-6.87ZM397.6,510.67c1.06.24,1.36-.58,2.01-1.14,1.11-.97,6.59-6.26,6.52-7.06-.09-.97-1.77-2.51-1.65-3.83-3.08,3.32-4.1,8.37-6.87,12.03ZM410.77,511.82c-1.1-.15-1.89.96-2.59,1.71-13.62,14.63-26.78,29.81-39.82,45.02l-5.16,7.16,48.77-48.43c1.15-1.63-1.06-3.63-1.2-5.46ZM230.22,525.01c2.09-1.74,4.21-3.7,6.02-5.73.81-.91,1.21-.72,0-1.71-1.41,2.01-3.26,3.62-4.87,5.44-.57.64-1.38.94-1.14,2.01ZM370.08,536.47c.51.56,7.11-8.37,8.02-8.89l5.16-7.16c-3.69,3.75-7.62,8.15-10.88,12.33-.45.58-2.68,3.29-2.29,3.72ZM228.5,538.76c.5.54,4.43-4.71,4.86-5.17,3.42-3.65,7.86-6.55,8.32-12.03l-5.72,6.6-7.46,10.6ZM414.79,521.57c-.88-1.03-4.34,4.05-4.85,4.6-6.35,6.76-13.46,13.63-19.22,20.91-.46.58-.88,1.31-1.15,2l22.38-22.04c2.66-1.92,4.94-.76,3.7,2.55-13.36,13.06-25.43,27.33-37.54,41.56l-3.44,4.87c12.34-12.16,24.05-25.11,36.67-36.99.7-.66,1.61-1.04,2.32-1.7,1.64-1.51,2.98-3.61,5.08-4.39.78-1.07-3.58-9.58-3.95-11.39ZM385.55,531.88c-2.79,2.07-5.35,4.36-7.75,6.87-12.04,12.59-24.29,29.07-34.9,43.06-5.91,7.79-12.65,16.33-18.01,24.41-.81,1.22-2.72,3.04-.96,4.19,18.8-26.59,38.85-52.19,60.48-76.52.57-.64,1.38-.95,1.14-2.01ZM424.54,548.5c-.93-1.45-3.4-11.46-4.3-11.45-5.27,4.9-9.6,10.6-14.92,15.46l-10.59,12.05c1.06.24,1.37-.57,2.01-1.14,7.45-6.6,13.88-14.49,21.86-20.55,2.08-1.7,4.55.52,3.37,2.79l-22.64,25.51c-4.09,5.58-8.94,10.61-13.19,16.05-.45.57-2.68,3.29-2.29,3.72,12.83-13.59,24.46-28.41,38.11-41.28l2.59-1.15ZM212.45,552.52l4.81-5.79,3.2-5.1c-1.68,1.36-3.47,2.94-4.88,4.57-1.56,1.81-3.66,3.85-3.14,6.32ZM323.65,586.91c3.87-3.09,7.23-6.13,10.3-10.04,8-10.17,15.87-21.41,23.75-31.85.74-.98,1.95-2.18,2.05-3.39-12.61,11.91-24.04,25.12-33.15,39.94l-2.96,5.35ZM303.59,579.46l21.77-29.81c-7.84,7.81-15.2,16.98-20.52,26.77-.51.95-1.3,1.93-1.25,3.04ZM425.9,569.94c1.39-1.27,4.18-2.32,2.94-4.81l-3.72,3.73-4.02,5.44c.22.24,4.24-3.86,4.79-4.36ZM325.94,623.6l43.57-57.89c-6.41,6.41-12.64,13.21-18.64,20.05-7.03,8.02-14.76,16.8-21.15,25.28-1.8,2.4-5.17,5.86-4.88,8.77l1.1,3.79ZM226.19,566.28l-7.48,8.86.31,2.02c1.6-2.38,3.39-4.66,5-7.03.78-1.14,1.97-2.49,2.16-3.85ZM425.12,581.76c1.94-1.88,5.53-4.01,5.72-6.88l-2.28,2.01-3.44,4.86ZM227.91,589.21l3.44-6.88c-1.24,1.31-4.73,5.08-4.58,6.59-.06.51,1.1.33,1.14.29ZM301.87,600.1l4.02-1.99,8.59-12.33c-.65-.7-11.32,13.48-12.61,14.33ZM325.37,634.49l1.62-1.53,25.89-36.88c-10.32,10.54-18.25,23.27-27.21,34.98l-.29,3.43ZM254.85,605.26l4.01-8.6-5.72,7.18,1.71,1.42ZM324.79,645.38l34.97-45.86c-4.3,4.12-8.22,8.85-12.03,13.48-8.15,9.89-15.82,20.21-23.21,30.68l.27,1.7ZM265.18,606.97l2.59-.56,1.99-5.17c-1.93,1.38-3.2,3.82-4.58,5.73Z"/>
      <path d="M522.85,282.53c1.63.22,5.46,1.86,6.99,2.75,15.31,8.91,13.35,31.7,19.56,46.36,3.53,8.35,7.27,11.33,12.38,18,8.67,11.31,2.2,25.98,1.47,38.64-.56,9.77.37,35.06,12.02,38.44,4,1.16,3.85-2.78,6.56-1.99,3.21.93-1.16,6.04-2.51,7.14-3.56,2.89-8.29,4.2-12.86,3.66-1.53-.18-3.07-1.02-4.63-1.11-2.15-.12.67,3.1,1.15,4.01,12.74,24.21,25.66,51.36,33.68,77.53.87,2.83,4.68,15.14,4.19,17.08-.68,2.63-3.03,1.93-3.9-.17-8.19-34.07-23.59-65.86-39.71-96.72-.46.33-.75,1.5-.82,2.04-.96,8.14-1.24,15.93,4.56,22.31,1.22,1.34,4.21,2.95,4.61,3.56.46.72.46,2.58-.1,2.98-.34.25-4.42.1-5.32,0-4.25-.46-9.95-2.88-12.96-5.96-3.51-3.58-4.91-10.17-10.88-11.18-.18,3.76-1.7,7.3-3.55,10.5-2.39,4.14-9.1,12.02-14.43,10.74-2-.48.02-5.02.17-6.08.83-6.01-.94-16.28-7.96-17.76-8.54-1.81-13.8,1.96-22.34-4.6-5.13-3.94-12.66-15.22-12.66-21.74v-11.75c-2.65,1.49-5.59,2.56-8.2,4.12-9.47,5.65-9.26,9.16-14.26,17.84-5.9,10.23-13.16,18.46-22.17,26.02.7,2.82-.55,5.64-.68,8.46-1.18,24.33,3.9,49.75,6.39,73.98-.11,2.85-3.16,3.51-3.95,1.03-.56-1.77-.93-5.86-1.21-7.96-3.1-23.27-6.96-51.72-3.81-74.69.11-.77-.35-1.6-.17-2.5.45-2.21,2.62-2.86,3.94-4.14,13.45-13.08,30.37-32.45,21.48-52.46-2.56-5.76-5.23-4.05-10.33-5.72-20.17-6.59-26.21-20.55-18.31-40.14,3.12-7.73,9.71-14.98,11.12-23.27,1.62-9.5,1.04-15.54,6.68-24.27,4.84-7.48,16.1-13.38,24.74-14.82,2.15-.36,6.65-.11,5.86,2.96-.39,1.54-4.84.73-6.44,1.05-11.91,2.36-21.33,9.95-24.78,21.66-1.77,6.02-1.33,12.64-2.97,18.24-2.01,6.85-8.28,14.12-10.94,21.16-5.72,15.12-2.91,24.98,12.09,31.79,10.34,4.69,20.15,3.85,31.05,1.6,3.34,1.24,2.25,3.61-.81,4.35-4.35,1.05-9.89,1.3-14.37,1.4,2.09,6.15,4.44,12.26,4.01,18.91l6.49-4.11,10.18-4.86c2.2-14.34,12.63-23.94,6.37-39-3.38-8.14-12.16-13.3-15.46-21.23-4.04-9.73-1.15-21.48,1.88-31.12,1.08-3.44,3.47-7.72,4.18-10.72.56-2.37-.88-4.87,3.21-4.21.43.07.76,1.21.81,1.6.34,2.76-4.39,13.93-5.46,17.79-1.93,6.96-3.75,13.08-2.31,20.33,2.24,11.22,12.9,15.95,16.92,26.08,7.28,18.32-5.51,28.21-6.77,45.13-.82,10.98,1.66,22.4,10.64,29.54,9.09,7.23,17.92.97,25.79,6.88,6.05,4.54,6.63,13.15,6.87,20.06,3.57-3.37,7.32-7.66,8.73-12.48,1.49-5.08-.39-9.89,7.03-7.29,8.79,3.09,9.06,14.02,18.35,15.75-3.15-3.63-4.24-6.94-4.59-11.74-.29-3.99.17-16.25,2.26-19.4,2.03-3.06,11.47,1.42,14.61,1.31,1.48-.05,3.29-1.22,4.92-1.12l-4.55-2.61c-10.97-7.79-11.05-34.36-9.72-46.35,1.09-9.86,5.54-20.47-.95-29.55-4.96-6.95-9.16-9.8-12.97-18.56-5.58-12.82-5.29-37.12-17.12-44.79-1.29-.83-6.47-3.18-7.71-3.18h-8.6c-1.14,0-1.14-3.44,0-3.44,3.09,0,7.45-.39,10.32,0Z"/>
      <path d="M367.21,194.25c-.77-3.6-6.92-14.2-4.91-17.23,2.49-3.76,13.25,7.8,14.65,6.34-.08-2.34,2.1-14.3,3.41-15.22.84-.59,3-.52,3.38.7l5.26,18.53c.85.21.94-.18,1.44-.57,3.21-2.46,10.6-10.4,14.33-10.37,2.63.02,2.75,1.82,2.18,3.95-1.45,5.36-5.75,11.03-7.36,16.14-.25.77-.36,1.51-.27,2.31h15.76c1.07,0,1.84,1.59,1.76,2.59-.25,3.09-8.09,5.15-10.05,7.43,0,.77,7.29,10.8,8.31,12.88.81,1.65,2.22,4.68.7,6.2-.76.77-9.17,1.62-11.04,1.86-1.35.17-2.98-.48-4.06.53-.54.81-.31,13.59-.28,15.83.02,1.55.69,2.91.65,4.56-.04,1.5-.62,6.31-1.76,6.88-2.15,1.08-3.65-.44-4.85-2.04-3.67-4.91-6.19-12.39-9.62-17.92-.63-1.02-.2-2.47-1.9-.98-.64.57-1.04,1.62-1.69,2.32-1.75,1.89-7.47,8.24-9.74,8.04-.6-.05-1.13-.38-1.5-.84-2.33-2.95,2.38-12.69,2.34-16.38h-15.76c-.38,0-2.62-1.21-2.89-1.7-.89-1.64,2.53-4.37,3.74-5.47,1.33-1.21,6.92-4.9,6.92-6.29,0-.75-.52-.99-.87-1.45-2.41-3.17-6.69-6.65-9.47-10.02-1.62-1.97-6.56-6.93-4.64-9.21.38-.45,3.36-1.38,3.77-1.38h14.04ZM393.01,194.25c2.84-2.08,6.24-4.22,6.87-8.03-2.14,1.73-3.91,3.97-5.73,6.02-.57.64-1.38.95-1.14,2.01ZM383.27,189.09c-1.06-.24-1.37.57-2.01,1.14-2.28,2.01-5.01,4.5-7.18,6.58-4.01,3.84-7.61,8.04-11.45,12.05l2.57,2.57,18.06-22.34ZM364.92,198.26c-1.86-1.27-6.8,4.81-6.78,5.45.01.34,1.05,1.02,1.34,1.42,1.6-1.47,2.9-3.22,4.3-4.87.55-.65,1.39-.92,1.15-2ZM390.72,208.01c1.5-1.42,3.36-2.69,4.87-4.02.97-.86,1.07-.83,0-1.71-.6.87-5.61,4.88-4.87,5.72ZM375.24,235.52l21.2-26.08,1.14-2c-3.66,3.11-6.91,6.67-10.31,10.06-3.17,3.16-6.5,6.46-9.78,9.69l-2.26,8.34ZM368.94,216.03c1.08-1.12,2.5-2.54,3.43-3.73.81-1.04,2.1-2.43,2.29-3.72-1.71,1.3-3.6,3.44-4.89,5.14-.6.79-1.07,1.16-.83,2.32ZM402.75,210.86c.24-.54-.51-1.71-.86-1.7-.24,0-2.7,3.15-3.15,3.72-.52.65-1.41.91-1.14,2,1.97-1.01,2.89-3.61,5.15-4.02ZM368.36,225.77c2.13.41,3.02-.94,4.31-2.28l9.44-12.62c-5.1,4.43-9.72,9.53-13.75,14.9Z"/>
      <path d="M303.46,138.2c.26.26,2.3,5.94,2.58,6.87,1.48,4.97,2.43,10.15,2.13,15.36,2.94.75,9.84-3.54,12.08-2.04,2.63,1.76-2.06,7.87-3.48,9.49.79-.04,1.55.04,2.32.27,3.39,1,8.69,2.43,11.77,3.71,4.71,1.97,2.17,4.88-1.48,6.05-3.34,1.07-7.4,1.39-10.88,1.44-.83.83,2.68,4.57,3.34,5.54,1.41,2.09,6.35,8.61.92,8.77-2.87.09-12.96-7.92-14-6.87-.09,1.42.13,2.88,0,4.3-.42,4.67-1.51,9.64-1.16,14.33.17,2.21,1.73,5.55.52,7.39-2.72,4.15-6.59-5.3-7.5-7.28-2.38-5.22-4.27-10.73-5.06-16.44-4.9,2.27-11.03,8.6-16.02,10.05-3.76,1.09-5.07-.61-3.59-4.16,1.34-3.2,5.31-8.94,7.34-12.15,1.09-1.73,3.63-4.19,3.72-6.07.04-.72-.01-.92-.77-1-2.11-1.84-7.93-3.73-9.6-5.3-.84-.78-.61-1.9-.02-2.78,1.5-2.25,12.02.5,14.93-.38-1.26-3.05,1.31-5.94,2.31-8.87,1.08-3.16,5.03-19.35,6.68-20.4.81-.51,2.26-.51,2.93.17ZM292.69,175.9c1,.91,3.73-3.43,4.29-4.02,1.43-1.5,7.61-7.01,7.76-8.3.07-.63-.26-2.02-.87-2-.91.03-9.7,12.69-11.18,14.32Z"/>
      <path d="M73.79,287.04c.79,1.14,6.35-.26,8.85,2.33,4.9,5.07.38,16.36-2.51,21.63-1.45,2.66-3.51,6.69-6.41,7.64,4.35,4.21.34,10.91-.87,16.03-1.97,8.31-4.26,17.37-5.84,25.69-.96,5.06-1.02,10.39-1.94,15.26-.39,2.05-1.9,5.33-3.7,2.64-1.27-1.9.5-8.76.82-11.25,1.41-11.02,4.04-22.08,6.64-32.91.92-3.84,2.25-7.61,3.17-11.45-6.78-1.11-12.55-4.87-18.77-7.32s-6.73-3.3-9.19,3.16c-3.82,10.04-6.58,21.73-9.04,32.24-6.32,27.11-11,54.71-15.92,82.1-.72,3.99-2.59,8.92-2.73,12.77-.34,9.21,8.53,27.36,13.1,35.67.47.85,1.56,1.65,1.75,2.28.66,2.17-1.11,3.02-2.99,2.41-.54-.18-4.02-6.7-4.68-7.94-4.36-8.17-11.67-23.89-11.19-33,.21-4,2.01-8.24,2.73-12.17,6.56-35.61,11.98-77.69,23.65-111.64,1-2.91,3.51-11.18,6.61-11.74,7.16-1.28,18.8,8.68,26.65,8.6-.44-3.07,2.41-5.26,3.91-7.85,2.68-4.65,5.21-10.16,4.69-15.65-.98-.24-1.14.38-1.72.86-1.27,1.06-3.24,3.02-4.31,4.29s-3.86,6.09-4.85,6.63c-1.28.7-2.92-.49-2.9-1.74.02-1.79,8.13-11.38,10.33-12.62-2.81-.8-6.88-.32-7.42-4.04-1-6.83,4.92-18.5,7.42-25.19.21-.55,1.07-1.64.29-2-6.91,6.36-12.44,14.9-17.02,23.11-2.43,4.36-8.4,15.51-9.39,19.88-.24,1.07.4,1.75.35,2.58-.12,1.93-3.8,2.92-4.52.46-.64-2.18,3.43-11.02,4.58-13.57,4.21-9.35,15.87-31.26,24.36-36.4,4.78-2.89,6.61.49,5.81,5.24-.97,5.77-6.28,14.2-7.64,20.44-.21.95-.58,3.98-.18,4.55Z"/>
      <path d="M210.72,363.07c-.18,1.72-1.17,5.06-1.85,6.74-.78,1.93-1.53,3.54-3.47,4.55s-4.06.59-5.56,1.9c-.2.98,8.35,10.08,2.59,9.47-2.14-.23-3.47-5.23-5.45-6.33-1.02,6.22,2.94,11.35,3.4,17.16-3.66,1.7-5.24-4.64-5.98-7.42-1.43-5.34-2.88-13.31,2.94-16.55,1.93-1.07,4.72-.76,6.27-1.76,1.7-1.09,2.94-6.84,3.12-8.92.24-2.74-.55-14.61.25-15.8.61-.91,2.86-.66,3.76-.25,2.56,1.16,7.11,10.62,8.3,13.48,3.75,8.96,6.17,20.97,5.48,30.68-.06.79-.29,1.3-.6,1.98.61.01,1.29-.08,1.88.12,2.43.83,7.28,9.83,8.16,12.49,5.17,15.59,7.6,37.15,8.33,53.58.08,1.77.22,11.01-.29,11.8-.67,1.05-2.53.62-3.23-.27-1.11-1.41-.39-10.06-.52-12.66-.72-13.7-3.46-42.17-9.44-54.19-.51-1.02-4.14-6.61-4.7-6.79-.51-.17-1.05-.12-1.57-.04-2.84.94-23.11,7.14-23.32,8.36.9,5.46,3.06,10.74,4.46,16.14,4.08,15.67,4.99,28.38,3.6,44.56-.56,6.51-5.87,12.1-10.02,16.92-6.04,7.02-14.2,15.27-21.55,20.87-.99.76-2.47,1.84-3.7,2.03-7.33,1.11-19.87-3.89-26.45-7.32-1.33-.69-5.96-3.29-6.8-4.09-1.77-1.69-.84-4.09,1.63-3.36,1.7.5,6.44,3.87,8.8,4.98,4.64,2.17,11.13,4.71,16.12,5.67,1.2.23,5.1.86,6.02.61.99-.26,6.14-4.83,7.31-5.9,3.99-3.63,8.68-8.34,12.32-12.32,4.04-4.42,11.78-12.77,12.32-18.64.8-8.8,1.14-19.78-.15-28.51-1.63-10.94-5.88-22.11-8.89-32.74.25-.97.8-1.83,1.75-2.22,7.27-2.54,14.45-5.62,21.73-8.08.98-.33,3.75-.3,3.83-1.24.03-.35-.93-2.52-1.02-3.51-1.12-12.07-1.37-19.71-6.82-31.01l-2.98-4.76c-.25,3.41.35,7.25,0,10.6Z"/>
      <path d="M83.47,191.38c.55.01.82-.53,1.03-.97.93-1.96,2.13-9.83,3.92-10.41,1.11-.36,3-.39,3.54.88.94,2.24,2.03,13.74,3.04,14.44,5.15.05,10.51-1.41,15.67-1.68,2.7-.14,7.11-.21,5.96,3.65-.43,1.42-6.31,4.03-7.94,4.68-2.62,1.05-5.6,1.47-8.02,2.87,2.2,1.39,10.62,2.94,10.91,5.74.07.64.02,1.36-.57,1.74-1.64,1.05-12.79-1.4-15.5-1.46.73,5.1,2.34,10.04,2.87,15.18.15,1.48-.1,3.08-.01,4.6.12,2,1.91,6.25-2.5,4.79-1.02-.34-3.4-6.72-4.27-8.34-1.42-2.62-3.41-4.95-4.7-7.64-5.28,4.53-8.88,10.84-14.14,15.39-1.78.43-2.46-.15-2.53-1.92-.09-2.13,3.48-9.01,4.5-11.6.46-1.18,3.3-8.39,3-8.75-2.91,1.13-6.35.41-9.48.55-2.29.1-9.77,2.02-10.52-.93-.34-1.34.84-2.07,1.83-2.6,2.54-1.36,17.33-4.74,17.59-5.93.11-.51-3.49-8.34-4.08-9.63-2.32-5.06-5.45-9.85-7.42-14.99.56-4.1,4.11-1.29,6.05.3,3.14,2.56,8.27,7.28,10.93,10.29.44.5.87,1.04.84,1.74ZM80.6,201.7c1.06-.46,4.06-4.73,1.99-5.16-1.81-.38-3.36,3.58-1.99,5.16ZM80.6,217.75l1.62-1.53,9.26-13.95c-.64-.71-11.73,13.13-10.88,15.48Z"/>
      <path d="M494.32,275.81c-4.08-3.67-23.12-5.48-29.21-6.62-8.81-1.65-16.84-4.44-24.52-9.01-.53,11.27-6.36,22.94-13.2,31.8-16.33,21.16-39.5,40.58-30.34,70.49,2.64,8.62,7.67,12.21,12.48,19.05,5.14,7.31,6.92,14.74,6.98,23.69,6.14-6.59,10.37-.07,10.89,6.59.5,6.37-2.18,11.96-2.87,18.06,6.02.31,11.69-.43,17.35-2.43,1.21-.43,2.85-1.84,3.85-1.33,1.54.77,1.34,2.73.17,3.79-3.43,3.08-20.62,5.41-24.42,3.31-1.09-.6-1.57-1.83-1.57-3.04.01-3.83,3.12-9.85,3.46-14.34.12-1.48-.22-9.47-2.57-8.89-1.1.27-5.49,10.87-8.03,5.73-.82-1.65-.14-8.56-.34-11.12-1.47-18.42-12.82-20.8-18.15-34.59-12.88-33.29,12.15-54.41,30.24-77.84,4.55-5.89,11.36-17.84,12.05-25.21.18-1.92-.54-5.49-.29-6.66,1.18-5.52,9.93,1.58,12.68,2.86,10.7,4.96,21.23,5.33,32.43,7.69,3.75.79,15.66,3.42,16.85,7.26.64,2.05-1.36,3.77-2.97,2.35-.47-.41-.59-1.25-.97-1.59Z"/>
      <path d="M136.26,453.29c-.17-.24-.18-5.19-.05-5.95.31-1.84,2.79-2.87,3.75-1.47s-1.36,3.92.53,3.46c2.59-.64.72-3.57,2.31-4s2.13,1.73,3.16,1.48,6.05-3.49,7.14-4.36c5.61-4.47,12.59-14.92,13.43-22.11,1.65-14.19-10.55-25.75-16.68-37.1-8.73-16.17-9.79-35.44-32.86-34.22-22.48,1.19-50.58,27.54-55.05,49.28-1.27,6.17.16,14.03,5.45,18.11.86.66,2.62,1.01,2.86,1.75.65,2.02-1.45,3.82-3.4,2.82-.56-.29-3.99-3.86-4.58-4.6-13.81-17.34,5.79-42.7,18.9-54.46,11.8-10.59,25.13-17.99,41.58-16.9,20.06,1.33,23.16,22.62,31.13,37.08,5.4,9.79,12.77,16.8,15.89,28.25,4.27,15.66-7.69,32.64-21.12,39.68-1.91,1-10.97,5.21-12.37,3.27Z"/>
      <path d="M138.71,223.72c-11.61,11.2-16.8,30.54-9.5,45.44,1.31,2.68,5.58,7.67,5.85,10.25.16,1.52-3.04,11.96-3.99,12.59-1.16.77-2.75.33-2.92-1.18-.32-2.73,3.22-7.74,2.9-10.84-.22-2.14-4.58-7.55-5.84-10.26-13.66-29.53,16.43-69.09,48.27-61.45,21.77,5.22,39.92,26.47,35.27,49.63-3.66,18.22-22.05,39.45-40.28,43.98-1.16.29-2.51-.13-3.61.41-1.97.97-3.9,12.23-7.44,5.76,1.39-2.04,2.42-7.31,3.97-8.66,1.3-1.12,5.3-1.2,7.38-1.79,17.89-5.09,38.16-30.24,36.8-49.19-1.22-17.09-15.55-31.01-31.4-35.66-13.44-3.94-25.83,1.69-35.45,10.97Z"/>
      <path d="M246.44,242.58c-7.46,7.78-9.23,15.09-8.15,25.84,1.51,15.07,11.93,27.35,25.14,33.9,1.97.98,9.19,3.3,10.05,4.28,1.6,1.83,2.18,7.7,3.75,10.06.31,1.15-.96,2.35-2.02,2.35-2.96,0-3.6-7.91-5.16-9.56-.64-.68-7.64-3.06-9.29-3.9-18.2-9.3-28.31-26.8-26.55-47.41,1.4-16.35,21.47-30.24,35.98-34.53,18.73-5.54,36.98.44,47.6,16.87,8.45,13.07,6.68,37.57-2.51,50-.84,1.14-5.17,5.52-5.33,6.17-.27,1.08,2.03,8.86,2.53,10.49.96,3.17-2.9,3.19-4.05.03-.78-2.16-2.36-9.71-1.98-11.77.31-1.7,5.14-6.27,6.54-8.36,8.02-11.95,8.63-34.54,0-46.34-17.09-23.38-48.66-16.82-66.56,1.86Z"/>
      <path d="M155.69,249.85c-.53-3.89,1.88-13.48,7.03-12.52,3.53.66,2.16,6.03,1.27,8.5-1.33,3.69-6.5,7.8.87,8.61-1.92-5.01,8.27-14.46,11.18-8.6,1.55,3.11-2.81,7.05-4.59,9.16-1.66,1.97.06,2.36,2.42,2.74,4.22.68,8.34-1.95,11.33-1.62s1,3.76-.58,5.18c-7.11,6.39-18.38,11.32-25.18,18.96l-10.04,16.76c-2.96,2.24-4.17.41-3.02-2.87.64-1.8,9.11-15.66,10.44-17.07,2.25-2.39,7.8-6.63,10.62-8.87s5.64-3.88,8.3-6.03c-1.91-.74-4.13-.67-6.05-1.4-1.3-.49-2.56-1.94-3.53-2.2-1.68-.45-3.3.24-5.17-.56s-3.04-3.6-3.69-4.05c-.5-.35-2.46.01-3.52-.22-1.61-.35-2.97-2.22-4.09-3.36l-2.61-4.55c-1.09,6.69-.59,14.02.83,20.66.24,1.13.62,3.22,1.02,4.14.71,1.62,1.96,1.36,1.57,4.11l-8.34,18.62c-1.65,2.84-4.69,1.7-3.88-1.54,1.29-5.13,6.11-11.72,7.64-17.09-2.15-9.59-3.58-18.7-2.87-28.63.13-1.85.77-6.87,1.27-8.48.53-1.68,3.04-2.18,4.2-.99.7.72,1.66,5.35,2.28,6.89.3.76,3.57,7.7,4.86,6.31Z"/>
      <path d="M287.53,265.9c-2.53,2.97-5.09,1.66-7.64,2.27-.25.06-1.49,2.32-3.09,2.75-2.3.63-4.99-.64-6.07-.37-.91.23-2.99,2.94-4.72,2.77l-7.14-.25,5.44,7.17c4.91,4.85,9.65,9.85,14.88,14.35l9.37,17c.87,3.07-1.65,4.23-3.59,1.86-3.56-4.35-6.48-12.66-9.64-17.59-8.67-7.03-17.66-16.39-23.81-25.77-.83-1.27-4.02-5.01-1.46-5.85s3.99,1.68,5.76,2.71c2.65,1.54,7.92,3.59,10.73,1.75,1.95-1.28-.99-3.57-1.87-5.45-1.32-2.84-2.74-7.98,1.94-7.72,3.01.17,4.98,4.63,5.4,7.25.16,1-.22,3.15.12,3.61.43.6,3.2,1.48,3.97.28,1.4-2.18-1.39-4.85-1.72-7.4-.37-2.86.24-6.07,3.7-6.03,4.7.06,3.35,7.74,3.71,10.65.33,2.72,3.86-3.19,4.19-4.41.54-1.98.08-10.7,4.17-7.39,1.48,1.2.68,7.26.81,9.51.54,9.12,2.5,18.41.83,27.53,1.64,5.62,5.56,12.85,6.51,18.45.45,2.64-1.27,4.23-3.35,2.77-.87-.61-6.41-18.22-6.7-20.24-.5-3.55.1-8.75-.15-13.04-.22-3.72-.25-7.47-.57-11.18Z"/>
      <path d="M323.49,337.4c-1.47,1.64-6.62,3.02-8.83,4.06-7.29,3.45-17.73,9.24-25.76,9.83-4.19.31-6.24-6.02-7.77-9.33-2-4.3-5.83-12.28-6.95-16.55-.61-2.34-.58-5.97,2.7-5.01,1.8.53-.01,3.77,1.72,3.35,8.55-2.04,17.58-7.66,26.28-9.84,2.4-.41,8.68-5.15,10.08-2.34l9.03,22.52c.39,1.03.24,2.48-.5,3.31ZM312.75,317.48l-.84-2.26-32.39,12.03,3.44,9.17,19.91-6.78c2.66-.19,3.24,1.49,1.89,3.65l-19.52,6.27c-.92.69-.29.66-.08,1.25.76,2.16,2.52,4.18,2.99,6.5,8.54-1.14,15.49-5.24,23.09-8.7,1.35-.61,7.77-2.76,8.16-3.3.42-.58.8-2.59-.55-2.27-6.61,1.58-13.97,6.31-20.7,8.02-1.97.25-2.79-1.88-1.43-3.2,6.96-2.95,14.02-6.11,21.22-8.31l-3.76-8.59c-6.38,2.66-12.74,5.91-19.46,7.49-2.3.05-2.8-1.95-.82-3.17l18.87-7.79Z"/>
      <path d="M129.33,297.43c1.93-1.22,9.23,1.55,10.63,2.85.81.75.93,2.29.2,2.83-.91.67-8.84-2-9.92-2.86-1.23-.98-.42-2.11-1.48-2.24.05,1.3-1.09,2.9-.32,4.03,1.3,1.9,14.56,5.84,17.71,8.1,2.41,1.73,1.86,3.57-.93,3.85l-18.5-8.53c-.98-.38-1.91,2.65-1.73,2.89l20.22,9.04c2.07.58,2.87,3.97.45,4.16-7.71-2.69-15.01-6.74-22.63-9.78.21,1.13-1.69,2.31-.59,3.15l15.22,6.57c.64,1.31.42,2.73-1.18,2.92-2.91.35-12.35-5.43-16.05-6.33-.22-.05-1.51,3.82-1.4,4.23l28.06,8.95,7.16-19.5c.89-1.09,3.69-.92,3.76.87l-7.59,21.1c-1.51,2.77-8.03.75-10.66-.02-5.63-1.63-15.68-4.54-20.75-6.76-3.42-1.5-4.77-2.62-3.74-6.6,1.32-5.15,5.62-12.28,7.86-17.36.6-1.36,3.02-8.64,3.41-8.91.52-.37,2.64-.18,3.11.47.69.95-.41,1.92-.31,2.89Z"/>
      <path d="M46.59,472.35c1.81-.54,2.95.54,2.4,2.4-.26.88-2.08,2.07-2.77,2.97-1.5,1.95-2.91,4-4.26,6.05-1.69,2.57-4.89,7.44-6.02,10.08-.26.62-.6,1.05-.23,1.76,5.74,14.81,11.11,30.65,19.43,44.24,10.54,17.24,23.24,33.5,31.69,52,1.11,2.43,5.98,13.63,5.84,15.4-.17,2.23-2.83,1.8-3.97-.08-3.43-5.66-5.76-14.86-9.14-21.24-11.96-22.58-28.54-41.99-38.62-65.71-3.48-8.2-6.03-16.79-9.41-25.03-.41-.82-.07-1.38.2-2.13.68-1.91,3.76-6.12,5.06-8.15,1.5-2.36,7.69-11.94,9.8-12.57Z"/>
      <path d="M454.14,490.67c.67-.2,1.23-.1,1.63.53,8.03,9.66,14.63,20.86,19.89,32.27,2.85,6.18,7.29,16.4,7.92,23.03,1,10.46-3.09,26.99-5.44,37.56-3.46,15.58-7.84,30.94-13.03,46.01-1.5,2.99-3.9,1.29-3.78-1.44,4.94-14.85,9.36-29.85,12.8-45.14,2.3-10.22,6.38-26.33,5.44-36.41-1.05-11.19-13.67-35.51-20.16-45.18-1.24-1.84-6.16-7.16-6.55-8.39s.04-2.46,1.29-2.83Z"/>
      <path d="M552.65,471.88c3.47,0,1.03,3.04.58,4.4-1.33,4.04-2.38,8.19-3.87,12.18-3.37,9.04-10.82,22.18-8.19,31.97.61,2.29,4.8,8.01,6.38,10.24,12.46,17.54,27.36,33.53,41.23,49.92,1.43,1.69,7.45,8.61,7.62,10.13.08.69-.73,2.26-1.39,2.46-1.88.56-4.3-4.12-5.39-5.41-14.6-17.23-30.39-34.31-43.8-52.5-1.98-2.69-7.94-10.99-8.66-13.69-3.09-11.53,5.92-27.08,9.91-37.71.88-2.33,2.68-9.91,3.84-11.06.35-.35,1.28-.93,1.74-.93Z"/>
      <path d="M177.47,586.34c-.83-.17-.6.64-.74,1.25-.42,1.89-.37,6.17-2.11,7.07-1.21.63-2.81.41-2.91-1.16.62-4.6,1.76-9.21,2.27-13.82.55-5.02.98-10.36,1.23-15.39.15-3.06-.67-10.29.05-12.56.43-1.36,2.87-1.37,3.28,0-.32,2.12.7,4.32.7,6.23,0,1.31-.94,2.64-.34,3.72,3.71-5.92,5.51-12.85,8.17-19.28-1.05-4.57-2.32-9.54-4.33-13.79-1.13-2.39-4.61-6.69-5.15-8.61-.81-2.88,1.59-4.28,3.25-2.1,3.44,4.51,8.9,16.31,9.67,21.86.67,4.8-2.28,11.61-4.16,16.19-2.84,6.92-6.9,13.39-8.31,20.9,3.93,12.44,8.21,24.37,14.8,35.68.96,1.64,5.29,7.42,5.27,8.51-.03,1.31-1.55,2.41-2.87,1.73-2.86-1.48-9.93-15.79-11.57-19.4-2.49-5.47-4.86-11.14-6.2-17.01Z"/>
      <path d="M491.7,315.12c-.68-.98.5-3.47,1.81-3.28,2.93.42,8.65,10.28,9.84,13.12,9.73,23.15,1.82,48.4-.8,71.99-.62,5.57-2.18,19.12,3.07,22.62,2.38,1.58,3.24-2.05,5.47-.91,3.35,1.72-1.88,6.9-6.28,5.16-6.88-2.73-7.21-13.86-6.92-20.07,1.2-26.11,15.56-64.04-3.74-86.77-.81-.96-2.35-1.72-2.44-1.85Z"/>
      <path d="M130.45,485.43c-.53-3.2-1.76-6.26-2.22-9.49-.59-4.13-.51-8.91,0-13.08.23-1.85.97-5.22,3.42-3.53,1.37.95.03,3.83-.04,5.19-.31,6.16.25,10.7,1.75,16.61.5,1.95,2.52,4.48.29,6.65-.91.89-6.52,2.67-8.21,3.26-7.11,2.48-18.77,6.18-26.14,5.86-5.61-.24-9.09-3.64-11.94-8.17-1.17-1.87-4.92-9.21-4.81-11.02.06-1.02,3.92-5.48,4.82-6.97,2.49-4.12,5.07-9.8,6.16-14.48.25-1.07.09-2.79.52-3.49.57-.94,2.71-.84,3.1.39,1.61,5.09-4.77,16.96-7.69,21.39-.77,1.17-2.5,2.03-2.51,3.74,0,2.08,3.99,8.79,5.45,10.57,1.88,2.32,3.72,3.77,6.82,4.06,4.52.43,11.33-1.4,15.78-2.58,5.21-1.38,10.28-3.4,15.46-4.9Z"/>
      <path d="M528.06,342.19c1.24-.36,2.45.02,2.54,1.38.88,15.12-1.79,31.96,1.42,46.73,1.55,7.14,6.56,14.77,10.95,20.58,1.17,1.55,4.71,3.91,4.19,5.95-.37,1.44-1.82,1.86-3.11,1-3.74-2.52-11.86-15.14-13.72-19.53-7.04-16.55-1.89-37.24-3.16-54.74.03-.59.33-1.21.91-1.38Z"/>
      <path d="M81.75,417.24c-.76.85-.67,5.15-.45,6.46.9,5.37,8.62,17.17,14.75,11.58,1.31-1.2,1.42-4.5,4.26-3.67,2.46.72-.18,5.32-1.42,6.51-8.82,8.39-18.86-3.99-20.91-12.25-.92-3.72-1.44-10.89,3.15-12.4,2.91-.96,7.45,2.79,6.05,5.49-1.71,3.31-4.44-2.85-5.45-1.72Z"/>
      <path d="M460.51,374.11c-.62.61-4.38,1.99-5.47,2.27-7.29,1.9-14.26,1.53-21.16-1.45-1.73-.75-9.91-4.66-5.91-6.72,1.72-.89,4.53,2.03,6.3,2.89,5.67,2.74,12.37,3.27,18.48,1.87,2.04-.47,5.3-2.39,7.01-2.18,1.84.23,1.74,2.33.73,3.33Z"/>
      <path d="M526.13,334.56c-.51-.52-2.27-8.13-2.98-9.91-1.94-4.89-6.23-9.88-10.31-13.2-1.16-.94-4.59-1.54-2.92-3.44,1.42-1.62,3.4-.81,4.9.31,2.57,1.91,8.58,8.33,10.13,11.08,1.32,2.33,5.04,12.16,4.4,14.32-.43,1.43-2.17,1.93-3.23.84Z"/>
      <path d="M421.48,314.1c1.1-.31,2.52.88,2.51,1.95-.05,3.29-16.68,17.86-19.76,20.96-1.56,1.11-4.04.88-3.78-1.45.16-1.44,6.8-6.29,8.35-7.74,2.78-2.6,6.07-5.79,8.6-8.6.94-1.04,3.16-4.86,4.09-5.12Z"/>
      <path d="M148.1,423.98c-.85.84-6.94,2.93-8.44,3.3-4.12,1.02-9.86,1.78-14.06,1.42-1.77-.15-6.35-.65-6.44-2.67-.15-3.51,3.81-1.43,5.86-1.34,6.63.29,13.28-.15,19.36-3.01.9-.42,1.51-1.61,2.42-1.61,1.83,0,2.58,2.64,1.29,3.91Z"/>
      <path d="M243.25,217.86c2.51-.41,3.14,1.12,1.92,3.09-5.01,2.46-10.26,4.64-15.35,7-1.63.76-2.99,2.44-5.05,2.45-2.17,0-2.68-1.66-1.43-3.21,4.53-2.05,8.83-4.67,13.37-6.69,1.62-.72,5.04-2.4,6.55-2.65Z"/>
      <path d="M451.84,273.99c2.07-.67,4.42,1.4,6.37,2.1,1.81.65,3.86,1.35,5.74,1.71s7.47.46,8.49,1.25c3.9,3.02-3.42,3.04-5.2,2.91-2.81-.21-14.65-3.05-16.07-5.14-.58-.86-.46-2.46.67-2.83Z"/>
      <path d="M324.61,209.24c2.15-.64,2.97.81,2.18,2.76s-4.94,6.38-6.48,8.43-2.86,4.09-4.09,6.23c-1.34,1.5-3.68,1.19-3.48-1.14.14-1.63,10.45-15.87,11.86-16.29Z"/>
      <path d="M207.38,189.77c1.16-.81,3.9-.18,3.1,2.22s-6.97,8.32-8.92,10.58c-1.36,1.58-1.94,4.79-4.6,3.44-.35-.18-1-.87-1.07-1.23-.29-1.38,9.22-11.84,10.83-13.7.33-.38.46-1.17.66-1.31Z"/>
      <path d="M172.66,177.08c1.41-.41,2.57,1.08,2.51,2.48-.08,2.02-1.6,6.5-2.11,8.84-.66,2.99-.99,6.19-1.85,9.04-3.49,1.25-3.1-2-2.84-4.57.32-3.15,1.91-10.72,2.96-13.66.25-.7.58-1.91,1.34-2.13Z"/>
      <path d="M131.95,182.25c.77-.22,1.72-.16,2.25.52l8.05,16.01c.15,1.9-1.99,3.32-3.48,1.77-1.75-4.73-5.71-9.88-7.28-14.5-.36-1.07-1.09-3.36.46-3.81Z"/>
      <path d="M133.22,408.52c-1.35,1.43-3.05-.37-3.61-1.59-1.52,2.4-2.36,5.66-5.44,2.86-.37,2.62-1.9,3.9-4.59,3.44-.38-1.84,1.42-7.25,3.63-6.77.46.1,1.66,1.53,2.1,1.03.46-.52,1.36-5.24,4.07-3.2.77.58.01,2.17,1.09,2.05-.1-1.89,1.76-5.4,3.47-3.18.9,1.16.13,4.45-.72,5.36Z"/>
      <path d="M187.36,324.23c-.64-3.72-6.49-11.41-6.49-14.48,0-3.97,2.78-1.4,4.07.57,2.45,3.75,3.86,8.38,6.03,12.3-.06,2.34-1.72,2.92-3.61,1.62Z"/>
      <path d="M340.84,265.9l16.33,1.15c2.39.72,3.14,3.1.03,3.46-2.16.25-15.2-.42-16.12-1.71-.5-.7-.18-2.04-.25-2.9Z"/>
      <path d="M456.35,329.71c4.45,0,4.06,12.6-1.14,11.88-1.98-.27-2.69-5.45-2.58-7.13s1.94-4.75,3.71-4.76Z"/>
      <path d="M345.82,237.3c.95-.28,2.19.61,2.41,1.49.6,2.37-6.36,6.67-8.24,8.21-1.59,1.31-2.89,4.12-5.2,2.32-1.2-.94-.75-1.82.07-2.87l10.96-9.14Z"/>
      <path d="M204.45,294.03c.47-.34,2.14.02,2.81.27,1.08.41,8.91,6.57,10.07,7.7,2.08,2.03.54,4.41-2.45,3.02-1.15-.54-8.39-6.41-9.61-7.58-.78-.75-1.82-2.69-.82-3.41Z"/>
      <path d="M447.24,314.67c1.21-.36,5.88,2.37,8.12,2.68,2.41.34,7.44-.92,6.4,2.68-.38,1.32-4.72,1.03-6,.93-2.04-.16-8.22-1.64-9.16-3.45-.49-.94-.49-2.51.64-2.84Z"/>
      <path d="M243.91,310.1c.08.06.59,1.57.54,1.86-.17.89-9.9,8.3-11.11,8.42-1.81.18-3.1-1.16-1.71-2.91.55-.69,9.28-7.13,9.89-7.31.57-.17,2.01-.35,2.39-.07Z"/>
      <path d="M109.63,386.35c4.36-1.42,9.39,7.81,4.23,9.45-3.25,1.03-8.03-8.21-4.23-9.45Z"/>
      <path d="M132.58,372.02c3.41-.84,8.86,7.63,5.35,9.4-4.38,2.2-9.61-8.35-5.35-9.4Z"/>
      <path d="M402.34,349.17c.38-.4,1.25-.67,1.87-1.27,1.16-1.13,5.49-6.37,6-6.62,2.12-1.06,3.63.51,2.58,2.58-.75,1.47-6.87,7.91-8.28,8.37-2.28.74-3.39-1.76-2.16-3.05Z"/>
      <path d="M102.25,374.95c.23.22.52.99.5,1.31-.03.57-5.56,8.9-6.09,9.18-1.82.96-3.38-.11-2.78-2.19.36-1.22,5.58-8.72,6.57-8.91.41-.08,1.49.32,1.8.61Z"/>
      <path d="M131.92,361.31c2.46.13,2.62,3.05.45,3.66-.56.16-5.14.76-5.6.7-2.27-.28-2.81-3.26-.49-3.93.63-.18,4.83-.47,5.64-.43Z"/>
      <path d="M126.82,443.09c1.42-.4,2.33,1.04,2.22,2.29-.06.71-.97,5.28-1.16,5.68-.35.75-1.44,1.37-2.28,1.14-1.64-.44-1.2-8.43,1.21-9.11Z"/>
      <path d="M134.36,444.87c1.43,1.46-.93,5.48-.54,7.53-.31,1.02-1.46,1.19-2.44.9-2.42-.7-.27-11.75,2.98-8.43Z"/>
      <path d="M120.51,441.95c3.54-.95,1.65,9.31-1.22,8.53-1.67-.46-1.07-7.91,1.22-8.53Z"/>
      <path d="M153.73,395.48c1.74-.47,8.14,4.22,5.43,6.03-2.31,1.55-8.98-5.07-5.43-6.03Z"/>
      <path d="M151.51,400.77c1.01,1.13,1.14,3.16-.7,3.32-3.69.32-8.01-7.1-3.55-6.26.54.1,3.85,2.49,4.25,2.94Z"/>
      <path d="M114.2,439.66c1.16-.36,3.14-.16,3.1,1.35-1.18,1.62-.8,6.02-3.16,6.06-2.55.05-1.46-6.94.06-7.41Z"/>
      <path d="M116.71,411.5c1.24,1.33-2.25,8.53-5.18,6.61-1.65-1.08,1.82-5.8,2.89-6.32.53-.26,2.1-.49,2.29-.29Z"/>
      <path d="M142.27,400.08c2.97-.89,6.26,5.37,3.32,6.24-2.13.63-5.74-5.51-3.32-6.24Z"/>
      <path d="M138.39,406.81c-.45.63-2.81,1.14-3.25-.26-.69-2.16-.42-6.72,2.79-5.09,1.52.77,1.14,4.38.46,5.34Z"/>
      <path d="M340.66,463.49c4.07-4.08,4.76-14.03,4.06-19.45-.28-2.15-2.5-8.94-4.11-10.21-2.72-2.15-2.47,1.42-4.63,1.22-2.27-.21-1.76-3.51-.02-4.64,4.36-2.85,7.84.86,9.79,4.58,3.77,7.21,4.06,17.8,1.28,25.41-2.14,5.85-7.96,11.36-14.17,6.97-3.93-2.77-2.5-7.08.86-4.87,2.24,1.48,3.78,4.16,6.95.99Z"/>
      <path d="M333.97,422.4c1.89-2.36,5.75-2.52,4.28,1.13-.56,1.39-6.8,7.87-8.02,8.05-3.01.45-2.85-1.82-2.43-4.18.16-.92,3.23-9.23,3.58-9.6.7-.73,2.28-.95,2.91-.02.82,1.23-.64,3.21-.31,4.61Z"/>
      <path d="M305.72,423.06c3.35-.66,3.76,4.59,3.63,7.09-.11,2.2-1.39,7.92-4.24,7.61-4.03-.45-3.18-7.6-2.54-10.36.41-1.77,1.12-3.94,3.14-4.34Z"/>
      <path d="M297.33,466.58c4.46-.16,8.06,2.34,12.72,1.54,1.31-.22,6.22-2.89,6.18.42-.05,4.57-14.99,3.44-18.02,1.37-1.33-.91-1.51-1.94-.88-3.33Z"/>
      <path d="M302.8,409.83c1.49-.43,11.23,3.73,11.62,4.9,2,6.09-9.82-1.21-11.63-1.56-1.34-.6-1.3-2.96.02-3.34Z"/>
    </g>
</svg>