<?xml version="1.0" encoding="UTF-8"?>
<svg class="svg-include" id="Layer_1" xmlns="http://www.w3.org/2000/svg" version="1.1" viewBox="0 0 612 792">
  <!-- Generator: Adobe Illustrator 29.6.1, SVG Export Plug-In . SVG Version: 2.1.1 Build 9)  -->
  <g id="AfysMj.tif">
    <g>
      <path d="M206.61,329.57c.55.74,3.47,1.59,1.9,3.77-.46.63-5.9,1.21-7.03,1.1-1.56-.16-6.31-2.01-7.81-2.8-2.66-1.41-4.03-3.74-6.65-4.8-.84,4.24,3.39,6.17,5.77,9.21,4.18,5.34,9.11,14.82,9.17,21.65.13,14.09-12.26,13.48-16.14,23.49-1.13,2.91-1.72,6.57-2.78,9.58,2.81,25.09,9.86,49.96,8.12,75.37,5.12.72,14.95,3.25,17.32,8.25,2.58,5.44,4.4,25.15,4.98,32.05.52,6.2.49,12.86.6,19.1l7.07-3.92.85-40.18c.67-1.14,5.97-1.56,7.65-1.75,5.59-.64,11.69-.7,17.33-1.18l-4.8-7.25c-8.52-15.13-4.13-37.9,13.95-43.27,25.8-7.68,47.4,23.73,35.53,46.4,5.57-.4,11.18-.68,16.75-1.17,1.82-.16,8.58-1.86,9.44-.62,1.73,2.5-1.54,31.46-.42,36.69-.38,1.37-2.72.22-4.3.37-26.93,2.48-29.16,38.97-3.29,46.19,1.62.45,5.17-.1,5.81,1.83,1.16,3.46-.3,14.02-.52,18.1-1.17,10.93,1.25,27.17-.7,37.51-.11.61-1.72,4.5-2.01,4.57l-91.89-1.21v-28.8c-1.11.19-2.82-.28-3.76-.03-.47.13-2.42,7.38-4.63,8.44-1.73.83-4.41-.66-6.58-.78-1.89-.11-7.23-.31-8.72.14-.52.16-7.46,6.02-8.37,6.91-9.2,8.94-21.17,23.68-29.64,33.85-9.32,11.19-30.51,44.21-44.53,46.58-23.15,3.91-49.4-23.17-61.76-40.24-15.23-21.02-21.16-45.4-31.16-68.78-4.7-10.99-18.65-32.51-16.99-43.84,1.36-9.26,11.78-15.87,17.47-22.49-1.35-1.84-4.7-1.38-6.06-2.11-4.75-2.52-13.68-14.02-14.83-19.32s3.68-3.16,7.61-3.63c10.4-1.25,14.61-6.37,18.69-15.4,16.12-35.71,4.11-70.25-.02-107.18-2.31-20.68-6.44-60.29,1.39-78.98,10.09-24.06,65.94-35.3,89.34-36.45,10.1-.5,32.39-.88,41.58,1.9,1.81.55,8.97,5.5,10.71,6.92,11.21,9.16,23.89,28.42,27.51,42.44,2.61,10.12,2.48,25.23,8.85,33.77ZM120.01,248.64c-.63-.66-4.17,3.23-4.71,3.8-1.8,1.89-4.2,4.5-5.86,6.48-.56.66-1.42.96-1.17,2.06,3.45-3.38,7.47-6.58,10.58-10.29.55-.66,1.42-.95,1.17-2.06ZM130,248.64l-5.88,5.58-1.17,2.06c2.59-2.25,5.47-4.55,7.05-7.64ZM90.63,270.39c5.82-6.25,13.4-12.65,18.8-19.1.55-.66,1.43-.96,1.17-2.06l-2.64,1.17c-5.33,5.99-10.98,11.81-16.16,17.93-.56.66-1.42.96-1.17,2.06ZM153.91,249.32l-38.9,41.64.6,1.76c13.39-14.22,27.05-28.21,40.25-42.61-.61-.76-.91-1.07-1.95-.79ZM101.2,250.41c-1.1-.26-1.4.61-2.06,1.17-8.11,6.8-14.84,17.06-22.63,24.4l-1.17,2.06,24.4-25.27,1.46-2.36ZM135.3,279.21l25.86-26.16-.3-1.46c-5.57,6.36-11.86,12.06-17.64,18.2-2.1,2.24-4.83,5.07-6.75,7.36-.56.66-1.42.96-1.17,2.06ZM86.51,253.35l-2.91.91c-9.09,9.48-17.97,19.33-26.48,29.36-.56.66-1.42.96-1.17,2.06,10.55-10.38,20.41-21.54,30.56-32.33ZM168.21,256.29c-2.46.13-4.78,3.21-6.48,4.98-10.38,10.77-19.88,22.44-30.55,32.94l-1.17,2.06c13.15-12.88,25.6-26.56,38.2-39.97ZM69.46,258.64c-2.72-.1-4.71,2.57-6.48,4.39-5.38,5.54-9.86,12.11-15.27,17.65l-1.17,2.06c8.09-7.55,15.53-15.85,22.92-24.1ZM171.44,259.82c-.85-.01-9.92,11.14-11.77,12.33-.79.53.32,1.77.6,1.76.89-.04,10.73-11.35,12.63-12.63-.38-.28-1.25-1.46-1.46-1.46ZM167.04,282.14c1.1.25,1.39-.62,2.06-1.17,2.75-2.28,7.39-6.96,9.7-9.7.4-.47,1.76-1.23.59-1.77-.89-.41-9.62,9.41-11.17,10.59l-1.17,2.06ZM174.09,286.85c2.92-2.75,6.22-5.45,8.81-8.52.56-.66,1.42-.96,1.17-2.06-2.92,2.75-6.22,5.45-8.81,8.52-.56.66-1.42.96-1.17,2.06ZM157.29,277.73c-.39-.4,0-1.07-.84-.87-1.33,5.62-3.89,11.05-6.37,16.27-4.84,10.18-12.01,22.57-20.67,29.89-2.23,1.89-7.59,6.71-9.74,2.63-.77-1.47.63-2.22.75-3.3.28-2.61-1.67-10.83-2.48-13.74-.37-1.34-.9-3.9-2.05-4.7-.77,8.03-.18,16.6-4.02,23.91-4.69,8.92-15.61,16.75-25.96,16.66-.43.37,2.84,4.37-.4,5.22-2.11.55-2.46-2.96-3.76-4.3-4.28-4.42-10.12-2.91-12.82,2.38-4.29,8.41-2.45,21.88,4.03,28.75,2.33,2.47,8.27,6.05,10.59,2.05-4.31.84-5.73-4.32-1.92-5.74,7.44-2.76,12.93,3.88,14.56,10.43,2.86,11.51-.15,27.55-11.52,33.3,1.33,10.7,4.93,21.7,1.97,32.41-1.47,5.3-5.09,10.77-8.39,15.12-1.09,1.44-8.26,8.63-7.58,9.64l67.85,41.8c1.24.16.74-.09.86-.88,2.16-14.07,3.58-28.27,5.93-42.31-1.97-2.52-4.93-4.45-6.99-7.17-8.3-10.98-7.28-24.41-4.81-37.22-9.44-2.08-20.63-4.08-29.53-7.8-1.46-.61-13.36-6.48-9.79-8.63,1.63-.98,8.14,3.63,10.32,4.57,10.41,4.49,34.49,10.16,45.91,11.69,13.21,1.78,16.57-2.78,21.41-14.15,3.86-9.06,7.79-33.49,13.12-39.2,5.06-5.41,13.27-7.38,13.26-16.76,0-5.52-5.7-15.92-9.2-20.23-1.04-1.28-5.89-5.34-6.03-5.73-1.13-3.29.25-16.87-.07-21.68-.34-5.13-1.99-12.3-5.58-16.17s-12.62-7.17-15.93-10.52c-1.19-1.21-2.37-3.8-4.12-5.62ZM185.85,280.98c-.08.06-.23,1.12-.86,1.77-2.2,2.3-4.61,4.42-6.78,6.75.83.57,2.58,3.06,3.3,3.19.61.11,6.96-6.04,7.18-6.85.41-1.49-1.65-5.73-2.84-4.86ZM124.72,310.37c8.41-8.7,17.37-17.06,25.17-26.26l.68-2.55-20.28,21.74-5.57,7.06ZM191.72,290.97c-.6-.5-6.12,4.89-6.49,5.55-.65,1.15-.67,1.99-.55,3.27,1.78-1.87,5.85-4.77,7.11-6.76.35-.55.2-1.83-.06-2.06ZM101.79,306.84c3.04-2.72,6.72-6.13,9.13-9.38.59-.8,1.08-1.24.85-2.38-2.9,3.22-6.01,6.39-8.81,9.7-.56.66-1.42.96-1.17,2.06ZM30.67,355.63l48.78-57.61c-4.85,4.41-9.38,9.28-13.82,14.1-10.47,11.37-22.9,24.41-32.33,36.45-1.86,2.38-3.27,3.7-2.63,7.06ZM28.32,310.37c.23.25,2.56-2.26,2.92-2.66.52-.58,3.93-4.55,3.54-4.98-1.11.61-2.07,1.72-2.92,2.66-.52.58-3.93,4.55-3.54,4.98ZM34.2,379.73c1.16.27,1.39-.61,2-1.23,4.69-4.74,10.7-13,15.03-18.48,1.01-1.27,2.57-2.86,2.95-4.39-5.66,5.72-11.42,12.19-16.44,18.53-.63.79-4.16,4.91-3.54,5.57ZM35.38,392.08l27.03-35.27-26.46,30.84c-.97,1.27-.51,2.94-.56,4.43ZM77.77,384.52c-2.46,1.53-.68,22.71,5.41,22.13s7.1-20.49,3.03-24.56c-1.55,3.5-7.19,1.65-8.44,2.42ZM40.06,413.83c.06-.05.17-.96.59-1.44,3.74-4.27,7.66-9.08,11.15-13.56.51-.66,3.38-3.92,2.96-4.39-5.74,5.3-10.28,11.86-15.57,17.64-.83.98-.09,2.58.87,1.76ZM37.73,406.19l2.33-2.07,5.3-7.33c-1.9,1.45-3.8,3.72-5.27,5.6-.84,1.07-2.17,2.47-2.36,3.81ZM177.03,411.48c1.85-2.08,4.57-4.71,4.1-7.64-2.52,1.61-3.48,4.89-4.1,7.64ZM37.71,450.28c10.38-14.83,22.26-28.58,33.27-42.9l-.36-2.36c-10.83,11.63-20.9,24-31.15,36.15-.85,2.26-1.64,4.96-2.09,7.32-.12.6-.77,1.93.32,1.79ZM77.1,415.02c-.83.13-2.34-1.6-2.92-1.18-.06.05-.13.98-.58,1.45-5.62,5.86-11.2,12.61-16.46,18.84-6.34,7.5-19.02,21-23.52,28.8-3.19,5.54-3.99,11.15-8.84,16.44-2.89,3.15-6.6,3.97-8.82,6.04-.61.58-5.71,7.72-5.78,8.22-.25,1.69,1.62,2.54,2.57,3.68l64.36-82.28ZM149.4,460.86c1.53.03,3.02,1.29,4.13-.27,8.01-12.4,17.26-24.03,25.39-36.34,1.5-2.27,3.78-4.77,3.98-7.48l-33.5,44.08ZM82.39,426.18l-3.83,3.51c-19.94,23.93-39.99,47.81-58.47,72.9,1.05.03,1.88,1.08,2.62.01l59.68-76.43ZM142.33,462.62l21.17-31.74-4.98,1.78-18.45,25.68c-1.24.99,1.33,5.06,2.26,4.28ZM275.18,434.99c.74-1.11-2.41-2.72-3.24-1.81l-27.64,27.66-.85,2.38,31.73-28.23ZM54.39,477.56c9.13-7.18,19.86-19.6,26.8-29.36,2-2.81,3.42-4.67,2.96-8.5-10.19,12.04-20.34,24.25-29.97,36.75-.26.33-1.31,1.92-1.18,2.05,1.01.97,1.19-.78,1.39-.93ZM168.21,462.63c.36.32,2.04-.13,2.36-.87l11.74-17.35-4.34,4.76c-.57,1.4-10.38,12.91-9.76,13.46ZM251.68,478.5c11.37-10.48,22.55-21.15,34.03-31.51,2.49-2.24.6-3.34-2-1.41-3.11,2.32-8.69,8.13-11.78,11.15-6.56,6.4-12.42,13.42-19.09,19.71l-1.17,2.06ZM159.98,462.04l2.27-.96,9.48-13.73c-.64-.69-10.87,13.61-11.75,14.69ZM291.05,460.87l-30.56,30.56c1.1.26,1.4-.61,2.06-1.17,2.74-2.31,5.26-5.46,7.93-7.95,3.51-3.27,18.76-15.87,20.03-18.77.37-.84.61-1.75.55-2.68ZM159.98,465.57l-10-.59v5.3c1.66-.58,8.58,1.32,9.38.55.19-.18.64-4.45.62-5.26ZM201.62,538.96c.25-.15,1.91-4,2.79-5.15,1.18-1.55,4.85-4.12,5.24-4.76,1.04-1.72-.02-20.23-.3-23.8-.4-5.31-1.12-11.69-1.83-16.98-.58-4.32-.82-11.19-4.43-13.79-5.8-4.16-28.14-7.86-35.73-8.35-1.06-.07-2.17,0-3.22.06l-9.5,72.51c-.49,5.05-3.63,3.18-6.8,1.64l-93.36-56.99c-14.18,12.78-28.23,25.75-41.73,39.24-6.69,8.31-4.51,12.78-1.16,21.75,3.89,10.42,9.9,19.13,14.09,28.82,12.89,29.81,17.52,54.74,40.56,79.95,9.78,10.71,32.81,30.92,48.33,25.39,13.74-4.9,31.54-33.39,41.33-45.08,8.82-10.53,21.86-26.35,31.72-35.3,3.13-2.84,9.35-5.78,9.95-10.04,1.54-10.94-2.68-26.44-7.88-36.09-12.64,11.28-26.69,21.78-41.26,30.45-16.68,9.92-40.56,19.14-50.39,36.61-.91,1.62-3.25,7.88-3.56,8.2-.9.93-2.73.93-3.16-.4-1.91-5.78,10.1-20.12,14.45-24.01-4.11-8.74-7.92-17.61-11.45-26.61-1.58-4.02-5.56-18.17-7.38-20.54-1.71-2.23-9.51-4.79-10.99-6.35-1.17-1.23-.27-2.84,1.01-3.16,1.59-.39,7.85,3.55,9.57,4.62.13-1.21,2.05-8.5,2.44-8.74.36-.23,2.39-.23,2.77,0,1.84,1.14-1.3,6.87-1.55,8.59-.51,3.59,7.65,23.58,9.59,28.34,2.91,7.15,6.16,14.21,9.41,21.2,21.52-13.32,44.05-24.33,64.28-39.75,5.63-4.3,12.17-9.6,17.11-14.63,1.93-1.96,4.08-6.32,6.78-6.74,1.19-.19,3.63.27,4.28-.13ZM61.81,482.62c.89-3.62,7.16-6.18,2.66-9.4l-6.75,6.75,4.09,2.65ZM158.76,475.03l-9.95-1.23-.58,5.29,9.99,1.18.54-5.24ZM64.76,484.96c4.52,3.21,5.42-2.33,8.21-4.99,0-.34-2.99-2.13-3.53-1.81-.35.21-4.98,6.39-4.69,6.79ZM289.88,478.51c-1.15-.24-1.58.26-2.38.85-3.29,2.42-6.87,7.4-9.96,10.31,1.1.26,1.4-.61,2.06-1.17,3.43-2.89,6.95-6.87,10.28-9.99ZM80.02,483.82c-.12-.17-3.56-1.83-3.76-1.79-.42.1-5.36,6.63-5.03,7.04,1.47-.16,3.4,2.43,4.63,1.7.14-.08,1.04-2.13,1.59-2.82.7-.88,3.41-2.93,2.57-4.14ZM157.63,483.8l-9.99-1.18-.59,5.88,9.99,1.18.59-5.88ZM281.65,517.89l31.77-31.42.55-3.85c-10.52,10.64-21.48,21.78-31.15,33.21-.56.66-1.42.96-1.17,2.06ZM6.58,489.67c.93.68,3.33-3.02,2.93-3.53l-4.11.59,1.18,2.93ZM83.95,486.79c-.61.1-4.94,5.12-5.03,5.61-.2,1.1,3,2.97,3.88,3.06,1.34.12,4.22-5.02,5.46-6.08,0-.25-3.93-2.65-4.31-2.59ZM91.14,500.21c.69-.48,2.99-5.46,4.76-6.13,0-.26-3.91-2.65-4.39-2.66-.4-.01-4.09,5.49-4.94,6.19,0,.68,3.99,3,4.57,2.6ZM155.87,498.49c.82-5.46.58-5.54-5-5.87-4.76-.29-4.89-.41-4.98,4.68l9.98,1.19ZM99.23,496.2c-1.26.22-4.29,4.83-5.04,6.12.02.23,3.56,2.62,3.79,2.6.38-.03,4.29-5.86,4.35-6.23.13-.89-2.5-2.59-3.1-2.49ZM109.98,503.74c.12-.2.02-.55.03-.84-4.78-5.51-6.22.57-8.81,4.39,5.82,3.25,4.68.96,7.65-3.09.35-.48,1.1-.41,1.13-.46ZM225.23,512.01c3.13-2.91,6.66-6.44,9.4-9.7.56-.66,1.42-.96,1.17-2.06-2.75,2.9-7.44,6.28-9.72,9.38-.59.8-1.09,1.23-.85,2.38ZM155.28,502.61l-9.99-1.77c-.11,1.48-1.23,5.24-.51,6.39.24.39,8.52,1.92,8.95,1.8,1.56-.44.66-4.91,1.54-6.41ZM108.84,512c1.29-.25,3.02,1.94,3.79,1.77.82-.18,3.19-5.95,4.43-6.76-3.55-3.82-7.28,1.54-8.22,4.99ZM122.95,510.26c-.89.15-1.64-1.04-2.17-1.12-1.33-.21-3.93,5.69-4.88,6.97l3.52,1.78,3.54-7.63ZM153.51,512.61l-9.99-1.19-.59,6.47,9.99,1.18.58-6.46ZM122.36,520.23c.13.17,3.17,1.15,3.79,1.77.58-.13,3.83-6.57,3.6-7.07-.27-.57-3.66-2.47-3.84-2.34-.19,1.3-4.07,6.93-3.54,7.63ZM231.69,541.99l3.56-.85c7.1-8.87,15.59-16.65,22.89-25.31.56-.66,1.42-.96,1.17-2.06l-26.45,26.16-1.17,2.06ZM132.93,526.12c.08-1.88,5-8.81.88-8.85-1.65-.01-4.16,7.09-3.77,7.63.09.13,2.37.73,2.89,1.22ZM144.7,533.17l-5.87-12.34c.01,1.87-2.75,5.72-2.3,7.25.21.73,7.81,5.43,8.17,5.08ZM152.34,522.6l-8.81-1.17,6.47,14.1c.85-.11.98-.81,1.12-1.51.73-3.51.78-7.8,1.22-11.42ZM225.23,533.76c2.19-1.93,4.58-3.94,6.46-6.17.56-.66,1.42-.96,1.17-2.06-2.19,1.93-4.58,3.94-6.46,6.17-.56.66-1.42.96-1.17,2.06ZM218.17,566.98c.41,5.42-.3,11.29,0,16.75,8.4-.17,18.37-1.5,26.68-.52,2.51.29,6.13,1.68,8.58,2.59,3.89,1.44,9.98,5.73,12.93,6.49,1.62.42,4.67.31,4.49-1.79-.26-3.1-10.25-8.41-13.09-9.62-1.87-.8-8.81-2.58-9.35-3.6-1.58-2.96,3.97-3.28,5.92-3.53,8.08-1.05,15.74-1.06,24.1-2.35,1.71-.26,4.94.74,5.87-1.18.52-1.07.66-4.78-.29-5.59-2.04-1.74-15.14-.62-18.52-.28-2.54.25-16.53,3.04-17.32,2.67-1.17-.54-1.35-1.85-.65-2.86,1.93-2.75,28.35-4.25,32.96-4.52-.44-2.1.81-3.42,1.17-5.29-13.79-3.08-27.66,1.81-41.35,3.47-1.59-.49-1.17-3.12.2-3.77l24.94-4.34c1.19-3.13.31-3.81-2.46-4.61-5.58-1.6-17.65-.49-23.94-.15-3.12.17-16.13,2.14-17.96.91-1.2-.81.02-3.34.06-4.71.15-4.99-.16-10.03-.03-15.02-3.97,2-15.39,9.44-15.77,13.93-.09,1.06,3.42,3.81,4.26,4.94,4.95,6.61,7.94,13.68,8.57,22ZM198.59,542.68c-.63.15-5.09,5.11-5.43,5.8-.49.97.41,2.33,1.27,2.88l10.8-5.54c-1.14-1.84-4.56-3.62-6.63-3.14ZM210.53,554.34c.24-.26-1.98-4.68-3.2-4.7-.66-.01-10.31,4.77-10.63,5.3-.47.77.13,2.96.67,2.95l13.17-3.55ZM213.47,565.51c.11-1.43,0-7.13-1.54-7.6-1.66-.51-11.18,3.45-13.75,3.49.3,1.06,1.13,4.96,2.02,5.12l13.26-1.01ZM214.06,569.03l-13.51,1.19c-.18.19.41,5.06.6,5.25.48.47,11.76.28,13.49.62l-.58-7.05ZM214.04,580.22l-12.33-1.19c.23,1.14-.35,5.33.07,5.82.35.41,10.08,1.4,10.73,1.17,1.3-.45,1.59-4.43,1.53-5.8ZM211.11,589.62c-3.28.88-10.91-3.5-9.99,1.76,3.25-1.13,9.93,3.03,9.99-1.76ZM249.91,589.03l-2.07,1.16-18.51,22.34,3.22-.59,17.35-22.91ZM295.17,613.71l2.96-.86c3.64-6.67,10.62-11.91,12.9-19.13l-15.86,19.98ZM225.21,610.77l10.58-15.28c-2.67,3.11-10.49,9.57-11.19,13.2-.09.49-.33,2.27.61,2.08Z"/>
      <path d="M439.17,602.84c-.24.77-1.34.83-2.03.91-9.19,1.08-20.19-.3-29.42-.67-1.93-.08-6.31,2.23-4.89-2.47.32-1.06,4.1-5.24,5.11-7.84,8.46-21.82-17.02-39.21-31.65-20.48-4.51,5.77-5.86,14.11-3.41,21.02.66,1.88,3.12,4.83,3.31,5.55.16.6-.36,3.44-.57,3.62-1.12.96-25.22-.99-28.74-.81-.98-.54-1.07-1.33-1.2-2.33-.5-3.85.25-8.91.05-12.98-.22-4.5-1.02-9.56-1.22-14.06-.19-4.12.83-12.92-.24-16.23-.92-2.85-3.97-1.97-6.1-2.72-11.37-4-16.95-15.19-15.97-26.93.97-11.54,10.36-21.32,22.33-19.7l-.51-32.25c1.07-1.72,18.04.14,21.25-.79,1.2-.35,9.64-11.96,12.16-14.29,6.86-6.33,21.05-13.2,30.37-13.76,3.04-.18,3.39,1.23,5.35,1.61,4.94.96,15.1-6.46,21.35-4.34,2.23.75,1.22,3.94,5.54.92,6.51-4.55,10.48-17.65,9.44-25.32-8.58-1.5-19.89-.08-27.32-5.6-12.11-9-19.81-31.67-22.79-45.99-4.83-23.21-4.74-48.09-2.11-71.57-22.13-10.14-16.46-36.62,1.15-48.36,2-1.33,6.39-2.86,7.8-3.96.82-.64,2.16-3.68,3.26-4.97,5.07-6.01,10.18-8.02,16.13-12.08,2.33-1.59,4.34-4.27,7.13-5.81,6.24-3.44,15.41-4.3,22.29-2.68-2.37-8.76-3.58-16.73-.6-25.6,8.54-25.46,42.32-33.56,62.33-16.45,4.75,4.06,6.84,8.6,10.59,12.93,4.73,5.46,10.35,3.99,16.66,5.09,32.1,5.6,55.06,30.58,45.2,64.45-4.4,15.11-16.52,28.47-33.07,28.95,7,16.02,8.1,36.43,1.28,52.71-6.25,14.9-23.71,29.12-9.22,46.64,1.7,2.05,5.91,4.43,6.7,5.65,3.7,5.75-8.21,5.19-11,4.52-1.21-.29-5.52-2.92-5.99-2.53.97,2.6,1.8,5.2,3.28,7.59,1.36,2.19,5.35,5.41,5.85,6.54.93,2.08-.84,3.56-2.89,3.46-4.98-.25-11.51-4.19-15.05-7.6-.64,5.7,6.91,18.72-5.01,11.76-1.15-.37,3.05,11.03,3.38,11.9,4.21,11.06,10.75,23.06,18.68,31.88,2.05,2.28,10.43,10.79,13.12,10.33.43-.08.39-1.09,1.09-1.38,1.42-.59,3.57-.77,4.91.16,17.37,15.23,31.69,30.6,35.47,54.47.26,1.65-.28,3.82.04,5.13.1.43,2.3,1.05,3.24,2.18,5.44,6.54,4.93,37.37,4.99,46.74.14,20.52-1.68,63.97-11.63,81.79-4.96,8.89-15.6,11.8-25.16,13.05-43.53,5.71-62.02-21.8-88.69-49.89-3.26-3.44-14.49-17.25-17.77-18.09-7.87-2.02-12.41-2.23-19.94-6.51-2.28-1.29-4.25-3.27-6.66-4.22-.48,2.51.65,7.59,0,9.7ZM534.4,268.04c1.27-.13,2.12-.1,3.26.56,1.97,1.12,6.81,7.12,9.07,9.15,5.09,4.58,5.33,6.14,12.48,4.83,22.31-4.09,32.45-32.05,26.48-52.03-5.46-18.29-23.58-29.94-41.67-32.98-8.11-1.36-13.87.48-19.92-6.53-3.59-4.15-5.43-8.45-9.97-12.37-10.35-8.94-28.06-10.76-39.87-3.99s-19.98,20.41-17.31,34.73c.25,1.35,2.08,7.47,2.76,8.27,1.13,1.35,15.66,4.89,19.08,7.52,2.32,1.78.5,4.3-2.15,3.34-13.88-6.65-30.28-12.46-44.51-3.4l16.67,1.83c19.18,3.21,39.56,5.51,54.75,18.72,9.99,8.69,23.25,26.17,24.4,39.68,1.12,13.13-.88,27.68-3.6,40.5,14.31,6.29,12.9,28.95,9.88,41.66-1.75,7.36-6.87,14.08-15.12,13.39-1.16,1.13,1.41,26.67,3.56,29.07.72.8,2.4,1.23,3.21,2.08.56-1.2-.68-2.48-.84-3.87-.25-2.2-.54-7.68,1.71-8.77,4.5-2.17,7.51,5.4,11.76,5.58-1.83-2.16-7.35-14.66-4.62-16.37,3.11-1.95,10.76,5.1,14.61,4.02-4.98-5.04-8.72-10.63-9.39-17.93-1.65-17.8,9.21-23.35,14.97-37.92,5.13-12.98,5.34-32.74-.18-45.66-2.31-5.42-4.59-5.65-8.34-9.29-2.03-1.98-9.63-8.85-10.6-10.56-.65-1.15-.68-1.99-.56-3.26ZM462.1,249.23c8.32,8.1,13.99,33.92,3.49,41.4-2.22,1.58-8.55,3.5-6.98-1.07.27-.79,5.26-1.3,7.13-5.83,4.54-10.99-1.95-31.89-13.1-37.1-2.18-1.02-15.08-3.07-17.12-2.56-11.31,2.81-17.49,15.19-14.01,26.05,1.41,4.38,6.62,12.68,11.63,13.07,1.73.13,5.81-1.9,5.47,1.57-.31,3.2-6.69,2.54-8.83,1.78-5.03-1.79-9.86-8.76-11.62-13.65-3.4-9.47-.73-18.84,5.15-26.6-7.6-.2-13.68,7.79-15.98,14.29-2.69,7.57-1.36,19.91,7.15,23.05,1.32.49,5.32.05,5.33,2.33.02,4.56-10.67.73-12.39-1.73l-3.5-5.01c-6.31,35.38-8.02,82.05,8.91,114.82,10.47,20.26,19.38,20.43,40.75,19.8,21.76-.64,44.99-8.91,52.62-31.44,3.22-9.5-1.47-4.47-4.48-6.73-1.97-1.49-.39-3.31,1.78-3.6,5.52-.76,6.76,2.27,11.03,3.72,10.4,3.53,14.27-2.61,16.17-11.79,2.09-10.1,3.76-36.4-12.41-34.75-2.06.21-7.25,3.14-7.72.54-.65-3.63,3.56-2.74,5.02-3.83,1.82-1.35,1.49-13.44,2.34-16.17-1.93,1.89-3.04,4.58-4.71,6.75-6.47,8.44-22.28,22.4-20.42,33.97.63,3.96,3.54,7.03,7.76,6.29,1.53-.27,6.49-5.56,6.83-1.45.51,6.19-13.07,8.37-17.18.1-3.46-6.96-1-13.7,2.57-19.98,12.64-22.23,33.99-25.31,17.84-56.28-1.74-3.34-4.52-7.49-7.37-9.97,4.4,10.65,7.44,22.73,3.04,33.91-2.01,5.09-7.18,10.52-12.79,11.31-2.5.35-11.28.27-10.15-3.65.84-2.91,3.8-.68,5.54-.47,10.21,1.24,14.97-8.46,15.52-17.3.6-9.75-4.87-26.45-13.5-31.75-1.18-.73-12.43-6.67-12.94-6.16,1.44,3.88,4.07,7.32,5.57,11.18,3.98,10.21,5.43,25.36-3.8,33.21-1.96,1.67-10.09,6.64-10.05,1.76.02-2.63,4.21-2.58,6.48-4.15,12.46-8.63,4.16-31.65-3.24-41.36-3.05-4-5.62-5.79-10.82-6.51ZM410.37,248.06c-10.64,3.26-16.55,18.8-13.37,28.94.31.99,1.84,4.39,2.79,3.09l2.5-16.31c1.02-6.05,4.42-11,8.08-15.73ZM398.03,290.38c-.51-1.4.81-3.95.53-4.91-.22-.78-1.91-1.33-2.61-2.12-4.59-5.25-4.54-13.59-2.91-20.01,1.03-4.04,3.33-7.43,4.98-11.18-6.34,5.12-11.88,14.95-11.18,23.25.48,5.77,5.2,13.95,11.19,14.97ZM442.87,466.58c23.82,13.56,46.38,29.19,70.68,41.9,5.71.58,22.5-15.12,27.03-19.38,1.88-1.77,14.74-14.04,14.93-15.09.22-1.22-5.52-4.96-6.73-6.08-20.24-18.69-31.64-49.61-33.78-76.74-.21-2.64.57-8.59-.08-10.5-.26-.77-2.51-1.63-3.11-1.51-.42.08-2.37,6.33-2.97,7.62-9.94,21.55-31.99,31.36-54.98,31.14.1,11.93-3.8,26.73-15.91,31.51.46,6.02,2.77,11.59,4.92,17.12ZM436.82,462.63l-4.08-16.21c-5.14.33-9.84,2.52-14.72,3.88l18.8,12.34ZM413.28,451.51c-.15-.22-3.55-1.92-4.25-1.74-2.36.62-5.14,7.35-8.85,6.42-2.37-.59.73-4.38,1.96-5.04.09-.45-.54-.36-.86-.28-8.59,2.22-17.88,7.84-23.83,14.38-.73.81-6.49,7.98-5.86,8.54l58.19-.59c-2.05-2.18,3.21-6.64,2.93-7.89-.1-.45-5.53-4.22-6.47-3.62-1.79,1.16-1.48,7.09-5.87,5.63-.9-3.58,2.32-5.54,2.89-8.76l-6.7-4.18c-1.41,1.44-2.73,7.05-5.19,6.41-4.04-1.07,2.76-8.09,1.91-9.29ZM438.59,577.27v9.11c0,2.21,9.46,7.88,11.63,8.94,6.35,3.1,17.65,6.41,24.49,4.26,1.62-.51,3.24-2.57,5.03-1.46,3.11,1.92-1.55,4.68-3.52,5.33-1.09.36-4.11-.19-3.54,1.15l44.66,46.46c10.57,8.88,23.1,16.4,37.24,17.36.67-.16,1.79-5.69,1.57-5.9-.2-.19-4.49.12-4.59-2.54-.12-3.17,4.91-.74,5.17-.99.23-.22,1.28-5.67,1.22-6.13-.07-.51-3.14-.56-3.9-2.11-1.88-3.88,4.91-1.41,5.55-1.82.59-.38,1.88-6.07,4.55-7.5s6.74-1.04,9.62-1.84c.2-.19-2.78-3.57,0-5.02,3.14-1.63,2.93,4.22,3.91,4.46.7.17,5.3-.4,5.49-.62.45-.5-2.03-4.5.89-4.74,3.37-.28,2.39,3.9,2.63,4.16.44.47,11.2-.35,12.93,0,1.35-10.28,3.77-20.53,4.7-30.86,1.65-18.32,2.47-51.65-1.34-69.2-.73-3.39-1.15-6.17-5.13-5.16-.38,1.5.65,9.36-.04,9.96-.35.3-2.77.14-3.23-.51-.81-1.14.19-6.9-.85-8.86-1.46.93-6.51.51-7.37,1.73-1.07,1.53.98,7.84-.61,8.3-5.54,1.6-1.86-7.33-3.73-8.6-.39-.27-9.11-1.18-9.45-.85-.12,2.05.8,9.78-2.64,9.44s.4-8.95-1.92-10.02c-.57-.26-8.03-1.44-8.35-1.17-.52,1.97-1.16,10.9-4.35,9.94s1.17-8.84.78-11.09l-8.45-2.32c-1.43.36-1.92,9.18-5.32,8.15-2.87-.87,1.98-8.24.79-9.92-.24-.34-5.29-1.6-6.13-2.38-1.89,1.74-3.42,8.48-6.17,7.97-3.83-.72.89-6.43,1.81-8.3.31-.63.96-.35-.03-1.16-1.56-1.28-4.68-2.02-6.44-3.25-.2,1.81-4.97,10.72-6.99,7.56-1.59-2.49,4.78-7.93,2.88-9.62-.43-.38-4.62-2.69-4.95-2.62-1.39.32-3.25,7.76-5.86,6.98-3.94-1.18,2.5-7.55,1.72-8.79-.24-.38-6.61-4.13-7.01-4.06-1.87.31-2.82,7.05-5.66,5.56-3.39-1.78,2.08-6.14,1.73-7.61-.22-.93-6.06-3.29-7.28-3.9-.66,0-2.04,7.18-5.02,5.63-3.41-1.77,2.06-6.14,1.73-7.61-.09-.39-5.63-3.75-6.25-3.81-2.01-.17-3.24,7.32-6.08,5.55-2.35-1.47,1.21-6.11,2.31-7.68,0-.46-6.2-4.54-6.98-4.77-2.8-.8-3.76,7.63-7.68,5.98-2.68-1.9,4-7.16,2.88-9.06-.32-.55-5.88-3.01-6.69-4.14-2.22,1.19-3.98,8.05-6.75,6.73-3.3-1.57,2.67-6.93,2.88-8.34.22-1.54-6.8-3.97-7.88-5.48-1.97,1.43-3.1,9.01-6.21,6.79-2.6-1.85,3.11-7.73,2.32-9.08l-11.36-6.53-3.27,5.87c1.24-.31,8.03.48,8.27,1.56.26,1.17-.62,3.16-.65,4.59-.18,7.34.8,14.65.66,21.78-.04,2.2-1.54,6.52-.34,8.52.63,1.05,9,6,10.89,7.92,1.56,1.57,3.45,5.48,4.72,6.45,6.99,5.29,22.67,6.03,28.76,14.15.84,1.12,1.07,2.94,1.77,3.52,1.04.88,9.21,3.48,11.37,4.5,6.37,3.02,12.85,6.88,18.99,10.4,24.81,14.21,57.98,32.83,70.05,59.86.76,1.7,3.87,8.1.89,8.99-2.51.75-2.89-3.99-3.64-5.65-12.56-27.99-46.7-46.84-72.6-61.43-7.72-4.35-15.44-8.9-23.91-11.65,1.47,2.53,1.84,15.51.04,16.79-4.5,3.2-2.56-7.35-2.62-8.76-.29-6.57-2.29-14.73-8.37-17.96-4.37-2.33-13.42-6.07-18.16-7.7-1.46-.5-.54.53-.42,1.01.21.81,1.22,4.42,1.46,4.72,1.18,1.46,8.68,2.43,8.69,5.14.02,3.66-7.84-.75-8.25-.29.11,1.35-.47,3.41.57,4.42,1.3,1.27,8.84,2.62,8.86,5.27.03,3.79-7.93-.53-9.43-1.47.62,1.59-.8,4.46-.64,5.52.13.87,9.13,3.08,8.27,5.93-.81,2.69-7.21-1.14-8.52-2.02l-2.03,5c-.12.56,10.21,3.65,7.67,6.98-1.6,2.1-6.82-2.93-8.05-3.12-1.52-.24-1.92,4.26-3.74,4.94,0,.75,7.08,3.15,6.39,5.76-1.06,4.06-6.65-2.22-8.55-2.41-1.3-.13-4.17,2.26-6.08,1.65.85,2.25,6.85,3.67,6.36,6.08-1.05,5.11-10.45-4.59-12.82-4.91ZM519.11,510.84c-.51.67,13.43,7.35,14.71,7.91,17.11,7.54,43.48,14.75,61.96,10.28.7-.17,1.13-.08,1.42-.93,1.06-3.1-4.03-17.7-5.52-21.37-5.9-14.62-17.65-24.21-28.87-34.65-1.21-.21-8.71,9.31-10.19,10.85-4.95,5.13-11.13,11.17-16.47,15.87-5.17,4.56-10.64,9.44-17.05,12.05ZM430.35,477.33c-5.02-.79-3.57.82-5.89,3.8l-30.55,34.4,36.44-38.2ZM425.66,498.49c3.11-2.89,7.23-6.59,9.72-9.96.59-.8,1.09-1.23.85-2.38-2.52,2.01-4.72,4.58-6.76,7.04-1.28,1.54-3.13,3.47-3.8,5.3ZM440.35,514.95v16.17c0,.6-2.22,1.98-3.08,1.38-10.08-4.43-20.8-9.91-31.47-12.67-2.49-.65-7.3-2.64-8.94-.17,4.37,1.34,8.62,3.25,12.74,5.19,2.24,1.05,13.14,6.1,13.59,7.57.25.8.11,1.7.12,2.53-.67.02-1.35.07-2.01-.04-4.37-.67-18.18-8.98-24.13-11.14-2.12-.77-7.62-2.75-9.55-2.83-2.27-.09-1.49,2.67.22,3.92,8.58,6.28,22.76,10.4,31.76,16.44,3.41,2.28,2.4,5.09-1.6,3.95l-30.23-15.59c-.91.19-2.29,5.19-.63,5.89,3.05,3.11,29.68,15.18,30.22,16.82.96,2.93-2.05,2.81-4.06,2.28-5.44-1.42-14.21-9.05-19.68-10.88-1.46-.49-.53.55-.44,1.03.25,1.35.39,2.27,1.37,3.33,2.72,2.95,18.79,9.37,23.48,11.78,4.73,2.43,9.08,5.51,13.88,7.87,8.33,4.08,15.4,8.64,20.48-2.28,6.34-13.63,6.3-32.69-3.52-44.66l-8.52-5.88ZM349.25,577.27l32.32-40.56c-11.46,11.54-22.21,24.09-32.31,36.75v3.81ZM349.84,597.84c5.13-5.15,9.01-11.59,13.53-17.33,8.44-10.71,17.47-20.99,25.86-31.75l.57-2.66c-10.97,11.83-21.62,24.22-31.38,37.1-1.62,2.14-7.42,8.97-8.14,10.67-.56,1.31-.5,2.59-.44,3.97ZM349.84,586.67l27.61-35.86c-7.84,8.41-15.69,17.81-22.56,27.1-1.91,2.58-4.99,5.55-5.05,8.76ZM413.31,562.58c-1.05-.22-1.44.54-2.07,1.16-.44.44-3.61,4.33-3.22,4.71.88.87,4.98-4.98,5.29-5.87ZM430.36,571.39c-.99.05-1.09-.66-2.06-.07-1.35.83-7.06,7.98-8.51,9.77-2.68,3.31-6.88,7.1-7.06,11.45l17.63-21.16ZM361,598.43c1.19,1.04,6.33-5.5,6.73-6.49s.39-1.9.31-2.92c-1.05.51-7.49,9.01-7.04,9.4ZM415.08,599.02c.23.26,1.47-1.18,1.74-1.49.57-.65,4.5-5.75,4.13-6.15-.72.18-1.26.94-1.74,1.49-.57.65-4.5,5.75-4.13,6.15ZM428.6,599.6c.74.74,1.53-.95,1.89-1.34.53-.59,3.79-4.68,3.4-5.12-.87.38-5.77,5.98-5.28,6.46ZM598.46,641.35l-9.99.59c-.59.57,2.44,7.66-.89,7.4-3.07-.24-2.02-6.44-3.61-6.84-.84-.21-5.08.13-5.44.66.94,2.17.54,8.55-2.71,5.25-2.33-2.37,1.72-6.57-7.46-3.97-2.15.61-5.11,3.04-4.54,5.39.22.89,3.24.66,2.8,2.89-.49,2.47-3.66.8-4.3,1.51-.52.58-1.62,4.33-1.43,4.97.51,1.7,6.34.32,5.72,3.51s-5.21.35-6.39,1.21c-.79.58-.59,3.9-1.13,5.04,7.81-1.23,16.74-.67,24.1-3.82,1.25-.53,7.1-3.69,7.94-4.4,3.99-3.33,6.73-14.28,7.34-19.41Z"/>
      <path d="M161.56,317.53c5.16-1.58,6.95,8.35,7.16,12.02s-.91,11.95-6.04,8.96c-4.16-2.43-5.92-19.51-1.13-20.98Z"/>
      <path d="M143.08,395.76c2.26-2.26,4.19,2.3,5.71,3.68,1.05.95,3.64,2.73,4.9,3.33,2.34,1.11,9.21,2.1,9.83,2.51,1.85,1.24.12,3.5-2.16,3.65-5.57.38-16-5.02-18.36-10.2-.47-1.04-.91-1.98.07-2.96Z"/>
      <path d="M77.12,356.83c-.66.66.87,5.98,1.43,7.05.36.69,4.55,4.57,1.68,5.3-5.81,1.47-7.93-11.15-6.36-14.71,1.02-2.3,4.27-2.38,5.6-.34,2.1,3.22-2.04,2.38-2.36,2.7Z"/>
      <path d="M163.94,302.22c1.68-.24,2.98,1.44,2.44,3.06-.21.64-10.37,6.21-11.68,6.59-3.34.95-3.85-1.67-2.11-3.89,3.2-.77,8.5-5.35,11.35-5.76Z"/>
      <path d="M471.95,391.64c1.92,1.85-1.62,6.6-3.07,8.11-1.84,1.93-11.86,10.07-12.98,4.73-.52-2.46,2.7-2.29,4.05-3.08.76-.45,7.92-5.58,6.85-6.37-13.61.03-29.24-2.7-41.54-8.72-1.78-.87-8.01-3.87-7.56-6.03.87-4.2,6.89,1.09,9.12,2.12,8.94,4.11,21.66,7.78,31.47,8.5,2.75.2,12.21-.66,13.66.74Z"/>
      <path d="M414.9,311.66c8.2-2.5,7.24,16.08,1.05,20.45-1.82,1.29-2.41,1.6-4.38.27-4.83-3.25-1.93-19.12,3.33-20.73Z"/>
      <path d="M464.87,325.75c9.77-2.9,2.67,26.84-4.57,19.62-3.14-3.13.05-18.28,4.57-19.62Z"/>
      <path d="M454.37,370.99c1.36.86.51,3.62-2.01,3.98-6.03.86-18.3-3.53-22.88-7.6-1.66-1.47-4.75-5.87-1.18-6.48,2.79-.48,2.4,2.11,4.43,3.81,3.17,2.66,11.48,5.58,15.6,6.15,1.43.2,5.42-.25,6.03.14Z"/>
      <path d="M519.58,346.93c-.62-.41-2.32.23-2.78-1.06-.91-2.58,2.42-3.98,4.67-2.88,3.99,1.96,4.25,21.28-.6,23.51-3.76,1.73-6.97-2.85-4.28-3.69.77-.24,1.84.04,2.54-.4,1.9-1.2,1.82-14.58.45-15.48Z"/>
      <path d="M423.49,303.7c-2.14-1.54-2.03-2.95-5.77-3.32s-7.65,2.27-8.57,2.08c-2.55-.52-2.13-2.92-.16-4.34,3.75-2.71,10.26-2.37,14.25-.33,5.73,2.93,4.08,8.68.25,5.91Z"/>
      <path d="M477.3,320.28c-2.33,1.47-3.49-1.61-4.65-2.53-1.73-1.37-5.77-3.22-7.91-3.18-1.18.02-6.21,2.54-4.91-2.03,1.43-5,17.74-.05,18.08,5.75.02.38-.41,1.86-.6,1.98Z"/>
      <path d="M483.26,203.36c2.89-1.17,5.29-3.26,8.24-4.4,3.4-1.31,9.03-2.5,12.63-2.53,1.67-.02,15.52,1.45,16.2,1.9.81.55.77,2.46.27,3.28-.37.61-4.17,2.15-5.31,2.91-4.12,2.77-7.55,7.65-9.09,12.36,3.35-2.83,6.73-6.28,10.38-8.72,2.94-1.97,7.87-5.99,10.43-1.82l2.68,9.94c1.4-2.55.52-8.6,1.48-10.58,2.91-6.02,9.75,8.47,10.57,10.59,5,12.82,6.18,28.47.31,41.14,12.12-4.89,12.06-23.69,8.67-34.25-1.24-3.86-8.88-15.65-8.69-17.75.47-5.1,7.84.37,9.6,1.55,18.96,12.74,33.06,45.98,12.43,63.37-2.9,2.44-10.96,7.44-14.66,7.07-1.83-.18-2.83-2.19-1.21-3.56,1.18-1,6.69-2.43,9.09-3.84,23.75-13.9,10.6-46.37-7.3-59.03-.4-.13-.4.48-.28.87.9,2.87,3.69,6.49,4.85,9.85,5.07,14.62,2.61,39.71-16.85,41.06-2.44-3.91,1.06-7.52,2.26-11.23,4.39-13.49.88-27.49-4.98-39.95l-2.33,8.53c-1.52,2.95-5.28,15.83-8.55,16.18-.53.06-1.04.03-1.49-.28-1.71-1.24,2.21-14.06,2.38-17.1.21-3.6-.21-6.28-1.17-9.69-.92-.8-9,5.41-10.26,6.49-2.19,1.87-8.07,8.91-9.72,9.67-1.04.48-2.97.73-3.44-.66-.99-2.95,2.43-11.72,4.14-14.51l6.95-9.21c-9.63-1.38-19.25.72-26.99,6.81-1.76,1.38-5.81,6.66-6.51,7.04-1.84,1.01-3.09-.92-2.84-2.81,1.14-8.74,10.56-21,19.13-23.84l9.56-1.89c-8.52-2.87-15.91-3.57-24.06.91-6.94,3.82-14.37,14.78-14.19,22.89.07,2.9,4.02,6.96.8,7.85-5.42,1.5-4.25-11.69-3.52-14.73,4.72-19.55,25.19-27.8,43.3-20.15,2.54,1.07,13.26,6.69,12.31,9.88-3,3.15-8.34-1.49-12.58-1.97-10.04-1.12-17.7,3.94-22.63,12.34Z"/>
      <path d="M546.46,286.27c2.61-.79,4.87,7.51,5.29,9.38,2.65,11.79.99,24.96-2.37,36.47-.56,1.91-1.98,6.79-2.98,8.19s-3.16,1.93-3.72.24c-.5-1.52,2.79-9.84,3.41-12.3,2.51-9.9,4.15-19.65,2.33-29.87-.38-2.13-4.36-11.39-1.97-12.12Z"/>
      <path d="M538.87,278.67c3.41-1.12,4.32,6.84,4.76,9.23,1.77,9.65,2.12,23.62.75,33.33-.26,1.86-.48,6.56-2.64,6.8-3.92.43-1.07-8.97-.88-11.5.81-10.48.51-20.04-1.33-30.4-.28-1.59-2.87-6.73-.65-7.46Z"/>
    </g>
  </g>
</svg>