<?xml version="1.0" encoding="UTF-8"?>
<svg id="Layer_1" xmlns="http://www.w3.org/2000/svg" width="800" height="1000" version="1.1" viewBox="0 0 800 1000">
  <!-- Generator: Adobe Illustrator 29.6.1, SVG Export Plug-In . SVG Version: 2.1.1 Build 9)  -->
  <path d="M137.91,875.23c-2.77.46-6.12-1.64-7.42-4-.93-1.68-4.83-13.04.24-10.09.69.4,8.35,12.92,7.18,14.09ZM185.22,935.15c-3.86.67-8.7-2.1-11.46-4.69-2.89-2.7-12.46-16.7-3.9-16.67,3.42.01,6.15,7.67,7.94,10.27,1.11,1.61,8.44,10.12,7.42,11.1ZM197.28,825.39c-1.55,3.14-3.14,6.44-4.55,9.65-2.78,6.32-1.14,12.04-10.66,8.26-2.03-.81-6.79-3.48-8.6-4.8-1.45-1.05-10.23-10.93-10.37-11.78-.22-1.38,4.13-11.09,5.14-13.02,1.19-2.28,10.86-17.64,11.97-18.01,2.84-.96,2.73,1.22,3.72,1.98,5.49,4.18,12.85,6.44,17.8,10.2,6.12,4.66-2.03,12.6-4.45,17.52ZM290.72,186.68c-1.42-2.65-5.15-11.86-5.79-14.71-.52-2.3.03-4.73-.51-6.59-.37-1.28-2.21-2.12-2.89-3.42-6.95-13.31-6.13-26.43,5.38-36.98,2.98-2.73,10.6-4.91,11.44-5.9.66-.78.85-2.78,1.56-3.96,2.35-3.94,4.9-6.91,9.06-9.07,12.07-6.27,35.72-7.65,33.94,11.48,6.82-.16,12.23-.79,17.72,3.96,6.34,5.49,3.02,10.17,4.48,12.48.14.22,2.47.82,3.43,1.69,5.96,5.37,4.97,11,3.3,18.3-1.21,5.3-9.57,21.78-13.68,24.96-4.64,3.6-13.36,4.25-18.4.9-3.33,6.21-14.86,17.09-22.39,16.32-2.02-.21-3.9-2.74-5.64-2.9-3.85-.36-9.12,3.11-13.59.98-.78-.37-6.88-6.49-7.44-7.54ZM336.07,756.89c-7.58.06-6.08-3.38-7.74-7.81-1.84-4.91-4.38-9.59-5.94-14.64-.24-1.56,1.54-3.72,2.95-4.13,6.29-1.83,5.66,7.97,7.5,11.89,1.86,3.97,8.2,9.81,3.22,14.69ZM397.74,809.03c-13.85,1.71-23-.43-32.4-11.08-.88-1.65,1.44-2.97,2.52-3.87,5.48,3.67,11.98,8.27,18.84,8.63,3.72.19,6.45-1.76,10.06.15,2.52,1.34,5.75,5.58.98,6.17ZM409.05,700.43c-.62,2.57-4.17,1.83-4.54,2.22-.37.37.15,2.27-.43,3.1-.55.79-2.78.75-4.03,1.51-1.53.93-2.32,3.19-3.57,4.31-1.22,1.1-3.74,1.52-4.73,3.15-.9,1.49-.54,3-1.17,4.35-1.49,3.24-5.49,2.1-5.84,2.44-.31.3.43,2.55-.8,3.53-2.06,1.65-7.74,1.15-10.06-.24-3.15-1.89-9.15-16.35-8.97-20.3l.19-1.45c2.56-1.27,2.07-3,3.14-4.73,2.85-4.6,13.25-14.98,14.48-17.87.77-1.81.99-9.83,5.14-5.9,3.82,4.82,8.28,12.44,12.62,16.55,2.45,2.32,9.66,4.79,8.57,9.31ZM482.91,483.36c-.65,3.46-3.62,9.11-7.52,9.91-2.11.43-3.98-1.2-5.63-.82-.45.1-7.1,2.85-8.36,3.36-4.54,1.84-8.02,6.16-13.61,1.76l.71,14.51c-1.72,6.51-.66,9.92-7.49,13.01-3.3,1.49-5.22,2.14-8.67,3.95-1.35.71-3.46.59-4.09,1.03-2.71,1.9-10.26,27.25-13.02,32.32-1.78,3.26-2.82,4.42-6.66,5.17-9.51,1.87-19.49.18-28.98.99-4.02.34-7.98,2.04-11.81,2.39-7.35.66-24.53-.12-31.37-2.6-6.57-2.38-9.18-8.26-13.89-11.34-6.95-4.55-17.43-1.76-21.44-10.96-.28-3.19,6.58-8.18,7.58-11.34,1.51-4.8,1.66-9.08,1.85-13.85.24-6.17,8.78-12.72,15.06-11.43.48-.44-2.3-10.78-2.11-12.91.17-1.88,1.71-3.06,1.94-4.24.4-2.08-1.42-2.63.6-5.68,3.01-4.53,8.17-3.32,10.97.78,1.59,2.33.5,4.87,4.71,4.73,1.08-.11,1.97-14.11,1.44-15.54-.44-1.18-3.87-5.68-4.96-6.15-1.62-.69-3.44-.27-5.29-1.02-1.46-.59-6.01-3.62-6.88-4.94-3.49-5.32,1.98-8.59,1.04-12.02-3.4-4.72-7.36-9.02-10.92-13.59-.62-.8-.72-1.96-1.27-2.67-.82-1.07-2.59-1.46-3.13-2.44-1.46-2.62,5.69-13.44,7.98-6.35.46,1.44,1.37,4.69,1.68,6.08.3,1.35-1.27,6.52,3.94,4.41,5.55-2.25,2.33-.84,6.19-.5.89.08,4.48-2.46,6.47-2.69,4.26-.5,3.21,1.24,8.03-2.21,7.72-5.52,6.02-4.96,15.02-8.64,3.2-1.31,7.12-7.82,10.73-5.16,1.56,1.15,7.75,18.08,7.54,21.24,6.26,2.13,14.44,5.1,19.87,8.91,1.45,1.02,10.52,8.61,11.31,9.58.98,1.19,5.38,9.19,6.89,11.64.93,1.5,1.31,5.86,3.31,6.18,3.05.48,9.34-13.07,12.11-16.11,2.99-3.29,12.23-7.8,12.99-9.08,1.33-2.23.26-5.49.78-7.09,1.79-5.51,23.57-12.33,29.61-11.02-1.13,4.9,1.66,10.16,1.63,14.59-.02,2.88-2.47,6.89-2.21,8.52.8,4.9,2.42,14.26,3.94,18.86.85,2.58,3.8,6.24,3.38,8.48Z" fill="#fff"/>
  <path id="d1" d="M597.79,674.21c-1.75-.69-2.19-8.55-2.55-8.81-.44-.38-2.97,1.78-4.32,1.67-1.87-.22-1.83-3.28-2.39-3.63-1.34-.88-8.32,3.29-8.61-2.37-.05-1.58,5.33-2.08,5.75-2.65s-.99-4.42.92-5.22c2.2-.97,4.79,2.32,5.89,1.2.27-.29-3.63-4.65-1.16-7.63,1.66-2.03,4.62.31,4.69,2.9,1.61.14.3-1.38,1.5-2.26,6.89-5.17,1.82,6.58,2.31,6.88,2.48,1.27,11.59-5.13,10.76,1.92-.18,1.3-7.36,2.96-9,3.02,14.3,11.03-.51,6.68-.96,7.44-.61.98,3.71,10.22-2.85,7.54h0ZM165.7,596.82c.12.08,3.18-.44,3.26-.56.25-.35-1.43-6.84-1.42-8.23,3.46,2.97,10,4.07,6.04-1.87-.62-.88-3.29-1.97-3.36-2.42-.36-1.49,5.32-1.23,5.49-2.65.34-3.16-2.32-3.84-4.8-2.95,6.17-9.8-.45-8.3-5.34-1.61-.55-2.59-1.4-14.44-5.28-10.57-1.72,1.69,1.08,9.27.84,9.68-.61.98-5.58-3.28-7-1.33-1.29,1.82,4.3,6.34,3.74,7.01-.25.35-4.43.09-4.7,2.1-.48,3.55,4.44,2.39,6.27,1.87-5.68,7.85-2.4,12.51,3.97,3.56.41,1.17,1.92,7.84,2.27,8.09l.03-.11ZM196.34,267.82c.43.21-1.92,9.03,2.25,8.31,2.85-.52,1.26-8.36,1.93-9.22.46-.61,11.49,8.1,3.27-5.02,1.88.07,6.5.82,7.27-1.29,1.55-4.33-4.46-3.31-5-3.77-.18-.13,1.22-2.28,1.2-3.53-.12-4.9-3.68-.64-5.2-.2-3.75,1.17.26-10.1-2.21-10.95-6.94-2.34-2.25,9.39-4.01,11.21-1.24,1.33-3.74-3.97-6.53-3.33-4.05.91.52,5.98.26,6.16-.39.3-5.02-.07-6.13.96-.07.12.2,2.9.32,3.03,1.74,2.08,6.18.87,8.67,1.34.19,1.7-3.14,3.27-3.22,3.64-1.75,7.97,5.95,2.05,7.11,2.72v-.06Z" fill="#fff"/>
  <path d="M273.79,234.82h.05c-.96-1.24,4.81-12.91,5.83-15.05,6.85-14.32,15.39-32.89,23.38-46.25,1.86-3.17,5.2-9.05,5.66-.91-4.42,7.19-28.76,61.19-32.1,62.72-.45.17-2.72-.4-2.83-.51ZM297.05,154.05v-.06c-.46-.28-4.7,0-5.83.23-4.64.96-33.4,12.28-35.49,13.98-.51.45-1.53,2.43-1.42,2.55,1.82,1.58,40.19-11.49,41.55-13.25.17-.17,1.19-3.45,1.19-3.45ZM253.3,192.48c9.62-4.93,19.76-12.51,29.21-18.17,2.66-1.59,20.21-8.89,16.41-12.85v.06c-1.02-1.08-13.36,6.05-15.45,7.24-12.62,7.02-24.57,15.28-36.45,23.49.45,4.02,3.12,1.81,6.28.23ZM314.26,123.37c.5,1.07,1.19,3.11,2.77,2.77,3-.62-.4-9.28-.96-11.09-1.19-3.79-10.47-28.64-12.96-28.81-2.04-.17-.62,2.49-.46,3.17,1.92,8.27,7.92,26.5,11.61,33.97ZM324.05,121.9c1.52-1.97-2.7-43.38-1.09-49.42-2.82-1.24-3.32-1.18-3.67,2.16-1.25,11.89-.34,32.49,1.08,44.55.23,2.09,1.7,5.32,3.68,2.72ZM317.54,186.93c.28,3.17,2.88,24.57,3.68,25.59l.06-.05c.11.17,3.23-1.36,3.39-2.27.11-.51-.51-7.87-.62-9.34-.29-3.34-2.66-24.4-3.68-25.13-4.98-3.51-3.06,8.72-2.83,11.2ZM294.78,150.31c.62-1.07.05-3.11.56-3.62.4-.46,2.38.11,2.6-.11.79-.79-1.75-7.13-2.77-8.32,2.55.34,8.38-4.69,5.6-7.02-13.3-11.89-26.49-26.89-43.7-32.89.11,2.04,4.07,3.28,4.47,3.85,3.51,5.15,13.08,11.21,19.19,16.59,5,4.44,9.82,9.08,14.44,13.92-6.05-1.75-46.24-22.07-48.28-20.43-.11.05.91,2.21,1.19,2.49,3.79,3.51,15.11,8.49,20.15,10.98,5,2.47,24.25,9.67,26.86,12.44-6.01-1.04-46.23-11.7-48.2-10.18-.11.11.96,1.53.79,1.76-.34.45-2.09-.56-1.7,1.02,11.94,3.51,24.17,5.77,36.23,8.83,1.02.28,3-.06,2.77,1.36l-49.7-3.73-.34,2.66,55.19,5.71,1.36,1.87c-16.7,3-34.76,3.45-51.28,6.8-3.4.67-7.42.73-9.11,4.35,11.33-.47,22.64-1.4,33.9-2.78,4.19-.51,28.59-3.57,29.78-5.55ZM286.07,83.69c6.05,12.17,11.15,25.92,18.22,37.47,1.58,2.55,3.12,6.46,6.68,5.89l-32.66-66.67v-.06c-4.24-1.02-4.35.51-2.82,4.24,2.43,5.89,7.58,13.19,10.59,19.13ZM287.32,245.97c1.98.79,1.86.06,2.55-1.19,4.75-9,9.28-23.66,12.79-33.62,1.82-5.04,13.42-38.1,11.16-40.42-.51-.57-2.44.05-3.23.91-1.75,1.86-5.2,17.32-6.56,21.34-4.98,14.66-12.34,30.23-16.47,44.83-.56,2.04-2.83,7.07-.22,8.15ZM299.31,167.01c-6.51,6.68-13.64,16.13-18.33,23.71-.06.17-3.57,2.38-1.14,2.33,2.1-.05,4.81-2.78,6.45-4.24l-.05-.05c4.24-3.79,17.04-17.1,18.45-21.96.34-1.02.85-2.21-.73-2.55-2.1-.46-3.4,1.53-4.65,2.78ZM305.43,130.84c1.47-1.92-8.94-16.36-11.1-18.16-4.75-3.97-4.24.16-2.09,3.96,1.02,1.81,9.57,14.32,10.36,14.72.45.23,2.83-.51,2.83-.51ZM406.63,118.67c-.29-.28-2.61-.4-3.45-.28-6.12.96-46.87,16.87-51.28,20.32-2.78,2.15-2.32,4.47,1.13,3.96.85-.11,6.51-2.49,8.09-3.11,10.7-4.02,23.38-9,33.68-13.7,1.19-.51,12.96-5.89,11.89-7.13l-.05-.06ZM418.74,168.88s0,.02.02.03c0,0,.03.02.03.03l-.05-.06ZM417.67,131.86v.05c-3-2.03-56.83,11.83-64.87,11.94,1.7,4.59-.45,3.4-.68,3.91-1.7,3.45,4.41,4.19,6.73,4.41,12.62,1.14,28.08,1.65,40.81,1.93,4.08.05,14.21.68,17.49-.23,3.28-.91.34-1.81-.74-3.28l-52.47-3.51c6.34-3.06,52.93-10.13,54.79-12.57.11-.11-1.07-2.66-1.07-2.66ZM374.14,828.25c-1.59-2.21-9.91,3.85-12,5.2-7.19,4.7-17.09,11.61-23.49,17.15-9.79,8.55-6.4,10.81,3.28,3.51,7.47-8.1,24.06-14.72,30.85-22.08.85-.96,2.15-2.6,1.36-3.73v-.05ZM395.59,189.71c-1.92-2.78-23.66-12.57-28.52-15.11-7.03-3.66-13.87-7.69-20.49-12.06-3.63-.11-3.96,1.87-1.53,4.36,5.2,5.38,34.75,20.54,42.85,24,1.64.74,7.36,3.28,8.55,2.15v-.05c.56-.46-.28-2.49-.85-3.28ZM418.76,168.91c-1.41-1.67-33.16-6.88-38.06-7.9-7.7-1.59-24.06-7.53-30.9-6-.23.05-3.34,3.06-3.4,3.28-.96,3,6.46,5.61,8.88,6.8,20.15,9.74,41.16,17.94,61.19,27.96.85-.11.56-2.27.34-2.66-.74-1.13-14.32-7.02-16.3-9.23l-42.11-20.6,54.45,11.94c2.37,1.13,7.71-.78,5.9-3.59ZM322.97,72.43s0,.04-.01.05c0,0,0,0,.01,0v-.05ZM351.96,131.35c-4.98,3.73-7.59,9.17.51,5.15,7.64-3.73,16.13-10.75,23.66-15.34,15.4-9.4,35.32-18.85,49.3-29.43.85-.68,3.45-3.96,2.61-4.59h0c-2.1-1.41-39.28,21.17-44.15,24.11-9.91,6-22.92,13.19-31.92,20.09ZM328.69,127.62c1.3-.91,2.43-17.89,3.68-20.89v-.06c-1.02.28-2.49-1.19-2.78-.96-1.64,1.3-4.92,21.17-3.73,22.3.22.23,2.15.11,2.83-.4ZM337.86,126.65c-1.36,3.23.85,4.24,3.51,2.04,3.69-3.11,9.68-13.13,13.31-17.54,5.94-7.19,18.06-18.8,22.3-26.27.62-1.02,1.53-3.45.91-4.19-.96-1.07-7.42,6-8.38,6.97-5.72,5.89-12.46,14.03-17.61,20.49-3.34,4.13-12.34,14.38-14.04,18.51ZM343.58,129.59c-2.15,3.73-.62,5.95,2.72,3.4,9.79-7.47,20.09-18.45,29.66-26.77,5.15-4.42,14.15-10.02,18.28-14.72v.05c1.82-2.1,3.51-6.05-.67-4.87-1.82.51-12.74,9.74-15.23,11.72-6.11,4.92-31.93,26.2-34.76,31.19ZM331.46,128.97c.35.46,3.51,1.25,3.51-.62-.51-7.13,24.68-52.24,22.47-54.17-.79-.68-3.96,1.36-4.53,2.43-2.61,6.97-24.9,48.11-21.45,52.36ZM278.43,484.16c-11.6,3.73-4.81,18.17-6.85,24.73-1.36,4.13-9.51,5.09-10.7,12.51-.45,2.88.06,10.58,3.34,11.43,5.49,1.47,1.59-4.59,1.3-5.94-1.86-9.79,7.53-7.92,9.91-16.02,2.37-8.1-3.12-17.15,4.02-21.96,1.52-1.02,3.56-1.02,4.35-1.64,3.4-2.55-1.53-4.36-5.38-3.12ZM390.84,838.04c-1.92,2.21-.68,7.92-.96,11.15-.34,3.73-3.63,23.27-1.81,24.62.11.06,2.55-1.19,2.55-1.19v-.05c1.86-2.32,4.81-34.01,3-35.94-.11-.11-2.55,1.13-2.78,1.41ZM384.73,412.1c4.47-1.25,3.85-11.49,4.41-11.89,2.21-1.47,9.74,2.61,12.68-.28,1.13-1.19,1.58-8.6,1.13-9.06h.05c-.11-.11-3.56-.11-3.68,0-.34.34.85,4.93-1.47,5.49-.96.23-4.24-1.47-6.28-1.47-7.64.17-6.4,4.81-7.76,9.74-.45,1.47-5.09,9.11.91,7.47ZM478.18,395.57c-.4.4.22,8.26-.23,10.47-3.28,16.25-24,18.11-36.9,13.19-2.49-.96-21.45-10.25-22.31-11.15-2.72-2.89-1.24-11.89-4.64-14.38-4.08,11.89-13.58,31.36-27.68,33.28-2.61.34-5.49-1.24-3.96-3.51.34-.5,8.49-3.28,11.1-5.2,6.45-4.81,15.73-21.22,17.49-28.92,1.02-4.35-2.6-2.83-5.83-5.83-8.89-8.26-7.25-29.94,5.6-30.73,1.98-.11,4.3,1.02,5.44.79,1.81-.34,4.24-5.32,7.75-6.11,4.36-.96,11.61,2.37,14.15,1.25,3.23-1.41,3.74-7.7,5.89-9.51,2.55-2.21,8.49-1.41,10.93-4.42,2.09-2.6,1.41-7.25,3.45-10.47,1.41-2.26,4.81-3.51,5.55-6.51.62-2.37-.57-6.34-.29-6.73.68-1.02,3.34-1.36,4.14-.85l.05-.05c1.3.91,1.19,8.26.56,10.19-.96,3.05-5.2,4.98-6.51,7.47-1.7,3.28-1.08,8.49-4.3,11.49-2.94,2.72-7.47,1.76-10.19,3.79-3.39,2.55-1.75,8.49-8.32,10.25-6.56,1.76-9.56-1.98-13.47-1.41-3.45.51-6.28,7.07-8.21,7.76-2.72,1.02-5.15-5.66-10.87,1.07-5.71,6.74-2.72,18.45,5.38,21.57,1.36.5,6.28.91,6.62,1.3.56.68.91,14.89,1.98,17.94,1.31,3.73,8.94,6.96,12.62,8.77,8.26,4.08,16.36,7.7,25.81,6.51.85-.11,5.89-1.58,6.11-1.81,1.58-1.58-.62-1.58-1.3-1.92-5.15-2.6-9.28-2.6-13.02-8.32-1.93-2.94-4.08-11.89-.79-13.98,6.33-4.02,14.38,6.56,22.13,5.71,3.17-.34,1.76-3.28,2.77-4.7,2.16-3.05,11.5,1.53,12.46-1.52,2.15-6.91-5.66-19.02-5.49-25.87.11-5.04,3.4-8.83,4.47-13.24,2.15-8.94,0-17.6-4.92-25.24-1.25-1.92-5.49-3.91-3.68-6.56,2.83-4.02,9.4,6.62,10.53,9,3.23,6.73,4.3,14.71,2.83,22.01-.85,4.24-4.41,10.75-4.58,14.1-.23,4.75,5.43,16.24,5.66,24.11.4,12.79-12.79,5.77-13.98,6.96ZM473.54,401.07s-4.75,0-6.56-.4c-2.43-.57-13.13-6.85-13.87-6.11-.4.4.05,4.53.4,5.6.62,2.04,3.56,4.64,5.43,5.71.96.57,9.17,4.25,9.68,4.3,3.06.46,5.94-8.09,4.92-9.11ZM434.14,541.38c-.74,2.27-3.85,2.94-4.65,5.55-.34,1.19-1.02,5.04-.51,5.54v-.05c1.59,1.64,7.76-6.23,8.55-7.7,1.07-2.04,3.06-7.02.79-8.6-4.81-3.28-3.39,2.77-4.19,5.26ZM252.56,711.36c-1.02,1.24,2.38,8.88,4.59,7.36.11-.11-.56-.68-.34-1.81.06-.17,1.02-.23,1.02-.23.28-1.01-2.6-8.49-5.26-5.32ZM462.39,507.93c-1.92-2.04-4.87-.46-5.37,2.49-.85,4.7,3.9,7.53,3.56,10.87-.23,2.21-3.91,5.66-4.3,8.88-.4,3.23,1.87,8.21,5.66,8.38,4.24.17-1.31-6.79-1.25-7.76.11-1.64,2.54-3.34,3.28-5.04,3-6.8-.96-8.6-2.21-13.87-.34-1.41.62-3.96.62-3.96ZM465.9,347.46h-.06c-2.32.34-7.19,1.53-6.28,4.87.85,3.06,4.87.11,6.28-.23.96-.22,9.91-.96,4.93-4.41-1.31-.96-3.34-.46-4.87-.23ZM467.03,367.67c3.06,2.21,5.83-8.72,2.33-10.19-4.36-1.86-3.51,9.34-2.33,10.19ZM365.99,367.55c4.59-.68,9.29-3.96,9.96-8.72,1.02-7.02-3.17-12.79,4.47-16.93,6.4-3.45,12.68-3.17,18.51-9.84l-.05.11c2.38-2.72,4.59-9.29,6.85-11.26,4.36-3.85,12.9-.79,17.49-8.55,1.41-2.38,3.51-9.28-1.25-7.7-1.47.45-1.75,5.04-4.24,6.91-3.79,2.88-10.58,2.21-14.38,5.1s-5.66,10.01-10.19,13.92c-5.27,4.59-11.55,4.75-16.87,8.21-8.32,5.38-3.91,10.81-4.87,18.34-1.13,8.6-11.32,3.4-16.13,6.17-3.79,2.15-3,7.87,1.19,5.83.96-.51,1.41-2.21,3.17-2.26,1.75-.06,3.34,1.13,6.34.68ZM424.58,329.01c-1.31,1.24-2.27,3.79-3.68,5.15-4.75,4.59-9.74,3.73-15.45,5.89-4.3,1.59-14.03,7.81-12.73,13.19,1.02,4.19,6.17-3.23,6.57-3.57,8.43-6.79,14.66-5.04,21.62-9.05,3.79-2.21,5.94-8.04,9.23-9.4,6.17-2.61,12.91,2.09,17.15-6.96.85-1.87.79-4.42,1.7-5.77.46-.68,7.92-5.15,1.82-5.72-6.11-.56-6.11,9.29-8.55,11.26-4.65,3.74-11.83-.51-17.61,4.93l-.05.05ZM382.57,376.55c.4-1.98,3.68-8.94,2.72-9.85v.06c-1.92-1.87-5.1,1.92-5.95,3.79-1.92,4.24-.68,9.79-2.37,12.51-1.98,3.12-8.66,1.93-11.77,5.89-2.38,3-2.15,9.23,1.92,5.6,5.21-4.64,3.45-2.78,9.51-5.38,8.03-3.4,4.64-6.56,5.94-12.62ZM411.27,364.33c-4.13,3,3.91,15.85,4.7,8.43.05-.46-1.53-8.55-1.87-8.83s-2.21-.06-2.83.4ZM673.97,333.7c-1.76,10.14-20.43,13.19-27.74,20.66-3,3-3.45,7.3-6.45,10.25,2.55.62,4.53-.34,7.24.11,4.81.79,17.77,8.15,11.83,13.42-3.62,3.23-11.61.11-16.7.91-6.34,1.02-19.41,13.24-25.3,17.43-16.02,11.43-31.76,23.15-47.6,35.09-7.07,5.32-18.28,17.43-26.77,18.73-3.06.46-4.93-.56-7.07-.4-3.45.23-14.44,6-15.96,9-1.02,2.04,4.02,5.43,5.38,7.7,3.79,6.4,5.21,19.02-4.36,20.15-.96.11-4.93.17-5.15,0-.23-.23.62-5.2-1.41-5.55-.96-.17-1.98.68-2.27,1.53-.68,2.32,3.51,11.94,3.68,15.73.17,3.18-1.58,10.65-4.3,12.4-5.04,3.23-10.3-3.12-15.74,2.83-1.76,1.92-3.96,7.13-.91,8.37.4.17,3.39-6.45,6.85-.34,3.79,6.74-1.98,10.53-8.09,10.98-4.35.34-14.89-5.38-15.96,1.02-.96,5.72,2.26,9-3.23,15.34-8.94,10.3-18.96-.4-24.62,2.33-5.66,2.71,6,6.73.51,11.65-7.3,6.51-15.85-8.32-28.58-1.64-11.83,6.23,4.64,7.98,10.41,10.42,13.98,5.89,48.56,24.34,56.15,36.74,15.17,24.85-20.37,45.34-35.72,58.87-21.34,18.85-44.21,38.49-64.52,58.08-1.02.96-4.98,3.39-5.1,3.68-.28.51.96,1.87,2.15,1.7,1.07-.17,3.79-3.06,6-3.45,5.6-.91,9.45,9,8.6,13.75,4.41-4.07,9.56-12.57,16.64-7.81,8.26,5.49-1.76,14.83-1.81,15.73,0,1.7,10.3,1.08,8.21,8.15-.34,1.08-3.06,3.12-2.61,3.45.46.34,3.68-.96,5.1-1.02,5.32-.11,13.19,2.43,13.47,8.43l-7.13-3.51c-2.66-1.52-20.72,2.04-20.66,4.02,0,1.47,12.74,5.49,15.17,7.13,8.26,5.55,11.32,20.66,9.84,29.94-.84,5.2-8.88,7.24-13.52,7.81-1.58.17-3.12-.57-4.64-.51-10.02.56-26.83,2.72-36.11,1.58-15.17-1.86-24-27.23-32.95-37.64-9.62-11.26-17.88-14.43-25.24-29.55-9.11-18.68.51-16.58,12.45-26.6,5.55-4.64,13.25-15.79,20.21-18.17,2.77-.96,6.28.17,8.38-2.78l40.86-61.3c.29-1.92-.11-1.19-1.41-1.41-3.85-.62-3.12,1.7-5.89,3.4-2.09,1.3-10.98,6.45-12.68,6.51-3.28,0-14.54-10.02-20.43-11.77-5.89-1.75-21.74-1.58-27.06.85-5.04,2.27-17.32,17.38-21.17,22.53-1.86,2.55-9.39,17.61-12.51,15.62-1.19-.74-.17-5.21-4.24.17-10.87,14.27-18.17,38.26-30.23,50.61-30.97,31.64-57.63,78.39-77.21,118.58-.34.68-1.24.68-1.47,1.25-1.64,3.85,5.26,2.43,7.25,4.81,3.05,3.68,3.85,20.32,5.54,21.62.68.51,5.1-6.68,6.01-7.42,10.41-9,20.21,2.61,10.7,10.7-3.68,3.12-8.66,3.56-13.02,5.6-3.23,1.47-2.37,2.26,0,4.53,7.87,7.3,16.3,4.59,23.83,7.7,4.75,1.98,7.87,11.94,1.76,10.47-.85-.23-1.82-4.93-4.3-6.06-3-1.36-9.51-1.25-13.42-2.38-4.41-1.3-12.73-7.7-6.51.91,5.83,8.04,16.25,8.66,20.09,19.81,3.12,8.88.4,19.58-10.02,21-9.62,1.36-25.87,3.51-35.26,3.79-21.85.74-19.99-30.85-29.38-43.98-7.25-10.19-28.92-12.62-28.7-32.66.05-8.04,3.79-6,7.02-8.83,2.09-1.87,7.24-8.78,10.3-12,13.75-14.49,20.83-21.22,30.06-39.62,5.55-11.15,11.89-24.96,16.36-36.56,8.66-22.53,9.05-41.26,26.04-60.34,2.27-2.55,11.43-10.14,12-12.12,3.73-12.51,5.26-25.59,9.79-38.55,1.01-2.94,6.22-13.19,6.22-14.83,0-2.94-8.15-11.32-7.07-19.42,2.88-21,32.2-46.7,47.83-59.94,2.55-2.15,14.04-9.62,14.78-11.15.45-.85-1.25-4.19.96-4.7,1.02-.22,4.3,3.28,6,4.25,5.6,3.05,13.25,4.81,18.91,7.98,8.09,4.59,9.11,10.19,19.64,11.04,12.11.96,24.22-1.41,36.29-1.64,5.2-.11,28.64,2.1,31.13.29,1.19-.85,4.13-15.29,5.1-18.12,1.53-4.47,5.2-12.34,8.38-15.79,4.87-5.21,15.29-6.74,19.42-13.07,6.05-9.34-.46-26.21-1.25-36.74-.28-3.85-1.13-17.83,4.53-17.04.4,6.8-.56,14.15,0,20.89v-.34c.17,2.04,1.19,8.49,1.87,10.19.28.68.68,2.26,1.36,2.32.85.05,12.96-4.98,15.56-5.77,3.12-1.02,12-1.87,13.3-4.42,1.13-2.21-4.59-24.11-4.98-29.37-.62-8.1,1.25-15.62,1.36-23.49,0-.85-.34-1.76-1.08-1.86-1.98-.29-13.52,3.23-16.19,4.19-2.43.85-11.43,4.53-12,6.62-.56,2.09,2.21,4.53,0,8.26-1.25,2.1-8.94,5.21-11.66,7.82-4.02,3.91-6.4,10.3-9.79,14.38-7.87,9.62-10.98-7.36-15.05-13.75-4.64-7.25-9.17-10.14-16.64-14.04-3.62-1.87-11.38-3.73-13.87-6.56-2.37-2.72-5.15-21.91-9.63-20.89-1.07.23-11.09,8.21-13.64,9.63-6.45,3.62-16.76,7.87-24,9.39-2.37.51-12.51.96-13.07,1.36-.56.4,6.74,8.88,7.64,11.38,1.47,4.07.62,10.92,2.66,14.03,2.21,3.28,11.15,2.55,15.51,11.43,3.17,6.4,3.28,18-5.83,18.06-9.11.06-4.02-10.3-10.98-8.32-7.52,2.15,3.28,17.72-1.7,25.3-2.49,3.79-10.59,1.47-12.45,5.21-1.87,3.73.34,13.02-2.88,19.41-6.06,12.23-18.63,1.7-24,7.59-4.19,4.58,3.56,3.62,1.81,9.28-.74,2.49-3.06,2.94-5.55,2.83-6.91-.4-8.89-9.84-11.15-10.02-2.94-.23-7.93,5.04-14.78,1.53-9.45-4.87-4.87-19.7-12.62-21.79-2.72-.74-9.34,1.3-12.57,1.47-8.43.46-20.55,1.25-18-10.53,2.55-11.77,10.3-.74,13.47-5.15,3.68-5.21-5.43-7.7-7.64-9.62-6.06-5.38-11.1-25.53-1.25-28.98,1.53-.51,7.98.23,8.21-2.77,0-.62-4.3-7.19-4.3-11.16,0-2.88,3.12-11.49,6.06-12.34,6.79-2.04,4.02,1.81,5.77,4.08,4.13,5.38,13.07-4.7,14.32-9.05,1.19-4.08.51-8.67,1.81-13.03,3.56-11.66,16.76-7.41,20.54-13.81,4.7-7.92-5.94-16.36,5.21-23.55,8.15-5.27,27.68-1.82,28.76-3.28,1.52-2.09-12.62-29.88-13.53-35.21-5.32-30.85,34.47-77.55,44.21-108.22,4.08-12.91,5.66-16.76,2.49-30.4-.68-2.94-3.12-7.47-3.28-9.79-.17-2.32,1.87-2.77,1.36-4.86-1.14-4.7-6.23-10.59-7.07-15.8-1.59-.22-1.02,2.21-.91,3.23.23,2.72,1.58,5.38.79,8.27-.51,1.76-2.77,1.3-3.45.4-.68-.91-3.85-18.68-3.9-20.78-.17-4.19,1.41-4.69,5.49-3.96l15.9,31.7c4.81.5,11.55,16.47,12.57,16.47.57,0,6.62-7.76,5.66-9.29l-23.26-40.93c-1.98-4.64.45-6.56,4.02-3.12l21.9,39.4c1.53,1.53,4.14.57,6.06,1.36,3.05,1.3,4.02,6.91,5.38,9.45,4.47,8.16,5.6,10.54,8.09,19.76,1.19,4.47,3.45,2.83.45,8.61-.51.96-2.09,0-1.81,2.82.74,6.85,10.19,22.93,9.79,28.02-.23,3-6.97,7.25-9.51,8.61-5.66,2.94-6.22,2.15-9.11-3.57l-10.7-25.08c.45,3.4-2.83,4.36-4.14,6.57-10.98,18.06-14.6,53.26-18.45,74.44-.56,2.94-4.92,18.51-4.35,19.3,2.03,2.78,9.68-2.88,11.15-5.04,3.51-5.26,1.14-11.66,7.87-16.25,2.55-1.7,6.46-1.87,8.33-4.7,2.6-3.91-.51-16.35,9.11-13.87,1.64.4.91,5.66,6.56,2.66,6.46-3.4,7.58-13.25,10.75-18.96,5.6-9.91,15.8-6.97,25.13-9.23,7.47-1.82,9.68-5.72,18.63-3.79,3.85.85,5.89,3.79,8.32,4.64,7.81,2.72,23.94-9,37.13-5.55,6,1.58,10.47,11.15,15.85,14.83,6.06,4.13,14.38,3.73,17.94,11.77,4.41,9.9-3.4,14.83-3.12,21.62.17,4.19,6.57,11.77,7.25,18.74,1.42,13.7-8.83,19.53-8.72,28.13,0,5.6,9.45,8.94,5.04,20.89-2.49,6.68-12.62,10.92-5.89,19.19,8.72-4.47,17.71-8.49,26.71-12.28,19.02-7.98,46.87-16.08,62.78-28.25,2.88-2.21,6.96-7.53,9-8.6,2.43-1.3,7.13-1.13,8.49-2.21.91-.74,9.34-17.77,10.64-20.43.96-1.93.62-4.42,1.76-6.63,4.02-8.15,10.81-23.04,15.51-30,1.93-2.83,7.02-6.51,10.42-4.47,1.87,1.13,2.26,7.53,2.77,7.92.4.34,6-6.4,9.23-3.62,1.87,1.58-1.42,12.17-2.55,14.49-.56,1.19-3.85,4.08-3,4.92.96.91,16.81-11.03,14.72,1.19ZM206.99,874.72c1.87,1.41,14.66-4.14,12.57-8.32-2.88-5.83-13.3,7.81-12.57,8.32ZM157.75,832.49c-.4,1.81,7.01,5.6,8.6,6.22.85.35,3.56,1.76,3.45-.17-2.37.51-10.81-11.89-12.06-6.05ZM136.35,876.59l-6.51-15.79c-.51,5.77,2.21,11.94,6.51,15.79ZM183.73,933.3h0s-2.44-.85-3.74-2.26c-4.47-4.93-8.15-10.75-12.96-15.4.62,7.82,6.79,20.78,16.25,19.53.79-.11.62-1.7.46-1.87ZM196.8,887.96c-1.02.68-1.19,11.21-4.87,5.72-.91-1.36.34-3.79.11-3.96-.5-.4-6,.85-6.51-1.41-.79-3.91,9.62-3.34,10.19-6.97-1.7.06-8.49.11-9.23-1.02-.74-1.13.96-3.62.4-4.64-.73-1.3-4.7-2.27-6.11-5.94-1.64-4.19-1.36-14.54.96-18.45.51-.85,1.81-.57,1.87-.62l.11-.06c.28-.4-6.74-5.83-7.42-6.05-1.01-.34-2.09,1.3-3.28,1.41-4.64.51-15.06-7.13-19.47-9.28-.51,2.6-10.7,10.81-10.7,11.66,0,.68,8.66,8.15,9.74,9.74-.11-7.82,7.42-1.93,10.13,1.92,2.94,4.13,3.57,9.34,5.89,13.58,5.49,10.08,15.57,20.38,20.15,31.87,1.76,4.41,3.56,11.6-3.51,10.02-10.75-2.37-20.83-33-27.22-41.55l-17.1-23.26c-11.71,7.7-.74,25.53,6.62,32.89,2.27,2.26,6.23,4.18,8.26,6.56,8.1,9.45,14.55,22.92,23.66,33,4.93,5.44,8.78,9.79,16.76,10.02,9.11-3,31.76,2.83,29.09-13.02-1.7-9.9-11.82-13.47-18.62-19.3-.91-.73-1.41-2.54-2.21-2.72-1.19-.28-9.85,5.32-11.55,3.68-.51-.51,0-3.17.91-4.19,1.41-1.64,8.09-2.88,8.38-3.23.28-.4-1.41-8.94-5.43-6.4ZM162.39,871.04h0c1.58-2.83-6.56-13.87-8.32-12.06-.51.51,6.96,11.2,8.32,12.06ZM167.03,880.78c5.77,10.02,8.66,22.25,18.57,29.27-4.24-8.78-9.79-21.23-16.36-28.25-.45-.46-2.37-4.19-2.21-1.02ZM185.59,851.56c-.11,0,.57,1.25.4,1.93-.51,2.04-1.58,4.24-1.76,6.28-.45,5.26,2.55,3.39,5.72,5.49,1.36.91,7.58,6.79,8.61,5.77h.05c-2.61-3.85-1.47-16.76-5.32-18.34-.91-.4-7.24-1.36-7.7-1.14ZM200.48,817.15c-.45-.62-11.6-4.19-14.21-5.77-2.04-1.19-8.66-7.42-9.45-7.25-1.31.29-11.32,20.95-13.53,23.61l19.58,15.79,4.02,1.53c.34-4.24,14.49-26.66,13.58-27.91ZM204.22,810.76l-.06-.05s-2.32-.17-3.45-.74c-3.99-2.14-7.89-4.42-11.71-6.85-2.21-1.41-5.55-5.04-7.13-5.89-1.25-.68-2.6,0-2.77.96-.68,3.17,11.77,10.19,14.54,11.49,1.3.56,8.66,3.85,9.17,3.85.62,0,1.92-2.21,1.41-2.78ZM284.98,648.53c-9.56-9.45-22.41-12.28-35.26-14.32l-17.66,54.28c2.55,1.19,5.15-4.75,7.87-4.19,1.02.23,1.58,1.87,1.25,3.12-.51,1.87-23.6,21.73-27.68,27.11-11.94,15.68-13.3,33.62-20.03,51.51-2.61,6.91-8.43,16.02-10.19,22.3-.4,1.3-.96,3.28-.23,4.47.46.74,12.34,8.72,14.04,9.68,1.58.91,9.62,4.98,10.7,4.36h-.05c1.3-.74,12-22.82,14.04-26.38,8.83-15.34,21.79-36.17,33.45-49.19,3.68-4.08,8.15-6.91,11.61-10.7,7.87-8.66,13.92-23.61,19.81-34.07,1.87-3.4,10.7-15.62,11.15-17.72.74-3.56-9.84-17.32-12.79-20.26ZM367.62,719.59c-.58-2.27-2.66-12.81-3.61-13.49-1.08-.79-7.19.17-7.47.5-1.13,1.18,9.03,12.02,11.08,12.98ZM335.14,756.82c-.45-3.91-1.3-8.26-2.32-12.06-.45-1.7-3.68-12.51-4.19-13.02h0c-.91-.8-5.77,2.09-5.14,5.6.79,4.98,7.64,16.08,11.65,19.47ZM400.17,807.87l-32.49-9.28c6,8.38,13.93,13.19,24.57,11.1l7.93-1.82ZM416.87,761.46c-1.64.23-5.89-.06-6.51,1.81,1.81,0,5.89.34,6.51-1.81ZM404.82,755.85c2.49-.17,4.58,1.58,6.9,1.7.68,0,7.13-.73,5.15-2.6-.57-.56-11.61-2.37-12.06.91ZM402.04,748.44h0c.29.34,7.08-2.32,8.38-3.23,6.79-4.81,3.96-12.62-3.28-6.06-1.19,1.02-5.83,8.43-5.1,9.28ZM380.47,734.46c-3.05-1.41-12.68-8.15-15.56-10.53-2.21-1.81-4.98-4.81-6.97-6.97-1.19-1.24-3.96-6.17-4.3-6.4l-.05-.05c-.85-.46-1.92-.17-2.72.28-.79,2.33-11.1,10.42-11.1,11.15,0,.34,3.63,3.57,4.47,4.81,10.75,15.56,12.34,34.24,25.7,48.62,1.41,1.53,6.91,6.79,8.38,7.42,1.07.45,1.87-.29,1.36-1.36-.45-1.02-7.53-9-9.11-11.32-7.19-10.59-8.21-15.06-12.22-26.78-.74-2.09-6.28-10.7-2.33-11.55,3.96-.85,7.25,14.83,8.38,17.61,1.25,3.06,2.43,6.05,3.96,9,2.83,5.49,17.22,22.41,16.93,25.81-.68,7.64-11.55,1.07-14.44-1.36-14.94-12.45-16.13-26.15-23.77-42.17-2.27-4.7-5.95-9.51-8.32-14.04-.57-1.07.17-2.27.11-2.33-1.3-.73-7.36,4.65-7.36,5.1,0,.29,2.55,3.4,3.17,5.15,3.46,9.62,4.02,21.57,9.29,30.68,2.72,4.75,8.55,8.94,12.06,13.98,1.64,2.37,5.95,11.55,7.3,12.68,3.85,3.23,28.98,8.72,35.94,10.98,10.25,3.34,11.61,6.62,23.61,4.98,8.94-1.24,8.83-3.68,7.92-12.34-2.15-19.53-15.79-15.96-27.45-25.98-1.36-1.19-3.62-5.43-5.43-6.17-2.1-.85-1.7,5.49-5.49,4.64-4.59-1.07,2.43-7.87,2.83-9.23.28-1.02-.28-5.32-.57-5.6-1.07-1.13-3.96,5.15-4.24,5.49-1.98,2.49-4.19,2.33-4.19-1.3,0-4.24,7.07-10.3,6.57-10.7-2.27-1.7-12,5.6-12.96.34-.85-4.7,13.3-4.3,14.71-5.1,1.82-1.07-.96-8.72-2.66-9.74-1.58-.91-4.7,5.38-11.44,2.27ZM401.08,704.85v-.06c-6.62,1.08-18.63-19.19-19.99-19.53-1.24-.28-2.09,1.13-2.72,1.92-1.47,1.92-10.64,15.23-10.64,16.19,0,1.47,3.79,13.87,4.64,15.74.62,1.3,5.38,7.98,5.95,7.98,1.58,0,19.24-19.99,22.76-22.25ZM408.49,699.7c-.4-.79-10.75-9.63-12.96-12.34-2.05-2.56-4-5.2-5.83-7.92-.79-1.19-1.47-4.24-1.7-4.35h.06c-1.25-.96-5.26,3-3.57,6.79,2.32,5.1,16.02,20.27,21.62,20.21.17,0,2.49-2.21,2.38-2.37ZM450.78,587.85c-3.4,0-32.1,22.92-36.23,26.83-5.44,5.15-9.96,11.04-15.29,16.31-.4,2.09.91,1.3,2.33,1.36,12.85.85,10.24-1.58,20.26-6.68,2.26-1.13,14.15-6.73,15.51-5.38.11.11.11,2.49-.11,3.12-.74,1.81-10.7,5.43-13.47,6.96-15.06,8.32-14.21,10.36-22.76,23.66-1.7,2.66-10.64,14.6-10.75,16.13-.4,4.19,18.68,26.38,22.58,26.1,1.53-.11,19.99-17.21,22.81-19.7,4.81-4.36,9.29-9.62,14.27-14.04l-.17-.05c11.77-10.42,43.24-29.21,36.05-48.4-2.26-6-13.47-13.87-18.85-17.38-2.15-1.41-14.83-8.83-16.19-8.83ZM342.32,572.97c-5.43-.46-6.91-1.31-11.03-4.3h-.23c-3.51-2.55-5.89-5.1-9.79-7.36-3.45-1.98-15.11-7.59-18.56-8.43-2.37-.62-9.29,6.85-12.28,8.03-17.49,17.15-43.93,34.64-49.86,60.01-.23.9-.91,2.37-.51,3.17,1.87,4.02,26.27,8.21,31.65,10.13,13.81,4.92,21,15.39,28.69,27.06,1.31,1.98,3.34,8.03,5.27,5.83,6.51-12.4,16.25-22.59,25.47-32.83l28.98-15.68c7.58,5.49-7.13,7.19-9.9,10.98,7.24,0,14.66.23,21.22,3.39,2.89,1.36,11.44,8.32,13.48,7.7,1.13-.34,12.73-15.17,15-17.6,13.3-14.21,28.19-27.34,45.06-37.13,1.13-1.64-5.89-5.26-7.36-6.05-29.33-15.57-63.68-4.19-95.27-6.91ZM653.76,329.57c3.4-1.92,5.6-5.26,5.55-9.28l-5.55,9.28ZM647.19,326.8c.57,0,1.7.17,1.87,0,.57-.46,2.77-12.68.45-13.93l-2.33,13.93ZM634.23,339.76c7.01-.91,8.15-9,8.37-14.83l-8.37,14.83ZM377.93,250.16c-1.53-1.19-7.42,4.81-10.25,3.28,2.1,3.73,9.45,26.49,11.16,27.85.4.28,7.92-4.42,8.21-4.81h-.06c.51-.91.17-1.93,0-2.83-.56-2.38-8.09-22.7-9.05-23.49ZM313.85,424.55c.85-.91,2.72-1.3,2.77-1.41.68-.96-6.68-19.36-7.64-22.41-.46-1.47-1.36-6.97-1.64-7.19l-.05.11c-.51-.46-4.02.96-5.15.96-7.41-.11-17.04-3.45-23.72,2.21-6.17,5.2,2.94,14.89-4.13,23.72-4.08,5.1-14.44,3.34-18.12,8.83-2.54,3.85-1.47,11.61-3.51,16.92-2.83,7.36-11.32,14.04-19.47,10.7-1.25-.51-3.85-3.96-4.87-3-.51.46-1.13,7.36-.91,8.78.74,4.53,8.37,10.7-1.19,14.66-5.38,2.27-9-2.09-8.72,7.82.11,4.98,1.53,10.24,5.32,13.69,2.15,1.93,5.55,2.77,7.36,4.7,4.53,4.75,3.34,13.36-3.73,14.04-2.83.28-8.94-2.37-8.94,2.66,0,7.87,20.95,2.38,25.19,2.27,12.11-.4,10.02,9,13.02,16.76,4.7,12.11,13.07,1.13,19.47,3.73,2.77,1.13,4.41,4.59,5.15,7.42l3.28-8.33c7.24-9.11,17.6.51,22.76-5.38,6.28-7.13-2.21-22.07,9.39-25.64,1.98-.62,5.26-.34,6.4-1.08,5.21-3.39-8.55-24.73,5.32-27.22,10.41-1.87,10.13,7.7,11.88,8.15,3.34.79,3.51-6.96,2.83-9.34-2.77-9.17-15.34-7.52-17.88-16.41-1.19-4.02-.17-6.96-2.21-11.71-4.81-11.15-19.81-16.98-8.27-28.98ZM318.44,428.01c-1.64-1.24-7.53,5.6-2.1,7.25.79.23,3.74.4,3.96.17.34-.28-1.58-7.19-1.87-7.42ZM364.74,418.16l-29.6-59.77c-2.6.85-17.32,4.3-18.62,3.34-1.3-.96-1.7-3.68.23-4.53,4.47-1.92,12.79,0,15.39-5.04,1.47-2.94,2.88-12.06,3.62-15.9,3.56-18.28,9.11-64.87,20.32-78.11,4.24-4.98,6.62-2.55,6.91-2.89.17-.2.07-.77-.19-1.56,0,0,0,0,0,0,.26-.47.76-.97,1.36-1.48-.02-.34.08-.7.33-.94.98-.94,2.23-1.38,3.4-2.02.14-.08.28-.16.41-.24.07-.04.13-.09.2-.13.02-.01.02,0,.03-.01.24-.21.47-.43.71-.64.6-.51,1.36-.89,2.15-.82.01,0,.02-.01.03-.02,1.75-.73,12.51-5.38,10.13-7.98v.06c-.39-.43-7.15,3.41-10.77,5.99-.23.27-.47.5-.83.61,0,0,0,0,0,0,0,0,0,0,0,0-.5.15-1.09.01-1.46-.36-.44-.45-.56-1.09-.51-1.69.06-.58.19-1.09.45-1.61.21-.41.5-.8.85-1.11.07-.06.14-.09.21-.13.13-.16.25-.32.36-.47,3.38-2.03,7.28-4.57,7.57-4.9,2.44-2.54,1.08-5.54-1.47-4.24-.37.18-3.87,3.31-6.48,5.71-.11.16-.24.3-.39.4-.26.16-.64.2-.93.12-.19-.05-.34-.16-.48-.28-.06-.03-.12-.07-.18-.1-.17-.09-.32-.21-.46-.33-.07-.07-.13-.15-.19-.23-.06-.08-.12-.15-.17-.23-.07-.13-.12-.27-.17-.4,0,0,0,0,0,0,.02.04.03.07.05.11-.02-.05-.06-.1-.08-.15-.04-.04-.08-.09-.12-.13-.21-.24-.35-.46-.45-.76-.04-.14-.06-.3-.07-.44,0-.02,0-.04,0-.07,0-.11.02-.26.05-.37.01-.04.04-.08.05-.12.04-.34.2-.64.49-.83,0,0-.01-.02-.01-.02,3.47-2.8,9.6-6.26,8.54-9.96-.17-.68-1.92-2.49-2.21-2.49-.59,0-5.39,6.52-7.25,10.77-.02-.03-.04-.06-.05-.08-.45.49-1.24.4-1.69,0-.13-.12-.22-.26-.27-.4-.01,0-.02,0-.03-.02-.31-.21-.57-.49-.75-.82-.25-.47-.47-1.02-.56-1.56-.1-.6-.13-1.22.08-1.8.22-.59.58-1.07,1.09-1.42,3.43-3.95,8.32-11.2,6.14-12.97l.06-.06c-1.19-.96-4.76,4.19-5.55,5.15-.95,1.15-3.48,4-4.97,6.45,0,.09,0,.19-.02.28-.07.29-.3.57-.55.72-.03.02-.06.02-.1.03-.03.06-.03.13-.07.19-.28.53-.82.9-1.29,1.26-.74.55-1.55.97-2.41,1.3-.35.13-.71.14-1.07.04-.28.06-.5.03-.64-.12-.04-.14-.08-.27-.12-.41-.16-.22-.25-.47-.26-.75,0-.02,0-.04,0-.06-2.11-6.91-4.27-13.57-10.81-17.82,1.13,5.1,3.17,10.13,3.56,15.45.56,7.98-3.23,19.53-5.94,27.23-9.29,26.49-28.36,47.66-37.98,74.38-9.62,26.71-4.59,24.62,3.91,47.09,7.75,20.43,11.6,42.39,20.26,62.54,14.38-1.64,28.36-7.92,39.28-17.38ZM484.68,429.2c.4-1.76-3.51-4.7-.11-12.12,2.94-6.39,4.14-4.01,4.81-12.84.34-4.08,2.72-2.89,3.96-.23,3.62,7.81-4.75,12.68-5.66,18.11-1.41,8.43,6.51,3.63,10.92,2.49,1.24-.33,4.15-.29,4.62-.38-.12-.22-2.36-4.59-2.58-6.24-1.47-10.64,9.11-13.98,9.11-21.11,0-6-6.73-10.7-6.45-16.58.4-7.82,8.55-14.49,9.23-22.42.96-11.26-9.29-16.81-7.02-27.45,1.13-5.49,6.28-9.4,2.77-15.68-3.17-5.54-11.88-6.17-17.03-9.9-4.53-3.28-8.04-10.92-12.11-12.96-11.83-5.89-27.96,8.43-39,4.64-1.7-.56-3.79-3.06-6.28-3.96-8.15-3-10.13,1.24-16.92,3.11-5.89,1.58-13.31.4-18.34,3-7.64,3.96-7.53,17.49-14.66,23.43-4.3,3.56-10.47,4.3-14.38,0-.68,3.79-.51,9.34-2.94,12.4-2.43,3.06-8.55,3.39-11.04,6.62-2.49,3.23-1.87,9.45-4.75,13.81-2.27,3.4-7.76,4.93-8.72,7.07-.68,1.59,11.38,20.04,13.07,23.21,3.47,6.52,6.77,13.12,9.9,19.81,1.08,2.32,2.15,7.81,3.45,9.34.96,1.19,3.23.17,4.75,1.02,5.55,3.17,6.85,17.37,9.79,21.79,1.92,2.83,14.09,6.91,18.34,9.51,4.59,2.77,8.55,6.28,11.66,10.64,1.7,2.37,7.19,15.11,8.04,15.17,1.02,0,9.23-13.53,12.51-16.25,1.98-1.64,8.94-4.7,9.28-5.15,1.02-1.47-3.56-6.85-4.41-9-1.93-4.7-2.49-10.53-2.04-15.56.22-2.33,1.24-7.76,4.53-5.04.79.62-.68,17.49,1.93,19.42.45.34,9.84-4.19,10.19-4.64.79-1.02-2.66-3.79-2.66-6,0-1.19,1.07-4.81,2.32-5.04,4.87-.96,2.27,4.81,2.66,5.54,2.94,5.21,14.77-.96,19.7-.96,1.64,0,8.49,4.08,9.56-.62ZM514.06,462.48c-2.89.51-20.72,18.11-25.24,20.32-2.27,3.68-3.96,9.17-7.92,11.55-4.47,2.66-27.96,7.19-29.55,9-1.19,1.36,2.43,15.79-6.85,23.32-4.13,3.34-12,5.66-15.28,8.43-2.27,1.92-11.71,20.15-10.53,21.05.74.57,8.49-2.04,11.49-1.75,5.83.45,9.84,4.81,15.45,5.49.06-1.42-1.75-1.08-2.72-2.38-2.72-3.85.85-9.45,4.81-10.81,8.21-2.72,14.21,4.36,20.15.62,9.34-5.94.79-15.45,8.43-20.32,6.51-4.14,11.83,1.3,18.51.4.17-1.81-2.21-.4-3.51-1.14-.23-.16-2.66-4.47-2.77-5.09-1.87-8.32,5.26-15,13.3-15.23,3.12-.05,5.1,2.55,7.36-.91,4.3-6.4-2.43-16.41-1.25-24.51.68-4.87,7.3-6.91,10.02-2.72,1.19,1.82.62,6.85,4.53,2.89h.05c4.3-4.24-5.1-18.85-8.49-18.22ZM653.76,330.93c.17-.68-.96-.62-1.36-.46-1.86.85-6.34,7.59-8.83,9.74-3.91,3.45-8.43,4.98-12.06,9.28-4.59,5.55-11.09,22.81-15.51,25.42-2.09,1.24-4.98.22-8.09,2.09-2.77,1.64-5.32,5.55-8.09,7.7-16.36,12.57-37.75,16.13-54.96,25.59-8.94,4.92-10.65,4.13-19.25,7.13-7.13,2.49-14.04,8.15-20.66,10.75-7.42,2.88-16.87,4.13-24.28,8.03-2.94,13.64-1.93,29.04,2.21,42.39.34,1.02-.62,1.64,1.41,1.36,15.68-9.34,36.11-35.49,54.85-36.11.45,0,.28,1.64.96,1.81,5.44,1.19,23.15-15.96,28.3-19.92,17.26-13.25,34.3-26.49,52.24-38.77,4.81-3.28,13.19-11.72,18.74-12.85h-.05c4.18-.85,10.81.62,15.34,0l-7.13-4.47c-4.07-1.53-14.83,3.79-16.08-1.58-1.07-4.75,1.93-2.49,2.89-3.79,1.7-2.32,3.12-9.9,4.7-12.79l14.72-20.55ZM668.59,333.25c-.17-.17-3.28,2.21-4.3,2.66-4.47,2.04-11.89,2.43-12.4,8.49h0c1.07-1.58,19.58-8.21,16.7-11.15ZM454.06,815.34l-1.86,1.86c.51,1.25,4.07,2.1,5.38,2.49,4.19,1.25,30.17,8.09,32.04,6.85.49-.38,1.47-2.63,1.57-2.84-1.31-1.56-35.02-9.66-37.11-8.36ZM495.84,352.33c.4,3.06,2.43,5.89,2.61,7.58.17,1.53-8.6,12.06-3,13.31,1.02.22,5.83-7.53,6.23-8.61,2.66-6.91-1.98-10.19-2.09-16.02-.06-3.51,1.98-6.34,1.7-9.9-.34-4.14-4.13-8.78-4.47-11.49-.23-1.76,1.53-6.34.91-6.91v.05c-.11-.17-3.06-.22-3.57.11-4.42,2.55,2.38,15,2.61,18.06.23,3.91-1.47,8.89-.91,13.81ZM491.2,823.72v-.05s-.01.03-.02.04c0,0,.01,0,.02.01ZM484.57,508.44c-1.19-.68-3.11-.46-4.19-1.36-1.3-1.07-1.08-3.4-1.41-3.68l-.06-.05c-1.81-1.53-4.24-.06-4.02,2.77.51,7.19,5.32,4.65,7.87,6.85,1.25,1.07.68,3.17,1.41,4.19,3.28,4.81,6.23-5.38.4-8.72ZM424.58,829.32c-4.13-2.21-5.38.79-1.7,4.59,5.55,5.72,15.79,12.22,22.3,17.66,2.72,2.27,5.6,5.89,8.27,7.98v-.05c9.39,7.36,7.92.51,1.52-5.66-5.89-5.72-23.77-21-30.39-24.51ZM280.35,460.56v-.05c-2.78-1.87-4.36,3.84-5.55,5.14-4.64,5.04-15.51-.9-20.66,8.15-2.43,4.24-2.83,12.79-9.63,13.64-2.37.34-12.45-3.57-8.32,2.83,1.41,2.09,8.38,1.98,10.75,1.36,9.57-2.49,8.15-13.24,12.06-16.7,4.19-3.68,11.77-1.02,16.64-3.79,2.43-1.36,7.47-8.66,4.7-10.59ZM499.8,492.37c-5.09-1.53-18,3.68-9.56,5.89,2.43.62,4.98-1.53,7.07-1.42,1.59.06,4.59,4.19,5.94,2.72v.06c1.31-1.47-.96-6.51-3.45-7.25ZM302.82,452.4c-.17-2.15,3.85-9.17-1.47-7.58v-.06c-3.28.96-3,9.23-1.98,12,1.19,3.23,5.15,6.85,5.15,10.7,0,4.3-5.21,10.53-5.66,15.8-.68,7.58,5.04,12.62,3.28,19.08-.56,2.1-3.11,4.24-3.28,6.05-.74,7.25,7.58.34,8.15-7.75.46-6.46-3.85-10.65-3.5-16.42.34-5.26,5.37-11.49,5.54-16.81.17-6.34-5.77-9.9-6.22-15ZM305.37,412.27c.22-.11,0-3.62,0-3.62l-.06.06c-2.55-3.63-9.91.85-11.89,4.19-3.68,6.23-.85,12.23-2.21,18.23-2.37,10.58-17.89-.46-23.04,12.22-.68,1.58-5.1,13.81-4.64,14.43.11.11,2.32.62,2.83.45,4.81-1.92,3.51-12.57,8.38-15.74,5.66-3.68,13.13,1.59,18.57-5.6,4.87-6.4,1.47-13.25,3.23-19.98,2.04-7.87,6.9-3.68,8.83-4.65Z"/>
</svg>