<svg
   class="svg-include"
   viewBox="0 0 300 300"
   version="1.1"
   id="svg1"
   sodipodi:docname="svg-respite.svg"
   inkscape:version="1.4.2 (ebf0e940, 2025-05-08)"
   xmlns:inkscape="http://www.inkscape.org/namespaces/inkscape"
   xmlns:sodipodi="http://sodipodi.sourceforge.net/DTD/sodipodi-0.dtd"
   xmlns="http://www.w3.org/2000/svg"
   xmlns:svg="http://www.w3.org/2000/svg">
  <path fill="currentColor"
     d="m 163.79426,31.465097 c -0.99244,0.185474 -1.79168,0.356605 -1.99772,0.834623 -1.0415,0.516442 -1.68427,1.848761 -2.43906,1.611409 -0.65299,-0.303964 -0.85164,1.202357 -1.22358,0.441649 -0.7142,0.765342 -2.33853,2.124396 -2.58075,2.378745 -0.38524,1.057505 -1.42321,-0.551126 -2.0466,0.575915 -1.09481,0.116913 -0.82822,0.275674 -1.90701,0.167922 -2.58087,-0.130398 -4.10318,-1.547902 -5.48398,-3.55768 -0.43978,0.547795 -2.00175,-0.500399 -2.71536,0.09122 0.53374,1.949413 -1.41592,3.650414 -1.35723,5.824225 1.78249,1.031205 -0.6837,-0.189448 1.25785,-0.0095 0.99259,-0.87016 2.08047,-3.962136 3.68742,-1.807317 2.33213,1.141753 3.58453,1.642957 4.65179,2.127189 2.50382,0.761685 3.67128,-2.143955 5.64477,-2.560965 0.29931,-0.420688 1.34446,-1.498729 2.04919,-1.501152 0.49499,-0.414216 1.48482,-1.096176 2.01374,-1.213672 0.35454,-1.166743 2.8189,-1.269185 2.49232,-2.010752 1.03652,0.07212 0.0691,-0.983899 -0.0458,-1.391811 z m 4.21475,4.30522 c -1.74424,-0.02489 -1.93782,2.497508 -1.36414,3.388799 -0.17678,0.362729 2.68016,1.391279 1.4426,1.364153 1.38775,0.47704 2.75903,0.166995 3.9269,-0.646608 -1.17627,-1.383666 -3.5006,0.633677 -3.65243,-2.019463 -0.14021,-0.659028 0.23126,-1.587031 -0.35293,-2.086881 z m 12.84062,3.005488 c -2.30228,1.88814 -4.88573,2.782577 -7.55882,4.263754 -0.69208,1.031692 -0.86284,2.105849 0.14635,1.763273 1.85783,-0.0673 4.42897,-3.816747 6.34917,-0.984384 0.21437,0.935083 0.88369,2.056582 1.26013,2.50123 0.056,0.346031 0.94412,0.0043 1.00029,0.911926 3.496,1.696087 6.63434,1.910388 10.28225,1.863393 2.04991,-1.259611 4.95837,-0.557479 3.14459,2.100866 -1.41764,0.613219 0.46867,2.666098 -1.32451,2.273421 0.88084,0.442439 0.67779,2.082236 1.67179,2.290568 0.15385,1.407643 1.72208,1.507791 0.99982,-0.686332 -0.23708,-3.009561 2.18945,-5.652121 1.88879,-8.504671 -1.3356,-1.149265 -1.97992,0.731801 -3.52705,0.267407 -1.37878,-0.490775 -3.69084,1.029661 -4.10545,0.634669 -1.96979,-0.774781 -3.11233,0.571512 -4.95456,-0.70415 -2.36345,-0.28013 -4.38362,-1.612344 -4.80202,-4.112855 -1.53284,-0.894672 2.53663,-3.744639 -0.47077,-3.878115 z m -49.18895,2.504574 c -0.0903,0.904805 -1.67805,1.441992 -1.88338,2.353288 1.41933,0.127652 -1.99041,0.176154 -2.20689,0.452976 -1.87745,1.072409 0.77616,3.079473 -0.36465,3.323871 0.75757,0.475508 -0.83706,1.440188 0.38144,2.259949 0.30601,-1.840719 0.57428,-4.081759 2.63251,-3.890509 1.21291,-0.282047 1.87957,-0.617601 2.96631,-0.929325 -0.71955,-0.484989 1.89589,-0.680178 1.8452,-0.65807 2.2284,-0.190246 3.99886,-0.782111 5.89499,-1.878808 0.0102,-1.573867 -1.76149,-0.685803 -2.18087,-0.381813 -0.56142,-0.452956 -2.27499,0.63194 -2.73746,0.07032 0.2009,0.679555 -1.75103,-0.396878 -1.86029,-0.399514 -0.75795,-0.08181 -1.60012,-0.448935 -2.48691,-0.32237 z m 22.12632,1.14747 c -1.7323,1.041821 -2.28945,3.461886 -4.58405,3.561963 -0.77667,-0.216891 -1.2103,1.396499 -1.41963,1.125678 1.59561,1.629689 4.64479,-0.771623 6.25847,-1.728232 0.33753,-0.830456 1.35608,-2.828569 -0.25479,-2.959409 z m -17.08627,3.643217 c -1.07623,0.935097 -0.7149,3.347201 -1.70461,3.59694 -1.62276,0.21182 -2.62064,3.124481 -0.26525,2.658881 -1.20226,0.184479 1.49458,-1.222632 1.10493,-0.792669 1.22299,-0.865024 3.66121,-4.680465 0.86493,-5.463152 z m 38.52189,1.593219 c -1.6958,0.651484 -3.34117,1.580482 -5.05173,1.401821 -1.62724,1.414537 0.52391,2.371457 1.65728,1.878211 1.55893,-0.568114 5.04196,-0.783391 4.06691,-3.118454 l -0.67304,-0.161087 z m -19.15614,3.550537 c -1.04833,0.967492 -2.04085,2.247153 -3.42598,2.857944 -0.64153,1.539176 -3.94937,0.150546 -3.40073,1.715149 0.61975,1.053256 2.13639,1.340268 2.69169,2.584167 1.46816,-0.416553 2.73117,-2.514131 3.75054,-3.120126 0.7191,-0.851365 1.82456,-2.585426 0.38448,-4.037134 z m -29.26931,1.454197 c -0.97744,1.290674 -1.76418,2.937604 -3.4178,3.176087 -1.13899,0.279659 -1.86069,0.486422 -2.55378,1.054997 -0.97161,0.95292 -4.07199,-0.26859 -4.99866,1.170855 -0.0471,2.141978 3.04419,3.467306 1.80735,5.662992 -1.03671,0.947301 -3.11755,2.3192 -3.67314,2.56465 -1.76265,1.210016 0.8395,4.447233 2.05878,5.677983 1.32996,1.167984 -0.0896,3.481417 -0.212,4.32508 -0.31874,-0.25398 0.98685,2.537129 1.28444,2.173586 0.2198,1.01519 1.84226,1.543924 1.67561,1.988368 1.36728,1.755783 -1.63974,2.962594 -2.65967,2.59179 -1.67777,-0.31036 -1.95908,1.803078 -0.62047,2.418903 1.54791,0.250109 0.63057,1.191675 1.6846,1.437182 1.25867,1.973336 3.00347,4.019143 1.91356,6.585376 0.88177,1.65592 -2.02131,2.444229 0.55121,2.871402 0.6843,-1.429887 1.4675,-3.403606 1.96619,-4.599009 0.0693,-0.597237 -0.26681,-1.993192 -1.30988,-2.519045 -0.094,-1.037305 -0.93258,-1.465508 -1.03895,-2.286864 -0.69105,-0.520327 -0.0924,-3.026343 0.0714,-2.363602 1.80253,-0.96942 3.90325,-3.696191 1.3336,-5.062166 -1.52295,-0.587739 -2.19622,-2.088932 -3.0148,-3.041816 -0.0994,-0.09933 -0.32202,-2.009286 0.70258,-2.153673 1.41485,-2.66487 -3.45957,-4.478318 -2.7829,-6.498715 -0.22915,-1.457643 2.37583,-1.971388 3.20837,-2.932066 0.0113,-0.148875 1.68693,-1.005714 0.86092,-1.143881 0.13977,-1.381289 -1.83814,-4.571336 0.91307,-4.794017 1.23867,-0.934352 1.63722,-0.40365 2.60677,-1.154512 1.11295,-0.678962 3.16375,-1.734747 3.33216,-2.551475 0.85801,-0.405492 1.90803,-2.095937 0.3114,-2.59841 z m 15.2106,0.959904 c -0.1505,1.608945 -1.97075,3.960738 -4.0958,3.8818 -1.95131,-1.105035 -3.77432,2.528584 -0.75219,2.30377 0.95863,-0.506968 3.07551,-0.427979 3.51247,-1.721678 1.58985,-0.806722 3.06457,-2.216501 2.57,-4.19781 -0.35904,-0.572109 -0.81256,0.146034 -1.23448,-0.266082 z m 27.73789,0.14564 c -2.87783,0.18318 -4.25462,4.42753 -7.57603,3.762275 -1.78131,0.35758 -3.54193,-3.18592 -4.99003,-1.434571 0.29366,1.316243 1.98307,2.07654 2.47271,2.578018 1.53333,1.41557 4.35936,1.351033 5.88496,-0.282518 1.76383,-1.213339 3.03049,-2.471304 4.65169,-3.859831 0.51555,-0.614284 0.57459,-0.768407 -0.4433,-0.763373 z m 11.45704,0.719376 c -1.19442,0.0719 -1.10208,0.697229 -2.10871,1.251468 -0.76617,-0.186719 -1.99215,2.041124 -3.33698,1.703943 0.63945,0.192934 -0.85693,0.773635 -0.98061,0.72679 -0.32633,0.02357 -3.47428,0.208281 -3.01712,1.136425 -0.98843,1.555099 2.5583,1.808608 2.80226,0.754039 2.69992,0.02403 4.13731,-2.649956 6.37343,-3.663152 0.84319,-0.708603 2.51032,-1.515579 0.26773,-1.909513 z m 16.37572,4.203712 c -1.46112,0.999704 0.91146,1.729528 1.65456,1.475414 0.91035,0.535219 3.93624,0.440724 1.90737,2.572851 -0.68338,0.614692 -1.1757,2.654969 -1.4989,3.142365 -0.94834,0.325027 -0.007,3.012206 0.13192,3.571393 -0.11658,0.613471 3.02142,1.915166 1.17158,2.931577 -0.78978,1.002127 -2.37039,3.004966 -0.85301,4.685596 0.32969,1.245617 -0.38955,0.35276 0.0347,1.357477 0.7054,1.701412 2.70443,3.10847 0.58786,4.669525 -0.7248,1.01386 -1.71202,4.726203 -2.74245,2.50867 -2.19896,-1.033649 -1.67666,-3.444492 -3.29472,-4.653889 -2.16457,1.513903 0.47067,4.348115 1.90411,5.587386 0.66397,-0.01135 1.18655,1.027477 1.367,0.549881 1.33485,0.06285 0.61195,1.955274 1.1968,3.055721 0.36685,0.864848 0.36928,2.811349 -0.64936,2.536899 -2.17778,0.791713 -2.44473,4.031049 -4.04078,5.20428 -1.68859,-1.525354 -2.21463,-3.933265 -2.42749,-6.028078 0.0668,-1.299312 1.38989,-2.721087 0.0619,-3.220457 -0.44934,-0.137698 -1.80576,0.617908 -1.50765,1.754559 -0.45926,2.771203 0.4437,5.104408 1.10542,7.519053 2.36768,1.163887 0.61815,4.405866 1.71485,6.494956 -0.19069,3.11777 -0.76236,6.0775 -1.89787,8.90336 -0.33211,1.57219 -1.18301,4.38613 -1.88059,6.1048 -1.37846,1.95958 -1.36644,4.51433 -3.76705,5.93849 -2.16023,2.09338 -4.28691,4.3027 -6.81198,6.0851 0.92358,0.21774 -2.22632,1.0674 -2.41402,1.04703 -1.4142,0.33411 -1.189,1.04956 -2.55975,1.48198 -0.14253,0.32746 -2.00984,-0.16454 -1.51255,0.47383 -4.07234,0.97668 -8.18465,2.82708 -12.39825,3.40333 -1.13318,-0.2162 -2.46376,0.8101 -3.81169,0.37472 -2.79591,0.25283 -5.25066,-1.14463 -7.60668,-2.09595 0.12287,1.01893 -1.9622,-1.51272 -2.48798,-1.56507 -0.0879,-0.68708 -3.76564,-0.70536 -2.36547,-1.02033 -1.48403,-0.10508 -2.57375,-1.64252 -3.81472,-1.87487 -2.36107,-1.17724 -4.83007,-2.85482 -5.32794,-5.69833 -0.70959,-1.18762 -0.3749,-1.35701 -1.54265,-2.44017 -0.69189,-1.88674 -0.746,0.12358 -1.43322,-0.87808 0.58084,2.67642 1.63332,5.51211 3.17448,7.73074 2.40998,1.76425 5.29065,3.80609 8.09102,4.22774 0.516,0.71474 1.4987,2.14257 1.86812,2.64176 0.46519,0.29957 1.10818,2.2739 1.06105,2.74985 -0.22572,1.86161 0.36773,-0.8131 0.25026,1.59261 0.25146,2.53703 0.0281,4.73955 0.10248,7.13079 -1.04385,0.59626 0.0666,2.76036 -1.31965,3.30449 -0.41332,2.65689 -3.91628,3.22275 -5.54458,4.34599 -0.68531,-0.13555 -2.67331,1.27444 -3.5299,1.40793 -0.9159,0.9599 -2.55354,0.66634 -3.92278,1.62966 -1.22141,-0.90007 0.67405,0.71494 -0.88582,0.44497 -1.3888,1.414 -3.20552,1.65082 -4.87465,1.24144 -2.19395,0.65669 -1.75908,-1.18779 -3.52705,-1.51063 -0.94993,-1.41518 -4.19248,-0.8102 -4.27202,-2.26032 1.68919,-1.94122 2.51704,-3.6664 3.61939,-5.72758 -0.0433,-1.32266 0.43388,-2.51482 0.96442,-3.71748 0.26975,-0.3309 0.51297,-2.69355 1.24135,-3.24545 0.36393,-1.36847 1.43961,-2.21073 2.06357,-2.8424 -0.33936,0.24747 1.5856,-0.47907 0.66894,-0.3842 1.52042,-1.1173 2.93743,-2.34903 3.77972,-3.99012 -1.20758,0.38674 0.61282,-3.74538 -0.96232,-1.64024 -0.47105,0.50414 0.3486,0.45323 -0.59564,0.77961 0.5311,1.47953 -2.38903,2.5656 -2.91498,3.24714 0.008,0.41158 -2.29637,0.63217 -1.68391,-0.38827 0.53639,-0.57508 0.28316,-0.79949 0.78137,-0.82891 2.99429,-1.5683 -0.19105,-2.97959 -1.86075,-0.83342 -0.39572,0.98846 -2.67769,2.0444 -2.07728,-0.0267 0.2235,-1.19895 0.31853,-2.47823 0.41463,-3.07575 0.075,-1.35367 0.21661,-2.27681 1.80447,-2.71469 0.40822,-0.16567 0.50579,0.47452 1.27608,-0.41483 0.99229,-0.51786 2.29814,-0.40919 2.85687,-0.53421 1.75111,0.23516 1.97509,1.8864 2.97942,2.54737 0.80856,-0.74095 -0.16647,-2.51351 -0.65829,-2.4365 -0.78269,-1.05719 -1.36966,-1.37324 -2.48993,-1.83375 -2.5001,1.05687 -5.27586,1.53256 -7.29678,3.1906 0.10361,0.46965 -0.51767,2.49403 -0.36062,2.75682 0.43358,1.53631 -0.26862,3.29769 -0.17738,4.31394 -0.47793,1.84453 -0.56238,3.47446 -0.7845,4.74074 -0.0511,1.55129 -1.26829,2.24076 -1.55177,3.7058 -0.89395,1.74028 -1.96489,3.66368 -3.3085,5.02466 -1.73707,-0.40312 0.58718,-2.57678 0.0433,-3.72139 -0.10914,-1.75377 2.1194,-5.50907 -0.13576,-6.49591 -0.0138,-0.63156 -0.5281,-0.86649 -0.70958,-1.08548 -1.21081,-0.39105 -0.0572,-1.0226 -1.27586,-1.43531 -0.64109,0.17707 -1.67946,-1.1111 -2.46743,-0.97716 -5.33597,-1.16996 -3.92814,3.30988 0.71721,1.59544 1.75871,0.84978 3.78993,3.66643 2.76229,5.42643 -1.36058,2.10449 -2.44918,-2.31169 -3.00374,-0.31091 1.37823,1.11359 1.9043,5.5986 -0.30015,5.29812 -0.79728,-0.95478 -2.09873,-1.64487 -2.70337,-2.30372 -0.35544,-0.82566 -1.88186,-2.00433 -1.97748,-3.56237 0.30201,-0.56137 -1.28768,-1.83933 -0.46766,-1.72756 -0.41154,-1.31865 -1.24466,1.11753 -0.6398,0.66662 -0.38053,1.85604 0.86395,0.12049 0.50562,1.88929 0.55161,1.3967 0.88209,3.16638 2.06811,3.96161 0.3625,0.66069 3.0337,1.35625 2.78286,3.34965 0.72355,1.8359 -0.16207,4.39345 -1.84254,4.52033 -1.39068,0.83007 -0.76111,1.5882 -1.47185,2.66296 -0.10458,1.22696 -1.50101,3.69472 -1.49613,4.24384 -0.98869,0.67834 -0.22874,-1.51523 -0.81644,-1.75835 -0.38139,-2.51108 0.2258,-5.05109 -1.71287,-7.37804 -0.89436,-2.51575 -1.83479,-5.5432 -1.64573,-8.61415 -0.917937,-2.58591 -0.641347,-5.72011 -0.35309,-8.47298 -1.035127,0.88125 0.8494,-2.47793 0.69502,-1.99401 1.54485,-0.8444 1.32328,-1.85189 0.25168,-1.64669 -0.82571,0.0772 -2.333021,2.99807 -2.94829,0.78044 -0.527267,0.8157 -0.454037,-1.37034 -0.732821,1.01718 0.372479,1.69887 0.505368,2.08535 0.769789,4.00786 -0.488426,1.3632 0.681845,3.1634 -0.05066,4.21388 0.535718,1.11367 0.922995,3.03972 0.931865,3.87998 0.19053,-0.0374 -0.348689,1.48766 0.35294,1.51549 0.25823,1.7879 0.49481,2.41792 0.66684,3.88675 0.499997,1.32781 0.614347,2.38636 1.178417,3.88567 -0.0761,0.61342 0.26899,1.47196 0.0439,1.54085 0.78525,1.50647 -0.0888,3.03449 0.72177,4.4029 0.24703,2.81298 0.18448,6.80926 -0.4103,9.97954 1.392,-0.14094 1.89331,1.96234 2.03951,3.32774 0.15117,-1.32228 0.82335,3.01782 0.53178,3.02768 0.30052,0.8701 0.91514,0.9373 1.28405,1.72792 -1.07788,-0.20324 1.16555,2.28548 0.46124,2.87996 -0.16486,1.28444 0.4194,3.05385 1.33088,4.08867 0.85681,1.35023 1.87725,3.83548 2.97461,5.29706 -0.58737,0.36567 1.59812,1.7507 1.05695,2.40212 0.79346,2.34165 3.61974,4.01914 3.67904,6.83259 1.25238,0.48999 -0.51721,0.89512 0.70225,1.46582 0.28782,2.23048 2.75936,2.61115 3.30644,4.65265 0.56808,1.28478 2.56848,-0.008 2.64502,1.46935 -0.28929,-0.64166 2.34452,1.87359 1.15232,1.75631 -0.63132,0.58646 -2.24164,0.67519 -1.96957,0.86318 -1.3512,0.58259 -3.26351,0.36878 -4.66213,-0.12466 0.70946,-1.85789 -1.33969,-1.17084 -1.22781,-2.29088 -1.48899,-2.17696 -1.71885,-3.92888 -3.04925,-6.01814 -0.70079,-1.1593 -1.38296,-1.94938 -1.35045,-2.68467 -0.35678,-1.14147 -1.53855,-1.68817 -1.35267,-0.88024 -0.12575,1.01997 1.79465,2.2759 1.41889,3.56489 1.67655,0.2835 -0.49408,2.05216 -0.5293,1.76462 0.37052,0.0435 -0.93599,0.68024 -0.96269,0.53187 -0.26655,-0.67153 -0.88154,0.4958 -0.66429,-0.16888 -1.02386,0.14574 -2.01354,0.0739 -2.93949,0.40511 -0.0832,-0.92797 -1.92339,1.15971 -2.59087,0.71716 -1.89212,-0.0538 -3.052337,2.66659 -5.106773,2.20954 -0.134015,-0.51469 -3.47058,1.68527 -2.482795,-0.67999 -0.133021,-0.94632 0.3536,-0.094 0.280522,-1.15656 0.402225,-1.32531 1.921416,-1.63129 2.939806,-1.05235 0.714433,0.47112 3.8653,0.90171 3.17548,-0.29652 0.25871,-0.39058 -0.79372,-1.53582 -0.2049,-1.21435 1.85413,-2.94453 2.11494,-6.5392 1.11219,-9.80299 0.57208,0.45098 -0.36586,-1.56957 -0.17197,-1.73975 -0.51614,-1.93378 -1.54383,-2.75136 -2.00612,-4.19158 0.045,-0.73541 -1.614997,-1.40272 -1.222407,-0.98389 0.015,0.72856 0.930367,2.58336 1.621947,3.55306 -0.992237,0.0139 0.76326,1.5395 0.50527,1.85712 0.45897,1.61248 0.3756,4.62166 -0.48797,6.1775 -0.37781,0.41145 -0.69743,2.16721 -1.771897,2.17317 -0.11403,0.27864 -0.854753,0.21678 -0.79032,0.756 -2.317111,0.84478 -4.164115,-2.62998 -5.569984,-2.94063 -0.895415,-1.68112 -3.71989,-2.5086 -2.707663,-5.20401 0.168441,-2.42084 0.761643,-4.55699 1.723106,-6.68193 -0.370262,-0.96632 2.269024,-1.63811 2.535512,-2.69063 1.256131,-1.94237 -1.299342,-2.72455 -2.392014,-1.50476 -0.437017,0.7607 -1.078175,1.83221 -1.970694,2.21172 0.728721,0.0243 -1.111428,0.94288 -1.423478,0.35774 -0.276465,-0.1045 -1.376135,-0.11528 -0.772625,0.32317 -0.905472,-0.0401 -2.346831,0.97265 -2.685755,0.743 -1.004869,1.21896 -2.503116,1.91982 -3.877316,2.6291 -1.632349,0.9386 -3.970819,3.04319 -5.735797,2.42938 -0.01758,0.11429 -1.33474,0.30969 -0.615852,-0.14706 -2.429537,0.32269 -3.588867,-2.90097 -5.969465,-2.65509 1.139014,0.24093 -1.551024,-0.0547 -1.842517,0.29354 -2.226276,-0.85332 -2.094718,-4.01736 -4.701483,-4.4686 -0.185826,-0.68461 -3.526708,-1.62022 -3.049104,-1.54688 -0.353424,0.34096 -1.463676,-1.39543 -2.423604,-1.05813 0.234219,-0.97759 -0.160651,0.34854 -1.066174,-0.48712 -1.183262,0.0461 -1.755457,-0.82641 -2.348313,-1.83276 -0.971288,-0.81287 -1.006099,-3.9309 0.334731,-5.01167 0.438701,-0.77696 1.997136,-1.41617 2.074649,-1.84363 0.567848,-0.22936 1.052477,0.20827 1.807718,0.5765 1.006393,1.17232 2.344883,2.03136 3.458436,3.07445 0.898027,0.50694 -0.363414,0.12997 0.683539,1.03196 1.661742,1.36309 1.967446,4.65647 3.433942,5.65141 0.270765,1.13888 1.450686,3.61554 2.238947,3.48948 1.157716,0.28816 2.332307,1.12518 3.217898,1.50203 -0.06598,0.012 0.59786,0.97908 0.623467,0.44949 2.56616,1.73703 5.601035,2.71331 7.816422,-0.11084 0.295115,-0.30285 1.775928,-0.499 2.067791,-1.1751 1.758971,-0.88207 3.007541,-1.45473 4.845704,-2.50751 0.460449,-0.97337 2.535705,-1.83165 0.60487,-2.3037 -0.839341,-0.87253 0.695347,-0.55128 0.167733,-1.94908 0.70997,-0.67519 -0.31208,-2.76702 -1.330506,-1.95402 0.0879,1.36309 -0.167966,5.6913 -2.019231,4.8105 -0.846521,-1.68776 -2.484825,-3.9594 -1.689698,-6.38097 -0.198426,-1.2937 -1.786189,0.23788 -1.432347,0.40296 -0.434144,2.17651 -0.519314,4.49751 0.942199,6.12954 -0.459878,0.1222 -0.652593,0.93669 -0.593707,0.97413 -0.296225,-0.35402 -1.457752,0.59571 -0.993346,-0.0909 -3.035496,0.80743 -5.527228,-1.75352 -5.582707,-4.25096 1.462695,-1.99493 0.474042,-5.10453 1.686184,-6.90048 0.509504,-0.35661 0.947563,-1.83355 0.523218,-1.92552 1.671013,-1.96052 3.778483,-3.33463 5.45724,-5.46875 0.390669,0.72736 0.818904,-1.5192 1.765723,-0.66456 0.09198,-0.56595 1.917969,0.72844 1.374896,0.13184 2.199916,0.68966 6.759974,1.98002 6.432216,4.6079 -2.093138,1.23651 -3.686901,4.04908 -5.768505,4.80406 -0.349902,0.94012 -1.417736,2.66922 0.534392,2.83641 -0.569705,0.55213 0.401074,0.65545 0.06199,0.29249 -0.03992,-1.27352 0.831472,-3.06592 1.886986,-3.32653 -0.396718,-0.3723 1.146296,-0.1789 0.57824,-0.5597 1.595069,-0.57945 3.210177,-2.5259 4.23705,-3.41193 0.874503,-0.39811 -0.0053,-3.3102 -1.286511,-3.78685 -0.09114,-1.15199 -2.088156,-0.55651 -2.076603,-1.68756 -0.66635,0.1435 -1.246072,-0.67289 -1.405842,-0.35244 -2.370378,-0.79329 -4.359111,-1.27542 -6.975759,-0.99428 -0.871443,-0.14839 -1.598055,1.15631 -1.427467,1.45535 -1.511469,1.20385 -2.998429,2.26632 -3.473599,4.06194 -1.644595,0.28138 -1.83615,1.75286 -1.763022,2.85707 -1.179495,1.92661 -1.213146,5.53342 -0.94029,7.16474 0.172525,1.38543 -0.476313,3.24846 0.796611,4.2021 0.741962,1.2878 1.847121,2.11925 3.414057,2.08122 0.509178,0.2831 1.714472,-0.19385 1.955261,0.56794 -1.090704,-0.0356 0.808262,1.38349 -0.880545,1.15753 -0.08678,0.48484 -2.142221,0.86876 -2.981462,1.61068 -1.049348,-0.44761 -3.435951,-0.93823 -3.833095,-1.39362 -2.580252,-1.13013 -4.991211,-3.07871 -6.325403,-5.94727 -1.437464,-1.75088 -2.167842,-4.80509 -3.749591,-5.89182 0.517401,-0.53558 -0.965912,-0.23798 -0.273099,-0.50256 -0.375264,-0.44521 -0.241267,0.2781 -0.625274,-0.60879 -0.927486,-1.13515 -1.890869,-1.77774 -2.836823,-2.94118 -0.712945,-0.19995 -1.022827,-2.2316 -2.122112,-1.80108 -0.806573,0.61004 -0.72244,1.62639 -1.828032,2.20132 -0.189185,0.8541 -1.071143,1.12998 -1.754877,1.46375 -0.414674,0.4019 -1.641739,1.76146 -1.187369,2.73292 -0.587287,2.92958 0.864206,5.13627 2.894906,6.8864 1.644063,0.45625 3.484302,-0.2374 4.716217,1.01973 0.768075,0.34422 1.425637,0.8535 2.393923,1.52818 -0.890103,2.17032 -4.331094,0.83289 -6.044237,1.61983 -0.01183,-0.23117 -2.879061,1.10793 -2.126654,1.07082 -0.447435,0.60155 -1.859541,0.58195 -1.578297,1.10454 -2.125766,1.203 -2.992419,3.78504 -2.906114,5.86747 -0.5626,2.21621 2.316695,3.4445 2.989732,4.89767 1.365312,1.90552 3.762825,0.0641 5.539536,0.21605 -0.351815,-0.96664 0.606393,0.30489 0.448831,-0.63849 1.549858,-0.25972 2.69142,0.3078 3.884423,0.82231 2.357048,2.28966 3.208653,5.15717 4.692219,7.99947 0.805652,1.64668 3.117608,2.67688 4.54689,1.8573 1.627971,-1.4871 0.4629,-2.85379 -1.301819,-1.3064 -2.149682,-1.06443 -3.127039,-4.11307 -4.254574,-6.06744 -0.743479,-1.44497 -1.557826,-3.56393 -3.362142,-3.98776 -1.692428,-0.76749 -3.894748,-1.08297 -5.764596,-0.11408 -0.267821,-0.631 -2.082661,0.96979 -2.688399,0.46087 -1.611886,-0.83552 -1.912613,-2.69946 -1.752424,-4.02725 0.331353,-0.90245 1.42154,-2.95996 1.593742,-3.14382 -0.587251,0.23367 -1.240927,-0.0764 -0.924654,-0.65977 -0.103118,0.67745 1.074839,-0.17977 0.236505,-0.28792 -0.298211,-1.00091 1.105305,-0.46595 1.278354,-0.88108 0.158668,0.7747 0.516873,-0.30956 0.612439,0.287 1.616206,-1.28898 3.718685,-2.0284 5.779329,-2.0593 1.345862,-0.0262 0.786285,-0.32325 1.44342,-0.26614 0.637407,-0.44477 1.711426,-0.21066 2.121411,-0.46966 0.651623,-0.12243 2.618946,1.49546 2.03645,1.74594 0.219312,0.89277 -0.121376,1.29629 -0.682545,2.68949 -0.670431,0.93072 -1.101176,2.10261 -0.152819,2.7832 0.815076,-0.0245 0.1762,0.1147 0.997877,-0.31989 1.045647,-1.41964 2.044033,-3.94625 3.932552,-3.01342 1.324294,-0.9139 3.851253,0.65337 4.464607,1.6535 0.659582,1.29713 1.419203,-0.77327 2.623908,-0.50118 1.218534,-0.16357 -0.609071,-0.49848 1.074761,-0.55735 2.218148,-0.5438 4.554789,-2.22848 6.249818,-3.83773 1.632713,-1.49458 4.045289,-1.14222 5.212421,-2.83652 1.858208,1.19884 -1.147297,3.33238 -0.193809,5.08312 0.11994,0.37382 -0.774798,1.5346 -0.21175,2.03326 -0.721096,1.02184 -0.839209,4.20242 1.171947,5.02558 0.720049,0.87011 1.197076,1.81826 2.274739,2.22387 -1.066438,-0.2163 1.873564,1.21194 1.36152,1.72212 1.822236,0.63766 0.05582,3.4448 -0.814587,4.08348 -0.689513,0.55778 -0.733909,2.20569 -0.931229,2.53009 -0.225915,0.51473 -1.388586,2.61308 -2.879597,2.15467 -2.156538,0.26405 -1.972398,2.10961 -3.873046,2.65989 -0.780216,1.12005 0.924378,1.63515 0.461576,2.25574 1.688059,2.35362 1.645813,6.03928 3.72766,8.29732 -0.03631,-0.9 1.936264,1.46406 2.566481,1.16937 2.484355,1.69497 1.692073,4.85203 2.990218,7.22345 0.13119,1.00914 1.392368,2.18982 -0.593369,2.30927 -0.120163,-0.85209 -1.326271,2.36954 -1.768039,2.08689 -0.700539,1.38905 -0.211419,3.00281 -1.088284,4.04388 -0.615783,1.4362 -1.726644,2.81863 -0.966457,4.0617 -0.204292,2.41172 -2.199125,4.66661 -0.803706,6.81314 -0.873682,-0.13223 1.546619,1.69533 0.986511,1.84752 1.03933,0.43516 -0.779608,0.16376 0.710315,0.87263 1.21571,0.61766 0.908998,1.52582 2.083484,2.12918 2.683655,1.742 3.781607,5.53892 6.620494,6.45373 0.20523,0.39456 1.25784,1.4283 1.29798,1.2167 1.12139,1.26486 2.64571,2.63433 4.50176,1.83402 -0.47167,-0.51368 2.08607,-0.85989 0.43922,-1.49411 0.37708,0.6135 -1.35829,0.3224 -2.12971,0.43084 0.21772,-0.59696 -2.41335,-0.9323 -2.29075,-1.57156 -0.96152,-0.41467 -0.94256,-2.00573 -1.83616,-2.57139 -0.695867,-1.10228 -2.495222,-1.86405 -2.694516,-2.73271 -0.388801,0.0562 -1.224546,-1.43109 -2.268321,-1.9224 -1.839912,-2.01654 -4.552054,-3.86468 -4.58996,-6.7944 0.931714,-0.85034 0.298371,-2.31109 1.355204,-3.13697 -0.377972,-0.95482 0.937958,-0.35478 0.505367,-1.40411 0.914389,-0.42808 -1.122407,-1.93895 0.531714,-2.393 0.390975,-1.7042 1.618487,-2.84121 2.074276,-4.39004 1.14759,-1.23881 1.284921,0.67258 1.28433,1.06636 0.589713,2.14869 1.552544,4.75623 3.422709,6.08029 0.209327,0.11779 0.790917,0.4826 0.691057,0.7741 1.20899,1.04442 2.16869,0.1071 3.34336,0.0177 1.05994,1.64254 1.86725,-0.44496 2.27776,-0.64102 0.45492,0.0424 2.0271,-0.57782 2.1428,-0.9181 1.22132,-0.97621 0.99231,0.27895 1.6423,-0.35277 0.64049,0.74757 2.47811,-1.85374 1.62228,-0.34103 0.70392,0.0494 -0.18571,1.54633 -0.70848,1.32084 -1.19891,1.23852 -3.16968,2.34997 -4.70475,2.41245 0.83708,-0.31824 -1.44667,1.45674 -2.15141,0.31651 -0.56101,0.0994 -2.09337,-0.0486 -2.33259,-0.18265 -1.734307,-0.16442 -2.664397,-1.95707 -4.228404,-0.83149 -0.256548,0.25927 0.197171,0.70312 -0.488148,1.13309 -0.582253,-0.64834 0.07573,0.78316 -0.607288,0.1177 0.09939,1.43019 2.814403,1.50927 3.654633,1.58999 2.638297,-1.05926 6.133527,2.05471 8.209047,-0.66501 1.33563,-0.64967 3.31212,-1.97864 5.05114,-2.88008 0.39534,-0.66057 0.60302,-1.44129 1.07734,-1.71649 0.61984,0.98703 2.26479,2.40027 1.89433,3.50698 -0.41045,-0.0517 -0.49591,0.34846 -0.4647,0.49125 -0.82196,0.59678 -2.70097,1.93697 -4.22587,2.23004 -1.02277,0.58334 -2.20547,0.79653 -3.05864,1.34058 -1.2877,0.13443 -2.31145,1.65139 -3.92827,1.47595 -1.23272,0.46722 -1.00917,0.10914 -2.32402,-0.2352 0.44139,-0.46852 -0.76053,0.46238 -0.7552,-0.28355 -1.732197,0.71552 1.92852,2.05942 2.48026,1.88268 1.90185,0.72256 2.33559,-1.69615 3.69881,-1.01137 1.9147,0.13421 4.24301,0.0558 5.48614,-1.54284 0.30686,-0.63804 2.13974,-0.0526 1.65322,-0.87655 1.47037,-0.96805 3.56418,-0.56918 3.57964,1.37289 0.92806,0.2087 -0.79558,2.19424 -1.41174,2.00192 -0.83677,0.90968 -3.0663,1.06019 -3.87106,1.70796 -0.6008,-0.84229 -1.55366,1.24221 -2.63108,1.16019 0.0714,1.24003 -2.66902,-0.40168 -3.20431,0.71869 -1.53076,-1.17852 -1.24442,2.02951 -0.94619,0.67345 1.41234,0.26245 1.75103,0.29349 3.41151,0.99546 0.0116,0.74483 1.75393,-0.85229 1.21805,-0.0916 1.21003,-0.84134 3.18348,-0.87312 4.20978,-1.47531 1.44321,0.16891 -0.95859,2.41412 -1.25756,3.01453 -1.19844,0.89634 -0.34192,0.65142 -0.24821,1.33131 1.51023,-0.539 2.48875,-2.97584 3.97742,-1.37424 0.0432,0.36067 2.40915,1.19987 2.86929,1.09952 1.19086,-0.25876 3.49076,0.593 4.76709,-0.42804 1.19155,0.55061 3.36831,-0.69009 4.1433,-0.47679 0.51954,-0.0788 1.43488,-0.72642 2.28734,-0.92045 0.95061,-1.25455 1.86868,-1.07087 2.95178,-1.34633 -0.0102,0.61041 2.35667,0.17878 1.73205,0.60997 1.76726,0.0188 2.21186,0.18426 4.05646,0.013 -0.22084,1.02648 2.85627,-0.38685 2.56235,0.47465 1.88423,-0.0491 2.25455,2.36205 4.63766,1.35464 0.79663,-0.92597 2.88517,0.0416 3.54666,-1.69205 0.29318,0.3632 1.73537,-1.29913 2.55793,-1.52218 0.17526,-1.12086 2.01977,-0.59772 1.861,-1.35744 1.41129,-0.57469 3.00913,-2.70071 3.94042,-2.72502 1.42372,0.0577 3.85494,-1.35321 5.02287,-0.76923 2.18187,-1.70259 1.85385,1.90544 3.86458,1.08863 1.10999,-0.0539 2.9294,-0.97961 3.81463,-0.35314 0.50025,0.53118 2.70499,-0.14107 3.38863,-0.73703 1.59554,0.21202 3.14182,0.86727 4.41415,-0.47059 0.89741,0.0733 3.93704,-0.84205 3.59025,-0.40245 -0.36232,-0.30163 1.01875,-0.21962 0.99426,-0.45987 1.01382,-0.71619 1.61831,0.93214 2.26872,-0.66377 2.01513,-1.17318 -2.46024,-0.63346 -2.27956,-1.17232 2.55455,-0.95515 5.69913,-0.47758 8.39535,-0.75228 0.22016,-0.49561 1.2956,-0.0266 1.52898,-0.49193 1.81399,-0.0303 3.30741,-0.41503 5.10189,0.15221 3.51452,-0.72446 6.61273,-0.10022 10.1036,-0.75416 2.41557,-0.0237 4.34544,-0.59062 6.59727,-0.10056 1.65628,-0.20056 3.47717,-0.49313 5.06357,-0.25579 1.24191,0.51719 2.79371,-0.61213 4.27625,-0.69464 1.91375,-0.24439 3.91805,-0.76545 5.91986,-0.52303 1.47459,0.54891 1.40778,-0.55265 1.687,-0.35411 1.4346,-0.10112 2.17662,-0.16437 3.20938,-0.41906 0.0412,-0.78489 2.41715,-1.43934 2.0397,-0.81126 1.06726,-0.52698 -0.0517,1.24806 0.84084,0.66426 0.25275,-0.2153 1.09392,-1.42295 1.77626,-1.24528 -0.18081,0.0891 1.99088,-2.18427 2.24966,-2.64094 0.8326,-1.10622 2.93993,-1.55784 2.97419,-3.06235 0.20659,-0.18082 0.75181,-0.99952 0.80767,-1.64046 1.06234,-2.60588 3.98369,-5.39092 3.55898,-8.0721 -0.43476,0.81441 -1.12795,-1.27883 -1.39594,0.25828 -0.49495,1.98433 -2.09173,3.38727 -3.09931,4.64964 -1.47205,1.49992 -1.68956,4.28684 -3.36273,5.91494 -0.58623,2.32773 -2.9198,2.68934 -4.90017,2.65656 -0.90421,1.48681 -0.94083,-0.58492 -2.21896,0.47872 -1.61321,0.1666 -4.16487,1.08071 -5.58574,0.74233 -1.40287,0.27369 -2.3171,0.26611 -3.26055,1.06476 -0.3122,-1.35405 -3.52114,0.86243 -4.6746,0.10417 -1.21749,0.0681 -2.54053,-0.13967 -4.02841,0.41907 -2.28528,0.62801 -4.85122,1.04589 -7.09756,0.8034 -2.07901,-1.30014 -4.28526,0.43859 -6.60365,-0.053 -2.00807,0.29774 -4.63137,0.61529 -6.50984,0.42643 -3.54415,-0.002 -7.61781,0.49233 -11.35433,0.95835 -3.82871,0.3963 -7.35645,0.17706 -11.38952,0.22349 -1.95094,-0.0175 -4.30691,0.19156 -6.1641,0.39702 -0.56516,0.006 -2.82771,-0.26326 -1.24294,1.33355 -1.1056,0.47724 -2.85711,0.40441 -3.35004,1.03573 -3.42181,0.34108 -6.78651,1.52397 -8.53618,4.50649 -0.95427,0.29941 -2.57734,1.5845 -3.14093,1.59732 -1.40429,0.50711 -3.634,1.95659 -4.3152,1.92503 -1.17267,-0.13417 -3.1953,0.0782 -3.92964,-0.17219 -2.47444,-0.97833 -5.17833,-0.70059 -7.40048,-1.56026 -0.75393,-0.412 -3.58835,-1.07255 -4.08142,-2.92304 -1.43293,-1.87276 0.21053,-3.57515 2.23998,-1.58916 0.44853,0.33146 2.35346,0.24388 2.4618,0.80453 0.72412,0.1447 1.97436,0.15865 2.22155,-0.0891 1.26261,0.26788 2.82086,0.74798 3.9576,-0.0558 0.66504,1.18664 -0.21967,-0.47723 0.62757,0.0102 -2.11665,-1.74533 -5.35308,-0.90944 -7.89239,-2.10611 -0.32636,0.21571 -1.35991,-0.86811 -1.34726,-0.17369 -2.32185,-1.31406 -4.72567,-0.35083 -7.05322,-1.87499 -1.38785,-0.3829 -3.66346,-3.63283 -3.98484,-0.82521 -0.97303,3.37262 3.00488,2.80949 4.89709,2.65025 0.34421,1.84504 0.83172,4.26787 2.29707,6.0354 0.19739,0.40562 1.231,-0.37547 0.28648,0.64937 -2.44476,0.5059 -5.1634,1.10892 -7.5639,1.11068 -0.83829,0.53464 -1.63832,-0.11847 -2.73764,0.0445 -0.94041,1.06475 -3.67462,1.31881 -3.83352,0.22032 0.98366,0.0134 -0.78434,-3.30667 1.20232,-2.97152 -0.3536,-0.37841 1.16664,-0.77869 0.84526,-1.38499 1.17114,-1.51796 -1.12441,0.68979 0.34569,-1.18786 -0.60912,-2.06005 -1.24866,-3.52476 -1.55059,-5.27561 -0.62681,-1.37178 0.27027,-4.21989 -1.53758,-4.61963 1.23528,0.0113 -1.57177,-0.5895 -1.65553,-0.51746 -1.56499,-0.38354 -0.71732,-3.24099 -3.17425,-2.59523 -1.45102,1.48684 -4.17718,2.12665 -6.37983,1.18455 -2.56843,0.48472 -5.938497,1.12788 -6.942597,-2.23389 -0.227445,-1.0034 -1.151284,-2.48836 -1.284074,-3.10856 -0.869382,-1.63897 -0.166984,-4.04041 -1.083618,-4.9267 -0.331653,-0.0326 0.645067,-0.70836 -0.448085,-0.92299 -0.332844,-1.64311 -2.108806,-3.12062 -1.710057,-4.8508 0.974431,0.12493 0.92457,-0.24324 1.540901,0.15137 1.08758,0.28116 2.982453,0.35094 3.573203,0.35827 1.585917,0.7375 4.089947,0.40744 5.318317,0.88598 0.63668,-0.38198 1.01391,0.0846 1.01973,0.17935 0.5899,-0.008 1.63365,1.67174 2.08556,0.19431 0.52171,-0.13531 1.98621,-1.43305 0.39468,-0.73384 -1.23544,-0.54846 -3.2555,-1.26617 -4.57492,-1.61578 -0.78821,-0.42452 -2.34075,-0.97751 -3.56847,-0.99629 -0.925927,0.0788 -2.296177,-0.49796 -3.027898,-0.35464 -1.082868,-0.11771 -2.996446,-1.17194 -4.501891,-0.81483 -0.883995,-0.68181 -0.06789,0.66417 -1.28668,-0.73664 -0.839701,-2.02025 -2.254832,-4.59165 -2.880377,-6.87757 0.443369,-0.96747 0.251746,-2.07853 1.40382,-2.5003 0.01017,0.81117 1.813978,-1.10692 2.44977,-0.47479 0.672367,-0.67756 1.487138,0.69006 1.792273,-0.24579 1.174075,0.0784 2.897128,-0.90171 4.338474,-0.0534 2.783039,0.35062 5.387979,1.71154 8.041589,1.38503 1.05729,-0.10541 3.23826,0.70158 3.76473,0.22922 0.13206,-0.89941 3.12458,0.63212 3.32425,-0.23984 1.52517,-0.28629 3.95726,0.24702 5.09938,-0.67989 2.60266,-0.53516 4.86838,0.5963 7.24421,-0.348 2.11774,-0.85113 5.03415,-0.43693 7.34022,-1.80242 2.43128,-0.94438 4.82707,-1.43239 7.14649,-2.62494 -0.11543,-0.58522 0.9294,-0.29094 1.23232,-0.48714 1.95575,-0.3957 2.71822,-2.86069 5.05128,-2.04141 1.11492,-0.68671 2.5034,1.01352 3.50331,0.74222 0.14483,2.03345 -0.56292,4.28363 -0.221,6.30742 -1.15892,1.23852 0.97571,2.793 -0.90425,4.04909 -1.04283,0.71817 -2.10018,0.91139 -3.1783,0.70873 0.71632,-0.22085 -1.84821,0.26923 -2.03256,0.64804 -2.20643,0.93842 -4.67418,0.77804 -6.98723,1.79031 -2.22813,0.22269 -3.006,1.5867 -5.55666,1.9778 -1.93637,0.9294 -4.55929,1.18094 -5.98274,2.71492 -2.16873,-0.14994 0.67536,1.21615 1.21394,0.16855 2.80735,1.21777 5.36142,-1.71174 7.73939,-1.63985 1.51833,-0.82368 3.57099,-1.00692 4.75726,-2.03951 1.15521,0.1247 2.17919,-0.94304 3.59701,-0.22985 2.48857,-0.57188 4.57497,-1.85452 7.06393,-2.47375 0.40126,1.81689 3.60786,-1.08129 2.87946,-2.25905 -1.06286,-1.29811 -0.20552,-2.10403 -0.51463,-3.96169 -0.31578,-2.47588 0.63837,-5.72103 -1.08903,-7.59283 -2.75664,-0.9792 -5.52669,-0.17107 -8.1755,-0.15957 -1.00287,1.03487 -0.84423,-0.0395 -1.84207,0.49123 -0.6205,-0.27691 -1.59894,-0.5628 -2.06262,-0.67283 -1.6798,0.68861 -3.53006,-1.24622 -5.21771,-0.60402 -0.95307,-0.007 -2.09628,-0.32392 -3.108,-0.13727 -0.19062,-0.69709 -2.38514,-0.003 -2.95559,-0.15944 -2.47829,-0.75724 -5.42364,0.18503 -8.01765,-0.31873 -0.65745,1.70606 -1.63053,-0.43314 -1.8443,-0.88022 -0.55779,-1.47917 0.45024,-2.20393 0.55851,-3.74114 0.0521,-2.66422 1.59494,-4.93847 2.32682,-7.23413 0.0748,-0.6913 -0.32939,-1.33295 0.33395,-1.03524 -0.2175,-0.80601 -0.93029,0.0507 -1.12194,0.0481 0.052,1.09151 -0.23998,0.42071 -1.32395,1.68004 -0.77988,1.68811 -0.75045,3.56893 -1.86311,4.50218 -0.72763,0.72396 0.16694,2.15977 -1.06376,2.17511 -2.58354,-2.60095 1.30716,-5.43722 2.30688,-7.93176 0.45623,-0.89938 1.71139,-2.4244 1.92261,-2.92769 0.5444,-0.90603 2.62824,-2.74158 1.80003,-0.75494 -0.22614,1.26288 -0.72232,1.26594 -0.99268,2.10981 1.39995,-0.57247 1.23442,-0.67779 0.29273,-0.21741 1.75679,-1.00797 3.53028,-3.37313 5.10447,-4.09154 0.75048,-0.35404 1.89176,1.42809 2.06512,2.16758 0.75792,1.288 1.31084,2.73745 1.39561,3.96436 0.27115,0.89352 1.06195,1.75316 1.57839,2.64211 2.89931,4.12456 7.88068,1.16825 11.85098,2.50636 0.69575,0.7573 0.4467,0.7199 0.71131,0.49605 2.41567,1.42183 4.86574,-0.1417 6.69144,-1.54257 2.45015,-1.21733 3.68641,-4.32625 3.6791,-6.75385 0.91484,-0.56805 1.65374,-4.03342 0.41033,-2.73608 -0.9818,-0.30077 -0.62885,-2.77323 -2.0753,-3.37146 -0.15425,0.40992 -0.24488,-0.0933 -0.61692,-0.12689 -0.83115,-2.2018 -3.86684,-1.22158 -5.57124,-0.97792 -1.3682,0.5209 -3.47269,0.12077 -4.04753,-1.21417 -0.39677,-0.19225 -2.22422,-1.31073 -1.62104,-1.30774 -1.32445,-0.7416 -2.69586,-1.86811 -3.83761,-2.12709 0.0968,0.29878 -0.75554,0.32005 -0.22211,-0.058 -2.8888,-0.80141 -7.21889,-2.438 -9.21079,0.43969 -0.72662,1.24071 -2.67913,2.38164 -3.77107,3.47604 -0.30017,0.52129 -1.62035,1.52332 -1.97618,2.11148 0.71668,0.27878 -1.91244,1.43948 -1.27969,2.16412 -0.96044,1.84749 -2.27736,3.6541 -3.47075,5.07993 0.36604,-0.0818 -1.44693,1.89562 -1.50696,2.39532 -0.35753,1.92305 -2.59144,2.88963 -3.42076,0.5577 0.21623,-1.70695 -1.41826,-2.16188 -1.45678,-3.85618 -0.67904,-0.30541 -0.79846,-1.48607 -1.35494,-1.71144 -1.11987,-1.82484 -1.80599,-5.29149 -2.39451,-6.30263 0.0956,-1.68104 -0.2188,-3.58518 1.56661,-4.66322 0.21561,-1.08295 2.77185,-3.07751 1.06358,-3.76798 -0.29825,0.39997 -0.93026,-0.21123 -0.75264,0.22209 -0.71087,0.30208 -1.31943,0.8656 -1.02369,1.02051 -0.89845,1.52363 -2.73745,2.13989 -2.31729,-0.44136 -0.48103,-2.50669 0.038,-6.26743 3.40069,-6.1013 2.0841,-0.56269 2.6696,1.6243 3.98624,2.86644 -0.0618,0.48127 1.14084,1.16473 1.02674,1.39222 1.39424,1.0288 3.35661,1.6599 4.0386,-0.40258 2.87382,-1.66522 4.03083,-5.04117 5.79901,-8.03778 2.27596,-1.76137 4.84221,-0.0784 7.1736,-1.57676 1.93106,-1.463 3.13214,1.54464 3.84614,2.9402 0.18127,0.14195 1.14546,0.85949 1.61723,1.62319 3.71016,3.606 8.38182,5.87365 13.40682,7.44091 3.09513,0.96371 5.82858,-0.22688 8.84631,-0.0252 1.23532,-0.48822 1.89843,0.25149 3.03588,0.0859 0.0299,-0.56261 1.93276,0.56555 2.32428,-0.10258 0.63499,-0.0749 2.05899,-0.44977 2.91746,-0.43724 1.23638,-0.40418 1.74461,0.7696 3.43385,0.46854 0.90142,-0.50955 1.64676,0.15419 2.3288,-0.39751 2.2454,0.50283 4.74938,-1.94543 6.89643,-2.55315 0.10643,-0.977 0.87641,0.32792 1.06474,-0.61162 1.13574,-1.10495 1.46303,-2.7361 2.42209,-3.926 0.27295,0.58218 0.97685,-1.82082 1.74367,-2.04423 1.50675,-1.21929 3.30629,-2.59223 4.36468,-4.52673 1.13659,-0.84113 0.8096,-1.14374 1.89708,-1.56621 0.28139,-2.36037 2.4299,-2.14176 4.04173,-1.6881 -0.18039,1.14307 1.53611,-0.64358 1.48721,0.57238 1.49799,-0.33514 2.29135,1.66613 3.9966,1.36577 2.95624,1.13646 6.67508,0.23863 9.39749,1.3062 1.39049,-0.46635 3.53636,1.085 4.63933,0.18493 0.87828,0.52179 1.21027,0.41293 2.14365,0.26004 1.18042,-0.29039 -0.21031,-0.64534 -0.022,-0.91402 -0.35258,-1.13137 -2.52651,-0.93424 -3.72127,-1.27493 -3.0074,-1.68183 -6.93377,-1.05879 -9.88498,-1.53751 -2.11838,0.14178 -2.4039,-0.92561 -4.40591,-1.4132 -2.33469,0.0982 -0.40428,-0.23253 -1.68385,-0.32471 -1.95477,-1.50228 -5.34927,-2.49276 -8.28663,-2.09697 -2.55111,-0.39998 -5.9085,-0.57182 -7.16536,-2.72216 -1.2464,-0.9058 -2.07747,-3.23071 -3.33517,-4.56186 -1.13027,-2.52382 -0.75586,-5.69896 -0.12361,-8.29465 0.20574,-2.31629 -0.41274,-5.05097 2.77688,-5.34488 1.57356,-1.02526 4.43079,-1.30083 4.58279,-3.42094 1.05764,-0.88032 2.99234,-2.08258 2.97276,-3.2012 0.40907,-1.59544 2.36855,-3.39587 2.67258,-5.37593 1.39737,-1.40844 0.629,-4.54109 3.23753,-4.81985 2.1554,-1.25056 3.37859,-1.06874 5.33447,-1.71727 1.81098,-0.0499 2.42969,-1.79765 3.94005,-1.76596 1.12871,-0.48057 2.12262,-1.24621 2.3507,-2.2807 0.68812,0.85562 0.19443,-1.79889 1.19396,-1.84488 1.32047,-1.5533 1.48331,-3.88085 1.31342,-5.29856 0.15799,-2.43224 0.17923,-7.059858 -2.55407,-8.704688 -1.41712,-0.93185 -4.38823,0.06177 -4.39445,-2.123566 -0.16615,-1.582302 -1.12859,-4.069486 -0.32884,-5.305583 0.19263,-0.923188 0.69466,-2.701627 1.66808,-3.425656 -0.24733,-0.996419 1.62754,-1.042476 1.423,-2.194152 1.42811,-1.74308 -2.72569,-2.014545 -2.32241,-3.877864 -1.78778,-2.630306 1.99264,-5.14839 2.36758,-7.585328 -1.68495,-0.500191 -3.35175,-2.367274 -2.57294,-3.814035 0.5428,-0.772991 0.482,-2.200423 1.3834,-2.784041 -0.71915,-1.188863 3.44633,-2.976101 1.12346,-3.600013 -0.58702,-0.224251 -2.61749,-1.00949 -2.92291,-0.442868 0.19813,-0.797588 -1.32086,-0.229388 -0.75509,-0.667598 -0.81977,-0.08806 -1.82654,0.09617 -2.57027,-0.303311 z m -16.92076,2.422927 c -0.50862,0.315043 -0.58705,1.375417 -0.59584,1.547522 0.50778,1.317448 1.80131,1.291322 2.76731,2.123081 -0.96155,0.10496 1.09326,0.118948 0.96169,0.62489 2.22672,1.28572 4.79572,0.764831 7.11836,0.644391 -0.66455,-1.099157 -1.70135,-1.45702 -2.69514,-1.352996 -0.4603,0.119207 -1.46934,0.613996 -1.98891,-0.108293 -0.5726,0.04874 -1.4786,-0.588679 -1.16886,0.05998 -2.36404,-0.572517 -2.12215,-3.661506 -4.39861,-3.538584 z m 11.67771,1.948492 c -1.16405,0.742427 -0.18695,2.181117 0.83206,2.463472 0.50958,0.580175 0.68653,-0.165837 1.73308,0.463607 3.86527,0.797427 3.63361,-1.293868 0.63309,-1.73235 -1.32193,-0.603436 -1.70635,-0.883962 -3.19823,-1.194729 z m -56.24148,0.335414 c -1.71384,0.805287 -2.73657,2.036729 -4.25241,2.704019 -1.69066,0.530787 -2.16276,3.923329 -0.83122,3.947793 1.76102,-0.503736 2.87245,-2.032265 5.13289,-2.619987 0.67016,-0.775157 1.92368,-4.225448 -0.0493,-4.031825 z m -14.73175,2.021314 c 0.56028,0.693869 -1.76229,0.517177 -1.07311,1.74211 -0.39306,3.184541 3.51008,4.247852 5.66168,4.611951 1.38259,-2.678251 -2.10242,-2.237453 -3.47348,-3.7668 -0.0435,-1.146233 0.79664,-2.532163 -1.11509,-2.587261 z m 70.52087,7.81383 c -1.85817,1.428829 -3.16014,4.052243 -4.06752,6.048472 0.29431,0.731629 -0.85369,1.618862 -0.44374,2.372811 -0.39922,1.023305 0.67752,2.957235 1.616,1.407601 0.076,-1.291717 1.39835,-1.781484 1.60216,-2.650499 -0.79461,0.680882 0.4131,-0.893873 -0.47774,-0.201674 -1.63353,-2.520279 2.78859,-4.045691 2.25857,-6.710717 -0.0277,0.03131 -0.47813,-0.453734 -0.48773,-0.265994 z M 129.251,74.958626 c -0.77235,0.786535 -0.79141,1.727957 -1.95326,2.013303 -2.28579,2.309209 0.5415,5.452187 3.03946,5.753385 2.32147,-0.572763 -1.06381,-1.564977 -0.75989,-2.072929 -1.33133,-0.433675 -1.67381,-2.342166 -1.34223,-3.476459 0.62795,-0.722477 1.43404,-1.141438 2.48591,-1.296215 0.42662,-1.225377 -0.47835,0.454123 -1.46999,-0.921085 z m 40.58292,5.256296 c -2.04221,0.848064 0.5817,3.659992 2.03872,4.058171 1.53454,0.15182 0.69855,0.870841 2.37483,0.755111 0.5542,0.394326 2.44604,1.635616 3.00684,1.789609 0.40859,-0.339522 2.37291,1.373637 3.1273,0.337596 2.1338,-1.225256 -0.52995,-1.741995 -0.67393,-2.904415 -0.44236,-0.876219 -1.98116,-2.314883 -2.85413,-3.239446 -1.70164,0.01539 -4.64017,-0.445806 -5.79767,-0.638196 -0.3921,-0.138591 -0.81635,-0.127219 -1.22196,-0.15843 z m -23.92916,0.07061 c -2.73042,0.893768 -7.2163,1.55596 -8.3121,4.706723 -0.75629,1.574044 -1.00488,2.439647 -0.19561,3.543966 2.34558,0.18743 3.91317,-2.652664 5.80692,-3.288389 0.96817,-1.166446 3.28041,-1.965735 3.69324,-4.087837 0.48858,-0.04678 -0.47433,-1.241187 -0.99245,-0.874463 z m -17.40624,5.891817 c -1.35687,1.087922 1.45157,2.860007 -0.18419,3.52038 -1.5072,-0.713976 -1.12339,1.629497 -1.34622,2.419095 -0.91905,2.097279 1.15995,3.420571 2.34724,1.685422 1.13928,-0.869514 0.55261,-1.399417 1.67044,-2.410196 -0.50112,-0.580231 0.0459,-1.777718 -0.0477,-2.219011 -0.54555,-1.48809 -0.90875,-2.650012 -2.43955,-2.99569 z m 37.24202,3.610118 c -2.2191,0.68067 0.12912,3.522508 1.32862,4.590022 1.1975,1.645464 2.39687,1.354682 4.52233,2.081168 1.54637,0.595033 4.50591,0.850297 5.64647,0.417408 1.13782,0.989944 1.81658,-2.421251 0.0263,-2.17148 -1.87553,-0.109321 -4.16906,-0.0353 -5.40751,-0.176533 -1.10429,-0.599257 -3.74504,-1.04024 -3.77631,-2.476643 -0.40538,-0.30904 -2.073,-2.252569 -1.89535,-2.002077 -0.14676,0.004 -0.22717,-0.399162 -0.44458,-0.261865 z m -18.72582,2.32804 c -1.57223,-0.02282 -2.13801,1.897425 -3.4163,2.456824 0.65562,0.11732 -1.90143,0.88823 -1.57361,1.318484 -0.81628,0.293979 -1.84898,0.392271 -2.78352,0.783904 -1.30672,-0.903228 -3.13889,0.111581 -3.2644,0.140964 -1.08399,1.574244 1.56078,2.129571 1.58677,2.388521 2.51446,0.119634 5.04272,0.660622 6.526,-1.679694 1.73297,-1.348878 3.41636,-3.210032 2.92506,-5.409003 z m 56.74901,4.274326 c 0.21019,0.204333 -0.57369,0.259359 0,0 z m 0.14343,0.06179 c 2.5849,1.205497 2.23726,2.97422 2.61027,5.622767 0.53225,2.68714 -1.2069,5.53943 -2.55554,7.33602 -0.37995,0.65254 -1.9482,2.6534 -3.67315,2.72328 -1.95061,0.0414 -4.054,0.66897 -5.82269,0.38163 -1.12359,-1.85264 0.45935,-4.20011 0.65843,-5.89889 0.76518,-2.93315 0.33034,-6.779116 3.27118,-8.863341 0.905,-2.255683 4.04607,0.25133 5.5115,-1.301466 z m 2.28832,2.974596 c 0.013,-0.09638 -0.0459,-0.02265 0,0 z m -6.5163,-2.952528 c 0.0202,0.08122 -0.21776,0.11236 0,0 z m -0.38175,0.0088 c 0.0145,0.09715 -0.0971,0.0376 0,0 z m 5.17685,0.01986 0.0287,0.0331 z m -1.73224,0.04413 c 0.2679,0.02631 0.047,0.102362 0,0 z m -0.18757,0.0067 c 0.0537,0.124199 -0.0247,0.0273 0,0 z m -2.60167,0.03973 c 0.0102,0.01896 -0.0329,0.01647 0,0 z m 0.90253,0.04413 c 0.0776,0.03297 -0.002,0.02619 0,0 z m -1.69031,0.0331 c 0.14864,0.09857 -0.32704,0.242248 0,0 z m 0.47664,0.03531 c 0.022,-4.51e-4 5.9e-4,0.0063 0,0 z m -0.91356,0.220666 c 0.0597,0.03139 -0.2134,0.0049 0,0 z m 6.42363,0.275835 c 0.37986,0.184336 0.0102,0.103107 0,0 z m -7.84472,1.050376 c 0.0494,0.01721 -0.015,0.01215 0,0 z m -79.2593,0.05295 c -1.37245,-0.479698 -0.84673,1.335081 -1.80607,0.971244 0.0734,1.316608 -2.16776,0.220989 -1.56956,0.989208 -1.046,-0.0646 -2.15962,-1.289853 -3.43794,-1.280983 -3.40461,-1.003014 -6.95682,1.723413 -9.0208,3.820423 -0.39828,1.48107 -1.00286,3.34242 -1.1285,4.78712 -0.80983,0.0258 -0.011,3.14079 -0.84318,4.02308 -0.741677,2.04848 -1.80681,4.20854 -3.85532,5.00002 -0.615366,1.04491 -2.916906,1.13924 -3.22853,2.34152 -0.960415,-0.89992 -2.094099,1.24584 -2.798115,2.19228 -1.914187,2.08349 -2.328027,5.80444 -1.13176,7.8493 0.550443,0.89934 1.087949,2.25309 1.867078,3.09625 -0.80446,-0.24463 0.885353,1.81514 0.737115,1.70212 0.649227,0.33207 1.102425,2.37565 0.551916,3.36791 -0.200983,2.23863 2.693433,7.25352 0.01776,6.67104 -2.611389,-1.11722 -3.803355,-3.42659 -5.805879,-4.4732 -0.987437,0.10541 -0.365891,-0.39166 -1.28694,-0.97619 -0.241319,-0.8266 -1.590285,-0.71985 -2.081168,-1.64116 -1.260111,-1.01134 -1.740332,-1.36784 -3.232959,-2.54208 -0.490052,-0.62915 -1.973623,-1.08619 -2.308362,-1.004 -1.216875,0.20769 -1.177776,-0.96455 -1.313017,-0.085 -0.460392,-0.28872 -2.755661,0.55021 -2.667768,0.63143 0.533172,-0.1062 -1.45713,0.20868 -0.335284,0.23252 -1.597425,-0.0383 -3.09597,1.50204 -4.770866,1.74788 0.131278,0.81067 -0.797296,0.15937 -0.361315,0.44459 -2.24417,1.3631 -4.609512,2.57651 -6.267466,5.15731 -2.53216,1.85013 -2.451953,5.07132 -3.818295,7.37331 0.404128,0.0806 -0.749851,1.56676 -1.308881,1.78626 -0.05337,-0.6456 -1.039107,1.4418 -1.673462,0.43464 -1.15497,0.64076 -0.901669,-0.44818 -2.254018,0.37848 -0.09434,-0.10055 -0.724773,0.0934 -1.161587,-0.0647 -1.226267,-0.50671 -2.817695,0.44143 -3.458663,0.86455 -1.602628,-0.30117 -1.917616,2.35075 -2.926451,3.43852 0.01426,0.20691 -1.164979,3.23802 -0.352604,2.2599 -0.217481,1.04949 0.136947,2.29542 0.28538,3.01787 0.696237,-0.0236 0.894427,1.88882 1.763633,1.56806 0.381474,0.86789 0.119523,-0.61013 0.614179,0.93098 0.400082,0.35992 1.719492,1.52574 1.613379,1.41949 0.281842,0.68243 1.574569,1.49985 2.394691,1.71203 0.184821,0.38537 1.924347,1.51469 2.259543,1.46589 1.004713,-0.12198 3.434956,1.10116 5.179656,1.08545 3.430803,0.62463 8.18168,1.04629 10.375942,-1.97468 0.569524,-1.23656 2.665142,-2.37022 2.641489,-3.54894 0.948505,-2.23846 1.670027,-7.18252 5.333605,-6.98412 1.464951,0.13093 2.998797,0.6109 4.362617,0.70091 1.031584,0.27245 3.507564,1.37784 4.217199,0.43802 0.545329,0.1079 0.550562,-0.58109 1.198442,-0.76621 0.32913,-0.51406 1.563436,-1.03104 2.010531,-1.6448 1.661107,-1.12356 4.137317,-3.88192 5.805857,-2.55972 0.774501,2.15703 -0.481314,3.69045 1.178139,5.76009 0.390133,0.85317 0.801459,1.7349 1.131963,1.8e-4 -0.245368,-1.96947 0.306992,-3.72624 -0.416676,-5.54801 1.03447,-1.93066 -0.331191,-3.72293 -0.582567,-5.57925 -0.660197,-2.00075 0.729068,-4.83552 -0.955554,-6.46216 -0.39942,-1.39489 0.07562,-1.75895 -0.284657,-3.07049 -0.203132,-1.77717 0.152215,-3.22783 0.382126,-5.05642 0.804232,0.27492 1.789316,-1.85055 3.10947,-1.46512 1.101107,-0.45942 3.393984,-0.82966 3.813454,-2.54448 1.20384,-1.06482 1.86078,-2.58228 2.00186,-4.26854 0.55728,0.28528 -0.2922,-0.9552 0.82313,-1.05605 -1.0086,-0.33957 1.26212,-1.79956 0.5298,-2.57829 0.44597,-0.80602 0.58027,-1.70032 0.93805,-1.93171 -0.22396,-0.60669 0.85814,-0.73346 0.81451,-1.31404 -0.22802,-0.5349 1.25311,0.0825 0.80339,-1.24122 -0.21714,-0.95824 0.87827,-1.42384 1.47375,-1.98771 -0.45665,-0.0896 1.25512,-1.84086 -0.63331,-0.74848 0.89052,0.10699 -1.9215,0.76729 -1.50945,1.09329 -1.39286,1.026 -2.86351,4.06382 -3.59461,6.25718 -1.39725,1.7518 -0.94842,4.40627 -2.88453,6.11108 -0.74129,1.09224 -0.70876,2.16165 -2.297237,1.94945 -1.775756,-0.21461 -3.443839,1.66596 -4.909914,2.27762 -1.829155,-0.67443 0.256952,-2.21215 -1.604001,-3.41274 -1.005127,-3.13746 0.871379,-6.49585 3.485112,-7.92243 0.176909,-1.34128 2.937973,-2.17874 3.214923,-2.43081 2.095457,-1.49988 2.758547,-5.19477 3.513267,-7.39703 -0.0332,-1.18206 0.64589,-3.18428 0.37956,-4.34355 0.61453,-3.24342 3.53253,-4.75997 6.48783,-5.06049 0.4245,-0.49528 2.68566,0.3321 2.478,0.41713 2.28562,0.66384 2.01477,3.08011 4.78913,3.16313 1.7015,1.5731 3.58214,2.72895 5.82619,2.92609 2.87805,0.75467 6.58094,-0.88827 7.87887,2.33973 0.68631,0.0879 0.014,0.76817 0.37443,0.69136 0.28699,1.24121 0.93055,2.54784 0.10665,3.71258 0.95552,-0.24943 0.18631,1.51078 0.48993,2.15708 -0.51065,-0.0184 0.80416,2.75756 0.0411,1.81415 0.53621,1.61461 -1.47795,2.71526 -2.47188,2.88712 -1.74575,1.89136 -4.58719,1.56938 -6.61464,0.43516 -1.07618,0.12851 -0.16576,-0.80493 -1.0399,-0.33628 -2.01967,-1.03935 -3.84589,-1.77665 -6.49212,-1.63268 -0.70414,0.31986 -1.77651,1.72441 -1.56883,1.82502 -1.23031,1.72031 -2.24765,5.19283 -1.69517,7.41777 -0.58722,2.29796 -2.15938,4.55165 -4.72485,5.1498 -0.22302,-0.33744 -1.33569,1.19019 -1.91338,0.50502 0.22492,0.41748 -1.16042,1.08969 -0.63356,0.52841 -2.79265,0.6899 1.28111,1.52816 2.18474,0.66599 1.76155,0.14127 2.95232,-1.76748 4.28753,-2.51309 0.69994,-0.50153 0.97123,-1.6625 1.42784,-1.64002 0.39944,-1.60178 0.91295,-2.98198 1.02066,-4.78262 1.39529,-0.12878 0.34163,-2.33348 1.90691,-2.99405 1.23323,-2.619 4.57106,-0.24479 6.22146,-0.42574 1.5115,-0.23357 2.03679,1.23752 3.46621,0.69077 1.56898,0.52766 0.64704,-0.49351 2.43222,0.0168 1.55308,-0.57566 1.95443,-1.26633 3.41193,-1.57287 0.55459,-0.2991 1.12653,-1.65782 1.84598,-1.76181 0.31169,-1.22243 0.83743,-1.58457 0.68105,-2.67998 -0.87219,-0.0856 -0.0453,-2.9919 -0.10643,-3.89105 0.40079,-1.40626 -0.37621,-0.40009 -0.20245,-1.69346 0.037,-2.44085 -1.40817,-4.68885 -2.53605,-6.56762 0.75327,-0.95419 -1.69515,-2.40686 -1.03442,-2.92226 -2.22095,-0.2554 -1.09916,0.82375 -1.32325,2.22958 -0.13426,2.08191 -3.09081,0.30508 -4.27975,0.83323 -2.34741,-0.28198 -5.09751,-1.14383 -5.70885,-3.2829 0.93232,-1.44402 3.37815,-2.10433 3.75879,0.1419 2.09339,1.81129 6.71099,0.025 6.63823,-2.773915 -1.64571,-1.645723 -3.23275,-0.643338 -4.1284,0.602435 -1.84898,0.13413 -2.16518,-2.306892 -4.21504,-1.989313 -0.66156,0.960453 -1.27978,-0.167358 -2.01201,-0.07426 z m 87.9271,0.0044 c 0.0224,0.09719 -0.0243,0.01715 0,0 z m 0.0199,0.247147 c 0.15285,0.081 -0.0198,0.04806 0,0 z m -8.92599,0.463401 c 0.3285,-0.101096 0.0532,0.108157 0,0 z m 9.27244,0.05075 c 0.4134,0.201581 0.0123,0.131081 0,0 z m -9.31657,0.262595 c -0.16836,0.04159 -0.16836,0.04159 0,0 z m 9.53061,0.487674 c 0.20282,0.02105 -0.0968,0.02732 0,0 z m -5.74397,0.511945 c -1.70491,0.73095 -0.66962,4.39614 -1.91758,4.84008 -1.55322,0.55718 -2.30191,3.6735 -0.0905,3.24654 1.12421,-2.20111 4.3631,-3.11844 3.50001,-6.25198 -0.0727,-0.93763 -0.44029,-1.81721 -1.4919,-1.83464 z m 5.60716,0.10813 c 0.001,0.067 -0.0365,0.006 0,0 z m 0.0595,0.0993 c 0.70757,-0.0352 0.11505,0.18743 0,0 z m -6.13676,0.11474 c 0.0245,-0.004 -0.0262,0.0319 0,0 z m 1.61529,0.5936 c 0.0374,-0.001 0.0686,0.0895 0,0 z m 0.18536,0.24053 c 0.0819,0.0374 -0.0136,0.27876 0,0 z m 4.56781,0.33541 -0.11474,0.10812 z m -11.05102,0.94445 c -0.0651,0.14392 -0.48987,0.19109 0,0 z m 11.0444,0.53402 c 0.51162,-0.0643 0.1143,0.13746 0,0 z m -6.93777,0.63993 c -0.0162,0.0309 -0.017,0.003 0,0 z m -0.0773,0.27584 c 0.46682,0.55138 -0.0699,0.23285 0,0 z m -0.93122,1.17174 c 0.0376,-0.009 1.9e-4,0.0246 0,0 z m 1.87346,0.21405 c 0.0675,0.0868 -0.0459,0.0113 0,0 z m -2.63476,0.45016 c 0.0113,0.0494 -0.0212,0.0185 0,0 z m -0.21405,1.17174 c 0.13586,-0.0373 0.0354,0.12822 0,0 z m 1.11216,0.51195 c 0.0138,0.008 -0.001,0.0236 0,0 z m -1.57997,0.0574 c 0.26473,0.22221 -0.0702,0.11534 0,0 z m 0.85839,0.35749 c 0.0321,0.0419 -0.005,0.0217 0,0 z m 6.76346,0.11254 c 0.0258,0.0954 -0.002,0.0222 0,0 z m 0.15447,0.25597 c 0.11787,0.0617 -0.007,0.0263 0,0 z m -0.45017,0.0441 c -0.0262,0.0465 -0.0236,0.007 0,0 z m -10.50376,0.24935 c 0.13794,0.006 0.0245,0.049 0,0 z m 9.81307,0.60684 c 0.0315,0.0318 -0.0339,0.0565 0,0 z m -88.81638,0.77233 c -0.60993,0.45072 -1.73071,0.5532 -2.12199,0.63747 0.4372,0.43902 -0.84387,0.41375 -1.19586,1.00247 -0.92128,1.09245 1.61257,-0.1916 1.25825,0.48834 0.59218,-0.69412 2.45681,-1.12851 2.0596,-2.12828 z m 45.81273,0.97535 c -1.88437,0.0249 -3.41218,2.00265 -5.36333,0.83344 -1.07799,0.39694 -3.77805,-1.3385 -3.43009,0.49378 1.37795,2.00606 4.18196,3.20021 6.53265,1.61308 0.94556,-0.85711 3.72382,-1.32135 2.26077,-2.9403 z m 39.75102,0.89812 c 0.71809,0.14627 -0.18149,0.0215 0,0 z m -2.08531,0.2339 c -0.4889,0.42984 -0.10971,-0.0847 0,0 z m -0.67745,0.0551 c -0.0102,0.28273 0.35679,-0.2772 1.6e-4,2e-5 z m -0.50312,0.0618 c 0.35272,-0.0471 -0.11197,0.13438 0,0 z m 1.1894,0.0507 c 0.43604,0.27414 -0.29724,0.39199 0,0 z m -2.12502,0.18535 c 0.44569,0.20659 -0.21787,0.0174 0,0 z m 0.68627,0.25377 c 0.009,0.007 -0.0139,0.0234 0,0 z m -20.23078,4.10883 c -1.58459,0.68536 -3.4647,4.87468 -0.49727,4.0072 1.42825,-0.87021 2.84807,-3.18803 0.49727,-4.0072 z m -8.07643,4.0669 c -1.30509,0.15023 -2.39069,0.98223 -3.16004,1.04834 -0.12066,0.45476 -2.25927,0.58612 -2.58946,1.00156 -1.7387,1.62586 -4.99655,1.75975 -7.45225,1.38624 -1.94517,-0.87078 -2.54779,-0.381 -4.04951,-1.20465 -1.76395,-0.79292 -3.99252,-1.71207 -5.82457,-0.75578 -0.66495,0.97636 -0.55437,0.70499 1.01025,1.39234 1.29911,0.0814 3.14157,1.11477 3.77905,1.11778 0.98819,0.22206 2.02739,1.02923 3.47242,0.81554 1.65652,0.26348 3.00301,1.88327 4.83105,1.53348 2.083,-0.82166 4.87169,-1.56747 6.54915,-2.84022 1.17554,0.0226 5.12484,-1.48628 3.99607,-3.39646 -0.005,-0.27765 -0.58721,0.10112 -0.56216,-0.0982 z m -31.51129,0.83854 c -0.76661,1.1502 -0.003,0.94858 0.25007,2.20281 0.43569,-0.13741 0.91063,1.97715 1.79718,0.67549 0.31051,0.83874 0.24272,-2.73897 -0.81117,-2.50907 -1.24925,-0.62191 -0.78299,-0.12021 -1.23608,-0.36923 z m -59.930977,12.88041 c 2.054589,0.48966 3.129972,1.62171 4.777599,2.43915 1.183366,1.08635 2.952712,3.30947 4.484198,4.061 0.821977,0.41673 3.471289,2.97097 0.425827,2.07429 -1.462384,0.72892 -0.434837,-0.55663 -1.595662,-7.9e-4 -2.328072,-0.12726 -5.080251,-0.88706 -6.942554,-0.43401 -0.813542,0.0149 -2.916713,0.65525 -3.35864,1.169 -0.856356,-0.7602 -1.809266,2.24868 -1.93976,1.01038 -0.15529,1.33176 -0.873353,-0.15743 -1.101413,1.32027 -2.445274,2.50359 -5.281033,5.68127 -7.7574,8.80938 -1.698649,1.1965 0.586879,4.30519 1.304475,2.02143 -0.155908,-1.10082 0.928993,-0.86199 0.843916,-1.49857 0.774356,-0.19931 1.224303,-1.72248 1.721717,-1.64943 0.28659,-0.59822 1.350817,-1.48501 1.249656,-1.83745 1.08427,-1.33616 3.084981,-2.37263 2.546844,-4.32666 0.673066,-0.0131 1.589848,-0.76403 1.131941,-0.72845 0.457972,-0.22272 1.427432,-1.08667 1.169778,-0.44019 1.485855,-0.93025 -0.07438,0.83102 -0.576195,0.93136 -0.612543,0.79305 1.603084,1.44331 1.461113,0.48348 1.402515,-0.49291 3.410803,-2.21956 4.678435,-2.19644 0.173031,-0.46621 1.652178,0.15954 1.123309,-0.50425 3.218189,-0.35701 6.234485,0.91354 9.493454,-0.15132 1.625358,-0.3442 1.406162,2.13109 3.398545,1.07838 1.125505,0.0272 0.924643,2.46154 0.127895,2.39195 -1.350236,0.65853 -2.194309,2.22708 -3.676209,2.7475 0.379327,0.42415 -1.978538,2.1595 -2.553351,2.9695 -0.973445,0.70375 -2.63027,2.53644 -3.564007,2.01011 -0.600277,-0.14416 -2.148258,-1.23673 -3.146957,-1.12874 -2.695513,-1.43879 -7.16299,-0.52414 -8.7325,2.58968 -1.592109,1.86911 -0.766781,4.76261 -2.667961,6.49676 -0.482324,0.69982 -1.417966,0.78324 -1.478523,1.77734 -0.920419,0.41302 -1.629816,1.05999 -3.036473,1.27159 -2.214052,0.16255 -3.700472,-0.61824 -6.111393,-0.4306 -2.198058,-0.63014 -3.641664,-0.68191 -5.848462,-1.46822 -1.381305,-0.73931 -2.737077,-2.34901 -3.548946,-3.40577 -0.584801,-0.82298 -2.743648,-2.66869 -2.203866,-4.30724 0.159476,-4.33758 5.030953,-5.08907 8.438454,-5.22487 3.817691,-0.61222 4.397849,-4.65257 6.196186,-7.35607 -0.258513,-1.00804 1.087709,-1.84701 1.125557,-2.19923 0.947949,-1.30987 2.007045,-4.64011 4.625334,-3.52001 0.775986,-1.39408 2.050395,-0.46567 2.714644,-2.25932 0.461611,-0.10519 1.429437,-1.34235 1.015209,-0.89351 1.688088,-1.27921 3.713347,-1.48624 5.786186,-1.69141 z m 97.444467,0.69731 c 0.226,0.24662 -0.005,0.099 0,0 z m -0.41485,0.10146 c -0.001,0.11964 -0.38258,0.28444 0,0 z m 0.48547,0.13902 c 1.14042,1.75187 0.12641,4.69124 0.25021,6.83407 -0.2382,4.01972 2.21682,7.71937 5.02986,10.14918 1.12091,1.31646 1.64961,3.10953 3.79876,3.22935 1.52574,0.36601 5.05306,0.79177 3.08737,2.95579 -0.66786,2.1614 -3.21924,3.28796 -3.13034,5.47843 -0.60027,1.24769 -0.96792,1.26898 -1.73497,2.39033 -1.59394,1.25051 -2.50341,2.98968 -4.73015,3.40774 -2.16128,1.3893 -5.60156,2.22202 -7.65887,2.2551 -1.95842,0.96263 -5.50134,-0.79501 -7.85639,0.78345 -1.28437,-0.36594 -3.47434,0.57467 -3.73207,0.54139 -2.02594,-0.4768 -5.3399,0.11303 -6.76404,0.15415 -2.42464,-0.27583 -4.80652,-0.88489 -6.60422,-2.48565 -2.59616,-1.34935 -4.51821,-2.24238 -6.67164,-3.96124 0.10948,-0.36368 -1.69365,-1.25175 -1.02528,-1.32242 -0.72271,-1.01305 -0.95015,-2.55595 -1.35802,-2.76368 -1.66863,-1.4746 -0.17136,-2.59876 1.56728,-2.76503 0.90295,-0.86486 2.67877,-0.6659 3.45608,-2.31712 2.18262,-1.11069 4.22143,-2.48827 5.92342,-4.07398 1.00666,-1.90076 1.78031,-3.64156 1.49412,-5.91683 0.21815,-2.00817 1.4441,-4.69509 0.11299,-6.74206 -0.058,-1.65205 -1.64092,-4.33131 1.1989,-3.00739 1.64197,1.23244 4.25116,1.91304 5.72498,2.0626 1.98463,1.24085 4.10454,-1.00402 6.26132,-0.36404 3.10956,-0.51131 5.48168,-1.60617 8.78021,-2.42199 0.4746,-0.9236 2.65166,-0.89793 3.34859,-1.87164 0.45172,-0.0682 0.75736,-0.24419 1.23194,-0.22851 z m -2.19343,0.89149 c -0.0981,-0.018 -0.038,0.044 0,0 z m -25.53342,16.70232 c -0.0776,0.0743 0.0193,0.0102 0,0 z m -10.00285,13.07895 c -0.0297,0.0845 0.0119,0.009 0,0 z m 33.27442,5.98671 c 0.002,0.008 0.0204,-0.007 0,0 z m 9.72702,-19.69456 c -0.0114,-0.0299 0.002,0.018 0,0 z m -4.9275,-16.77734 c 0.007,-0.001 -10e-4,0.007 0,0 z m 0.47002,0.38838 c 0.0934,0.009 0.0102,0.0276 0,0 z m -0.20743,0.59138 c 0.0915,0.0633 0.008,0.0186 0,0 z m -4.61856,0.11696 c 0.0247,0.0926 0.0125,0.0671 0,0 z m -0.14343,0.0683 c 0.0127,0.0934 -0.12409,0.0908 0,0 z m -21.53493,0.7944 c 0.0771,0.20906 -0.0651,0.0432 0,0 z m -0.9599,0.0419 c 0.0179,0.41415 -0.23048,0.22823 0,0 z m -0.77455,0.0331 c 0.0543,0.27625 -0.0846,0.0442 0,0 z m 27.94752,0.1346 c 0.18764,0.28083 -0.0519,0.0543 0,0 z m -25.73422,0.0375 c 0.0298,0.001 -0.07,0.10406 0,0 z m 17.25619,0.31335 c 0.13939,0.0102 0.0229,0.032 0,0 z m -16.55006,0.0595 -0.19419,0.10586 z m -0.0949,0.12798 c 0.0418,0.66884 -0.12577,0.14161 0,0 z m 16.26098,0.14343 c -0.006,0.0407 -0.0439,0.0964 0,0 z m -0.3994,0.0331 c 0.0182,0.0969 0.0102,0.0939 0,0 z m -0.15007,0.0155 c 0.0378,0.14743 -0.35932,0.26911 0,0 z m -1.13642,0.18535 c 0.0815,0.12998 -0.32614,0.34169 0,0 z m -17.36211,0.15889 c 0.002,0.0194 -0.0426,0.0102 0,0 z m 3.46668,0.022 c 0.008,-0.001 0.003,0.0123 0,0 z m 0.022,0.022 0.0243,0.0243 z m 12.71927,0.26259 c 0.10936,0.19008 -0.50714,0.43792 0,0 z m 12.0065,0.0331 c 0.0348,0.0957 -0.34948,0.009 0,0 z m -23.38853,0.20742 c 0.53814,0.3597 -0.0981,0.20219 0,0 z m 23.40177,0.009 c -0.3194,0.24092 -0.31694,0.17017 0,0 z m -14.88842,0.0551 c 0.006,0.0154 -0.007,0.001 0,0 z m -1.55791,0.0927 c 0.37972,0.66562 -0.10236,0.16797 0,0 z m 2.67669,0.0463 c 0.003,0.0148 -0.0255,0.0182 0,0 z m -9.38056,0.0375 c 0.0774,-0.0143 0.0158,0.0147 0,0 z m 7.46076,0.0463 c 0.0589,-0.0274 0.0645,0.19894 0,0 z m 0.44796,0.1964 c 0.015,-5.6e-4 -0.009,0.008 0,0 z m -3.06949,0.57373 c 0.002,0.0229 -0.0485,0.0655 0,0 z m -0.0551,0.0861 c -0.0145,0.0394 -0.13201,0.10158 0,0 z m -1.24015,0.0442 c 0.0153,-0.002 0.002,0.007 0,0 z m 0.28466,0.0155 c -0.008,0.0275 -0.0619,0.006 0,0 z m -8.05215,0.81426 c 0.15177,-0.0243 0.24642,0.39218 0,0 z m 0.1986,0.32658 c 0.13709,0.1299 -0.45808,0.62113 0,0 z m -27.13104,1.00625 c 1.05223,0.17606 0.95862,0.54409 0.67641,1.57675 -0.11073,0.79614 -1.17992,1.86845 -1.12293,2.89806 -0.34121,2.36713 -1.36856,5.81514 -2.89919,8.23103 -1.44266,1.06429 -3.78077,1.42769 -5.29915,2.10068 -1.43047,1.7568 -3.89428,2.81503 -5.09774,4.91928 -2.03625,0.27069 -0.0544,-2.85853 0.85001,-3.32016 3.2034,-1.45776 5.58763,-3.82502 7.78538,-6.42204 -0.0993,-0.79089 1.76494,-1.77771 1.64598,-2.96449 0.0499,-1.7887 2.69018,-4.05178 2.77924,-6.11675 -0.40806,-0.11861 0.63972,-0.69724 0.68199,-0.90236 z m 53.81634,1.61969 c 0.26858,0.13627 -0.0113,0.0517 0,0 z m 0.35086,0.41928 c -0.009,0.0639 -0.0238,0.0207 0,0 z m 0.075,0.45457 c 0.56166,0.21051 -0.006,0.18945 0,0 z m 0.12137,0.34424 c 0.0102,0.10191 -0.0321,0.0328 0,0 z m -27.5459,0.022 c 0.3887,0.11253 -0.13349,0.007 0,0 z m 0.007,1.38799 c 0.11447,0.0115 -0.0815,0.006 0,0 z m -0.25156,0.32659 c 0.0803,-0.0131 0.001,0.0289 0,0 z m 0.0331,0.38396 c 0.50972,-0.0769 -0.0948,0.10078 0,0 z m 0.18536,0.2979 c -0.0312,0.2076 -0.65998,0.16427 0,0 z m -0.37734,0.43912 c 0.10767,-0.0858 0.32605,0.27743 0,0 z m 29.18105,0.17434 c 0.26963,0.0619 0.0259,0.0737 0,0 z m 0.72158,0.98417 c 0.32288,0.16864 -0.0341,0.12669 0,0 z m 0.14343,0.23391 c 0.66362,0.35318 0.14164,0.11197 0,0 z m 0.13461,0.1986 c 0.0392,0.0479 -0.0121,0.027 0,0 z m -30.16301,0.24715 c 0.0319,-0.0139 0.003,0.0217 0,0 z m -0.34645,0.9599 c 0.30443,0.18734 0.006,0.52047 0,0 z m 31.63487,0.0861 c 0.0963,-0.0102 0.0133,0.0102 0,0 z m -31.23325,0.005 c 0.024,0.0578 -0.13382,0.10812 0,0 z m -0.11253,0.10812 c 0.0145,0.003 -0.0534,0.0136 0,0 z m -0.1302,0.29128 c -0.1035,0.21702 -0.0605,0.1141 0,0 z m 33.01183,0.85178 c 0.13791,0.20132 -0.024,0.0657 0,0 z m -34.96915,2.03455 c 0.023,0.003 -0.0177,0.005 0,0 z m -0.0551,0.0113 c 0.0196,-0.006 0.003,0.008 0,0 z m 36.63299,0.0352 c -0.0102,0.13094 -0.0194,0.0325 0,0 z m -0.0551,0.22067 c 0.061,0.0412 -0.0102,0.0227 0,0 z m -38.76021,1.44758 c -0.41843,0.0321 -0.37483,0.0298 0,0 z m 44.09816,0.15446 c 0.0246,0.0802 -0.0238,0.0202 0,0 z m -44.87491,0.23612 c 0.1792,-0.0298 0.0357,0.0435 0,0 z m 0.18315,0.097 c -0.002,0.0303 -0.0796,0.075 0,0 z m -0.0639,0.0595 c -0.29352,0.10654 -0.57672,-0.0424 0,0 z m 45.01393,0.0155 c 0.12666,0.002 0.0114,0.0397 0,0 z m -0.0773,0.0949 c 0.74614,0.26545 -0.12094,0.24107 0,0 z m -46.69762,0.63553 c -0.0285,0.0437 -0.16214,0.0224 0,0 z m -0.37514,0.28024 c 0.11456,-0.0238 0.0262,0.0346 0,0 z m -3.27691,2.12062 0.0176,0.002 z m -19.63939,0.12578 c 2.76276,-0.71675 6.67248,1.75642 4.09148,4.55036 0.055,0.4192 -1.78631,3.14311 -1.83422,2.60619 -0.62599,0.90532 -0.45559,1.82653 -1.70711,2.36044 -0.94943,2.42206 -3.94716,3.2808 -4.91896,0.91167 -0.68947,-1.18086 -0.84666,-2.7842 -2.29711,-2.69486 0.4561,-0.52646 -2.18898,-1.56523 -0.21187,-1.64656 1.33466,-1.05009 3.02045,-0.96732 4.1077,0.26897 1.22329,0.70635 2.56964,-1.98001 0.61781,-1.69157 -1.21651,-0.79208 -2.58761,-1.24634 -4.2992,-0.96409 -0.94812,-0.60555 1.7964,-0.40355 1.1369,-0.88633 1.73635,-1.20393 3.42867,-2.12615 5.14958,-2.65191 -0.65582,0.0396 0.0994,-0.15814 0.165,-0.16231 z m 18.66404,0.12136 c 0.0645,0.0392 -0.032,0.23721 0,0 z m 49.76269,0.0176 c 0.32519,0.0219 -0.1394,0.0286 0,0 z m -50.70935,0.10586 c 0.007,-0.003 0.006,0.0194 0,0 z m 1.09451,0.0662 c 0.0807,-0.027 0.0305,0.0298 0,0 z m -1.91098,0.78115 c 0.13998,-0.0155 0.0359,0.0218 0,0 z m -37.253053,0.91578 c -1.557421,0.2184 -0.136116,2.86868 0.141453,3.50021 0.120964,0.21153 0.949482,-0.91002 0.163191,-1.1633 0.170106,-0.7106 0.573389,0.0828 0.02229,-1.31802 -0.328403,0.47467 0.0291,-1.05587 -0.326935,-1.01889 z m 86.978223,0.3332 c 0.003,0.0485 -0.079,0.0297 0,0 z m 34.48148,0.60242 c -1.32064,0.53553 0.56117,1.5557 0.87177,2.74147 2.60059,3.35985 4.85904,7.26854 6.91138,10.81306 1.67986,0.84042 3.05933,3.43401 4.07569,4.25233 0.6879,1.56353 2.09901,3.69979 2.62537,5.31869 0.67481,1.0945 1.56423,2.89126 1.91194,3.86213 0.8067,1.1592 0.82822,2.43947 2.05696,3.38817 2.16513,1.95648 3.50351,5.35196 6.17126,6.24074 2.58009,2.03272 1.65658,-1.80471 -0.35294,-2.63042 -0.0499,-0.38904 -0.53346,-1.67482 -1.32265,-1.69583 0.0184,-0.90063 -1.75433,-1.08252 -2.15082,-2.10583 -2.12769,-1.21656 -3.91941,-4.69046 -4.33239,-6.75713 -1.30588,-1.84788 -2.28481,-4.55718 -4.10045,-6.04464 -0.55639,-0.9571 -2.0498,-3.08195 -2.34848,-4.35056 -1.3875,-1.21687 -1.7952,-3.54966 -3.1035,-4.7524 -0.66495,-2.04026 -2.54716,-3.39143 -3.97445,-4.6846 0.0597,0.32416 -1.15028,-1.74791 -1.62651,-2.05011 -0.33014,-0.56891 -0.95208,-1.07473 -1.31218,-1.54507 z m -83.03932,0.18095 c 0.009,-7.3e-4 -0.008,0.0342 0,0 z m 48.2776,0.0507 c 0.007,-0.001 -0.001,0.007 0,0 z m -47.91791,0.80544 0.15887,0.0486 z m 47.35962,0.94446 c 0.007,-0.001 -0.001,0.007 0,0 z m -0.48105,0.55828 c 0.0716,0.0182 -0.13155,-0.005 0,0 z m -46.05107,0.053 c 0.12623,0.0225 -0.0113,0.39938 0,0 z m 45.8635,0.17654 c 0.35955,-4.6e-4 -0.39494,0.0978 0,0 z m -45.72669,0.28465 c 0.0199,0.007 -0.0123,0.0337 0,0 z m -38.908059,0.66421 c -1.468994,1.31871 -0.942486,3.36292 -0.606598,4.98923 -0.269817,2.69613 1.47744,5.00602 1.28418,7.62922 -1.565563,0.87617 -4.010161,1.53239 -5.556661,1.95986 -1.638356,0.0285 -3.022626,2.34152 -3.67866,1.95046 -0.464091,0.96739 -2.441318,0.47941 -1.52279,2.1276 3.693449,-1.16042 6.98883,-4.1245 11.139601,-3.19309 0.43465,-0.26988 1.295437,1.02151 0.54044,0.47273 -0.0389,1.25483 -2.123559,0.90443 -2.162736,1.80525 -1.121444,0.74236 -0.696169,3.21138 -2.27744,3.19004 0.12172,2.2635 -1.589048,4.80661 -0.103491,7.02901 1.623254,-2.29165 -0.413932,-5.8755 2.25708,-7.20498 0.941541,-0.83015 1.320467,-0.0394 1.489747,-1.64022 1.273067,-1.35158 1.962547,0.0139 2.206947,0.95832 0.34084,0.15193 -0.06,1.7119 0.63547,1.64988 0.30213,2.00794 1.64358,3.77337 2.42073,5.7517 0.74549,2.27267 1.97535,3.68984 3.22668,5.42452 2.04001,0.38747 -0.60289,-1.3231 -0.0969,-1.61339 0.76694,0.47504 -0.48174,-0.61118 -0.267,-0.66567 -0.40237,-0.71715 -0.43028,-2.67931 -1.24925,-2.84375 0.18291,-1.12043 -1.03682,-0.77807 -0.25393,-1.38331 -1.55777,-2.30879 -3.09336,-5.97018 -3.82194,-8.75884 -0.31543,-1.00544 -0.84361,-1.96144 -1.36584,-2.57786 1.51545,-1.63869 -1.333757,-3.11828 -0.655007,-4.82954 -0.31056,-2.38763 -0.25225,-5.4003 -0.45224,-7.34977 -0.0662,-1.05922 -1.351698,-2.15727 -1.130352,-2.8774 z m 83.357079,0.10586 c -0.14001,0.71047 -0.28032,-0.0228 0,0 z m -43.50676,0.23171 c 0.0752,0.026 -0.0218,0.2948 0,0 z m -33.41124,0.58917 c 1.28384,1.03552 -1.3802,1.98073 -0.46136,0.19655 l 0.4612,-0.1964 z m 34.35348,0.0794 c 0.12428,0.0372 0.0206,0.55151 0,0 z m 41.70392,0.56271 c 0.20489,-0.0827 0.0566,0.16043 0,0 z m -0.35307,0.25376 c -0.007,0.0354 -0.006,0.006 0,0 z m -0.993,0.54285 -0.005,0.075 z m -37.92168,0.33762 c 0.26341,0.0373 -0.1079,0.0281 0,0 z m 0.0861,0.0243 0.0132,0.002 z m 0.13019,0.0264 c 0.24407,-0.0635 0.3416,0.64709 0,0 z m 36.55795,0.0155 c -0.12422,0.44241 -0.13204,0.048 0,0 z m -36.87571,0.0639 c 0.007,-0.001 -0.001,0.007 0,0 z m 36.00408,0.44134 c 0.001,0.0261 -0.008,0.003 0,0 z m 0.17212,0.24053 c 0.0186,0.0664 -0.0219,0.0134 0,0 z m -0.76793,0.19418 c 0.0188,0.0468 -0.0436,0.0785 0,0 z m -1.42551,0.33101 c -0.0102,0.0157 -0.0278,0.005 0,0 z m -0.73923,0.35306 c -0.0664,0.0167 0.003,0.0248 0,0 z m -0.662,0.33983 c 0.181,0.009 -0.14935,0.003 0,0 z m -3.01212,0.4325 c 0.0141,-0.002 0.001,0.0113 0,0 z m 1.80286,0.064 c 0.0358,0.22639 -0.16735,0.0571 0,0 z m -26.63455,0.0662 c 0.69386,0.0577 -0.0154,0.3121 0,0 z m 23.52976,0.14123 c 0.28632,0.0695 -0.50685,0.17305 0,0 z m 1.03052,0.0486 c 0.003,0.1134 -0.022,0.0197 0,0 z m 0.82529,0.0685 c 0.0471,0.0538 -0.0718,0.0478 0,0 z m -1.31517,0.22286 c 0.0234,0.009 -0.0398,0.11804 0,0 z m -0.0132,0.0706 c 0.006,0.0158 -0.0341,0.0436 0,0 z m -23.65995,0.005 c 0.0496,0.0896 -0.0775,0.25878 0,0 z m 21.58788,0.022 c 0.0178,-0.005 -0.003,0.0124 0,0 z m -6.82965,0.15667 c -0.24209,0.69094 -0.2166,0.058 0,0 z m 1.27104,0.0662 c 0.0214,0.003 0.0554,0.0491 0,0 z m -14.39634,0.0729 c 0.0976,0.0114 -0.0719,0.0246 0,0 z m 9.23935,0.38175 c 0.66288,0.30449 -0.37953,0.0118 0,0 z m 2.03675,0.0706 c 0.0356,-0.006 0.082,0.12168 0,0 z m -1.4564,0.0287 c 0.005,-0.003 0.002,0.008 0,0 z m -8.40301,0.005 c -0.0592,-0.20286 0.16648,0.47471 0,0 z m 8.862,0.0113 c 0.006,-0.007 0.0183,0.0117 0,0 z m -5.55641,0.0352 c -0.003,0.32336 -0.25959,0.26554 0,0 z m 2.6083,0.13461 c 0.0417,0.0586 0.0113,0.19279 0,0 z m 2.60387,0.0176 c -0.11979,0.3148 -0.10372,0.0102 0,0 z m -26.82873,4.93633 c 0.7091,-0.14425 2.32005,0.96068 2.41967,0.21352 0.60111,0.8949 2.15988,0.96125 2.81883,1.10852 0.63266,0.0734 1.47723,0.51015 1.43435,0.75895 1.98224,1.0144 3.34021,2.43927 4.76904,4.03236 1.23378,0.19497 3.76518,-0.42873 4.32322,-0.48592 1.92008,0.11503 4.01921,-0.22208 4.60944,1.82458 0.0437,2.46981 1.4996,5.48276 -0.41092,7.85523 0.20461,1.96044 -2.25677,1.57249 -3.44861,2.73054 -1.68074,1.786 -3.81122,-0.12657 -5.52115,-0.11711 -2.72525,-1.5855 -5.86975,0.16829 -8.79536,-0.63725 -0.24097,-0.72072 -1.60739,-1.08044 -1.96695,-2.19867 -0.59126,-0.14757 0.3818,-0.76363 -0.47107,-0.75606 -0.58542,-2.16098 -1.83864,-5.57227 -2.89787,-6.88685 0.15111,0.45613 -1.01189,-0.96748 -0.73682,-1.04377 1.16607,-0.70291 3.8563,-0.88461 5.06534,-0.11822 -0.78609,0.40145 1.00541,0.008 0.8743,0.3525 1.29493,0.36753 2.34285,0.39658 3.34009,1.11431 1.98183,-0.3713 3.90526,1.00256 5.65439,1.20629 1.3418,0.29935 0.79732,-1.17632 0.2113,-0.88759 -0.27526,-0.71956 -0.81832,0.51263 -1.06223,-0.82587 -1.92161,-0.35241 -2.97858,-1.14642 -4.68333,-1.33036 -1.73604,-0.53386 -4.20308,-0.31467 -6.04466,-1.43395 -1.80516,-0.44864 -2.03186,-0.4203 -3.72464,-0.38184 -0.52725,-0.0149 -0.48308,0.18594 0.10541,-0.72616 1.14057,-1.4958 3.03696,-2.13822 4.13826,-3.36718 z m -56.830659,18.62873 c -0.943909,2.33767 0.782511,5.04807 -0.03083,7.40228 1.090809,0.69291 -0.893883,0.74885 0.33768,1.12551 1.070919,-2.2599 1.552991,-6.02047 -0.306847,-8.52779 z m 167.552689,2.74511 c -1.19341,0.72727 -3.00342,1.97046 -4.72734,2.41304 -0.71177,0.85478 -1.44219,1.96476 -2.57159,2.48103 -1.35767,1.05557 -3.23183,2.0045 -3.7304,3.38789 3.35407,0.81335 6.34181,-2.44892 8.62246,-4.25583 0.47561,-0.94506 5.01239,-2.43016 2.40687,-4.02613 z m -133.21024,0.46339 c -0.27827,0.55804 1.38076,0.64219 0,0 z m 10.47728,5.87197 c 1.47849,-0.29821 1.27969,1.30717 0.10587,1.18216 0.30142,-0.41195 -0.81018,-0.27774 -0.10587,-1.18216 z m -44.923446,0.0308 c -0.79575,0.0957 0.397363,0.76073 0,0 z m 164.834066,0.0442 c -1.27949,0.0897 -0.61513,2.57999 -0.27241,2.1804 0.3614,3.41486 2.42966,7.28642 3.40322,10.71393 0.78731,1.62377 0.65624,3.11013 2.5277,3.84742 0.47728,0.001 1.6168,3.18771 1.87866,2.34942 1.17571,2.20221 -0.65422,-4.39791 -0.84264,-3.50008 -1.89782,-3.95102 -3.7932,-8.2711 -5.02417,-12.58761 0.60675,0.60637 -1.23891,-3.03495 -1.01695,-2.67687 -0.10372,-0.17696 -0.4238,-0.4372 -0.65341,-0.32661 z m -165.187134,0.61126 c -0.635545,1.43949 0.234368,-0.11583 0,0 z m -0.494295,0.17874 c -0.350474,1.24464 0.982913,1.1229 0,0 z m 156.084609,1.74107 c -0.94327,0.0695 -2.51914,1.20248 -2.73965,1.21762 -1.71522,0.66786 -2.74733,1.53791 -4.09593,1.78803 -2.71179,1.40118 -4.99065,3.57005 -7.49741,5.22287 -1.37092,0.47434 -2.99208,2.00021 -4.42515,2.9098 0.14474,1.0151 -1.46526,0.70308 -1.26489,0.6091 -2.06792,-0.56711 -2.4592,-4.76399 -4.54693,-5.72432 -0.56918,1.09343 0.14649,3.64339 0.90469,4.70522 0.26839,1.21087 1.8385,2.31857 1.77864,3.27992 1.30453,-0.13014 -0.43572,1.58462 -1.22692,0.87354 -3.67519,-0.32747 -7.61936,1.29211 -10.62995,3.36395 -1.03218,0.4306 -2.55967,0.87049 -3.43738,1.10181 0.31771,-0.70793 -0.83751,0.38566 -0.96113,0.139 -1.3269,0.6237 -2.90995,1.30118 -4.68784,1.81735 -0.51599,0.80979 -2.01408,0.88025 -2.43747,0.7097 -1.19398,1.50439 -1.68519,0.91206 -3.25319,1.87883 -1.76832,0.22329 -3.06076,1.58397 -4.97229,1.64818 -1.74805,0.91195 -4.14403,0.18051 -5.42419,1.31205 -2.67718,0.31737 -5.16467,-0.19386 -7.90484,0.1418 -1.18848,1.13085 -1.88707,-1.12255 -3.41398,-0.99111 -1.4414,-1.90875 -4.1463,-1.33867 -5.9633,-2.15343 -0.399,-0.22779 -1.99679,-0.24617 -1.74499,-1.24893 -0.42596,-0.2932 -1.95253,-0.26497 -2.32118,-1.24517 0.46326,-0.21604 -0.48582,-1.68711 0.26068,-2.61991 0.34375,-1.68592 0.62074,-5.63123 -0.82306,-6.11557 -1.90998,2.16116 -0.69083,5.81629 -1.18012,8.19646 0.55161,1.35361 -1.77633,0.82173 -0.16023,3.05886 -0.61992,2.8253 1.87028,5.99852 -1.32224,7.71099 -2.44057,1.4895 -5.89463,0.77543 -8.50858,1.62241 -0.0964,-0.21326 -2.47335,0.71429 -1.66397,0.20878 -1.58238,-0.72173 -1.00536,0.23876 -2.81158,-0.15607 -0.24457,0.98104 -0.50244,-0.9579 -0.86842,0.76143 -0.28562,1.35339 -0.87658,2.16601 -2.01268,2.80974 -1.6297,0.13747 0.35523,1.72862 1.56674,1.03842 1.03294,-0.28879 1.39137,0.15389 2.25832,0.4295 -0.18957,-0.82494 2.12199,1.24286 2.75273,0.6399 2.94602,-0.0436 5.8175,-0.58108 8.53472,-0.44247 1.04363,-0.46286 1.22223,-1.63168 0.37295,-2.06371 -2.1299,0.60553 -4.13056,0.34846 -6.02788,0.0259 -1.44229,0.0433 -3.84848,0.85073 -4.74361,-0.88683 0.38736,-0.65118 1.02195,0.11891 1.68295,-0.51878 0.10745,0.72078 1.23455,-0.73182 1.93623,-0.207 0.80832,-0.16177 1.90266,-0.30128 2.4702,-0.22529 2.12838,0.95852 4.68099,-0.52571 6.74048,-0.48505 0.52606,-1.11252 2.51311,-0.70899 3.04177,-2.21201 1.81013,0.0287 0.18403,-3.88942 0.33304,-4.64765 -0.35127,-0.81684 -2.85142,-3.26976 -0.29132,-2.19941 0.7076,0.37563 0.82874,-0.18305 1.59775,0.59583 1.34525,-0.14617 2.64562,0.9519 3.67733,1.1254 -0.59183,0.96243 0.24634,-0.10044 0.30936,0.5764 0.77632,0.297 1.98084,0.60213 2.31555,1.5477 0.1957,-0.94183 0.72779,0.5184 1.45333,-0.0597 1.0438,0.4187 2.4405,-0.18674 2.79693,0.35615 1.26237,0.14669 2.59341,-0.15995 3.5238,0.27707 0.66159,-0.90401 2.57425,0.35334 2.71082,-0.35766 2.09838,0.51637 4.71011,-0.83969 7.08534,-1.14526 0.63808,-0.1 3.1893,-0.50563 3.48248,-1.037 1.61472,-0.098 3.58157,-0.32937 5.04318,-0.76416 2.56122,-0.64068 5.74042,-2.82882 8.55351,-4.06768 0.76216,0.0671 2.15816,-1.01334 2.34895,-0.68362 0.79954,-0.30165 1.4186,-0.81953 1.72807,-1.03733 0.73025,1.39205 0.58347,-1.05731 1.34239,-0.47499 1.64626,-0.4637 2.93983,-1.76188 4.31229,-1.9533 2.53838,-0.21682 5.29936,-0.6222 7.8162,-1.50604 1.10875,-0.10665 1.48611,-0.12571 1.81985,0.0243 0.9463,-0.34522 1.41983,-0.42387 2.39355,-0.39611 0.44923,0.29504 1.94955,-0.16752 2.19851,0.22091 0.78623,-0.46477 1.47983,0.62801 2.56581,0.008 -0.79046,-0.63416 1.07112,0.78314 1.11501,-5.4e-4 1.1079,-0.10982 3.14862,0.33927 3.78264,0.83509 0.0557,-0.13082 2.19622,1.13666 2.15732,0.34855 0.41674,0.57604 1.08366,-0.31517 1.65591,0.49178 2.61161,-0.46969 -0.85772,-2.19032 -1.28695,-2.23906 -0.25813,-0.79805 -1.40451,-1.70872 -1.66355,-1.83625 -1.67654,0.43527 -4.22946,-0.40749 -6.01006,-0.87917 -0.60914,0.75578 -2.93985,-0.84844 -2.62433,-0.0698 -1.76144,-0.613 -3.94627,1.65143 -6.06874,0.71018 -2.40813,0.40536 0.21095,-1.69417 1.14177,-1.02792 1.39353,0.0296 2.09077,-2.1746 3.61803,-2.20615 0.17131,-0.0136 2.59597,-1.73763 2.17148,-1.77929 1.33439,-0.57834 3.03958,-1.58211 3.37606,-1.91839 1.73119,-1.15181 3.95214,-2.4932 5.84715,-3.45206 -0.0819,-0.74473 1.89214,-0.69389 2.14968,-1.70611 0.73032,-0.24468 1.62834,-1.66094 0.29174,-1.59846 z M 127.65832,246.6547 c -1.68532,0.95691 -0.18376,2.71317 -0.0767,3.72705 2.57248,-1.30269 5.06973,0.0102 7.49701,0.41942 2.80234,0.68479 6.1631,2.31595 8.60627,0.48686 0.68227,-0.19101 -0.10202,-0.88568 -0.22975,-0.43522 -0.81098,-0.71236 -3.80758,-0.31943 -5.45366,-0.91546 -1.92571,-0.12221 -3.64223,-1.19593 -5.91167,-1.74733 -1.45934,0.25493 -3.19954,-0.50703 -3.84807,-1.29356 0.37295,0.13972 -0.71587,-0.43071 -0.58341,-0.24176 z m 54.01495,5.9514 c 1.16677,0.95044 -1.49644,1.96468 -2.12134,1.48328 -0.15284,0.17516 -3.01885,0.0716 -1.94367,0.17116 -1.77418,-1.68642 2.26643,-0.70808 3.10011,-1.25646 -0.27356,-0.84165 1.00994,0.2583 0.9649,-0.39798 z m -70.83861,12.09256 c -1.11424,0.76025 -2.62665,0.71647 -2.84675,2.06347 0.14622,-1.29951 0.46354,0.5807 1.09731,-0.20198 0.79934,0.003 3.69734,-0.0968 2.91704,-1.69955 -0.30148,0.42802 -0.75631,-0.31535 -1.1676,-0.16194 z" />
</svg>