<?xml version="1.0" encoding="UTF-8"?>
<svg 
class="svg-include"
id="Layer_1" xmlns="http://www.w3.org/2000/svg" version="1.1" viewBox="0 0 612 792">
  <g>
    <path fill="currentColor" d="M297.3,37.6c2.9,2.57-5.38,12.28,3.07,13,12.02-2.88,31.04-15.8,43.3-12.87,1.13.27,5.16,2.83,5.57,3.66.69,1.43.09,3.26.47,4.81,3.89,15.95,29.49,3.52,40.26,5.89,2.01.44,3.45,1.98,3.13,4.11-.54,3.59-10.68,6.18-4.46,10.41,2.23,1.52,12.47,4.09,15.4,4.38,10.56,1.06,17.48-1.79,27.74,3.91,2.56,1.42,2.72,4.86,2.86,7.68.47,9.4-6.07,24.4,4.38,29.91,2.81,1.48,10.67,2.86,10.67,6.38,0,2.93-2.01,2.17-3.19,3.3-2.32,2.21-2.87,18.63-1.71,22.13.76,2.31,4.57,2.61,4.32,6.17-.09,1.34-2.32,5.42-2.86,7.73-2.05,8.73-.33,9.39,1.37,16.89,2.54,11.18-3.11,14.17-4.25,23.74-.42,3.55-.08,7.14-.19,10.7,14.27-2.09,23.43,13.99,21.59,26.53-1.52,10.4-15.45,21.23-24.21,25.9-5.98,3.19-15.5,5.45-20.13,9.57-3.58,3.18-5.37,11.56-7.46,16.25-5.68,12.68-10.6,18.34-21.93,26.2-2.19,1.52-14.06,8.01-14.51,8.73s-1.18,5.32-1.25,6.5c-.62,10.48,5.25,28.64,11.87,36.9,2.92,3.65,14.96,14.29,19.46,14.18,1.12-.03,1.73-1.38,2.79-1.79,5.3-2.05,23.73,5.04,30.48,6.76,15.26,3.89,30.86,6.78,46.34,9.71,2.13.72,12.9,16.99,15.39,20.21,13.93,18.02,28.42,35.35,41.68,53.93,6.83,9.56,13.28,21.23,20.56,30.21,1.39,1.71,3.95,1.76,3.2,4.48-.67,2.4-14.51,10.83-17.03,13.32,8.84,13,17.25,27.86,23.63,42.3,1.73,3.91,8.82,21.11,8.04,24.19-.29,1.14-3.25,1.37-3.62-.26-7.53-22.41-18.48-43.76-31.74-63.25-22.49,15.03-45.57,28.89-69.06,42.32-4.35,2.48-6.28,5.92-11.84,4.99-1.42-.24-5.82-2.03-7.05-2.84-2.59-1.7-10.86-12.28-10.47-14.98,1.22-8.49,8.4,6.43,9.42,7.46.93.93,1.46,1.69,2.8.81l91.15-67.85-.29-1.54c-20.38-30.88-44.68-58.79-66.01-88.96-20.91-5-42.47-7.73-62.89-14.58-9.72,20.06-25.61,37.15-44.64,48.67-40.04,24.22-108.34,4.76-137.35-29.87-1.67-2-.73-3.78-4.21-3.6-3.66.19-1.91,2.29-2.53,4.77-1.31,5.26-9.26,9.42-12.81,13.24-6.58,7.06-10.45,24.81-23.35,18.6-5.43-2.61-9.6-12.9-16.6-12.11-.87.1-6.48,2.19-6.94,2.68-1.7,1.83-4.74,17.38-2.13,20.27l5.95-8.22c2.65-2.37,8.37-10.79,9.11-2.82-2.14,5.83-9.24,18.67-8.44,24.51.42,3.08,9.54,18.79,11.73,22.59,1.08,1.86,6.59,11.61,7.7,12.08,8.38-13.4,17.77-26.38,29.33-37.26,1.59-1.49,10.54-8.23,10.9-8.86.44-.77-1.37-3.04,1.3-6.64,10.22-13.79,29.47,4.76,38.64,10.18,10.72,6.34,30.36,5.68,36.88,15.21,5.35,7.82-3.35,11.06-7.53,16.22-3.82,4.71-8.69,16.41-13.33,18.98-6.79,3.76-12.12-2.2-18.54-3.04-8.8-1.14-19.11,2.88-27.81-3.18-9.51-6.62-4.62-20.25-13.6-29.26-1.84-1.84-1.4.02-2.25.94-8.2,8.76-16.26,21.15-20.29,32.49-2.76,7.78-4.52,12.51,1.54,19.3.84-.24,1.69-.66,2.58-.68,25.09-.49,59.21-.54,83.05,7.29,2.91.96,3.78,1.81,4.26,4.97.96,6.24,2.77,21.28,2.08,27.02-.41,3.4-5.1,3.7-5.34,4.69-.71,2.94.14,11.32.06,15.08-.07,3.07-2.15,12.11.37,14.08l34.87,14.59c15.82,4.89,34.11-2.89,49.47-7.91,36.28-11.85,90.45-39.61,128.24-29.37,2.1.57,9.44,3.42,5.27,5.97-1.02.63-11.62-2.56-14.26-2.91-28.05-3.8-55.39,8.71-81.01,17.73-24.34,8.57-48.63,17.49-73.89,23.07-18.11.07-32.98-11.43-49.75-16.49-1.12,5.51.27,17.95-2.36,22.36-3.34,5.59-26.97,8.75-33.58,9.28-3.45.27-8.01-.54-11.17.04-2.05.38-6.9,4.91-4.59,5.24,13.51,1.18,27.34,1.13,40.81-.69,4.41,3.19.59,4.9-3.29,5.3-10.3,1.06-21.91.8-32.33.7-2.79-.03-5.25-.92-8.54-.67-2.53.19-10.39,1.85-6.94,5.6,5.34,5.79,38.13,5.87,46.52,5.63,1.89-.05,5.36-1.92,5.62.97.18,1.94-1.38,2.66-3.06,2.91-7.62,1.16-21.13.7-28.96.04-2.58-.22-14.27-2.75-15.14-2.59-3.2.63,2.28,5.71,3.37,6.44,8.87,5.94,30.22,6.82,40.8,6.74,1.68-.01,3.27-1.28,4.59-.05,3.59,3.35-3.21,4.49-5.25,4.66-4.35.37-11.36-.24-15.84-.69-6.32-.63-12.57-2.14-18.79-3.29,1.88,5.43,8.64,6.75,13.71,7.71,13.91,2.65,30.25,4.65,42.54-3.23,9.62-6.17,11.63-9.88,23.69-13.89,19.96-6.65,35.17-3.98,55.55-5.77,16.56-1.45,32.98-4.69,49.47-6.57,20.57-2.35,41.35-3.34,61.87-6.04,14.7-1.94,37.45-4.75,51.2-8.8,4.35-1.28,5.94-2.14,8.84-5.67,4.84-5.89,13.32-17.84,17.15-24.39,1.14-1.95,4.47-10.53,4.96-10.86,3.28-2.23,3.63,2.45,3.29,4.61-.7,4.47-18.51,29.82-22.39,34.31-3.13,3.63-4.97,4.88-9.6,6.23-14.58,4.24-37.96,7.18-53.45,9.19-20.52,2.66-41.29,3.77-61.87,6.04-14.74,1.63-29.4,4.59-44.2,5.91-24.1,2.15-43.04-1.42-66.05,8.46-9.57,4.11-16.06,13.95-26.55,16.31-9.91,2.23-23.75.32-33.89-1.13-2.11-.3-6.61-1.89-8.05-1.81-1.11.06-2.51,1.56-3.8,2.05-11.15,4.2-26.47,7.22-38.4,6.49-2.68-.16-7.61-1.72-9.83-1.36-1.39.22-5.26,3.87-7.01,4.91-4.21,2.49-20.99,9.61-25.28,8.95-1.76-.27-9.04-7.14-10.94-8.89-5.79-5.3-12.35-12.18-17.47-18.13-4.01-4.67-12.98-14.91-13.45-20.87-.52-6.52,9.85-39.13,14.76-43.14.74-.61,2.32-.45,2.34-.97-1.77-2.56-5.83-20.61-6.67-21.35s-5.69,1.06-6.42-1.16c-2.58-9.08-6.6-18.16-9.01-27.26-2.76-10.42-3.35-11.36,6.48-15.94,8.12-3.79,17.02-6.02,25.51-8.79-29.48,2.98-34.71-39.93-23.08-59.01-14.46,4.66-25.19,18.05-40.88,19.78,1.04,2.7,2.68,4.39,3.49,7.38,3.5,12.92-1.35,35.46-15.51,40.28-13.31,4.53-20.13-6.93-23.29-17.97-1.93-6.73,1-10.55-8.54-9.9-8.69.59-30.85,8.65-32.66-6.26-1.38-11.38,6.13-21.11,16.33-25.24,6.89-2.8,14.89-2,20.6-6.42-8.7-5.81-23.68-6.04-28.88-16.6-6.05-12.29,4.8-23.62,17.16-20.45,9.43,2.41,15.12,9.69,20.18,17.4,6.37,9.7,6.51,15.02,17.32,21.59,6.03,3.66,10.21,4.93,17.42,5.05,4.74.08,10.68-2.35,8.24-7.97-5.38,3.48-16.86-1.36-19.14-6.9-4.73-11.51-1.32-25.16,6.94-33.99,2.54-2.72,5.4-4.2,7.94-6.57,6.44-6.01,8-12.29,17.98-14.99,12.77-3.46,27.27,5.11,22.75,19.46-3.15,10.01-18.62,13.77-19.34,24.22-.27,3.87,1.83,8.09.02,12.18,11.61-5.43,22.49-13.16,35.6-14.51-7.02-28.02-8.32-57.17-12.54-85.71-12.96,8.88-16.24,28.89-36.25,20.76-4.77-1.94-5.92-5.28-11.86-3.27-11.09,3.76-8.49,15.3-14.54,23.04-18.68,23.9-79.2,12.08-73.68-20.93,2.46-14.72,29.11-15.89,37.32-27.3,9.74-13.53,10.87-28.81,30.16-33.8,19.62-5.08,34.47.74,49.66,12.88,4.06,3.24,9.43,10.17,12.91,12.14,1.31.74,2.82,1.08,4.29,1.3-.66-5.36-1.43-10.78-1.97-16.16-.33-3.32.08-10.22-.78-13.06-.38-1.25-6.43-6.28-7.99-11.79-6.32-22.27,6.21-25.49,19.63-37.47,12.31-10.99,12.29-28.9,22.12-41.18,10.85-13.55,26.44-15.66,42.84-13.53-1.92-4.69-5.39-8.64-7.57-13.2-1.88-3.93-7.26-18.28-7.62-22.07-.14-1.5-.17-3.91,1.35-4.67.9-.45,6.6,2.87,9.71-.45,5.35-5.71-12.68-25.24-8.77-30.86.91-1.32,3.85-.06,4.98-.94-4.15-4.38-6.61-10.38-6.59-16.48.04-10.09,7.27-3.61,7.9-4.29-1.21-6.25-3.46-12.79-.13-18.92,4.09-7.54,7.4,5.1,13.34-1.17,5.17-5.45,9.08-20.21,12.19-27.37,1.69-3.89,8.7-16.31,13.16-16.43s3.87,4.74,6.7,5.02c1.25.13,5.67-1.31,7.08-1.88,9.12-3.69,13.93-14.67,21.21-20.99,2.22-1.93,9.96-7.54,12.67-5.14ZM385.82,56.58c-12.07-.21-33.52,8.27-39.43-7.07-1.6-4.16.18-6.99-5.71-7.48-9.92-.82-25.31,9.05-34.94,11.94-6.77,2.03-11.8,1.55-13.92-5.93-.34-1.21.24-4.58-1.27-3.99-4.37,1.7-11.88,13.01-15.49,16.82-5.57,5.89-19.35,13.56-25.4,4.94-8.44,7.65-10.45,19.19-15.03,29.14-4.06,8.82-8.36,19.76-20.24,14.37-3.44,7.81,9.21,21.74-6.59,19.12-2.46,7.82,14.47,19.64,1.97,22.42,3.62,9.01,18.71,29.66.25,32.26-1.25.18-2.5-1.54-2.23.37.68,4.8,4.02,13.73,6.13,18.27,1.48,3.18,8.41,16,10.42,17.93.77.74,8.96,5.55,9.51,5.51,1.84-.15,3.01-7.42,3.3-9.06,1.31-7.32,1.42-16.62,1-24.11-.24-4.18-4.69-15.6,3.26-12.17-1.24-11.82-5.62-21.65-3.11-33.78,1.04-5.01,2.43-9.41,7.07-3.81,2.7-6.7,6.71-14.48,10.95-20.38,1.63-2.26,11.99-13.72,13.81-13.93,4.11-.48.6,5.45,3.92,5.95,3.29-3.8,6.03-7.93,9.89-11.22,2.93-1.01,8.58-9.1,11.6-6.95,1.4.99.56,7.79,4.83,6.94,3.74-.74,11.57-9.98,17.52-11.54,11.36-2.98,3.42,7.53,3.41,11.22-.02,5.11,4.62,6.19,8.85,4.98,9.75-2.79,23.86-13.85,34.23-11.88,6.44,1.22-1.4,8.94-2.69,11.12-.39.65-1.45,1.07-.27,1.72,2.37,1.31,14.1-3.48,18.25-3.59s11.16,2.02,13.76,5.21c1.76,2.15,1.55,4.18,2.81,6.42,3.24,5.79,11.09,4.84,13.85,11.86,3.2,8.11.74,17.99-1.84,25.91,12.54-5.32,6.46,8.57,5.94,14.85-.25,3.04-.42,14.73,1,16.78,1.14,1.65,2.84,0,3.44,3.63,1.95,11.76-2.39,24.11-7.09,34.63,1.78,1.87,9.58-15.21,10.87-3.3,2.96-5.13,15.21-6.08,16.12-11.57.77-4.64-.18-9.48,1-14.83.87-3.91,4.15-9.43,4.34-12.86.26-4.83-3.44-10.42-3.38-15.8.03-2.57,1-7.04,1.57-9.7.33-1.56,2.01-4.96,1.83-6.04-.05-.29-3.02-1.69-3.7-4.36-1.24-4.89-.49-16.19.52-21.28.43-2.19,1.6-3.67,1.81-5.77-11.41-2.73-14.45-9.66-13.87-20.8.24-4.58,3.76-15.18.52-18.6-.49-.52-6.03-2.8-7.1-3.11-5.49-1.58-12.03.12-18.03-.43-9.93-.92-30.4-6.09-18.22-19.03ZM318.57,96.14c-8.18,1.66-19.27,19.88-25.06,5.93-4.26,1.76-7.96,5.39-11.19,8.91-2.85,3.11-4.38,8.71-10.09,7.44-1.69-.38-2.88-2.34-3.54-2.46-.97-.17-6.39,5.73-7.38,6.99-3.88,4.95-10.6,16.72-12.31,22.63-1.35,4.65-.12,11.47-6.91,6.6-2.34,3.21,7.23,28.46,2.93,35.58-.7,1.16-2.54,1.4-2.88,2.45s.58,3.05.63,4.47c.32,11.21-.42,23.09-4.54,33.56,19.95,15.62,27.08,67.55-7.67,68.38-11.04.26-14.65-5.52-22.9-7.51-8.82-2.13-9.7,14.75-11.55,20.51-5.52,17.21-26.39,27.8-42.38,16.63.67,5.77.26,11.7.66,17.47,1.73,25.01,8.2,49.35,11.21,74.18l6.47-12.31c4.04-6.11,7.91-12.64,13.57-17.32.11-3.51,3.17-7.52,3.06-10.95-.09-3.09-9.27-8.72-11.91-11.17-6.83-6.32-12.19-12.75-7.14-22.32,4.51-8.54,17.66-10.99,25.29-5.71,10.89,7.54,9.27,19.96,7.21,30.96-.13.68-.87,2.16.36,2.01,4.08-7.94,8.28-16.23,10.23-25.05,2.34-10.62-.46-21.57,6.65-30.93,13.7-18.05,40.63-7.36,32.43,15.95-5.05,14.36-20.79,16.88-24.47,32.23-1.34,5.59-.65,10.4-4.39,15.39-3.01,4.01-11.91,9.56-16.89,10.15-3.43.4-7.75-1.42-8.83,2.7,9.2-2.86,19.27-4.04,28.14.55,1.54.8,5.43,4.4,5.79,4.46,2.86.44,12.79-2.94,17.16-3.07,3.19-.09,5.51,1.79,6.32,1.72,4.9-.44,20.63-11.21,24.7-14.85,10.21-9.13,15.58-22.16,14.81-35.94-.14-2.47-1.49-13.03-3.01-14.13-13.58-5.31-27.01-10.07-34.68-23.35-1.48-2.57-5.49-10.43-6.19-12.96-.78-2.84,1.53-5.28,3.35-3.32,1.34,1.45,4.26,10.19,5.71,12.75,6.7,11.85,16.6,15.99,28.73,20.72s27.64,11.07,41.21,8.57c22.33-4.1,60.78-16.6,73.83-36.28,14.24-21.46,15.55-48.96,23.59-72.67-2.99.88-4.55,6.15-8.18,4.87-1-.35-.94-1.75-1.1-1.87-.87-.61-9.91,7.51-12.98,4.42-2.77-2.8,3.18-9.68,4.57-12.58,2.66-5.56,7.97-22.24,4.81-27.46-.41-.68-1.7-.96-2.3-1.65-2.34-2.71-2.25-15.81-1.95-19.79.28-3.78,1.5-7.78,1.97-11.54-2.63-.17-4.02,4.67-5.73,5.18-4.37,1.31-3.12-5.45-2.67-7.98,1.44-8.13,4.86-12.5,3.79-21.93-.89-7.85-6.41-6.89-11.22-11.2s-3.49-9.16-10.19-11.57c-8.6-3.1-12.9,1.63-20.51,2.6-10.42,1.33-10.76-7.38-4.23-13.12-10.29.4-28.08,15.18-37.62,12.23-5.36-1.66-8.51-11.64-4.58-16.18ZM421.43,265.59c16.87-6.44,48.52-21.15,35.71-43.96-6.16-10.97-15.04-8.22-22.84-.86-4.4,4.15-6.43,12.66-7.83,18.55-2.04,8.64-2.78,17.67-5.04,26.27ZM149.2,320.42c1.24-1.93,3.3.6,3.92.83,8.91,3.4,12.01,7.31,22.04,3.69,18.83-6.78,14.36-19.55,20.95-33.12,8.19-16.86,19.89-.62,31.8.13,30.01,1.87,25.41-39.53,11.87-55.38-14.98-17.53-45.49-22.01-60.98-2.94-7.92,9.76-9.39,23.92-16.35,34.42-9.93,14.97-31.1,16.21-25.56,39.1.87,3.58,2.6,6.09,4.32,9.21,1.79.2,2.08-1.94,3.26-2.99,7.72-6.84,15.83-3.94,21.47-13.48,9-15.23,8.18-26.87,23.74-39.56,2.05-1.67,11.97-9.23,13.4-4.17.65,2.29-4.05,5.08-5.82,7.14-2.4,2.8-5.73,7.78-7.39,11.07-1.35,2.68-4.04,11.69-5.47,12.98-1.7,1.53-3.67.78-3.67-1.63,0-1.93,3.51-9.71,4.53-12.01.64-1.44,2.49-3.13,1.77-4.16-9.5,9.29-11.31,23.91-18.65,34.76-5.39,7.97-11.04,5.82-17.75,9.95-5.64,3.47-5.06,6.22-4.85,12.35,8.31,43.7,5.25,99.91,22.99,140.53,9.68,22.17,25.55,51.82,38.49,72.28.67,1.06,1.79,3.28,2.96,3.63,3.13.95,9.35-.1,12.06-2.18-16.86-22.01-32.42-46.2-45.17-70.87-5.78-11.18-10.89-21.03-13.31-33.5-2.38-12.29-3.56-24.92-5.58-37.28-3.92-24.01-8.17-45.34-9.15-69.97-.05-1.36-.17-8.37.12-8.83ZM203.18,384.27c3.3.2,6.9-1.5,9.69-3.16,12.6-7.53,6.98-15.91,12.86-26.7,5.88-10.8,20.65-15.11,22.79-28.64,1.74-10.99-7.69-18.15-17.82-13.87-13.19,5.57-12.16,20.88-13,32.82,2.57-2.75,12.59-15.29,15.59-15.66.43-.05,2,.37,2.13.57,1.35,2.13-5.11,10.46-6.4,12.89-7.67,14.43-14.07,29.96-25.83,41.75ZM371.32,337.13c-.37-3.89.27-8.25,0-12.2-17.07,5.97-37.95,14.29-56.3,12.45-6.05-.61-11.55-3.74-17.55-4.53-.6.65,1.28,10.87,1.34,12.82.49,16.5-6.92,31.02-19.86,40.86-6.35,4.83-13.73,8.84-21.05,11.93,11.21,16.02,29.74,24.79,48.25,29.55,39.26,10.1,63.69,2.32,87.86-29.28,3.44-4.5,6.02-9.71,9.6-14.13-12.65-6.1-22.55-15.93-27.51-29.17-1.81-4.84-4.3-13.28-4.78-18.3ZM131.97,348.66c1.8-1.39-16.71-14.12-18.27-15.02-17.14-9.83-40.8-9.98-52.41,7.98-4.44,6.86-9.03,19.35-15.37,24.19-10.39,7.93-37.15,10.93-31.64,28.35,6.99,22.13,50.65,27.23,64.92,9.55,6.27-7.77,3.94-22.24,17.78-25.08,9.66-1.98,10.45,3.4,17.8,4.69,4.69.82,8.09.36,11.6-2.98,4.14-3.95,8.08-10.92,12.48-15.22,1.19-1.17,5.97-3.97,6.17-5.01.63-3.26-3.58-1.97-5.48-2.23-11.16-1.51-19.38-3.6-30.8-1.11-15.33,3.34-32.81,17.13-43.4,28.47-1.55,1.66-3.6,5.86-5.69,6.11-2.8.34-2.62-2.29-1.85-4.42.88-2.42,6.94-10.43,8.89-12.86,6.84-8.55,18.76-19.73,29.01-23.74,12.19-4.77,23.62-3.59,36.25-1.67ZM197.24,369.76c2.61-8.55,3.87-16.62-1.68-24.35-9.02-12.55-30.07-1.15-21.02,11.79,1.37,1.96,5.59,5.94,7.53,7.63.73.64,7.46,6.13,7.92,5.59,1.38-4.5-1.65-11.84-1.31-15.48.51-5.52,6.33.21,6.41,3.47l2.15,11.35ZM108.23,351.97c-5.94.34-12.6,2.77-17.14,6.58l8.4-3.79,8.74-2.79ZM418.13,383.62c-2.97-2.15-10.58-.49-9.94,3.57.06.38,5.2,3.24,6.22,3.07.38-.06,3.95-6.32,3.72-6.64ZM191.31,390.22c-3.68,1.45-7.11,4.88-8.56,8.56l8.56-8.56ZM405.27,390.22l-4.27,6.26c1.13.67,5.32,4.48,6.2,4.27.37-.09,4.44-5.67,4.32-6.2l-6.25-4.33ZM185.05,406.69c4.18-.3,8.92,0,13.19,0,1.7,0,12.93,4.85,8.94,7.62-.6.42-11.96-.54-14.7-.19-4.47.57-11.81,3.18-15,6.42,5.61-1.81,10.74.87,14.83,4.63s7.92,12.68,14.52,5.27c4.14-4.65,6.09-11.18,11.11-16.26,5.07-5.14,16.57-9.44,7.24-16.6-11.44-8.78-34.9-2.6-42.41,9.45.55,1.09,1.87-.3,2.3-.33ZM253.29,401.41c-1.27-4.59-4.37-3.84-8.25-3.3-4.84.68.72,4.13,2.04,6.6l6.21-3.3ZM393.08,407.34c2.25.01,3.34,3.8,5.47,3.24,1.77-.46,4.15-4.99,5.73-6.19,0-.35-5.25-4.29-5.6-4.26-.45.04-4.9,6.23-5.6,7.21ZM256.58,404.06l-5.92,3.3c-.15.22,2.2,2.77,2.66,2.99,1.51.75,5.23-2.87,5.23-3.33,0-.28-2.23-1.79-1.96-2.96ZM261.53,410c-.3,0-2.93,3.11-3.62,3.62,3.42,3.01,5.37,5.28,8.55.66-.96-.48-4.61-4.28-4.93-4.28ZM361.44,436.37c1.63,1.27,31.37-17.71,33.6-22.09-1.56-1.17-2.96-4.38-5.25-3.32-1.74.8-6.18,7.03-8.24,8.94-5.78,5.38-13.92,10.08-21.45,12.52.15.63,1.17,3.82,1.33,3.95ZM168.23,430.43c.57-6.54,3.86-12.37,5.93-18.46-3.04,3.61-5.74,10.89-6.53,15.55-.11.65-.58,3.04.6,2.9ZM112.2,468.01c9.71-2.89,5.34-7.99,6-14.76,1.32-13.49,15.91-15.56,19.36-24.81s-6.35-15.64-14.99-14.33c-9.8,1.49-12.38,9.25-18.6,15.02-2.55,2.36-5.49,3.81-7.94,6.57-9.71,10.93-12.16,36.01,8.18,33.57-.53-5.99-.97-13.52.75-19.35.86-2.9,4.13-2.69,4.46.12.27,2.32-.82,5.26-.46,8.35.4,3.42,2.36,6.38,3.23,9.63ZM274.97,419.96c-.16-.28-5.21-3.37-5.53-3.34-.46.04-1.59,2.42-2.21,2.94,0,.73,4.84,3.44,5.64,3.51,1.32.12,2.75-2.01,2.11-3.11ZM285.56,425.87c-.2-.28-5.77-2.63-6.26-2.69-1.1-.14-1.48,1.07-1.51,1.78-.09,2.16,5.53,2.76,6.83,4.16.61-.46,1.25-2.81.94-3.24ZM298.78,434.39c.1-1.22,1.38-2.68.01-3.64-.33-.23-7.16-2.27-7.66-2.29-2.07-.1-3.38,1.72-1.39,2.78,2.47,1.32,6.4,1.94,9.04,3.15ZM356.05,434.5c-.79-.5-16.09,1.75-18.7,1.86-6.16.27-12.87.11-18.95-.82-3.56-.55-10.41-3.19-13.42-3.1-1.19.04-2.27,1.82-2.25,2.93,0,.6,10.5,2.57,11.74,2.78,14.05,2.41,29,3.13,43,.19.24-.24-1.25-3.73-1.42-3.84ZM79.22,481.2c.26-1.2-.37-1.29-1.1-1.86-2.06-1.61-4.93-2.84-7.12-4.75-5.7-4.97-7.1-10.63-11.02-16.67-4.34-6.69-12.71-17.15-21.36-17.56-3.78-.18-9.48,3.55-10.12,7.59-2.23,14.11,17.42,15.58,26.28,20.45,7.48,4.12,7.73,6.74,12.6,12.46,4.99,5.85,5.92,1.38,11.85.34ZM242.08,447.57c8.5,2.22,15.06,8.51,22.84,12.44,5.68,2.87,15.82,5.81,20.62,9.05,3.21,2.17,2.91,5.62-1.43,4.75-9.31-1.87-23.22-10.43-33.12-13.72-2.87-.95-6.61-2.81-9.55-1.61-.34.14-3.8,2.89-4.03,3.22-2.03,3,3.07,7.22,4.55,10.05,3.75,7.15,1.93,16.7,7.72,21.3,7.9,6.28,21.73,1.12,31.45,4.16,3.04.95,5.54,3.68,8.95,2.7,4.21-1.2,10.42-14.82,14-19.01,4.6-5.39,12.28-6.99,3.08-13.01-7.2-4.71-17.81-4.27-25.96-7.66-10.45-4.35-20.98-17.58-32.3-17.69-2.76-.03-7.1,1.74-6.81,5.03ZM159.55,456.26c-3.25-2-18.02,4.92-21.66,6.8-2.53,1.3-5.81,3.06-7.9,4.95,10.21-3.3,20.79-6.34,31.65-5.93.25-.22-1.82-5.65-2.08-5.82ZM232.19,460.77c-1.24-.29-1.57.69-2.31,1.31-11.7,9.84-20.97,24.58-29.51,37.14-.67,1.89,3.12,6.76,4.46,8.36,4.59-17.85,15.28-33.23,27.36-46.8ZM151.75,467.36c-.37-.33-8.55,1.41-9.62,1.91-2.53,1.21-6.5,9.57-7.33,12.45-3.97,13.71-.08,45.49,19.2,44.91,5.32-.16,13.56-6.47,13.58-12.13.02-4.4-3.77-13.35-4.84-18.25-2.18-10.07-2.44-18.86.21-28.9-5.9,5.43-10.83,13.79-14.15,21.12-1.06,2.35-2.36,9.83-5.17,9.14s-1.4-7.68-1.02-10.06c.61-3.88,1.85-8.04,3.62-11.54,1.59-3.16,4.16-5.48,5.52-8.65ZM192.63,523.4l-26.37-50.1c-.56,4.46-.95,8.91-.58,13.43,1.23,15.11,13.71,29.05-1.08,40.63-1.41,1.1-3.41,1.33-4.28,2.63l32.31-6.59ZM67.35,488.44c.66-.95-2.58-3.42-3.27-4.29-1.1-1.39-4.93-7.74-6.19-7.51-.31.06-3.45,2.63-5.33,3.28-7.31,2.52-15.32,1.93-22.06,6.95-5.36,3.99-11.69,12.89-7.88,19.63,4.05,7.17,20.04.91,26.63.43,15.39-1.13,11.26,8.02,15.64,18.62,2.96,7.17,7.8,12.68,16.13,9.19,11.39-4.78,15.73-27.05,10.64-37.27-.19-.39-4.55-6.1-4.85-6.36-2.54-2.14-10.53-1.47-13.64-.49-3.18,1-8.26,6.53-10.39,5.45-4.07-2.07,1.83-7.17,4.6-7.63ZM100.32,485.16c-1.77-.01-17.78-1.46-17.81-.34,4.27,1.42,8.74,2.56,13.23,2.01.94-.12,4.13-.72,4.57-1.67ZM557.27,506.26c.29.2,3.82-2.28,3.82-2.96,0-.58-6.21-9.39-6.79-9.44s-3.52,2.3-3.52,2.83l6.49,9.57ZM546.5,499.09c-.48.08-3.69,2.54-3.69,2.88,0,.61,6.48,9.63,7.4,9.48.48-.08,3.59-2.41,3.63-2.87.06-.74-6.19-9.67-7.34-9.49ZM539.13,504.41l-7.58,5.52c-.15.65,6,9.28,7.01,9.45.84.14,6.24-4.09,7.45-4.87l-6.88-10.1ZM534.1,522.67c.36-.61.02-1.3-.26-1.89-.53-1.11-5.62-8.04-6.49-7.88l-64.38,48.73c5.31,3.25,8.38-1.19,12.99-3.81,19.72-11.21,39.09-22.85,58.14-35.15ZM160.32,551.74c2.28.6,4.92,1.24,7.23.31,8.27-7.73,19.27-13.79,27.54-21.25,2.06-1.86,2.06-3.01-1.12-2.44-11.28,7.68-23.23,14.52-33.64,23.38ZM178.78,530.66c-5.25.04-9.09,2.15-13.39,4.73-6.69,4.01-14.04,9.56-19.57,15.04,2.84-.46,5.59,1.64,8.16-.08l24.81-19.69ZM298.78,534.61c-13.98,6.19-28.74,10.49-43.63,14.05-29.7,7.1-60.6,10.65-91.2,8.35-11.69-.88-23.34-2.85-34.62-5.93l9.23,28.01c15.57,3.35,31.5,3.88,47.38,4.38.66.85.78,3.63-.35,3.9l-39.79-1.68c4.91,13.57,9.21,30.75,17.27,42.74,6.9,10.25,12.07,7.04,21.42,1.89,8.26-4.56,17.48-15.52,18.69,2.52.33.47,5.83-5.7,8.84-.61.6,1.02,2.14,6.89,2.31,8.24.34,2.81-.8,5.12-.6,7.14.34,3.42,2.41,5.85,1.98,10.61-.48,5.19-4.42,6.93-5.14,9.36-.68,2.26.21,5.86-.17,8.41-.21,1.44-1.35,2.23-1.29,3.65,10.11,1.55,20.4.6,30.34-1.64,2.4-.54,9.52-2.16,11.21-3.3,1.55-1.05-1.23-1.93-1.75-2.55-.68-.79-3.26-4.2-3.42-4.89-.3-1.31.75-3.14.54-3.42-.14-.19-3.09-1.1-4.28-2.01-2.7-2.07-4.52-4.46-5.45-7.74-.33-1.15.09-2.64-.27-3.69s-2.08-1.48-2.89-2.39c-3.3-3.67-1.72-9.21,2.54-11.37,1.75-.89,5.21-1.01,5.63-1.29.33-.22.97-3.86,1.78-5.15,1.13-1.79,3.76-3.13,5.39-4.5,14.8-.83,30.06-.94,43.77-7.17,3.08-17.24,2.01-34.9,3.23-52.32-13.91,4.87-27.28,10.56-41.66,14.05-3.56.87-19.45,4.97-21.67,3.45-1.91-1.31-.42-3.15,1.47-3.87,6.65-2.53,18.26-3.68,25.87-5.77,13.89-3.81,27.36-9.39,40.49-15.22l-1.21-24.29ZM254.61,535.27c-3.44,1.36-6.65,3.71-9.71,5.78s-6.34,4.19-8.76,6.73c7.01-1.17,12.91-8.27,18.46-12.51ZM153.72,537.25c-4.43,1.11-8.65,5.33-11.86,8.56l11.86-8.56ZM188.67,553.06c5.15.93,10.8-4.83,14.44-8.3,2.11-2,1.34-3.56-1.08-2.4-3.89,1.86-9.95,7.79-13.37,10.7ZM211.09,547.14c-3.01.09-6.1,2.96-7.91,5.26,3.1-.01,5.84-3.16,7.91-5.26ZM200.95,640.5c-9.94,7.51-23.48,15.43-36.37,15.45-2.03,0-9.56-.95-9.55-3.65,1.28-4.24,6.08-1,9.57-.94,7.64.13,17.9-4.13,24.52-7.85s11.03-5.67,9.44-14.29c-.73-3.96-5.82,1.3-7.96,2.58-3.04,1.82-6.13,3.7-9.39,5.12s-8.41,3.71-11.68,2.86c-10.9-2.83-15.29-20.25-19.73-29.05-.31-.62-.42-1.56-1.34-1.62-1.14,2.81-2.85,5.35-4.08,8.13-2.72,6.14-9.77,25.78-9.07,31.7.63,5.28,11.53,17.84,15.43,22.16,5.26,5.82,14.2,15.3,20.11,20.11.87.71,2.23,2.01,3.36,1.99,3.15-.05,17.13-6.07,20.4-7.92,5.09-2.89,12.71-8.28,11.85-14.85-6.88,3.2-14.27,6.75-21.75,8.25-2.08.42-10.19,2.68-9.15-1.23.53-1.99,11.22-3.66,13.93-4.54,8.46-2.76,25.19-8.79,20.92-20.28-11.24,6.19-24.09,14.31-37.25,15.15-2.46.16-11.63.2-10.16-4.2.63-1.9,7.83-.28,10.16-.41,6.13-.35,14.08-3.49,19.69-6.01,3.37-1.52,15.43-7.56,16.6-10.44,1.56-3.83.45-8.43-1.33-11.87-.53-.03-6.13,4.86-7.18,5.65Z"/>
    <path fill="currentColor" d="M355.43,286.08c2.22,1.62-1.05,4.08-2.58,4.89-4.56,2.42-27.9,9.54-32.63,9.56s-26.48-5.58-30.84-8.06c-3.02-1.71-1.85-4.46,1.07-4.44,2.66.02,10.11,3.5,13.47,4.4,4.19,1.13,12.94,3.68,16.92,3.51,4.69-.2,17.74-4.53,22.92-6.14,1.99-.62,10.49-4.58,11.66-3.72Z"/>
    <path fill="currentColor" d="M284.11,174.74c3.87-.78,7.34,2.1,4.16,5.49-2.88,3.08-20.3,14.64-24.39,16.48-9,4.04-10.83-1.43-5.23-7.21,2.59-2.67,22.11-14.09,25.47-14.76Z"/>
    <path fill="currentColor" d="M357.3,171.46c1.25-.23,2.49-.3,3.75-.12,3.64.51,21.72,11.71,23.37,14.88,2.2,4.23-.04,6.18-4.41,5.07-3.95-1.01-25.65-12.84-26.4-15.84-.59-2.34,1.8-3.64,3.69-3.99Z"/>
    <path fill="currentColor" d="M345.43,199.83c.54.54.84,2.09,1.8,3.14,7.14,7.89,18.48,11.17,28.9,11.32,6.03,6.27-6.63,4.31-10.24,3.64-6.51-1.2-21.58-7.7-23.88-14.36-1.25-3.61.87-6.3,3.43-3.75Z"/>
    <path fill="currentColor" d="M292.64,204.99c2.18-.57,3.23,1.87,2.51,3.86-1.91,5.3-13.94,12.95-19.41,14.24-3.26.77-15.67,1.68-15.24-3.32.28-3.33,7.47-.25,10.16-.39,4.52-.24,10.77-3.38,14.29-6.21,1.58-1.27,7.15-8.05,7.69-8.19Z"/>
    <path fill="currentColor" d="M304.89,261.47c-1.21-1.27-1.57-4.26.93-4.27,1.94,0,6.92,3.42,10.43,3.77s6.51-.4,9.76-1.45c1.41-.46,5.48-3.96,5.79-.18.45,5.58-14.91,6.02-18.68,5.43-1.24-.19-7.55-2.59-8.23-3.3Z"/>
    <path fill="currentColor" d="M272.87,283.46c4.42-1.14,4.86,10.98.15,7.56-.77-.56-3.09-6.8-.15-7.56Z"/>
    <path fill="currentColor" d="M369.51,280.28c3.47-3.18,4.74,1.76,2.75,5.05-2.53,4.19-6.09-1.99-2.75-5.05Z"/>
    <path fill="currentColor" d="M217.76,192.48c-1.69,2.32,5.38,11.43,5.25,13.42-.13,1.85-1.86,2.02-3.34,1.33-2.26-1.05-7.4-13.94-7.31-16.46.22-6.04,5.16-2.42,5.96-2.99.65-.46.97-10.96,4.35-7.95,2.38,2.12.1,9.67-2.38,11.57-.71.55-2.39.9-2.53,1.09Z"/>
    <path fill="currentColor" d="M231.7,150.03c-2.49-2.54,4.01-19.18,7.03-20,2.29-.62,2.7-.37,3.68,1.7,1.54-.66,2.3-7.38,5.65-4.99,2.35,1.67-2.24,9.56-4.48,10.17-1.98.54-3.43-1.38-4.15-.94s-3.25,7.51-3.65,8.91-.5,8.79-4.08,5.14Z"/>
    <path fill="currentColor" d="M419.23,166.76c4.26-1.08,1.56,6.92,1.5,8.82-.19,5.84,2.56,5.25,4.67,9.22,3.44,6.48-1.28,14.37-3.68,9.56-.62-1.23.85-4.29.2-6.74-.73-2.71-4.58-4.31-5.07-7.45-.39-2.46-.32-12.72,2.38-13.41Z"/>
    <path fill="currentColor" d="M249.34,76.35l-5.25,16.85c-1.6.72-3.04.51-3.36-1.37-.47-2.77,4.32-17.23,6.32-19.39,2.37-2.56,3.19-.38,5.31.56,1.67.74,4.78.49,4.14,2.93-.74,2.82-5.48,1.82-7.16.43Z"/>
    <path fill="currentColor" d="M393.8,78.39c.66-1,21.35-1.7,24.01-1.39,2.24.26,5.43,1.9,2.68,4.02-1.31,1.01-7.47-.15-9.98-.08-2.75.08-15.26,1.85-16.49.07-.35-.51-.52-2.17-.22-2.62Z"/>
    <path fill="currentColor" d="M330.44,99.43c1.17,1.3,8.47-7.77,9.83-3.54,1.03,3.18-10.11,11.81-13.29,6.01-2.48-4.53,1.08-13.41,4.45-10.37,2.08,1.88-2.05,5.22-1,7.91Z"/>
    <path fill="currentColor" d="M400.66,88.88c-1.54-.46-1.45-3.23.49-4.13,1.67-.77,12.25-.86,12.93.27,1.04,1.73-.19,3.86-2.21,3.86-2.44,0-9.55.5-11.21,0Z"/>
    <path fill="currentColor" d="M440.96,225.42c3.99-1.3,4.71,5.21,4.06,8.05-.95,4.16-9.69,5.82-9.7,10.69,0,1.63,4.07,5.95.27,6.31-3.42.32-4.55-5.41-4.12-8.13,1.06-6.6,7.93-7.05,9.43-10.41.85-1.92-2.77-5.59.06-6.52Z"/>
  </g>
</svg>